<svg width="20px" height="20px" viewBox="0 0 20 20" fill="#FFFFFF" xmlns="http://www.w3.org/2000/svg" xmlns:xlink="http://www.w3.org/1999/xlink">
  <g transform="translate(-670.000000, -8017.000000)">
    <g transform="translate(0.000000, 7837.000000)">
      <g transform="translate(630.000000, 180.000000)">
        <g transform="translate(40.000000, 0.000000)">
          <path class="svg-patch" d="M6.66720517,10 C6.66720517,8.15912763 8.15912763,6.66639742 10,6.66639742 C11.8408724,6.66639742 13.3336026,8.15912763 13.3336026,10 C13.3336026,11.8408724 11.8408724,13.3336026 10,13.3336026 C8.15912763,13.3336026 6.66720517,11.8408724 6.66720517,10 M4.86510501,10 C4.86510501,12.8360258 7.16397415,15.134895 10,15.134895 C12.8360258,15.134895 15.134895,12.8360258 15.134895,10 C15.134895,7.16397415 12.8360258,4.86510501 10,4.86510501 C7.16397415,4.86510501 4.86510501,7.16397415 4.86510501,10 M14.138126,4.66155089 C14.138126,5.32390953 14.6752827,5.86187399 15.3384491,5.86187399 C16.0008078,5.86187399 16.5387722,5.32390953 16.5387722,4.66155089 C16.5387722,3.99919225 16.0016155,3.46203554 15.3384491,3.46203554 C14.6752827,3.46203554 14.138126,3.99919225 14.138126,4.66155089 M5.95961228,18.1397415 C4.98465267,18.095315 4.45476575,17.9329564 4.10258481,17.7956381 C3.63570275,17.6138934 3.30290792,17.3974152 2.95234249,17.0476575 C2.60258481,16.6978998 2.38529887,16.365105 2.20436187,15.8982229 C2.06704362,15.546042 1.90468498,15.0161551 1.86025848,14.0411955 C1.81179321,12.9870759 1.80210016,12.6704362 1.80210016,10 C1.80210016,7.32956381 1.81260097,7.01373183 1.86025848,5.95880452 C1.90468498,4.98384491 2.06785137,4.45476575 2.20436187,4.10177706 C2.38610662,3.63489499 2.60258481,3.30210016 2.95234249,2.95153473 C3.30210016,2.60177706 3.63489499,2.38449111 4.10258481,2.20355412 C4.45476575,2.06623586 4.98465267,1.90387722 5.95961228,1.85945073 C7.01373183,1.81098546 7.33037157,1.80129241 10,1.80129241 C12.6704362,1.80129241 12.9862682,1.81179321 14.0411955,1.85945073 C15.0161551,1.90387722 15.5452342,2.06704362 15.8982229,2.20355412 C16.365105,2.38449111 16.6978998,2.60177706 17.0484653,2.95153473 C17.3982229,3.30129241 17.6147011,3.63489499 17.7964459,4.10177706 C17.9337641,4.453958 18.0961228,4.98384491 18.1405493,5.95880452 C18.1890145,7.01373183 18.1987076,7.32956381 18.1987076,10 C18.1987076,12.6696284 18.1890145,12.9862682 18.1405493,14.0411955 C18.0961228,15.0161551 17.9329564,15.546042 17.7964459,15.8982229 C17.6147011,16.365105 17.3982229,16.6978998 17.0484653,17.0476575 C16.6987076,17.3974152 16.365105,17.6138934 15.8982229,17.7956381 C15.546042,17.9329564 15.0161551,18.095315 14.0411955,18.1397415 C12.9870759,18.1882068 12.6704362,18.1978998 10,18.1978998 C7.33037157,18.1978998 7.01373183,18.1882068 5.95961228,18.1397415 M5.87722132,0.0605815832 C4.81260097,0.10904685 4.08562197,0.277867528 3.44991922,0.525040388 C2.79240711,0.780290792 2.23505654,1.12277868 1.67851373,1.67851373 C1.12277868,2.23424879 0.780290792,2.79159935 0.525040388,3.44991922 C0.277867528,4.08562197 0.10904685,4.81260097 0.0605815832,5.87722132 C0.0113085622,6.94345719 0,7.28432956 0,10 C0,12.7156704 0.0113085622,13.0565428 0.0605815832,14.1227787 C0.10904685,15.187399 0.277867528,15.914378 0.525040388,16.5500808 C0.780290792,17.2075929 1.12197092,17.7657512 1.67851373,18.3214863 C2.23424879,18.8772213 2.79159935,19.2189015 3.44991922,19.4749596 C4.08642973,19.7221325 4.81260097,19.8909532 5.87722132,19.9394184 C6.94426494,19.9878837 7.28432956,20 10,20 C12.7164782,20 13.0565428,19.9886914 14.1227787,19.9394184 C15.187399,19.8909532 15.914378,19.7221325 16.5500808,19.4749596 C17.2075929,19.2189015 17.7649435,18.8772213 18.3214863,18.3214863 C18.8772213,17.7657512 19.2189015,17.2075929 19.4749596,16.5500808 C19.7221325,15.914378 19.8917609,15.187399 19.9394184,14.1227787 C19.9878837,13.0557351 19.9991922,12.7156704 19.9991922,10 C19.9991922,7.28432956 19.9878837,6.94345719 19.9394184,5.87722132 C19.8909532,4.81260097 19.7221325,4.08562197 19.4749596,3.44991922 C19.2189015,2.79240711 18.8772213,2.23505654 18.3214863,1.67851373 C17.7657512,1.12277868 17.2075929,0.780290792 16.5508885,0.525040388 C15.914378,0.277867528 15.187399,0.108239095 14.1235864,0.0605815832 C13.0573506,0.0121163166 12.7164782,0 10.0008078,0 C7.28432956,0 6.94426494,0.0113085622 5.87722132,0.0605815832"></path>
        </g>
      </g>
    </g>
  </g>
</svg>