<svg width="22px" height="20px" viewBox="0 0 20 12" fill="#FFFFFF" xmlns="http://www.w3.org/2000/svg" xmlns:xlink="http://www.w3.org/1999/xlink">
  <g transform="translate(-630.000000, -8021.000000)">
    <g transform="translate(0.000000, 7837.000000)">
      <g transform="translate(630.000000, 180.000000)">
        <path class="svg-patch" d="M19.5395147,4.7972122 C19.6801992,4.32826385 19.5395147,4 18.882987,4 L16.6945614,4 C16.1318233,4 15.8817176,4.29700062 15.7410331,4.62526447 C15.7410331,4.62526447 14.6311886,7.34516492 13.0523958,9.09590544 C12.5365526,9.61174863 12.3177101,9.76806474 12.0363411,9.76806474 C11.8956566,9.76806474 11.6924456,9.61174863 11.6924456,9.14280027 L11.6924456,4.7972122 C11.6924456,4.23447418 11.5361295,4 11.0671811,4 L7.62822654,4 C7.28433109,4 7.06548852,4.2657374 7.06548852,4.50021158 C7.06548852,5.03168638 7.84706911,5.15673927 7.94085878,6.62611078 L7.94085878,9.8462228 C7.94085878,10.5496453 7.81580589,10.6746982 7.53443687,10.6746982 C6.79975112,10.6746982 4.98648416,7.95479778 3.92353455,4.82847542 C3.70469199,4.25010579 3.50148104,4 2.93874301,4 L0.750317365,4 C0.125052894,4 0,4.29700062 0,4.62526447 C0,5.20363411 0.734685753,8.07985067 3.4545862,11.8783323 C5.26785317,14.4731799 7.81580589,15.8800249 10.1292844,15.8800249 C11.5204979,15.8800249 11.6924456,15.5673927 11.6924456,15.0359179 L11.6924456,13.0663348 C11.6924456,12.4410704 11.8174985,12.3160175 12.2708152,12.3160175 C12.5990791,12.3160175 13.1461855,12.4723336 14.4436093,13.7228625 C15.9286124,15.2078656 16.1787182,15.8800249 17.0071936,15.8800249 L19.1956193,15.8800249 C19.8208837,15.8800249 20.133516,15.5673927 19.9459366,14.9577599 C19.7427257,14.348127 19.0393031,13.4571251 18.1014064,12.3941755 C17.5855632,11.7845427 16.8196143,11.1436466 16.6007717,10.8153827 C16.2725079,10.3933292 16.3662975,10.2057499 16.6007717,9.8462228 C16.6007717,9.83059119 19.2737773,6.07900437 19.5395147,4.7972122 L19.5395147,4.7972122 Z"></path>
      </g>
    </g>
  </g>
</svg>