<svg width="28px" height="20px" viewBox="0 0 28 20" xmlns="http://www.w3.org/2000/svg" xmlns:xlink="http://www.w3.org/1999/xlink">
  <g transform="translate(-741.000000, -8017.000000)">
    <g transform="translate(0.000000, 7837.000000)">
      <g transform="translate(630.000000, 180.000000)">
        <g transform="translate(111.000000, 0.000000)">
          <path class="svg-patch" d="M18.6010256,9.64615385 C16.0666667,8.29179487 13.64,7.04666667 11.1594872,5.74666667 L11.1594872,13.5235897 C13.7697436,12.1046154 16.5210256,10.8051282 18.6117949,9.64615385 L18.6010256,9.64615385 L18.6010256,9.64615385 Z" fill="#000000"></path>
          <path class="svg-patch" d="M18.6010256,9.64615385 C16.0666667,8.29179487 11.1594872,5.74666667 11.1594872,5.74666667 L17.7020513,10.1441026 C17.7025641,10.1441026 16.5102564,10.8051282 18.6010256,9.64615385 Z" fill="#272727"></path>
          <path class="svg-patch" d="M11.6364103,19.6112821 C6.37230769,19.514359 4.57435897,19.4271795 3.46923077,19.1994872 C2.72153846,19.0482051 2.07179487,18.7123077 1.59538462,18.2251282 C1.22717949,17.8564103 0.934358974,17.2938462 0.707179487,16.5133333 C0.512307692,15.8630769 0.436410256,15.3220513 0.328205128,14.0005128 C0.162564103,11.0179487 0.123076923,8.57948718 0.328205128,5.85487179 C0.497435897,4.35025641 0.579487179,2.56410256 1.70358974,1.52205128 C2.23435897,1.03435897 2.85179487,0.720512821 3.54512821,0.590769231 C4.62820513,0.385128205 9.2425641,0.222564103 14.0194872,0.222564103 C18.785641,0.222564103 23.4102564,0.385128205 24.494359,0.590769231 C25.3605128,0.753333333 26.1728205,1.24051282 26.6497436,1.86871795 C27.6753846,3.48205128 27.6933333,5.48820513 27.7974359,7.0574359 C27.8405128,7.80512821 27.8405128,12.0507692 27.7974359,12.7984615 C27.6353846,15.2784615 27.5051282,16.1558974 27.1369231,17.065641 C26.9092308,17.64 26.7148718,17.9430769 26.3784615,18.2789744 C25.850853,18.7958759 25.1782356,19.1396979 24.4502564,19.2646154 C19.8948718,19.6071795 16.0266667,19.6815385 11.6364103,19.6112821 L11.6364103,19.6112821 Z M18.6123077,9.64615385 C16.0779487,8.29179487 13.6512821,7.03589744 11.1707692,5.73589744 L11.1707692,13.5133333 C13.7810256,12.094359 16.5328205,10.794359 18.6230769,9.63538462 L18.6123077,9.64615385 Z" fill="#FFFFFF"></path>
        </g>
      </g>
    </g>
  </g>
</svg>