<?xml version="1.0" encoding="UTF-8"?>
<svg width="202px" height="357px" viewBox="0 0 202 357" version="1.1" xmlns="http://www.w3.org/2000/svg" xmlns:xlink="http://www.w3.org/1999/xlink">
    <!-- Generator: Sketch 47.1 (45422) - http://www.bohemiancoding.com/sketch -->
    <title>ic_blade</title>
    <desc>Created with Sketch.</desc>
    <defs></defs>
    <g id="Desktop" stroke="none" stroke-width="1" fill="none" fill-rule="evenodd" opacity="0.149999991">
        <g id="Desktop.-Services-&amp;-Price" transform="translate(-1228.000000, -1045.000000)">
            <g id="Group-10" transform="translate(484.000000, 330.000000)">
                <g id="Group-8-Copy-3" transform="translate(496.000000, 556.000000)">
                    <g id="Group-2">
                        <g id="ic_blade" transform="translate(309.841496, 344.080897) rotate(-650.000000) translate(-309.841496, -344.080897) translate(122.841496, 226.080897)">
                            <path d="M154.060687,55.6075699 C155.69875,54.8474523 157.618403,54.7293464 159.389692,55.0897209 C161.170064,55.4500953 162.838406,56.2465532 164.264521,57.3428185 C167.131889,59.5504907 168.948595,62.6363864 170.544269,65.8494732 C168.064465,63.2117743 165.887445,60.6104156 163.316805,58.6389552 C162.039055,57.6607959 160.637164,56.8401112 159.099019,56.2647234 C157.563902,55.6984206 155.868309,55.3743864 154.060687,55.6075699 Z M155.807753,39.9812479 C171.555569,38.2581128 186.921876,36.0262137 202.039901,33.2492104 C209.603455,31.880393 217.10948,30.3934697 224.579171,28.8035823 C232.05189,27.2379218 239.488274,25.5632404 246.921631,23.8491903 C254.361044,22.1442253 261.788345,20.3665798 269.248952,18.594991 C272.976228,17.704654 276.712587,16.8143171 280.45803,15.9209518 C284.215584,15.0487849 287.924693,14.1099943 291.654997,13.0652111 C299.109549,10.9998717 306.576212,8.75585915 314.1761,6.71474655 C317.976044,5.6972186 321.809294,4.71603094 325.706129,3.92562977 C327.656061,3.53497172 329.621131,3.18671067 331.613453,2.9807824 C332.606586,2.8747899 333.61183,2.82027948 334.617074,2.84450633 C335.613235,2.87781826 336.660869,2.98381076 337.541971,3.51680158 C336.648757,3.01712268 335.613235,2.94444211 334.629185,2.94141376 C333.633025,2.95049883 332.639892,3.03529282 331.65887,3.16854053 C329.6938,3.43503594 327.752952,3.83780742 325.833299,4.27994754 C321.987937,5.17936956 318.209188,6.25443629 314.457689,7.35978658 C306.966803,9.6461961 299.545558,11.9144355 292.166702,14.1675331 C288.472733,15.269855 284.72729,16.2904113 281.00607,17.2019468 C277.28485,18.1346807 273.569685,19.0643863 269.860576,19.9910635 C262.436303,21.8292762 255.027169,23.634177 247.590785,25.3421703 C232.730127,28.7823838 217.775606,31.8925064 202.530412,34.3939293 C187.288246,36.9226074 171.752379,38.7850469 155.807753,39.9812479 Z M173.896092,64.9046258 C173.647809,62.7726625 173.511556,60.6255574 173.538806,58.4723956 C173.560001,57.3943005 173.596335,56.3162054 173.70231,55.2441671 C173.781034,54.1691003 173.999039,53.0395232 174.413853,52.0068535 C175.228343,49.9233439 176.751349,48.1275282 178.664946,46.9494973 C179.621745,46.3589677 180.672407,45.9228843 181.768486,45.6594172 C182.852454,45.411092 183.872838,45.2293906 184.926527,45.0083205 L197.482996,42.4766141 L222.592905,37.3950311 C230.952782,35.6688676 239.306604,33.9063638 247.63923,32.049981 C264.331734,28.4795481 280.933402,24.5033154 297.423039,20.1121978 C305.676942,17.9408659 313.873315,15.5605773 322.042438,13.089438 L328.155655,11.1906582 C329.185122,10.8817657 330.172199,10.5425898 331.238,10.2579242 C332.300773,9.98234372 333.408964,9.87029452 334.505044,9.95811687 C336.703258,10.1519317 338.762192,11.214885 340.267031,12.7654038 C341.787008,14.3128942 342.813447,16.2510427 343.552241,18.2467299 C342.72564,16.2843546 341.614421,14.4098016 340.067193,12.9683037 C338.547215,11.511664 336.54581,10.5728733 334.46871,10.4577958 C333.430159,10.4093421 332.391609,10.5486465 331.398476,10.8423971 C330.411399,11.1422044 329.38496,11.5298341 328.382743,11.8690101 L322.324028,13.9706899 C314.197295,16.6265589 306.034228,19.1673504 297.810604,21.5143271 C289.596063,23.8855306 281.31491,26.0174939 273.012562,28.0616349 C264.713242,30.1178892 256.383643,32.0408959 248.041933,33.8942504 C231.322179,37.4646833 214.566091,40.8231312 197.75853,43.8969135 L185.14756,46.1772663 C184.109009,46.3710811 183.022014,46.5436975 182.019797,46.7556825 C181.035748,46.9706958 180.085005,47.3431837 179.212986,47.8580044 C177.46592,48.8785607 176.061,50.4805615 175.264677,52.3551145 C174.855919,53.2969335 174.625802,54.2781212 174.513772,55.3289611 C174.374491,56.3767726 174.301823,57.4336692 174.25035,58.4905657 C174.150431,60.6073873 174.214016,62.7363222 174.392658,64.8531438 C174.759028,69.0898152 175.564434,73.2992314 176.742265,77.4026551 C175.370652,73.3567701 174.392658,69.1655241 173.896092,64.9046258 Z M179.552104,79.7193481 C208.480125,77.9295892 236.066811,73.8413073 263.247765,67.621062 C290.422664,61.3675049 317.222111,52.9971262 344.360676,41.8134039 C317.748956,53.9268318 291.113013,62.8392864 263.889668,69.1231271 C236.65724,75.3675992 208.801076,78.9955708 179.552104,79.7193481 Z M293.989465,27.8587349 C270.369254,36.0746674 248.029822,41.1229385 223.156084,43.8272613 C247.472699,39.0242871 269.666794,34.0668667 293.989465,27.8587349 Z M191.254721,47.9367417 C214.320836,43.6425315 236.372623,39.057599 258.406243,34.0486966 C280.436835,29.0307091 302.44926,23.5948083 325.38215,17.3775915 C302.836824,24.5881094 281.018181,30.5358025 258.990617,35.5628751 C236.956997,40.5778342 214.711428,44.6721729 191.254721,47.9367417 Z M337.920452,12.5746173 C337.133212,12.0688817 336.206692,11.8356982 335.289255,11.7842161 C333.433187,11.6903371 331.613453,12.1627607 329.845192,12.6684964 C326.311698,13.734478 322.893262,15.1275222 319.453632,16.4085172 C312.595565,19.0250177 305.655747,21.3477675 298.664455,23.2314055 C284.736374,27.1591845 270.893071,30.7659576 256.964989,34.0426399 C243.03388,37.2981236 229.021018,40.2235165 214.75079,42.6885991 C211.18399,43.3154689 207.599022,43.8908568 204.001944,44.4662446 C200.401837,44.9992354 196.777508,45.6079352 193.122901,45.9773947 C189.489488,46.4255916 185.798546,46.7799093 182.26808,47.8277208 C180.533126,48.3909952 178.82845,49.2510486 177.599145,50.6471212 C176.360757,52.037137 175.75216,53.9056333 175.59774,55.7711012 C175.68252,53.9207751 176.21542,52.028052 177.417474,50.5592988 C178.607417,49.084489 180.312093,48.1335849 182.056131,47.5006583 C185.589625,46.3074856 189.256344,45.8471754 192.862506,45.2990428 C196.483807,44.8296474 200.035468,44.1512955 203.61438,43.5335106 C207.178152,42.8793855 210.732841,42.2373739 214.269363,41.5469085 C228.427561,38.836529 242.379865,35.7930302 256.310975,32.5466315 C270.236029,29.276006 284.139888,25.7964238 298.18,22.1199985 C305.222765,20.3635514 312.177723,18.2225031 319.13268,15.7816473 C322.617729,14.591503 326.090666,13.2923379 329.702883,12.3202353 C331.507478,11.8629534 333.375658,11.4359551 335.280172,11.5904013 C336.224859,11.6721669 337.175602,11.944719 337.965869,12.4898233 C338.759164,13.0318992 339.343538,13.8162437 339.77652,14.6520702 C339.316288,13.8344138 338.707691,13.0833813 337.920452,12.5746173 Z M163.595367,54.33566 C164.833755,54.8383672 165.875334,55.8558952 166.393095,57.152032 C165.097178,56.5948143 164.031377,56.2526099 163.00191,55.8256116 C161.966387,55.4137551 160.964171,54.9171045 159.650086,54.4022838 C160.90967,53.8238676 162.360007,53.8238676 163.595367,54.33566 Z M103.968037,78.0052981 C107.961763,76.1216601 111.891905,74.2410504 115.725155,72.405866 C130.134664,65.5042405 142.579103,59.544434 151.941196,56.6705232 C157.694099,54.8898493 165.05176,59.1658894 168.04327,64.1021112 C170.698689,68.4902005 172.479061,72.7753256 174.183737,78.8926067 C174.341185,79.4649662 174.810501,79.8919645 175.379736,79.9797868 C216.655304,86.5240663 313.927817,60.0501696 344.221395,44.2815148 C345.47795,43.6273897 346.422637,42.5492946 346.879842,41.2440728 C350.925041,29.7060327 349.174947,17.9560076 341.687089,6.32711686 C339.679629,3.21093753 336.0553,1.55139791 332.458221,2.10558723 C323.71078,3.44714937 308.147663,7.45669401 288.439427,12.5322203 C251.478536,22.0503463 200.859042,35.087423 162.269171,38.5791186 C155.798669,39.1666199 149.455336,40.3567642 143.239173,41.9951053 C123.031342,47.3280419 104.198153,57.4124707 87,66.9305966 C89.9430643,68.9111421 92.9012678,70.8644323 95.8685548,72.7995525 C96.5165134,72.4724899 97.1614441,72.142399 97.8094027,71.8123081 C104.964198,68.2206767 112.194689,64.7229244 119.685575,61.5431496 C127.170405,58.3694315 134.921685,55.4924923 143.072641,53.3877842 C135.100328,55.9921712 127.582192,59.2082864 120.260865,62.5970178 C112.939539,65.9978627 105.815022,69.5894941 98.6783939,73.1720404 C98.2575236,73.3840253 97.8366533,73.5960103 97.415783,73.804967 C97.6913168,73.9866684 97.9698784,74.1683698 98.2454122,74.3470429 C107.307749,69.834791 116.345863,65.1892914 125.756402,61.0010737 C128.305846,59.9320637 130.812901,58.7449477 133.431986,57.7910153 C134.730931,57.2913364 136.032904,56.7886291 137.337905,56.2859219 C138.670156,55.8558952 140.002407,55.4198118 141.340714,54.9867567 L143.348175,54.344745 L145.407109,53.8450661 C146.78175,53.5240603 148.150335,53.1424873 149.53406,52.8759919 C150.911729,52.5973831 152.289398,52.2824339 153.594399,51.7554998 C154.887288,51.2346224 156.143843,50.4654198 156.915943,49.2601337 C156.2044,50.4987317 154.966012,51.3436433 153.685234,51.9281162 C152.392345,52.5186458 151.014676,52.8971904 149.649118,53.233338 C148.274477,53.5543439 146.942226,53.9873989 145.597863,54.3538301 L143.587375,54.9261896 C142.924277,55.1412029 142.276318,55.3955849 141.622304,55.6287684 C140.317303,56.1011921 139.012302,56.5736158 137.713357,57.0430111 C136.438635,57.5820587 135.163913,58.1180778 133.895246,58.654097 C131.336718,59.6746533 128.875081,60.9132513 126.37711,62.0367718 C117.366246,66.3067551 108.627889,70.9219711 99.7956683,75.3554857 C100.119648,75.5644424 100.443627,75.7703706 100.767606,75.9762989 C101.654764,75.5341588 102.544951,75.0980754 103.429081,74.6468502 C110.995663,70.7130145 118.495632,66.5005699 126.355915,62.9240804 C130.273945,61.1191796 134.273727,59.4687251 138.337093,57.9636316 C140.359693,57.1853439 142.421655,56.5100203 144.474533,55.8013848 C146.548606,55.1533164 148.610568,54.462851 150.708863,53.8814064 C152.795048,53.224253 154.972068,52.8638785 156.585908,51.6646491 C157.388287,51.0801762 158.005967,50.2746333 158.169471,49.3691545 C158.323891,48.4606474 158.027162,47.4885449 157.409482,46.7102571 C156.174122,45.1233981 154.093993,44.2512313 152.025976,43.9453672 C149.924652,43.6152763 147.762771,43.9362821 145.613002,44.3360252 C141.316492,45.1718518 137.080538,46.4710169 132.880919,47.9125148 C128.681299,49.3630978 124.518014,50.9893255 120.36684,52.7124606 C124.448373,50.874248 128.551102,49.1389994 132.705304,47.5793956 C136.859505,46.0288768 141.056097,44.6237192 145.370775,43.6758434 C147.51146,43.2185615 149.749037,42.81579 152.001753,43.0913705 C154.218135,43.3608943 156.504157,44.1785507 158.069552,45.9743664 C158.817429,46.87076 159.368497,48.0760461 159.214077,49.3418993 C159.147464,49.9627125 158.923404,50.5592988 158.602452,51.0801762 C158.278473,51.6010536 157.854575,52.0310803 157.406454,52.4126533 C156.48599,53.1515724 155.435328,53.6421662 154.369527,54.0055691 C153.294642,54.3598868 152.295454,54.6475807 151.253875,54.9716149 C147.126924,56.219298 143.063558,57.6214273 139.063776,59.1598326 C135.057938,60.6830962 131.121741,62.3547492 127.255185,64.1657067 C119.503904,67.7512814 112.079631,71.9485841 104.479743,75.9127034 C103.771227,76.2730779 103.056656,76.621339 102.348141,76.9786851 C102.887097,77.3208894 103.429081,77.6630938 103.968037,78.0052981 L103.968037,78.0052981 Z" id="Fill-84" fill="#FFFFFE"></path>
                            <path d="M3.19237838,91.0092396 C2.88532271,91.5468342 2.8245196,92.2475193 3.14069574,92.818336 C2.79715821,92.2716808 2.80931883,91.5528746 3.09509342,90.9790377 C3.36870738,90.3991604 3.83689128,89.9219697 4.39323969,89.5957887 C5.56673959,88.9404065 6.95913068,89.1790019 8.1387109,89.5323646 C8.74066163,89.7165965 9.32133127,89.943111 9.89896076,90.1545246 C10.4826706,90.3478171 11.0572599,90.5592307 11.6409697,90.7374221 C12.8144696,91.0847445 13.9910097,91.4018649 15.1857907,91.6283795 C19.9557942,92.5948416 24.8322031,92.6069224 29.6234877,92.0693278 C39.2546994,90.9518559 48.4511689,87.4423901 57.9881357,83.8392983 C53.3275778,85.8779295 48.7521442,87.8350154 44.0885462,89.4357184 C39.4340685,91.0394416 34.682306,92.274701 29.8180576,92.8575985 C24.9629298,93.4042537 19.9861957,93.34687 15.1462686,92.2384587 C13.9362869,91.978722 12.7415059,91.6223391 11.5619257,91.2266936 C10.3793053,90.8310482 9.23316677,90.3176151 8.08094795,89.8857273 C6.95001021,89.4870617 5.63666316,89.2031634 4.51180574,89.7467984 C3.9645778,90.0216361 3.48727344,90.4595643 3.19237838,91.0092396 Z M15.1888308,93.3166681 C22.6128898,93.8029194 29.3893958,93.5854654 36.8529768,92.5434983 C29.6417286,94.6274324 22.5338458,94.8871691 15.1888308,93.3166681 Z M71,92.7277302 C70.6230208,92.3864482 70.2460415,92.0451663 69.8690623,91.7038843 C65.4213152,93.3831124 60.9188454,94.9505932 56.3342913,96.330822 C52.1510377,97.5540007 47.9221819,98.6684524 43.6173221,99.5292078 C39.3094222,100.356741 34.9467995,101.039305 30.5233736,101.283941 C26.1060281,101.516496 21.6339598,101.404748 17.2287749,100.661781 C12.8357507,99.9248532 8.4913689,98.5144225 4.65773319,96.1647113 C8.52785076,98.3724734 12.8357507,99.6439752 17.1770923,100.269155 C21.5275544,100.897356 25.926659,100.912457 30.2710408,100.601377 C34.6215029,100.251034 38.9111618,99.517127 43.1491382,98.6291899 C47.3810342,97.6899094 51.5521272,96.5543164 55.6684973,95.2707338 C60.0767224,93.8814444 64.4150238,92.320004 68.7107631,90.6558769 C68.531394,90.4927864 68.3520248,90.3327161 68.1726557,90.1696256 C67.7075119,90.3508373 67.2423682,90.5411095 66.7741843,90.719301 C56.4498172,94.636493 45.6663867,97.9043432 34.350929,99.5926319 C45.4657365,97.3939304 55.9877136,93.8029194 66.1357517,89.6712935 C66.4792892,89.5323646 66.8228268,89.3843751 67.1663643,89.242426 C66.9778747,89.0702749 66.789385,88.8951036 66.6008954,88.7199323 C62.3689994,90.4776854 58.0489388,92.1357721 53.6042319,93.6186875 C57.8330878,91.9001969 61.9403375,90.0548582 65.9837439,88.1521358 C63.7765912,86.1165248 61.5876795,84.0658129 59.4170087,82 C40.8842226,90.8884319 24.0752045,95.6089956 8.49440905,88.5961044 L8.47008781,88.5870438 C5.25360361,87.0346639 2.6481906,88.4028119 1.58717644,90.3327161 C0.428877304,92.4377915 0.814977014,95.506309 4.2837941,97.6083642 C20.7523148,107.578026 45.4930979,102.413493 71,92.7277302 L71,92.7277302 Z" id="Fill-85" fill="#FFFFFE"></path>
                            <path d="M71.7016659,92.3255812 C46.2616222,102.06949 21.5856895,107.265026 5.16033588,97.2355145 C1.70061122,95.1208403 1.31552355,92.033902 2.47078656,89.9161894 C3.52901961,87.9746996 6.12760333,86.5983383 9.33565652,88.1600374 L9.35991401,88.1691524 C24.8998692,95.2241433 41.6648277,90.4752412 60.1490358,81.5334504 C62.3140169,83.6116648 64.4971911,85.6746875 66.6985584,87.7225186 C62.6657505,89.6366634 58.5692667,91.4930801 54.3514955,93.2218871 C58.784552,91.7300694 63.0932888,90.062029 67.3140922,88.2937238 C67.5020878,88.4699466 67.6900833,88.6461695 67.8780789,88.819354 C67.5354418,88.9621553 67.1928048,89.1110332 66.8501677,89.2507962 C56.7287296,93.4072249 46.2343325,97.0197934 35.1486591,99.2316941 C46.4344568,97.5332704 57.1896219,94.2458026 67.4869269,90.305095 C67.9538836,90.1258338 68.4178081,89.9344193 68.8817326,89.7521198 C69.0606316,89.9161894 69.2395306,90.0772206 69.4184296,90.2412901 C65.1339502,91.9154073 60.8070203,93.4862214 56.41035,94.8838509 C52.3047697,96.1751391 48.14461,97.3175493 43.9238065,98.2624684 C39.6969387,99.155736 35.4185237,99.894049 31.079465,100.246495 C26.7464707,100.559442 22.358897,100.544251 18.0198383,99.9122789 C13.6898762,99.2833457 9.39326806,98.0042108 5.5332948,95.7831951 C9.35688182,98.1470121 13.6898762,99.5659099 18.0713855,100.307261 C22.4650235,101.054689 26.9253697,101.167107 31.3311365,100.933156 C35.7429677,100.687052 40.0941551,100.00039 44.3907632,99.1678893 C48.6843391,98.3019666 52.9021104,97.1808247 57.0743988,95.950303 C61.6469359,94.5617884 66.1376039,92.9848977 70.5736926,91.295589 C70.9496837,91.6389197 71.3256748,91.9822504 71.7016659,92.3255812 Z M115.98978,72.5339314 C112.151032,74.3751565 108.215254,76.2619563 104.2158,78.1517946 C103.676071,77.8084638 103.13331,77.4651331 102.593581,77.1218024 C103.303112,76.76328 104.018708,76.4138726 104.72824,76.0523119 C112.339028,72.0751444 119.773949,67.8640258 127.536346,64.2666488 C131.408448,62.4497304 135.35029,60.772575 139.361873,59.2442974 C143.367391,57.7008283 147.436585,56.2940838 151.569455,55.0422938 C152.612527,54.717193 153.613149,54.4285522 154.689575,54.0730681 C155.756904,53.7084691 156.809073,53.2162604 157.730858,52.4749091 C158.179621,52.0920802 158.604127,51.660638 158.928571,51.1380461 C159.249983,50.6154542 159.474365,50.0169041 159.541073,49.3940475 C159.695715,48.1240276 159.143857,46.9147742 158.394907,46.0154299 C156.827266,44.2137032 154.537966,43.3933554 152.318405,43.1229444 C150.062458,42.8464569 147.821673,43.2505541 145.677917,43.7093412 C141.357051,44.660337 137.154441,46.0701198 132.994281,47.6257423 C128.834122,49.1904797 124.725509,50.93144 120.638122,52.7757033 C124.795249,51.0468963 128.964506,49.4153157 133.170148,47.959958 C137.375791,46.5137153 141.617819,45.2102738 145.920492,44.3716961 C148.073344,43.9706372 150.238325,43.6485747 152.342663,43.9797521 C154.413646,44.286623 156.496758,45.1616606 157.73389,46.7537429 C158.352456,47.5345925 158.64961,48.5098949 158.494969,49.4213924 C158.331231,50.3298516 157.712665,51.1380461 156.909135,51.7244428 C155.29298,52.9276196 153.112838,53.2891802 151.023662,53.9484968 C148.922356,54.5318552 146.857437,55.2245933 144.78039,55.8747949 C142.724567,56.585763 140.659649,57.2633095 138.634148,58.044159 C134.564954,59.5542066 130.559436,61.2100938 126.635787,63.0209355 C118.764231,66.6091975 111.253505,70.8355077 103.676071,74.782292 C102.790673,75.2350025 101.89921,75.6725213 101.010779,76.1161167 C100.686336,75.9095106 100.361892,75.7029045 100.037448,75.4932601 C108.882335,71.0451521 117.633225,66.4147447 126.657012,62.1307063 C129.158566,61.0034877 131.623733,59.7608127 134.185931,58.7368972 C135.456417,58.1991136 136.732967,57.6613301 138.009518,57.1205082 C139.310326,56.6495678 140.617198,56.1755891 141.92407,55.7016104 C142.579022,55.4676593 143.22791,55.21244 143.891959,54.996719 L145.905331,54.4224755 C147.251622,54.0548382 148.585784,53.6203577 149.962396,53.2982952 C151.329912,52.9610411 152.709557,52.5812505 154.004301,51.9887771 C155.286916,51.4023804 156.52708,50.5546877 157.239644,49.3120127 C156.466436,50.5212661 155.208079,51.2930007 153.913335,51.8155926 C152.606463,52.3442611 151.226818,52.6602469 149.847173,52.9397729 C148.461464,53.2071455 147.090916,53.5899744 145.714303,53.9120369 L143.652416,54.4133605 L141.642077,55.0574855 C140.301851,55.4919659 138.967689,55.9294848 137.633527,56.3609269 C136.326654,56.8652889 135.022814,57.3696509 133.722006,57.8709745 C131.099165,58.8280469 128.588515,60.0190703 126.035414,61.0915991 C116.611378,65.2936027 107.560302,69.9543934 98.4849682,74.4814978 C98.2090392,74.3022367 97.9300781,74.1199371 97.6541491,73.9376376 C98.075623,73.7279932 98.4970969,73.5153105 98.9185708,73.3026277 C106.065434,69.7082891 113.200169,66.1048355 120.531995,62.6927964 C127.863822,59.2929106 135.392741,56.0662094 143.376488,53.4532498 C135.213842,55.5648857 127.451445,58.4512946 119.95588,61.6354593 C112.454251,64.8257007 105.21339,68.3349662 98.0483334,71.9384197 C97.3994455,72.2695972 96.7535898,72.6007746 96.1047019,72.9289137 C93.1331592,70.987424 90.1707131,69.0277043 87.223428,67.0406397 C104.446247,57.4911839 123.306446,47.3735613 143.543258,42.0230708 C149.768336,40.3793369 156.120767,39.1852751 162.600549,38.59584 C201.245765,35.0926512 251.937856,22.0126616 288.951755,12.4632058 C308.688257,7.37097296 324.273695,3.34823053 333.033681,2.00225251 C336.635918,1.44623901 340.265446,3.11124117 342.275785,6.2376777 C349.774382,17.9048461 351.526986,29.6935475 347.475985,41.2695661 C347.018125,42.5790843 346.072082,43.660728 344.813725,44.3170062 C314.4767,60.137565 217.064681,86.6986031 175.729916,80.1327825 C175.159865,80.0446711 174.689876,79.6162673 174.532203,79.0420238 C172.825082,72.9046071 171.042156,68.6053771 168.382929,64.202844 C165.387128,59.2503741 158.018916,54.960259 152.257761,56.7467942 C142.882241,59.6301647 130.419955,65.6095885 115.98978,72.5339314 Z M341.429805,233.066877 C241.146305,211.756064 134.067675,152.244391 54.9973512,73.8677562 C48.6570495,67.5844999 49.7365078,61.3863166 52.586763,57.9894692 C55.970683,53.9545734 62.8780036,52.3564144 69.5336527,57.0992399 C148.055151,113.068227 233.617386,151.995248 346.96961,183.326456 C365.65091,188.491609 374.717147,206.281002 371.463611,219.661786 C368.598195,231.444411 357.370009,236.454609 341.429805,233.066877 Z M4.17790749,98.8549418 C21.4280158,109.388815 47.0530229,103.874255 73.2662741,93.744479 C150.165553,163.158054 248.478132,215.253177 341.035621,234.920255 C348.006617,236.402958 353.734417,236.27231 358.340309,235.053941 C367.015394,232.763044 371.721347,226.613474 373.301116,220.10842 C376.766905,205.86779 367.215518,186.954216 347.472953,181.500423 C251.164649,154.878618 174.968837,122.760484 106.110917,79.351933 C109.737412,77.6352793 113.31236,75.9216639 116.80847,74.2445085 C131.168905,67.3535871 143.570547,61.4015083 152.812652,58.557636 C157.627763,57.08101 164.134835,60.8394181 166.763741,65.184223 C169.328971,69.4287632 171.051253,73.5912686 172.709859,79.5524624 C173.067657,80.837674 174.134986,81.800823 175.432762,82.0074291 C201.245765,86.1061297 243.238514,77.6443943 265.970815,72.2361756 C270.625221,71.1271869 275.303885,69.9513551 279.940098,68.7269101 C307.017522,61.5686161 332.794138,52.7240518 345.683963,46.0002383 C347.37289,45.119124 348.643376,43.6637663 349.25891,41.8954611 C353.513068,29.7391224 351.69982,17.3974458 343.864651,5.21072381 C341.45103,1.45535399 337.087714,-0.540825606 332.745623,0.127605917 C323.894671,1.48877556 308.266783,5.52063297 288.478734,10.6250191 C251.528511,20.1623216 200.924353,33.2210429 162.430747,36.7090402 C134.155609,39.2733865 108.351703,53.146379 85.4526311,65.8587312 C80.4798455,62.4892287 75.5404139,59.0559213 70.6313041,55.5527324 C63.0417416,50.1445138 55.0822524,52.0708119 51.1404101,56.7680625 C47.5048186,61.1007141 46.8741239,68.4868824 53.6662214,75.2167725 C55.3278595,76.8635447 57.0076907,78.4981636 58.6935864,80.1297442 C40.9037489,88.6522461 24.8210323,93.1003541 10.1513147,86.4494604 C5.83044907,84.3530161 2.28279101,86.3036208 0.809148426,89.0077302 C-0.725137881,91.8212192 -0.324889279,96.1052576 4.17790749,98.8549418 L4.17790749,98.8549418 Z" id="Fill-86" fill="#000000"></path>
                            <path d="M173.003436,58.9221331 C173.024629,57.8356317 173.06096,56.7491302 173.166924,55.6687327 C173.24564,54.5852832 173.463623,53.4468983 173.878396,52.4061764 C174.692806,50.3064207 176.21566,48.4966023 178.129067,47.3093858 C179.085771,46.7142516 180.136329,46.2747679 181.232299,46.0092464 C182.31616,45.7589849 183.336442,45.5758667 184.390027,45.3530728 L196.94525,42.8016256 L222.052667,37.6804193 C230.411715,35.9407962 238.764707,34.1645494 247.096507,32.2936915 C263.787354,28.6954185 280.387374,24.6881814 296.875376,20.2628243 C305.128459,18.0745615 313.324019,15.6757128 321.492331,13.185305 L327.604942,11.2717196 C328.634306,10.9604186 329.621286,10.6185979 330.686981,10.3317127 C331.749649,10.0539834 332.85773,9.94106047 333.9537,10.0295676 C336.151697,10.2248937 338.210426,11.2961353 339.715115,12.8587442 C341.234942,14.418301 342.261279,16.3715621 343,18.3828105 C342.173481,16.4051337 341.062372,14.5159641 339.515298,13.0632262 C337.995471,11.5952284 335.994265,10.6491176 333.91737,10.5331427 C332.878922,10.4843112 331.840475,10.6247018 330.847441,10.920743 C329.860462,11.222888 328.834124,11.6135402 327.832007,11.9553609 L321.773893,14.0734284 C313.647966,16.7500064 305.485709,19.3106095 297.262901,21.6758866 C289.049176,24.0655794 280.768845,26.2141665 272.467321,28.2742466 C264.168824,30.3465344 255.840052,32.2845356 247.49917,34.1523415 C230.781075,37.7506146 214.02665,41.1352497 197.220756,44.2329997 L184.611038,46.5311334 C183.57259,46.7264595 182.485702,46.9004218 181.483586,47.1140597 C180.499634,47.3307496 179.548985,47.706142 178.677053,48.2249769 C176.93016,49.253491 175.52538,50.8679833 174.729136,52.757153 C174.320418,53.7063158 174.090324,54.6951542 173.978305,55.7541879 C173.839038,56.8101696 173.766377,57.8753073 173.714909,58.940445 C173.615,61.0737723 173.678579,63.2193074 173.857204,65.3526347 C174.223536,69.6223413 175.028863,73.8645801 176.206577,78 C174.8351,73.9225676 173.857204,69.6986406 173.360686,65.4045182 C173.112428,63.2559311 172.976188,61.0920841 173.003436,58.9221331" id="Fill-87" fill="#000000"></path>
                            <path d="M341.513572,232.687178 C241.843398,211.512522 135.394839,152.350543 56.7667867,74.4304819 C53.8994752,71.5883481 52.7070378,68.5759903 53.4079361,65.9435968 C53.97533,63.8127564 55.7897769,62.1013967 58.1443099,61.4782551 C60.7567492,60.7882397 63.7090181,61.4843345 66.4549618,63.4419112 C145.404638,119.704001 231.390606,158.825137 345.263833,190.292269 C360.025177,194.371567 367.689546,207.132292 367.628862,217.631469 C367.610657,221.321683 366.463733,230.200691 356.290087,232.890839 C352.199996,233.969938 347.226955,233.903064 341.513572,232.687178 Z M365.474586,205.509084 C364.185054,201.943498 361.891205,198.836909 359.090646,196.392978 C356.296155,193.91865 353.004057,192.110019 349.636104,190.60536 C346.249945,189.10678 342.739385,187.93953 339.201517,186.906027 C337.432583,186.389275 335.651513,185.909 333.870442,185.437844 C332.086337,184.95149 330.3083,184.465135 328.530264,183.978781 C324.974191,183.003032 321.424186,182.030323 317.883284,181.060654 C314.360587,180.024111 310.846993,178.990608 307.336433,177.957105 C300.303175,175.935694 293.379149,173.646788 286.449055,171.452114 C258.795429,162.451517 231.964068,152.031373 205.666726,140.419661 C179.357247,128.820107 153.694051,115.758451 128.431368,101.328922 C115.769685,94.1643134 103.320395,86.4616749 90.8650367,78.5492961 C87.7822976,76.5187663 84.6965243,74.4851967 81.5986142,72.4455478 C80.0542105,71.4211637 78.5067726,70.3967797 76.9593346,69.3723957 C76.1856157,68.8495646 75.4058283,68.375369 74.6351435,67.8069423 L72.414115,66.1047017 C69.4709487,63.8735507 66.394278,61.6849557 62.8382049,60.5511419 C61.0753394,60.0252712 59.1455932,59.7851337 57.3463174,60.3596399 C56.4512307,60.636254 55.6198621,61.0982907 54.8825534,61.6849557 C54.1391764,62.2746605 53.5384064,63.016351 52.980115,63.7793195 C53.5080645,63.0072319 54.0754584,62.2442633 54.7975961,61.6272011 C55.5136654,61.0101389 56.3359314,60.5055462 57.2340523,60.1833364 C59.0454649,59.5328373 61.0328607,59.6787436 62.8503417,60.1438201 C66.5095773,61.1499658 69.6954789,63.2504091 72.7114658,65.3812495 L74.9598021,66.9922986 C75.6880082,67.5090502 76.4951033,67.9741266 77.2718564,68.4635208 L81.9657515,71.3694886 C85.0909693,73.3057872 88.2101187,75.2390461 91.3231997,77.1662256 C103.896891,84.6804018 116.431139,92.0456319 129.144403,98.9457856 C154.522385,112.831205 180.176479,125.640565 206.425274,137.234039 C232.661933,148.842712 259.374959,159.515152 286.87991,169.056818 C293.779663,171.379161 300.66121,173.826132 307.658057,176.011687 C311.147378,177.130302 314.645801,178.251957 318.150293,179.376652 C321.67299,180.443592 325.201755,181.510532 328.739623,182.580512 C335.77288,184.775186 343.067078,186.614214 349.866702,189.887987 C353.246792,191.523354 356.551027,193.462692 359.31821,196.073808 C362.091462,198.654526 364.306422,201.885743 365.474586,205.509084 Z M341.29511,233.960819 C357.245857,237.350102 368.48147,232.337611 371.348782,220.549595 C374.60447,207.162689 365.532236,189.365156 346.838579,184.19764 C233.411378,152.852096 147.792547,113.907264 69.2191108,57.9126691 C62.5590593,53.1676735 55.6471698,54.7665638 52.2610115,58.8033056 C49.408871,62.2017073 48.3286987,68.4027265 54.6731942,74.6888577 C133.79582,153.101353 240.945277,212.640256 341.29511,233.960819 L341.29511,233.960819 Z" id="Fill-88" fill="#FFFFFE"></path>
                            <path d="M338.761535,215.412174 C338.152471,213.107804 338.743354,210.767049 340.134199,209.041804 C339.267572,210.612414 338.970616,212.501391 339.464533,214.369143 C340.479638,218.216835 344.430973,220.518172 348.273223,219.505462 C349.812547,219.099166 351.100367,218.213802 352.030627,217.061617 C351.109457,218.723189 349.545892,220.023946 347.570224,220.545461 C343.727975,221.561203 339.77361,219.256833 338.761535,215.412174 Z M351.576103,211.173346 C352.324553,214.008327 350.624631,216.925175 347.791427,217.674095 C344.955192,218.423015 342.040173,216.725058 341.291722,213.887045 C340.543272,211.049031 342.243194,208.132184 345.079429,207.383264 C347.912633,206.637376 350.827652,208.335332 351.576103,211.173346 Z M78.6491349,86.8040758 C75.7825987,87.5620922 72.8372783,85.8459431 72.0827672,82.9776089 C71.6100614,81.1917222 72.1009482,79.3755149 73.2251394,78.0777908 C72.6251667,79.2239116 72.428206,80.5883412 72.7857655,81.9345783 C73.5402766,84.8029125 76.485597,86.5190616 79.3521332,85.7640773 C80.4339021,85.4790631 81.3520421,84.8787141 82.0338293,84.090377 C81.3581025,85.3850691 80.1672476,86.4038431 78.6491349,86.8040758 Z M74.612955,81.4524799 C74.1220683,79.5938236 75.237169,77.6836222 77.0946602,77.1924276 C78.9491212,76.704265 80.8581252,77.8170331 81.349012,79.6756894 C81.8398987,81.5343457 80.7278281,83.444547 78.8703369,83.9327096 C77.0128457,84.4239042 75.1038418,83.3111361 74.612955,81.4524799 Z M340.919012,232.03699 C346.624813,233.249816 351.591254,233.316522 355.675916,232.240138 C365.83606,229.55676 366.981462,220.700096 366.999643,217.019169 C367.060246,206.546414 359.406049,193.817802 344.664296,189.74877 C230.942201,158.360826 145.070353,119.338141 66.2254581,63.2176369 C63.4831587,61.2649866 60.5348081,60.5706435 57.925836,61.2589224 C55.5744279,61.8804959 53.7623892,63.5875489 53.1957483,65.7130269 C52.4957802,68.3387958 53.686635,71.3435729 56.550141,74.1785543 C135.073839,151.902526 241.38112,210.91562 340.919012,232.03699 L340.919012,232.03699 Z" id="Fill-89" fill="#FFFFFF"></path>
                            <path d="M72.176828,82.9517945 C71.7101974,81.1469634 72.1947753,79.3114901 73.3045186,78 C72.7122567,79.1582787 72.5178273,80.5371818 72.8707914,81.8976996 C73.6156056,84.7964605 76.5230731,86.5308142 79.3527688,85.7678211 C80.420635,85.4797836 81.3269751,84.8730662 82,84.0763666 C81.3329576,85.3847925 80.1574074,86.4143735 78.6588054,86.8188518 C75.8291097,87.5849091 72.9216422,85.8505553 72.176828,82.9517945" id="Fill-91" fill="#000000"></path>
                            <path d="M75.779975,80.2451599 C75.6155925,79.2922104 76.1270046,78.1992109 77.0493728,77.6085649 C77.971741,76.9692058 79.3415948,77.0179189 80.2730954,77.6329214 C81.2350372,78.2022554 81.8773464,79.4109486 81.7099199,80.5222155 C81.5820668,81.6121705 80.8179928,82.5529417 79.8864922,82.8178191 C80.492272,82.0962567 80.6170809,81.2285551 80.4953162,80.5435275 C80.3705073,79.8554553 79.9717276,79.3652801 79.4268302,79.0090657 C78.8758446,78.6680742 78.2578883,78.5097567 77.5760055,78.6924307 C76.900211,78.8751048 76.1604899,79.3744138 75.779975,80.2451599 Z M75.1163569,81.3929617 C75.6095043,83.2592813 77.5272996,84.3766374 79.3933449,83.8834175 C81.2593902,83.3932422 82.376582,81.475165 81.8834347,79.6088454 C81.3902873,77.7425258 79.472492,76.6251697 77.6094908,77.115345 C75.7434455,77.6085649 74.6232095,79.5266421 75.1163569,81.3929617 L75.1163569,81.3929617 Z" id="Fill-93" fill="#FFFFFE"></path>
                            <path d="M349.186579,190.072227 C345.805779,188.571229 342.300774,187.402095 338.768504,186.366924 C337.002369,185.849339 335.224117,185.368289 333.445864,184.896373 C331.664582,184.409234 329.889359,183.922094 328.114136,183.434955 C324.56369,182.457632 321.019303,181.483353 317.484003,180.51212 C313.966881,179.473904 310.458846,178.438733 306.953841,177.403562 C299.931712,175.37889 293.018642,173.086291 286.099514,170.888075 C258.489645,161.872955 231.700741,151.435997 205.44501,139.805547 C179.177161,128.187277 153.554573,115.104544 128.331864,100.651731 C115.690216,93.4755616 103.260625,85.760494 90.824975,77.8353476 C87.7471138,75.8015413 84.6662233,73.7646903 81.5732151,71.7217502 C80.0312552,70.6957132 78.4862658,69.6696762 76.9412764,68.6436392 C76.1687817,68.1199645 75.3902283,67.6450037 74.620763,67.0756597 L72.4032488,65.3706724 C69.4647396,63.1359212 66.3929372,60.9437946 62.8424911,59.8081513 C61.082415,59.281432 59.1557223,59.040907 57.3592935,59.6163402 C56.4656232,59.8934007 55.6355701,60.3561829 54.8994281,60.9437946 C54.1572273,61.534451 53.5574079,62.2773383 53,63.041538 C53.527114,62.2682044 54.0936101,61.5040048 54.8146052,60.8859468 C55.5295414,60.2678889 56.3505064,59.762482 57.2472061,59.4397522 C59.0557524,58.7882035 61.0400035,58.9343453 62.8546087,59.4001722 C66.5080541,60.4079415 69.6889146,62.511774 72.7001291,64.6460528 L74.9449078,66.2597015 C75.6719616,66.777287 76.4777796,67.2431139 77.2533037,67.7332977 L81.9397714,70.6439546 C85.0600441,72.5833777 88.1742579,74.5197562 91.282413,76.4500454 C103.836209,83.9763465 116.350623,91.3534613 129.043771,98.2647492 C154.381596,112.172574 179.995097,125.002604 206.202357,136.614785 C232.397501,148.24219 259.068258,158.931852 286.529687,168.488914 C293.418522,170.815004 300.289181,173.265924 307.274956,175.455005 C310.758756,176.575426 314.251643,177.698891 317.75059,178.8254 C321.267713,179.894062 324.790894,180.962723 328.323164,182.03443 C335.345292,184.232646 342.627948,186.074641 349.416813,189.353697 C352.791555,190.991702 356.090561,192.93417 358.853366,195.549499 C361.622229,198.134381 363.833684,201.370813 365,205 C363.712509,201.42866 361.422289,198.317059 358.626162,195.869184 C355.836092,193.390863 352.549203,191.579314 349.186579,190.072227" id="Fill-94" fill="#000000"></path>
                            <path d="M76.302712,77.4854806 C77.2270892,76.8086547 78.5999266,76.8602224 79.533456,77.5112644 C80.4974929,78.1139618 81.1412011,79.393485 80.9734098,80.5698728 C80.8452783,81.7236998 80.0795402,82.7196007 79.1460108,83 C79.7531099,82.2361537 79.8781907,81.3176042 79.7561607,80.5924337 C79.63108,79.8640401 79.2314317,79.3451403 78.6853476,78.9680516 C78.1331619,78.6070777 77.5138597,78.4394828 76.8304917,78.6328616 C76.1532253,78.8262404 75.4118931,79.3548092 75.0305494,80.2765816 C74.8658089,79.2677887 75.3783349,78.1107388 76.302712,77.4854806" id="Fill-96" fill="#000000"></path>
                            <path d="M3.25846,92.6375629 C2.91558577,92.1116971 2.92772291,91.4202272 3.21294573,90.8682135 C3.4860314,90.310389 3.95331132,89.851346 4.50858552,89.5375697 C5.67981963,88.9071119 7.06952226,89.1366334 8.24682494,89.4765577 C8.84761341,89.6537832 9.4271619,89.8716833 10.0036761,90.0750568 C10.5862589,90.2609983 11.1597388,90.4643718 11.7423215,90.6357866 C12.9135556,90.9699002 14.087824,91.2749604 15.2802981,91.4928606 C20.0410917,92.422568 24.9080852,92.4341894 29.6901187,91.9170396 C39.3027344,90.8420654 48.4814472,87.4660654 58,84 C53.3484407,85.9611016 48.7818414,87.8437591 44.1272479,89.3835869 C39.4817572,90.9263202 34.7391694,92.1146024 29.884313,92.6753322 C25.0385594,93.201198 20.0714345,93.1459966 15.2408524,92.0797384 C14.0332069,91.8298795 12.8407328,91.4870499 11.6634301,91.106451 C10.4830932,90.725852 9.33916762,90.2319449 8.18917352,89.816482 C7.06041941,89.4329776 5.74960819,89.1598761 4.62692265,89.6828365 C4.0807513,89.9472221 3.60436852,90.3684957 3.31004285,90.8972668 C3.00358004,91.4144166 2.94289434,92.0884544 3.25846,92.6375629" id="Fill-97" fill="#000000"></path>
                            <path d="M16,93.768 C23.5391524,94.251 30.4207129,94.035 38,93 C30.6769576,95.07 23.458883,95.328 16,93.768" id="Fill-98" fill="#000000"></path>
                            <path d="M329.079487,13.1049484 C325.54984,14.165797 322.135127,15.5521332 318.699242,16.8269598 C311.848644,19.4308609 304.916382,21.7424259 297.932704,23.6169936 C284.019789,27.5258591 270.191561,31.1152644 256.278646,34.3761684 C242.362706,37.6159759 228.365103,40.527282 214.110414,42.9804944 C210.547498,43.6043457 206.966435,44.1769629 203.373273,44.74958 C199.777087,45.2800043 196.156705,45.885773 192.506077,46.2534535 C188.876621,46.6994921 185.189698,47.0521037 181.663077,48.0948696 C179.930011,48.6554317 178.227191,49.5113436 176.999225,50.9006936 C175.762186,52.2840161 175.154252,54.1435149 175,56 C175.084687,54.1585838 175.617008,52.2749748 176.817753,50.8132942 C178.006399,49.345586 179.709219,48.3992609 181.451358,47.769382 C184.981004,46.5819549 188.643731,46.1238612 192.245966,45.578368 C195.863324,45.1112329 199.411117,44.4361475 202.986131,43.8213375 C206.546023,43.1703622 210.096841,42.531442 213.629511,41.8443015 C227.772292,39.1469733 241.709404,36.11813 255.625343,32.8873638 C269.535234,29.6324874 283.423953,26.1696606 297.448776,22.5109384 C304.483872,20.7629492 311.431256,18.6322107 318.37864,16.2031085 C321.859893,15.0186952 325.329049,13.7257859 328.937333,12.7583643 C330.739963,12.3032844 332.606108,11.8783422 334.508548,12.0320447 C335.452207,12.1134166 336.401914,12.3846563 337.191321,12.9271357 C337.983752,13.4666013 338.56749,14.2471689 339,15.0789707 C338.540269,14.2652516 337.932335,13.5178355 337.145953,13.0115214 C336.359571,12.5082211 335.434059,12.2761604 334.517622,12.2249263 C332.663574,12.1314993 330.845822,12.6016481 329.079487,13.1049484" id="Fill-99" fill="#000000"></path>
                            <path d="M202.299762,33.2937788 C209.874377,31.9302107 217.39138,30.4489896 224.871995,28.8651991 C232.355642,27.3055426 239.802902,25.6372834 247.24713,23.9298065 C254.697423,22.2313798 262.135586,20.4605513 269.607104,18.6957562 C273.339831,17.8088336 277.081655,16.9219109 280.832575,16.0319716 C284.595625,15.1631494 288.310158,14.2279589 292.045917,13.1871823 C299.511371,11.1297631 306.988954,8.89435605 314.599957,6.86107082 C318.405458,5.84744494 322.244314,4.87002 326.146849,4.0826499 C328.099632,3.69348997 330.067576,3.34656444 332.062811,3.14142588 C333.057397,3.03583985 334.064111,2.98153846 335.070825,3.00567241 C336.068443,3.03885659 337.117609,3.14444262 338,3.6753895 C337.10548,3.1776268 336.068443,3.10522495 335.082954,3.10220821 C334.085337,3.11125844 333.090752,3.19572726 332.108295,3.32846398 C330.140351,3.59393743 328.196665,3.99516433 326.274204,4.43560891 C322.423219,5.33158178 318.638943,6.40252578 314.881958,7.50363722 C307.380117,9.78127869 299.948018,12.0408197 292.558371,14.285277 C288.858999,15.3833717 285.108079,16.4000143 281.381417,17.3080541 C277.654754,18.2372112 273.934156,19.1633515 270.219623,20.0864751 C262.784492,21.9176385 255.364522,23.7156177 247.917262,25.4170611 C233.034871,28.8440819 218.05848,31.9422777 202.79099,34.4341079 C187.526532,36.9530889 171.967945,38.8083863 156,40 C171.770847,38.2834729 187.159627,36.0601328 202.299762,33.2937788" id="Fill-100" fill="#000000"></path>
                            <path d="M159.495959,55.1963786 C161.332109,55.5582223 163.052719,56.3579275 164.523512,57.4586624 C167.480713,59.6753356 169.354335,62.773813 171,66 C168.442506,63.3515468 166.197281,60.739582 163.546106,58.7600837 C162.228325,57.7779363 160.782513,56.9539055 159.196179,56.3761717 C157.612968,55.8075601 155.864254,55.4822047 154,55.7163389 C155.689383,54.9531222 157.669177,54.8345348 159.495959,55.1963786" id="Fill-101" fill="#000000"></path>
                            <path d="M166,57 C164.654692,56.4763435 163.548271,56.1547501 162.479569,55.7534698 C161.40458,55.3664194 160.364167,54.8996821 159,54.415869 C160.307589,53.8722908 161.813202,53.8722908 163.095644,54.3532579 C164.38123,54.8256871 165.462506,55.7819294 166,57" id="Fill-102" fill="#000000"></path>
                            <path d="M258.087724,34.9116044 C280.097386,29.8212268 302.088898,24.3069071 325,18 C302.476094,25.3145377 280.67818,31.3480329 258.671543,36.4476266 C236.658856,41.5349321 214.434421,45.6883361 191,49 C214.044201,44.643841 236.075037,39.9927658 258.087724,34.9116044" id="Fill-103" fill="#000000"></path>
                            <path d="M223,44 C247.373814,39.1875593 269.620116,34.2203679 294,28 C270.324228,36.2321259 247.932248,41.2903471 223,44" id="Fill-104" fill="#000000"></path>
                            <path d="M344,42 C317.35737,54.1434849 290.690489,63.0780538 263.435524,69.3774866 C236.171465,75.6374531 208.282945,79.2744268 179,80 C207.961621,78.2058001 235.580349,74.107374 262.792875,67.8716945 C289.999339,61.6026204 316.829913,53.2114724 344,42" id="Fill-105" fill="#000000"></path>
                        </g>
                    </g>
                </g>
            </g>
        </g>
    </g>
</svg>