<?xml version="1.0" encoding="UTF-8"?>
<svg width="246px" height="435px" viewBox="0 0 246 435" version="1.1" xmlns="http://www.w3.org/2000/svg" xmlns:xlink="http://www.w3.org/1999/xlink">
    <!-- Generator: Sketch 49.3 (51167) - http://www.bohemiancoding.com/sketch -->
    <title>Hair care</title>
    <desc>Created with Sketch.</desc>
    <defs></defs>
    <g id="Desktop" stroke="none" stroke-width="1" fill="none" fill-rule="evenodd">
        <g id="Desktop.-Services-&amp;-Price" transform="translate(-694.000000, -2375.000000)">
            <g id="Group-8-Copy-6" transform="translate(490.000000, 2220.000000)">
                <g id="Group-2">
                    <g id="Hair-care" transform="translate(185.000000, 132.000000)">
                        <g id="ic_comb" transform="translate(183.728409, 282.306587) rotate(-21.000000) translate(-183.728409, -282.306587) translate(90.228409, 16.806587)">
                            <g id="Group" transform="translate(93.086720, 265.500000) rotate(-270.000000) translate(-93.086720, -265.500000) translate(-172.413280, 172.500000)">
                                <path d="M530.786027,101.462308 C530.847066,91.7928136 525.639986,82.7729368 517.193155,77.9171585 C516.676672,77.6180538 516.16019,77.3282961 515.643708,77.0385384 L513.127031,75.617791 C446.439789,38.0988422 371.362059,15.7314172 276.855207,5.22069024 C182.343661,-5.29003668 104.157647,0.0330926949 30.7936984,21.9799018 L28.028171,22.8117868 C27.4600406,22.9800332 26.8919102,23.1482796 26.3237797,23.325873 C17.008319,26.204756 9.92781765,33.8599675 7.84780299,43.3051338 C2.09137414,69.420715 -0.476950961,96.0503824 0.208561773,122.451048 C0.293077041,125.694465 2.81444922,128.414448 6.06828706,128.774309 L10.0076376,129.213619 C11.5523889,129.386538 12.9468909,128.274243 13.1206167,126.736658 L19.3324889,71.3929368 C19.5954253,69.0468341 20.9523649,66.7942016 23.3704406,64.677101 L16.4448839,126.358103 C16.2195099,128.367713 17.6938318,130.064198 19.8677523,130.30722 C22.0463681,130.550243 23.8587511,129.218292 24.0841251,127.208682 L31.6670228,59.6530764 C33.0098765,59.0455199 34.4513314,58.461331 35.9819968,57.8958361 L28.1502486,127.662013 C27.9248746,129.671623 29.3945012,131.368107 31.573117,131.61113 C33.7517328,131.854152 35.5641158,130.522202 35.7894898,128.512592 L44.0015567,55.353446 C45.3819728,54.9748916 46.7999512,54.6056842 48.241406,54.2551708 L39.8556133,128.961249 C39.6302392,130.970859 41.0998659,132.672017 43.2784817,132.910366 C45.4570975,133.153389 47.2647852,131.821438 47.4948545,129.811828 L56.1670601,52.5399922 C57.5380856,52.273602 58.9419781,52.0118854 60.3740424,51.7595158 L51.560978,130.265159 C51.3356039,132.274768 52.8052305,133.971253 54.9838464,134.214276 C57.1624622,134.457298 58.9701499,133.125348 59.2002192,131.111064 L68.2480482,50.4976677 C69.6190737,50.3013803 71.0135756,50.1050928 72.4268587,49.9181523 L63.2616474,131.564395 C63.0409686,133.574005 64.5105952,135.275163 66.689211,135.513512 C68.8631316,135.756534 70.6755145,134.424584 70.9008886,132.414974 L80.2679975,48.9694295 C81.639023,48.8198772 83.0335249,48.6703248 84.4374174,48.5301195 L74.9670121,132.868304 C74.741638,134.877914 76.2159599,136.574399 78.3945757,136.817421 C80.5684962,137.060444 82.3808792,135.728493 82.6062533,133.718883 L92.2503845,47.8150722 C93.6214099,47.6982345 95.0065213,47.5907437 96.4057185,47.4832529 L86.677072,134.167541 C86.4470027,136.17715 87.9213246,137.878309 90.0999404,138.121331 C92.2738609,138.35968 94.0862439,137.027729 94.311618,135.01812 L104.199904,46.9504726 C105.57093,46.8616759 106.951346,46.7822262 108.341153,46.7027765 L98.3777414,135.47145 C98.1523674,137.48106 99.6266893,139.177545 101.80061,139.420567 C103.979226,139.66359 105.791609,138.331639 106.016983,136.322029 L116.121253,46.3195486 C117.492278,46.258793 118.867999,46.2027108 120.257805,46.1513022 L110.083106,136.770686 C109.857732,138.78497 111.332054,140.481454 113.505975,140.724477 C115.68459,140.962826 117.496973,139.630875 117.722347,137.621265 L128.019124,45.8989326 C129.39015,45.8615445 130.76587,45.8241564 132.146287,45.7914418 L121.788471,138.074596 C121.563097,140.084206 123.037419,141.78069 125.211339,142.023713 C127.389955,142.266736 129.202338,140.934785 129.427712,138.925175 L139.898215,45.6512365 C141.264545,45.6325425 142.640266,45.6185219 144.020682,45.6045014 L133.493836,139.378506 C133.268461,141.388116 134.738088,143.0846 136.916704,143.327623 C139.09532,143.565972 140.907703,142.234021 141.133077,140.224411 L151.758524,45.5671133 C153.124854,45.5671133 154.49588,45.5671133 155.876296,45.5717868 L145.1992,140.677742 C144.973826,142.687352 146.443453,144.383836 148.622069,144.626859 C150.800684,144.869881 152.613067,143.537931 152.838441,141.528321 L163.600052,45.6278689 C164.966382,45.646563 166.337408,45.6605835 167.713129,45.6839511 L156.904565,141.981651 C156.674496,143.991261 158.148817,145.687746 160.327433,145.930768 C162.506049,146.169118 164.318432,144.837167 164.543806,142.827557 L175.43219,45.8288299 C176.79852,45.856871 178.16485,45.8895856 179.535876,45.9269737 L168.60993,143.280888 C168.37986,145.290497 169.854182,146.986982 172.032798,147.230005 C174.206718,147.473027 176.019101,146.141077 176.244475,144.131467 L187.245546,46.1559757 C188.607181,46.2027108 189.978207,46.249446 191.344537,46.3008546 L180.315294,144.584797 C180.085225,146.594407 181.559547,148.290892 183.733467,148.533914 C185.912083,148.776937 187.724466,147.440313 187.94984,145.430703 L199.044817,46.6046328 C200.411147,46.6653885 201.772782,46.7308176 203.139112,46.7962468 L192.015964,145.884033 C191.79059,147.893643 193.264912,149.590128 195.438832,149.83315 C197.617448,150.076173 199.429831,148.744222 199.655205,146.734612 L210.830001,47.1841482 C212.196332,47.2589244 213.557967,47.3337006 214.919601,47.4131503 L203.721328,147.187943 C203.599251,148.276871 203.956093,149.28635 204.726121,150.034111 C205.3459,150.641668 206.209833,151.034243 207.144197,151.13706 C209.322813,151.380083 211.135196,150.048132 211.36057,148.033849 L222.6011,47.8805014 C223.96743,47.9692981 225.329065,48.0580948 226.6907,48.1515651 L215.426693,148.487179 C215.201319,150.496789 216.675641,152.193274 218.849561,152.436296 C221.028177,152.679319 222.84056,151.347368 223.065934,149.337758 L234.362808,48.6983659 C235.724443,48.8011831 237.086078,48.9040004 238.443018,49.0114911 L227.132058,149.791089 C226.906684,151.800699 228.37631,153.497183 230.554926,153.740206 C232.733542,153.983228 234.545925,152.651278 234.771299,150.641668 L246.110431,49.6377416 C247.472066,49.7545794 248.829005,49.8714172 250.185945,49.9929285 L238.837422,151.090325 C238.612048,153.099935 240.081675,154.801093 242.260291,155.039442 C244.438907,155.282465 246.25129,153.950514 246.476664,151.940904 L257.839272,50.7079757 C259.200907,50.838834 260.557846,50.9743659 261.910091,51.1145712 L250.542787,152.394235 C250.317413,154.403844 251.78704,156.100329 253.965655,156.343352 C256.144271,156.586374 257.956654,155.254424 258.182028,153.244814 L269.554027,51.9137416 L271.587089,52.1380702 L273.620151,52.3670722 L262.248152,153.693471 C262.022778,155.703081 263.492404,157.404239 265.67102,157.642588 C267.844941,157.88561 269.657324,156.55366 269.882698,154.54405 L281.254697,53.2643864 C282.602246,53.4279593 283.959185,53.5915322 285.316125,53.7644521 L273.953516,154.99738 C273.723447,157.00699 275.197769,158.703475 277.37169,158.946497 C279.550305,159.18952 281.362688,157.857569 281.588062,155.847959 L292.936585,54.750563 C294.288829,54.9281564 295.636378,55.1104234 296.993318,55.2973638 L285.654186,156.296617 C285.428812,158.306226 286.903134,160.007385 289.08175,160.250407 C291.25567,160.488756 293.068053,159.156805 293.293427,157.147196 L304.609082,56.3675979 C305.956631,56.5638854 307.30418,56.7601729 308.656425,56.9611339 L297.359551,157.600526 C297.134177,159.610136 298.608498,161.306621 300.782419,161.549643 C302.961035,161.792666 304.773418,160.460715 304.998792,158.451105 L316.262799,58.1108176 C317.610348,58.3211256 318.957897,58.5314337 320.310141,58.7464152 L309.064915,158.899762 C308.839541,160.914046 310.313863,162.61053 312.487784,162.848879 C314.666399,163.091902 316.478782,161.759951 316.704156,159.750341 L327.90243,59.9755486 C329.249979,60.1998772 330.597528,60.4242057 331.945077,60.6532078 L320.77028,160.203672 C320.544906,162.213282 322.014533,163.909766 324.193148,164.152789 C326.371764,164.395812 328.184147,163.063861 328.409521,161.054251 L339.53267,61.9617909 C340.880219,62.20014 342.223072,62.4384891 343.570621,62.6815117 L332.475645,161.507582 C332.250271,163.517192 333.719897,165.213676 335.898513,165.456699 C338.077129,165.695048 339.889512,164.363097 340.114886,162.353487 L351.144128,64.0695445 C352.491677,64.3219142 353.834531,64.5742838 355.177385,64.8313269 L344.181009,162.806818 C343.955635,164.816428 345.425262,166.512912 347.603878,166.755935 C349.782494,166.998957 351.594876,165.667007 351.820251,163.657397 L362.746197,66.2988094 C364.093746,66.5698731 365.431904,66.8362632 366.774758,67.1073269 L355.886374,164.106054 C355.661,166.120337 357.130627,167.816822 359.309242,168.059845 C361.487858,168.298194 363.300241,166.966243 363.525615,164.956633 L374.334179,68.6636062 C375.677033,68.9440168 377.015191,69.229101 378.35335,69.5141852 L367.591739,165.409964 C367.366365,167.419573 368.835991,169.116058 371.014607,169.359081 C373.188528,169.602103 375.000911,168.270153 375.226285,166.260543 L385.90338,71.1545877 C387.246234,71.4536924 388.584392,71.7527971 389.922551,72.0519018 L379.297103,166.713873 C379.071729,168.723483 380.541356,170.419968 382.719972,170.66299 C384.893892,170.906013 386.706275,169.569389 386.931649,167.559779 L397.458496,73.790448 C398.801349,74.1035733 400.139508,74.4213721 401.468275,74.7391708 L390.997773,168.013109 C390.772399,170.022719 392.246721,171.719204 394.425336,171.962226 C396.599257,172.205249 398.41164,170.873298 398.637014,168.863688 L408.99483,76.5805343 C410.337683,76.9170271 411.671147,77.2535199 412.999914,77.5900127 L402.703137,169.317019 C402.477763,171.326629 403.952085,173.023114 406.126006,173.266136 C408.304622,173.509159 410.117005,172.177208 410.342379,170.162925 L420.512383,79.5435405 C421.855236,79.8987273 423.1887,80.2585877 424.512772,80.6184481 L414.408502,170.616255 C414.183128,172.625865 415.65745,174.32235 417.831371,174.565372 C420.009986,174.808395 421.822369,173.476444 422.047743,171.466834 L432.011154,82.6981606 C433.354008,83.0813885 434.678081,83.4646164 435.997458,83.8478444 L426.113867,171.920165 C425.888493,173.929775 427.358119,175.626259 429.536735,175.869282 C431.715351,176.112304 433.527734,174.780354 433.753108,172.770744 L443.481755,86.0817828 C444.819913,86.4930518 446.148681,86.9043208 447.463363,87.3155898 L437.819232,173.219401 C437.593857,175.229011 439.063484,176.930169 441.2421,177.168518 C443.420716,177.411541 445.233099,176.07959 445.458473,174.06998 L454.924183,89.7364686 C456.262341,90.1804522 457.586414,90.6291093 458.891705,91.0777664 L449.524596,174.523311 C449.299222,176.53292 450.768849,178.229405 452.947465,178.472428 C455.12608,178.71545 456.938463,177.3835 457.163837,175.37389 L466.329049,93.7276473 C467.667207,94.2183659 468.981889,94.7137581 470.27779,95.2091503 L461.229961,175.822547 C461.004587,177.832157 462.474213,179.533315 464.652829,179.771664 C466.82675,180.014686 468.639133,178.682736 468.864507,176.673126 L477.677571,98.1721565 C479.01573,98.7283044 480.330412,99.2937992 481.607531,99.8546206 L472.935326,177.126456 C472.709952,179.136066 474.179578,180.832551 476.358194,181.075573 C478.532114,181.318596 480.344497,179.986645 480.569872,177.977035 L488.955664,103.270957 C490.289127,103.929922 491.589723,104.598235 492.848062,105.27122 L484.635995,178.425693 C484.410621,180.435302 485.884943,182.136461 488.063559,182.379483 C490.237479,182.617832 492.049862,181.285881 492.275236,179.276272 L500.106984,109.510095 C501.473315,110.398062 502.750434,111.286029 503.924257,112.173996 L496.34136,179.729602 C496.115986,181.739212 497.590308,183.435697 499.768923,183.678719 C501.942844,183.921742 503.755227,182.589791 503.980601,180.580181 L510.906158,118.894506 C512.793665,121.492978 513.615342,123.983959 513.352405,126.330062 L507.140533,181.678456 C506.966807,183.216042 508.084287,184.604075 509.629038,184.776994 L513.563693,185.216304 C516.822226,185.576165 519.883557,183.477758 520.686452,180.337159 C527.208214,154.735664 530.60291,128.199467 530.786027,101.462308" id="Fill-60" fill="#262626"></path>
                                <path d="M525.45687,107.350933 C526.701122,131.938276 523.738393,154.63752 516.254096,177.776075 C518.320025,165.676354 520.00094,154.170169 521.517519,142.64529 C523.020013,131.120411 524.358171,119.572165 525.45687,107.350933 Z M15.1348973,67.8784563 C13.6652706,87.2548341 11.8951453,104.668337 8.77747094,123.624099 C8.35958989,104.247721 10.2236211,86.6426041 15.1348973,67.8784563 Z M499.182012,102.672748 C503.656626,105.416099 508.065506,108.379105 511.732529,112.150629 C507.957514,108.491269 503.478205,105.677816 498.942552,103.07467 C494.388118,100.476198 489.683435,98.1534625 484.908322,95.9802797 C475.353401,91.6479347 465.54963,87.8810846 455.647258,84.4180127 C435.851904,77.4404604 415.65745,71.6172653 395.28927,66.523138 C354.557606,56.3535774 313.14982,48.7965096 271.408668,44.2865712 C229.686297,39.5896923 187.625865,37.8932077 145.640558,38.8933392 C124.647904,39.4074254 103.659946,40.6692735 82.7987603,43.0948258 C72.3705152,44.2818977 61.9657466,45.7680743 51.673665,47.8337663 C46.5323195,48.8806328 41.4144505,50.0630312 36.385792,51.5585548 C33.8691151,52.3016431 31.3759147,53.1195076 28.9390578,54.0915979 C26.5068962,55.0636883 24.1122969,56.1713104 21.9618528,57.6855281 C24.065344,56.1105548 26.4364668,54.9234829 28.8498472,53.8766164 C31.267923,52.8297499 33.7423422,51.9371092 36.2449332,51.1145712 C41.2595058,49.4975363 46.3679843,48.1983002 51.5046345,47.0392694 C61.7826302,44.7399018 72.1780082,43.0200496 82.6109486,41.5993022 C103.49561,38.8559511 124.521131,37.3277129 145.565433,36.5238689 C166.609735,35.6966574 187.686904,35.8649038 208.735901,36.6407067 C229.780203,37.4445507 250.805723,38.9494213 271.751424,41.2114008 C292.687734,43.5575034 313.530139,46.688756 334.236379,50.5116883 C354.937925,54.3579881 375.540869,58.8024973 395.890268,64.2144234 C416.239666,69.6076554 436.415339,75.7019142 456.168435,82.9925918 C466.023855,86.6846657 475.771282,90.6805179 485.260469,95.2418649 C489.998019,97.5272119 494.674531,99.9527643 499.182012,102.672748 Z M501.327761,83.5347191 C505.802374,86.2780702 510.21595,89.2410764 513.878278,93.0172735 C510.103263,89.3532407 505.628649,86.5397869 501.088301,83.9366411 C496.538562,81.3381688 491.829183,79.0201072 487.058766,76.8422509 C477.503845,72.509906 467.700074,68.7477294 457.793007,65.279984 C437.997653,58.3071051 417.803199,52.4792365 397.439714,47.3851092 C356.703355,37.2155486 315.295569,29.6631543 273.554417,25.1485424 C231.832046,20.4516636 189.771614,18.7598525 147.786306,19.7553104 C126.793653,20.2693966 105.81039,21.5359182 84.9492043,23.956797 C74.516264,25.1438689 64.1161906,26.6300455 53.8241091,28.700411 C48.6780683,29.742604 43.5601992,30.9296759 38.5315408,32.4251995 C36.0195592,33.1636143 33.5263587,33.9861523 31.0895018,34.9535691 C28.6573402,35.9256595 26.2627409,37.0379552 24.1076016,38.5474993 C26.215788,36.972526 28.5869108,35.7854541 31.0002913,34.7385876 C33.4136717,33.6963946 35.8927863,32.7990804 38.3953773,31.9812159 C43.4052546,30.3595075 48.513733,29.0649449 53.6503832,27.9012406 C63.9283789,25.601873 74.3284523,23.8820209 84.7613926,22.4612734 C105.646055,19.7179223 126.671575,18.1896841 147.711182,17.3858402 C168.760179,16.5586287 189.837348,16.7268751 210.88165,17.5026779 C231.930647,18.3065219 252.951472,19.8113925 273.897173,22.0780455 C294.833483,24.4241482 315.675887,27.5507272 336.386823,31.3736595 C357.088369,35.2246328 377.686618,39.6644685 398.036017,45.0810681 C418.385415,50.4696267 438.561088,56.5685589 458.314184,63.854563 C468.169604,67.546637 477.921726,71.5424891 487.406218,76.1038361 C492.143768,78.3891832 496.82028,80.819409 501.327761,83.5347191 Z M506.600574,83.1281236 C511.028235,86.2079676 515.357295,89.5355076 518.845898,93.6528711 C515.183569,89.694407 510.741822,86.5818485 506.210865,83.7169861 C501.665822,80.8474501 496.937662,78.2770189 492.129682,75.8795076 C482.504332,71.084485 472.559702,66.953101 462.502385,63.1348423 C442.411228,55.4422427 421.822369,49.0628998 401.031613,43.5154418 C380.217381,38.0427601 359.238813,33.1823084 338.077129,29.2612324 C316.929531,25.2747272 295.641073,22.0453309 274.24932,19.7272693 C252.871652,17.329758 231.385993,15.8435814 209.876857,15.0958196 C188.367721,14.3013227 166.825718,14.4368545 145.311887,15.2266779 C123.802751,16.0912775 102.312397,17.8158032 81.0004632,20.8676061 C70.3421488,22.3537827 59.7213967,24.1811256 49.250894,26.6674336 C44.0203379,27.9152611 38.8226489,29.331335 33.7423422,31.0932488 C31.1974936,31.9625219 28.6808167,32.9159182 26.2392645,34.0328874 C23.793017,35.1498566 21.4125036,36.4350722 19.2902313,38.0941687 C21.3373789,36.341602 23.68033,34.9442221 26.0843198,33.7197622 C28.493005,32.4953022 30.9815101,31.4203946 33.498187,30.4389572 C38.5503219,28.490103 43.7292298,26.9104562 48.9456999,25.4803617 C59.3833356,22.6435404 69.9900018,20.4656841 80.6483162,18.6336677 C101.993117,15.1004931 123.54451,12.978719 145.138161,11.6794829 C188.330159,9.1744808 231.733445,10.4737169 274.765802,15.1145137 C317.779378,19.9375773 360.403246,28.1863248 401.994148,40.0757375 C422.766123,46.0625055 443.32681,52.8577909 463.352233,61.0224152 C473.32973,65.1865137 483.18515,69.6543905 492.702508,74.7905795 C497.454144,77.3563372 502.130656,80.0903413 506.600574,83.1281236 Z M517.672074,179.575376 C517.249498,181.225126 515.629622,182.328075 513.911145,182.136461 L510.262903,181.734539 L516.441908,126.675902 C516.902046,122.577233 515.028625,118.343031 510.873291,114.085462 C510.45541,113.660173 509.821545,113.505947 509.253415,113.702235 C508.685284,113.893849 508.281489,114.398588 508.21106,114.996797 L500.891098,180.234341 C500.844145,180.650284 500.28071,180.622243 500.11168,180.603549 C499.942649,180.584855 499.388605,180.486711 499.435558,180.070769 L507.112361,111.650563 C507.1734,111.117783 506.952721,110.589676 506.52545,110.257857 C504.515864,108.69223 502.201085,107.117257 499.646846,105.565651 C499.196098,105.289914 498.632663,105.266547 498.153743,105.495549 C497.674823,105.729224 497.350848,106.187228 497.294504,106.715335 L489.185734,178.935105 C489.138781,179.351048 488.575346,179.318333 488.406315,179.299639 C488.237284,179.280945 487.68324,179.187475 487.730193,178.771532 L496.054947,104.579541 C496.125376,103.957963 495.810792,103.350407 495.256747,103.051302 C493.05935,101.85021 490.730485,100.663138 488.33119,99.5181278 C487.880442,99.3031462 487.345179,99.3171668 486.903821,99.5601894 C486.462464,99.803212 486.16666,100.242522 486.110317,100.742588 L477.480369,177.631196 C477.433416,178.047138 476.874676,178.019097 476.70095,178.000403 C476.53192,177.981709 475.977875,177.888239 476.024828,177.467623 L484.823807,99.0694707 C484.898931,98.4058321 484.532699,97.7608875 483.91292,97.4898239 C481.692046,96.494366 479.349095,95.498908 476.949801,94.5221442 C476.499053,94.3352037 475.991961,94.3725918 475.569385,94.6202879 C475.151504,94.867984 474.869786,95.2979471 474.818138,95.7793187 L465.775004,176.327286 C465.728051,176.747902 465.169311,176.715187 464.995586,176.696493 C464.826555,176.677799 464.272511,176.584329 464.319464,176.168387 L473.498761,94.3679183 C473.578581,93.6715651 473.174786,93.0079265 472.52214,92.7555569 C470.263704,91.8769368 467.930144,91.0076637 465.535544,90.1383906 C465.080101,89.9794912 464.587095,90.0262263 464.1833,90.2785959 C463.779505,90.5309655 463.507178,90.9515815 463.45553,91.4236062 L454.06964,175.02805 C454.022687,175.443992 453.463947,175.415951 453.294916,175.397257 C453.12119,175.378563 452.567146,175.280419 452.614099,174.864477 L462.122067,90.1944727 C462.201887,89.474752 461.774615,88.7970928 461.089102,88.5587438 C458.80719,87.7642468 456.464239,86.9790969 454.07903,86.193947 C453.637673,86.0490682 453.144667,86.1098238 452.750262,86.3621934 C452.355858,86.6145631 452.097617,87.0258321 452.045968,87.4931832 L442.364275,173.728814 C442.317322,174.140083 441.758582,174.112042 441.584856,174.093348 C441.415826,174.074654 440.861781,173.981183 440.908734,173.565241 L450.693724,86.3995815 C450.778239,85.6658403 450.327491,84.9788341 449.623197,84.7545056 C447.322504,84.0207643 444.979553,83.29637 442.59904,82.5766493 C442.152987,82.445791 441.678762,82.5112201 441.289053,82.7635897 C440.904039,83.0159594 440.650493,83.4272284 440.598845,83.8852325 L430.65891,172.424904 C430.611957,172.840847 430.053217,172.812805 429.884187,172.794111 C429.710461,172.770744 429.156417,172.677274 429.203369,172.261331 L439.23721,82.9037951 C439.31703,82.1560333 438.852196,81.4596801 438.129121,81.2446986 C435.814342,80.5670394 433.471391,79.8893803 431.090877,79.2210682 C430.65891,79.0995569 430.17999,79.1696596 429.804367,79.4267027 C429.424048,79.6790723 429.175198,80.0856678 429.123549,80.5389984 L418.958241,171.120994 C418.911288,171.54161 418.347853,171.508896 418.178822,171.490202 C418.005096,171.471508 417.455747,171.378038 417.5027,170.962095 L427.752524,79.6416842 C427.837039,78.8845754 427.353424,78.1788752 426.616263,77.9779142 C424.296789,77.3469901 421.939752,76.7160661 419.568629,76.0898156 C419.131967,75.9776513 418.667133,76.057101 418.291509,76.3094706 C417.920581,76.5665138 417.676426,76.9684357 417.624778,77.4170928 L407.252876,169.821758 C407.205923,170.237701 406.647183,170.20966 406.473458,170.190966 C406.299732,170.167598 405.750382,170.074128 405.797335,169.658185 L416.239666,76.5992283 C416.328877,75.8327725 415.835871,75.1223988 415.084624,74.9261113 C412.751064,74.3279018 410.398722,73.7343659 408.022904,73.150177 C407.586242,73.0426862 407.126103,73.1268094 406.75987,73.3791791 C406.388942,73.6362222 406.154178,74.0381441 406.102529,74.4774542 L395.547511,168.517849 C395.500558,168.933791 394.937123,168.90575 394.768093,168.887056 C394.594367,168.868362 394.045018,168.774892 394.091971,168.358949 L404.712723,73.7296924 C404.797238,72.9538895 404.294842,72.2388423 403.534204,72.0519018 C401.191253,71.4910805 398.838912,70.9302591 396.463093,70.3787848 C396.035822,70.2806411 395.575683,70.3647643 395.20945,70.6218074 C394.847913,70.874177 394.613148,71.2714255 394.5615,71.7107355 L383.842147,167.218612 C383.795194,167.634555 383.236454,167.60184 383.062728,167.583146 C382.893698,167.564452 382.339653,167.470982 382.386606,167.05504 L393.166998,71.0237294 C393.251513,70.2385795 392.739726,69.5141852 391.965003,69.3412653 C389.622052,68.808485 387.26032,68.2803782 384.884502,67.756945 C384.452535,67.6681482 384.001787,67.756945 383.644944,68.0139881 C383.288102,68.2663577 383.053338,68.6636062 383.006385,69.0982427 L372.136782,165.914703 C372.089829,166.330645 371.531089,166.302604 371.357363,166.28391 C371.188333,166.265216 370.634288,166.171746 370.681241,165.755803 L381.602492,68.4673187 C381.691703,67.6774953 381.16583,66.9484275 380.386411,66.7801811 C378.03407,66.2754419 375.667642,65.7753762 373.296519,65.279984 C372.864552,65.1911873 372.4185,65.289331 372.066353,65.5417006 C371.714206,65.7987437 371.479441,66.1913187 371.432488,66.6259552 L360.431417,164.615467 C360.384464,165.031409 359.825725,164.998695 359.651999,164.980001 C359.482968,164.961307 358.928924,164.867836 358.975877,164.451894 L370.0239,66.0464398 C370.113111,65.2472694 369.577848,64.5135281 368.789038,64.3546287 C366.432001,63.8779306 364.065574,63.4059059 361.689756,62.9338813 C361.253094,62.8497581 360.821127,62.9525753 360.46898,63.204945 C360.121528,63.4619881 359.891459,63.854563 359.844506,64.2845261 L348.726053,163.311557 C348.683795,163.7275 348.12036,163.699458 347.946634,163.680764 C347.777604,163.66207 347.223559,163.5686 347.270512,163.152658 L358.426527,63.7564193 C358.520433,62.9525753 357.975779,62.2141606 357.17758,62.0599347 C354.815847,61.6066041 352.444724,61.1626205 350.068906,60.7186369 C349.665111,60.6485343 349.209668,60.7420045 348.862216,60.9990476 C348.514764,61.2560907 348.28939,61.6439922 348.242438,62.0692817 L337.020688,162.012321 C336.973735,162.428263 336.414995,162.395549 336.245965,162.376855 C336.072239,162.358161 335.518194,162.26469 335.565147,161.848748 L346.819764,61.58791 C346.91367,60.7793926 346.359625,60.0363043 345.552035,59.8914254 C343.185607,59.4614624 340.809789,59.0408464 338.438666,58.6295774 C338.01609,58.5501277 337.579428,58.6576185 337.236671,58.9146616 C336.893915,59.1717047 336.673236,59.5549326 336.626283,59.9802222 L325.320019,160.708411 C325.273066,161.124354 324.709631,161.096313 324.5406,161.077619 C324.366874,161.058925 323.81283,160.965454 323.859783,160.544838 L335.198914,59.5455856 C335.288125,58.7277211 334.72469,57.9846328 333.917099,57.8444275 C331.541281,57.4425055 329.170159,57.0452571 326.79434,56.6573556 C326.395241,56.5825794 325.939797,56.6947437 325.601736,56.9517868 C325.25898,57.2041564 325.042996,57.5920579 324.996043,58.0126739 L313.614654,159.409175 C313.567701,159.825118 313.004266,159.792403 312.835235,159.773709 C312.661509,159.755015 312.11216,159.661545 312.159113,159.245602 L323.563979,57.6247725 C323.657885,56.8022345 323.085059,56.0544727 322.263383,55.9236143 C319.887565,55.5403864 317.507052,55.171179 315.135929,54.8066451 C314.689876,54.7458895 314.286081,54.8487067 313.952715,55.1057499 C313.614654,55.362793 313.39867,55.7413474 313.351717,56.1619634 L301.909289,158.105265 C301.862336,158.521208 301.298901,158.493167 301.129871,158.474473 C300.956145,158.455779 300.406796,158.357635 300.453748,157.941693 L311.914958,55.8207971 C312.008864,54.9935856 311.426647,54.2411503 310.600276,54.119639 C308.215067,53.7644521 305.834554,53.4139388 303.463431,53.0727725 C303.036159,53.0073433 302.622974,53.1241811 302.289608,53.3812242 C301.956242,53.6382673 301.740259,54.0168217 301.693306,54.4327642 L290.203924,156.806029 C290.156972,157.221972 289.593536,157.189257 289.424506,157.170563 C289.255475,157.151869 288.701431,157.058399 288.748384,156.642456 L300.251851,54.1430065 C300.345757,53.3111215 299.75415,52.5540127 298.918388,52.4371749 C296.528484,52.1100291 294.14797,51.7828833 291.772152,51.4697581 C291.401224,51.4136759 290.941085,51.5305137 290.60772,51.7875568 C290.279049,52.0446 290.067761,52.4231544 290.020808,52.8344234 L278.49856,155.50212 C278.451607,155.918062 277.892867,155.890021 277.719141,155.871327 C277.550111,155.852633 276.996066,155.754489 277.043019,155.338547 L288.574658,52.5914008 C288.668564,51.7501688 288.067566,50.9930599 287.227109,50.8855692 C284.827814,50.5817909 282.442606,50.2873597 280.066788,50.0022755 C280.062092,50.0022755 280.057397,50.0022755 280.052702,50.0022755 C279.648907,49.9555404 279.235721,50.0723782 278.916441,50.3247478 C278.592466,50.5817909 278.381177,50.9556718 278.334225,51.3669408 L266.793195,154.19821 C266.746242,154.618826 266.187502,154.586111 266.013777,154.567417 C265.844746,154.548723 265.290701,154.455253 265.337654,154.039311 L276.883379,51.1800004 C276.977285,50.3294213 276.366897,49.567639 275.517049,49.4694952 L271.934541,49.0582262 L268.347337,48.6703248 C267.497489,48.5815281 266.732156,49.1890846 266.63825,50.0396636 L255.08783,152.898974 C255.040878,153.314916 254.482138,153.286875 254.308412,153.268181 C254.139381,153.249487 253.585337,153.151343 253.63229,152.735401 L265.178014,49.9041318 C265.220272,49.4928628 265.10289,49.0815938 264.839953,48.763795 C264.581712,48.4413228 264.210784,48.2403618 263.802294,48.1936267 C263.797598,48.1936267 263.792903,48.1936267 263.792903,48.1936267 C261.407694,47.9459306 259.01779,47.7075815 256.613801,47.4785794 C255.768648,47.3991297 255.012706,48.0066862 254.9188,48.8479182 L243.382466,151.599738 C243.335513,152.011007 242.776773,151.982966 242.607742,151.964272 C242.434017,151.945578 241.879972,151.852107 241.926925,151.436165 L253.453869,48.7684685 C253.500822,48.3571995 253.374049,47.941257 253.111112,47.6187848 C252.848176,47.2963125 252.388037,47.0719839 252.049976,47.0532899 C249.664767,46.8383084 247.265473,46.6280004 244.861483,46.4270394 C244.021026,46.3569367 243.279169,46.9644932 243.185263,47.7963782 L231.681796,150.295828 C231.634843,150.711771 231.071408,150.683729 230.902378,150.665035 C230.728652,150.641668 230.174607,150.548198 230.22156,150.132255 L241.710942,47.7636636 C241.76259,47.3477211 241.635817,46.9317786 241.368185,46.6093063 C241.100553,46.2821605 240.706149,46.0718525 240.292963,46.048485 C237.903059,45.856871 235.503765,45.6792776 233.099775,45.5016841 C232.264013,45.4409285 231.531547,46.0438115 231.437641,46.871023 L219.976432,148.991918 C219.929479,149.412534 219.366044,149.37982 219.197013,149.361126 C219.023287,149.342432 218.473938,149.248962 218.516196,148.833019 L229.963319,46.889717 C230.010272,46.469101 229.883499,46.048485 229.611172,45.7260127 C229.338845,45.4035404 228.982003,45.2119264 228.52656,45.1745384 C226.127265,45.0062919 223.723275,44.8473926 221.319285,44.6978402 C220.492914,44.6464316 219.769839,45.2493145 219.675933,46.0718525 L208.271067,147.692682 C208.224114,148.108625 207.660679,148.080584 207.491648,148.06189 C207.317923,148.038522 206.768573,147.945052 206.810831,147.529109 L218.196916,46.1326082 C218.243869,45.7119922 218.1124,45.2913761 217.840073,44.9642303 C217.563051,44.6417581 217.14517,44.4314501 216.741375,44.4174295 C214.337385,44.2772242 211.933395,44.1416924 209.529405,44.0155076 C208.707729,43.9687724 207.994045,44.5716554 207.904834,45.3895199 L196.565702,146.388773 C196.518749,146.804715 195.955314,146.776674 195.786284,146.75798 C195.617253,146.739286 195.063209,146.645816 195.105466,146.229873 L206.416426,45.5016841 C206.463379,45.0763946 206.331911,44.6511051 206.054889,44.3239593 C205.773171,44.001487 205.364681,43.7958525 204.9468,43.781832 C202.538115,43.6649942 200.134125,43.5528299 197.72544,43.4500127 C196.908459,43.4172981 196.204165,44.0155076 196.114954,44.824025 L184.860338,145.089536 C184.813385,145.505479 184.254645,145.472764 184.080919,145.45407 C183.911888,145.435376 183.357844,145.341906 183.404797,144.925964 L194.621851,44.9875979 C194.668804,44.5576349 194.537336,44.1323453 194.255618,43.8051995 C193.973901,43.4780538 193.546629,43.2864398 193.138139,43.2677457 C190.724758,43.1742755 188.311378,43.0901523 185.907388,43.0153761 C185.095102,42.9873351 184.400199,43.5855445 184.310988,44.3893885 L173.154973,143.785627 C173.10802,144.201569 172.54928,144.173528 172.375554,144.154834 C172.206524,144.13614 171.652479,144.04267 171.699432,143.626727 L182.81319,44.595023 C182.864838,44.1650599 182.728675,43.7350969 182.442262,43.4079511 C182.155849,43.0808053 181.76614,42.8891913 181.310696,42.8751708 C178.892621,42.8097416 176.47924,42.7536595 174.07525,42.7022509 C173.272355,42.6835568 172.586842,43.2817663 172.497632,44.0762632 L161.449608,142.486391 C161.402655,142.902333 160.843915,142.869619 160.67019,142.850925 C160.501159,142.832231 159.947115,142.73876 159.994067,142.322818 L170.990443,44.3333063 C171.042091,43.9033433 170.901232,43.4687067 170.61482,43.1415609 C170.323711,42.8144151 169.915221,42.6228012 169.473863,42.6134542 C167.051092,42.5760661 164.633017,42.5433515 162.229027,42.5199839 C161.430827,42.5106369 160.754705,43.1041728 160.665494,43.8939963 L149.744244,141.182481 C149.697291,141.598424 149.138551,141.570382 148.964825,141.551688 C148.795794,141.532994 148.24175,141.439524 148.288703,141.023582 L159.158305,44.2071215 C159.205258,43.7678115 159.069095,43.3331749 158.773291,43.0060291 C158.482183,42.6742098 158.059607,42.4872694 157.618249,42.4872694 C155.190783,42.4732488 152.768012,42.4685753 150.364022,42.4732488 C149.570518,42.4732488 148.908481,43.0667848 148.819271,43.8472611 L138.038879,139.883245 C137.991926,140.299187 137.433186,140.266473 137.264156,140.247779 C137.09043,140.229085 136.536385,140.135614 136.583338,139.719672 L147.302691,44.2164685 C147.35434,43.7771585 147.213481,43.3331749 146.912982,43.0060291 C146.617179,42.6788833 146.189907,42.4966164 145.748549,42.4966164 C143.306997,42.5106369 140.888922,42.538678 138.480236,42.5760661 C137.696122,42.5854131 137.043477,43.178949 136.958962,43.9500784 L126.338209,138.579335 C126.291257,138.995278 125.727821,138.967237 125.558791,138.948543 C125.385065,138.929849 124.83102,138.836378 124.877973,138.415762 L135.437687,44.3800414 C135.48464,43.9360579 135.343781,43.4920743 135.038587,43.1649285 C134.738088,42.8331092 134.301426,42.6508423 133.860068,42.6601893 C131.409126,42.7069244 128.986355,42.7723535 126.577669,42.8424562 C125.802946,42.8658238 125.164386,43.4500127 125.075176,44.2164685 L114.632845,137.280099 C114.585892,137.696042 114.022457,137.663327 113.853426,137.644633 C113.6797,137.625939 113.130351,137.532469 113.172609,137.116526 L123.549206,44.7118607 C123.596159,44.2632036 123.450604,43.8145466 123.140715,43.4874008 C122.835521,43.1555815 122.398859,42.977988 121.948111,42.9920086 C119.492473,43.0808053 117.055616,43.1742755 114.651626,43.2864398 C113.886293,43.3191544 113.261819,43.9033433 113.177304,44.6604521 L102.92748,135.976189 C102.880527,136.392132 102.317092,136.364091 102.148061,136.345397 C101.974336,136.326703 101.420291,136.228559 101.471939,135.812617 L111.637248,45.2306205 C111.688896,44.7772899 111.538647,44.3286328 111.224062,43.9968135 C110.909478,43.6649942 110.45873,43.4920743 110.012677,43.5107683 C107.542953,43.6416266 105.106096,43.7865055 102.697411,43.9407314 C101.946164,43.9874665 101.335776,44.5669819 101.251261,45.3147437 L91.2221154,134.676953 C91.1751624,135.092896 90.6164226,135.060181 90.4426968,135.041487 C90.2736662,135.022793 89.7196217,134.929323 89.7665746,134.51338 L99.701814,45.9737088 C99.7534622,45.5157047 99.5985175,45.0623741 99.2792376,44.7305548 C98.9599577,44.3987355 98.5092096,44.2304891 98.0443757,44.2585301 C95.5652611,44.4361236 93.1190136,44.632411 90.7103285,44.8380455 C89.9731675,44.9034747 89.3815606,45.4736431 89.3017407,46.2073844 L79.5167507,133.373044 C79.4697978,133.788986 78.9110579,133.760945 78.7373321,133.742251 C78.5683016,133.723557 78.014257,133.625413 78.0612099,133.209471 L87.7382082,46.9785137 C87.7898564,46.5158361 87.6302165,46.0531585 87.301546,45.7213392 C86.9728755,45.3848464 86.5127368,45.2212735 86.0432075,45.2633351 C83.5453118,45.5063577 81.0849784,45.7587273 78.6856839,46.0297909 C77.9626088,46.1139141 77.3944784,46.679409 77.3146584,47.3991297 L67.811386,132.069134 C67.7644331,132.48975 67.2056932,132.457035 67.0319674,132.438341 C66.8629369,132.419647 66.3088923,132.326177 66.3558453,131.910235 L75.7417354,48.3011174 C75.7933836,47.8337663 75.624353,47.3617416 75.286292,47.0299223 C74.9482309,46.698103 74.4740063,46.5392037 73.9997818,46.5952858 C71.469019,46.9130846 68.999295,47.2542509 66.6046958,47.6141113 C65.9050972,47.7169285 65.3698338,48.2730763 65.2900138,48.9694295 L56.1060213,130.769898 C56.0590684,131.18584 55.5003286,131.157799 55.3266027,131.139105 C55.1575722,131.120411 54.6035276,131.022267 54.6504806,130.606325 L63.6936143,50.0583577 C63.7452625,49.576986 63.5715367,49.0956143 63.2146944,48.763795 C62.8625475,48.4273022 62.3695418,48.2824234 61.8906219,48.3618731 C59.3363827,48.7871626 56.8290964,49.2451667 54.4391924,49.7265384 C53.7771561,49.8573967 53.2747598,50.4041975 53.2043304,51.0725096 L44.4006566,129.470662 C44.3537037,129.881931 43.7949639,129.85389 43.6259333,129.835196 C43.4522075,129.816502 42.898163,129.723031 42.9451159,129.307089 L51.5750639,52.4184809 C51.6314074,51.9184152 51.4435957,51.423023 51.0679722,51.0912037 C50.6923488,50.7547108 50.1758666,50.6238525 49.6828609,50.7360168 C47.1004499,51.3248792 44.5649919,51.9698238 42.1422208,52.6568299 C41.5365281,52.8297499 41.0951706,53.3531831 41.0247412,53.9747601 L32.6999872,128.166752 C32.6530343,128.582695 32.0895992,128.554653 31.9205686,128.531286 C31.7468428,128.512592 31.1927983,128.419122 31.2397512,128.003179 L39.3485217,55.783409 C39.4048652,55.2599757 39.1888817,54.741216 38.775696,54.4093967 C38.3625102,54.0775774 37.8084657,53.9794336 37.3060694,54.1476801 C34.4701126,55.0964028 31.8642251,56.1292488 29.5541411,57.2135035 C29.0658307,57.4425055 28.7324649,57.9051831 28.6714261,58.4426369 L20.9946225,126.862842 C20.9476696,127.278785 20.3842345,127.250744 20.2152039,127.23205 C20.0414781,127.213356 19.4874336,127.119886 19.5343865,126.703943 L26.8590431,61.4617252 C26.9247772,60.8681893 26.6430596,60.2886739 26.1312727,59.9708751 C25.6241811,59.6577499 24.9715354,59.6670969 24.4644438,59.9942427 C19.4686524,63.232986 16.703125,66.9484275 16.2429863,71.0470969 L10.0639811,126.105734 L6.41573872,125.699138 C4.6925663,125.507524 3.36379846,124.07743 3.31684554,122.371598 C2.6360281,96.2233023 5.18557203,69.841331 10.8809621,43.9687724 C12.7262121,35.6078607 18.9944278,28.8312693 27.2487524,26.2842057 C27.8074922,26.1112858 28.3615368,25.9430393 28.9202766,25.7747929 L31.6951946,24.9429079 C104.641262,3.12228366 182.432871,-2.16813113 276.507756,8.29586068 C370.587335,18.7598525 445.289442,41.0057663 511.59167,78.314407 L514.113043,79.7351544 C514.620134,80.0202386 515.127226,80.3053228 515.634317,80.5950805 C523.118614,84.8993844 527.729391,92.8817417 527.677743,101.438941 C527.494627,127.928403 524.128102,154.216904 517.672074,179.575376 Z M530.786027,101.462308 C530.847066,91.7928136 525.639986,82.7729368 517.193155,77.9171585 C516.676672,77.6180538 516.16019,77.3282961 515.643708,77.0385384 L513.127031,75.617791 C446.439789,38.0988422 371.362059,15.7314172 276.855207,5.22069024 C182.343661,-5.29003668 104.157647,0.0330926949 30.7936984,21.9799018 L28.028171,22.8117868 C27.4600406,22.9800332 26.8919102,23.1482796 26.3237797,23.325873 C17.008319,26.204756 9.92781765,33.8599675 7.84780299,43.3051338 C2.09137414,69.420715 -0.476950961,96.0503824 0.208561773,122.451048 C0.293077041,125.694465 2.81444922,128.414448 6.06828706,128.774309 L10.0076376,129.213619 C11.5523889,129.386538 12.9468909,128.274243 13.1206167,126.736658 L19.3324889,71.3929368 C19.5954253,69.0468341 20.9523649,66.7942016 23.3704406,64.677101 L16.4448839,126.358103 C16.2195099,128.367713 17.6938318,130.064198 19.8677523,130.30722 C22.0463681,130.550243 23.8587511,129.218292 24.0841251,127.208682 L31.6670228,59.6530764 C33.0098765,59.0455199 34.4513314,58.461331 35.9819968,57.8958361 L28.1502486,127.662013 C27.9248746,129.671623 29.3945012,131.368107 31.573117,131.61113 C33.7517328,131.854152 35.5641158,130.522202 35.7894898,128.512592 L44.0015567,55.353446 C45.3819728,54.9748916 46.7999512,54.6056842 48.241406,54.2551708 L39.8556133,128.961249 C39.6302392,130.970859 41.0998659,132.672017 43.2784817,132.910366 C45.4570975,133.153389 47.2647852,131.821438 47.4948545,129.811828 L56.1670601,52.5399922 C57.5380856,52.273602 58.9419781,52.0118854 60.3740424,51.7595158 L51.560978,130.265159 C51.3356039,132.274768 52.8052305,133.971253 54.9838464,134.214276 C57.1624622,134.457298 58.9701499,133.125348 59.2002192,131.111064 L68.2480482,50.4976677 C69.6190737,50.3013803 71.0135756,50.1050928 72.4268587,49.9181523 L63.2616474,131.564395 C63.0409686,133.574005 64.5105952,135.275163 66.689211,135.513512 C68.8631316,135.756534 70.6755145,134.424584 70.9008886,132.414974 L80.2679975,48.9694295 C81.639023,48.8198772 83.0335249,48.6703248 84.4374174,48.5301195 L74.9670121,132.868304 C74.741638,134.877914 76.2159599,136.574399 78.3945757,136.817421 C80.5684962,137.060444 82.3808792,135.728493 82.6062533,133.718883 L92.2503845,47.8150722 C93.6214099,47.6982345 95.0065213,47.5907437 96.4057185,47.4832529 L86.677072,134.167541 C86.4470027,136.17715 87.9213246,137.878309 90.0999404,138.121331 C92.2738609,138.35968 94.0862439,137.027729 94.311618,135.01812 L104.199904,46.9504726 C105.57093,46.8616759 106.951346,46.7822262 108.341153,46.7027765 L98.3777414,135.47145 C98.1523674,137.48106 99.6266893,139.177545 101.80061,139.420567 C103.979226,139.66359 105.791609,138.331639 106.016983,136.322029 L116.121253,46.3195486 C117.492278,46.258793 118.867999,46.2027108 120.257805,46.1513022 L110.083106,136.770686 C109.857732,138.78497 111.332054,140.481454 113.505975,140.724477 C115.68459,140.962826 117.496973,139.630875 117.722347,137.621265 L128.019124,45.8989326 C129.39015,45.8615445 130.76587,45.8241564 132.146287,45.7914418 L121.788471,138.074596 C121.563097,140.084206 123.037419,141.78069 125.211339,142.023713 C127.389955,142.266736 129.202338,140.934785 129.427712,138.925175 L139.898215,45.6512365 C141.264545,45.6325425 142.640266,45.6185219 144.020682,45.6045014 L133.493836,139.378506 C133.268461,141.388116 134.738088,143.0846 136.916704,143.327623 C139.09532,143.565972 140.907703,142.234021 141.133077,140.224411 L151.758524,45.5671133 C153.124854,45.5671133 154.49588,45.5671133 155.876296,45.5717868 L145.1992,140.677742 C144.973826,142.687352 146.443453,144.383836 148.622069,144.626859 C150.800684,144.869881 152.613067,143.537931 152.838441,141.528321 L163.600052,45.6278689 C164.966382,45.646563 166.337408,45.6605835 167.713129,45.6839511 L156.904565,141.981651 C156.674496,143.991261 158.148817,145.687746 160.327433,145.930768 C162.506049,146.169118 164.318432,144.837167 164.543806,142.827557 L175.43219,45.8288299 C176.79852,45.856871 178.16485,45.8895856 179.535876,45.9269737 L168.60993,143.280888 C168.37986,145.290497 169.854182,146.986982 172.032798,147.230005 C174.206718,147.473027 176.019101,146.141077 176.244475,144.131467 L187.245546,46.1559757 C188.607181,46.2027108 189.978207,46.249446 191.344537,46.3008546 L180.315294,144.584797 C180.085225,146.594407 181.559547,148.290892 183.733467,148.533914 C185.912083,148.776937 187.724466,147.440313 187.94984,145.430703 L199.044817,46.6046328 C200.411147,46.6653885 201.772782,46.7308176 203.139112,46.7962468 L192.015964,145.884033 C191.79059,147.893643 193.264912,149.590128 195.438832,149.83315 C197.617448,150.076173 199.429831,148.744222 199.655205,146.734612 L210.830001,47.1841482 C212.196332,47.2589244 213.557967,47.3337006 214.919601,47.4131503 L203.721328,147.187943 C203.599251,148.276871 203.956093,149.28635 204.726121,150.034111 C205.3459,150.641668 206.209833,151.034243 207.144197,151.13706 C209.322813,151.380083 211.135196,150.048132 211.36057,148.033849 L222.6011,47.8805014 C223.96743,47.9692981 225.329065,48.0580948 226.6907,48.1515651 L215.426693,148.487179 C215.201319,150.496789 216.675641,152.193274 218.849561,152.436296 C221.028177,152.679319 222.84056,151.347368 223.065934,149.337758 L234.362808,48.6983659 C235.724443,48.8011831 237.086078,48.9040004 238.443018,49.0114911 L227.132058,149.791089 C226.906684,151.800699 228.37631,153.497183 230.554926,153.740206 C232.733542,153.983228 234.545925,152.651278 234.771299,150.641668 L246.110431,49.6377416 C247.472066,49.7545794 248.829005,49.8714172 250.185945,49.9929285 L238.837422,151.090325 C238.612048,153.099935 240.081675,154.801093 242.260291,155.039442 C244.438907,155.282465 246.25129,153.950514 246.476664,151.940904 L257.839272,50.7079757 C259.200907,50.838834 260.557846,50.9743659 261.910091,51.1145712 L250.542787,152.394235 C250.317413,154.403844 251.78704,156.100329 253.965655,156.343352 C256.144271,156.586374 257.956654,155.254424 258.182028,153.244814 L269.554027,51.9137416 L271.587089,52.1380702 L273.620151,52.3670722 L262.248152,153.693471 C262.022778,155.703081 263.492404,157.404239 265.67102,157.642588 C267.844941,157.88561 269.657324,156.55366 269.882698,154.54405 L281.254697,53.2643864 C282.602246,53.4279593 283.959185,53.5915322 285.316125,53.7644521 L273.953516,154.99738 C273.723447,157.00699 275.197769,158.703475 277.37169,158.946497 C279.550305,159.18952 281.362688,157.857569 281.588062,155.847959 L292.936585,54.750563 C294.288829,54.9281564 295.636378,55.1104234 296.993318,55.2973638 L285.654186,156.296617 C285.428812,158.306226 286.903134,160.007385 289.08175,160.250407 C291.25567,160.488756 293.068053,159.156805 293.293427,157.147196 L304.609082,56.3675979 C305.956631,56.5638854 307.30418,56.7601729 308.656425,56.9611339 L297.359551,157.600526 C297.134177,159.610136 298.608498,161.306621 300.782419,161.549643 C302.961035,161.792666 304.773418,160.460715 304.998792,158.451105 L316.262799,58.1108176 C317.610348,58.3211256 318.957897,58.5314337 320.310141,58.7464152 L309.064915,158.899762 C308.839541,160.914046 310.313863,162.61053 312.487784,162.848879 C314.666399,163.091902 316.478782,161.759951 316.704156,159.750341 L327.90243,59.9755486 C329.249979,60.1998772 330.597528,60.4242057 331.945077,60.6532078 L320.77028,160.203672 C320.544906,162.213282 322.014533,163.909766 324.193148,164.152789 C326.371764,164.395812 328.184147,163.063861 328.409521,161.054251 L339.53267,61.9617909 C340.880219,62.20014 342.223072,62.4384891 343.570621,62.6815117 L332.475645,161.507582 C332.250271,163.517192 333.719897,165.213676 335.898513,165.456699 C338.077129,165.695048 339.889512,164.363097 340.114886,162.353487 L351.144128,64.0695445 C352.491677,64.3219142 353.834531,64.5742838 355.177385,64.8313269 L344.181009,162.806818 C343.955635,164.816428 345.425262,166.512912 347.603878,166.755935 C349.782494,166.998957 351.594876,165.667007 351.820251,163.657397 L362.746197,66.2988094 C364.093746,66.5698731 365.431904,66.8362632 366.774758,67.1073269 L355.886374,164.106054 C355.661,166.120337 357.130627,167.816822 359.309242,168.059845 C361.487858,168.298194 363.300241,166.966243 363.525615,164.956633 L374.334179,68.6636062 C375.677033,68.9440168 377.015191,69.229101 378.35335,69.5141852 L367.591739,165.409964 C367.366365,167.419573 368.835991,169.116058 371.014607,169.359081 C373.188528,169.602103 375.000911,168.270153 375.226285,166.260543 L385.90338,71.1545877 C387.246234,71.4536924 388.584392,71.7527971 389.922551,72.0519018 L379.297103,166.713873 C379.071729,168.723483 380.541356,170.419968 382.719972,170.66299 C384.893892,170.906013 386.706275,169.569389 386.931649,167.559779 L397.458496,73.790448 C398.801349,74.1035733 400.139508,74.4213721 401.468275,74.7391708 L390.997773,168.013109 C390.772399,170.022719 392.246721,171.719204 394.425336,171.962226 C396.599257,172.205249 398.41164,170.873298 398.637014,168.863688 L408.99483,76.5805343 C410.337683,76.9170271 411.671147,77.2535199 412.999914,77.5900127 L402.703137,169.317019 C402.477763,171.326629 403.952085,173.023114 406.126006,173.266136 C408.304622,173.509159 410.117005,172.177208 410.342379,170.162925 L420.512383,79.5435405 C421.855236,79.8987273 423.1887,80.2585877 424.512772,80.6184481 L414.408502,170.616255 C414.183128,172.625865 415.65745,174.32235 417.831371,174.565372 C420.009986,174.808395 421.822369,173.476444 422.047743,171.466834 L432.011154,82.6981606 C433.354008,83.0813885 434.678081,83.4646164 435.997458,83.8478444 L426.113867,171.920165 C425.888493,173.929775 427.358119,175.626259 429.536735,175.869282 C431.715351,176.112304 433.527734,174.780354 433.753108,172.770744 L443.481755,86.0817828 C444.819913,86.4930518 446.148681,86.9043208 447.463363,87.3155898 L437.819232,173.219401 C437.593857,175.229011 439.063484,176.930169 441.2421,177.168518 C443.420716,177.411541 445.233099,176.07959 445.458473,174.06998 L454.924183,89.7364686 C456.262341,90.1804522 457.586414,90.6291093 458.891705,91.0777664 L449.524596,174.523311 C449.299222,176.53292 450.768849,178.229405 452.947465,178.472428 C455.12608,178.71545 456.938463,177.3835 457.163837,175.37389 L466.329049,93.7276473 C467.667207,94.2183659 468.981889,94.7137581 470.27779,95.2091503 L461.229961,175.822547 C461.004587,177.832157 462.474213,179.533315 464.652829,179.771664 C466.82675,180.014686 468.639133,178.682736 468.864507,176.673126 L477.677571,98.1721565 C479.01573,98.7283044 480.330412,99.2937992 481.607531,99.8546206 L472.935326,177.126456 C472.709952,179.136066 474.179578,180.832551 476.358194,181.075573 C478.532114,181.318596 480.344497,179.986645 480.569872,177.977035 L488.955664,103.270957 C490.289127,103.929922 491.589723,104.598235 492.848062,105.27122 L484.635995,178.425693 C484.410621,180.435302 485.884943,182.136461 488.063559,182.379483 C490.237479,182.617832 492.049862,181.285881 492.275236,179.276272 L500.106984,109.510095 C501.473315,110.398062 502.750434,111.286029 503.924257,112.173996 L496.34136,179.729602 C496.115986,181.739212 497.590308,183.435697 499.768923,183.678719 C501.942844,183.921742 503.755227,182.589791 503.980601,180.580181 L510.906158,118.894506 C512.793665,121.492978 513.615342,123.983959 513.352405,126.330062 L507.140533,181.678456 C506.966807,183.216042 508.084287,184.604075 509.629038,184.776994 L513.563693,185.216304 C516.822226,185.576165 519.883557,183.477758 520.686452,180.337159 C527.208214,154.735664 530.60291,128.199467 530.786027,101.462308 Z" id="Fill-61" fill="#000000"></path>
                            </g>
                        </g>
                        <g id="Group-5" transform="translate(100.319042, 239.407816) rotate(21.000000) translate(-100.319042, -239.407816) translate(19.819042, 169.184411)">
                            <path d="M160.02274,72.0291671 C160.02274,66.9644864 158.567967,61.9966405 155.712469,57.2607474 L154.937792,47.3745989 C154.874737,21.6143134 121.354162,0.668739953 80.1566221,0.668739953 C38.959082,0.668739953 5.43850768,21.6143134 5.37320055,47.3745989 L4.60077482,57.2584955 C1.74527679,61.9943885 0.290504137,66.9622344 0.290504137,72.0291671 C0.290504137,77.6230607 2.09433215,82.9827494 5.37094858,87.9370835 L5.37094858,93.2810085 C5.37094858,119.075073 38.9185465,140.05893 80.1566221,140.05893 C121.392446,140.05893 154.942296,119.075073 154.942296,93.2810085 L154.942296,87.9370835 C158.218912,82.9827494 160.02274,77.6230607 160.02274,72.0291671" id="Fill-122" fill="#262626"></path>
                            <path d="M153.050641,93.2810085 C153.050641,118.032411 120.352036,138.167276 80.1566221,138.167276 C39.9612086,138.167276 7.26035146,118.032411 7.26035146,93.2810085 L7.26035146,90.5291011 C19.7520294,106.344687 47.7169935,117.395104 80.1566221,117.395104 C112.596251,117.395104 140.561215,106.344687 153.050641,90.5291011 L153.050641,93.2810085 Z M4.21793991,62.1880579 L3.59864815,70.0992287 C3.59864815,94.0511822 37.9434435,113.535227 80.1566221,113.535227 C122.369801,113.535227 156.714596,94.0511822 156.710092,70.0249137 L156.097556,62.1948138 C157.43973,65.4061231 158.131085,68.6962514 158.131085,72.0291671 C158.131085,96.0013883 123.151234,115.505701 80.1566221,115.505701 C37.1620099,115.505701 2.18215898,96.0013883 2.18215898,72.0291671 C2.18215898,68.6939994 2.87351379,65.3993672 4.21793991,62.1880579 Z M80.1566221,2.5603948 C120.352036,2.5603948 153.050641,22.6952591 153.050641,47.4466619 C153.050641,72.1980648 120.352036,92.335181 80.1566221,92.335181 C39.9612086,92.335181 7.26035146,72.1980648 7.26035146,47.4466619 C7.26035146,22.6952591 39.9612086,2.5603948 80.1566221,2.5603948 Z M6.60728014,55.8600221 C12.9623396,77.6500843 43.5125654,94.2245839 80.1566221,94.2245839 C116.802931,94.2245839 147.353157,77.6500843 153.708216,55.8577701 L154.822941,70.0992287 C154.822941,93.0085201 121.327139,111.645824 80.1566221,111.645824 C38.9861056,111.645824 5.48805102,93.0085201 5.48579905,70.1735437 L6.60728014,55.8600221 Z M160.02274,72.0291671 C160.02274,66.9644864 158.567967,61.9966405 155.712469,57.2607474 L154.937792,47.3745989 C154.874737,21.6143134 121.354162,0.668739953 80.1566221,0.668739953 C38.959082,0.668739953 5.43850768,21.6143134 5.37320055,47.3745989 L4.60077482,57.2584955 C1.74527679,61.9943885 0.290504137,66.9622344 0.290504137,72.0291671 C0.290504137,77.6230607 2.09433215,82.9827494 5.37094858,87.9370835 L5.37094858,93.2810085 C5.37094858,119.075073 38.9185465,140.05893 80.1566221,140.05893 C121.392446,140.05893 154.942296,119.075073 154.942296,93.2810085 L154.942296,87.9370835 C158.218912,82.9827494 160.02274,77.6230607 160.02274,72.0291671 Z" id="Fill-123" fill="#0A0B09"></path>
                            <path d="M24.4541428,45.6878733 C24.6343004,40.672736 26.7556562,35.9255831 29.8386032,32.0814703 C32.9260542,28.2080818 36.8782616,25.1138749 41.0984535,22.5916684 C45.3546769,20.0987376 49.9104123,18.1597914 54.599014,16.7095227 C63.9852252,13.7932214 73.851106,12.7145278 83.5908765,13.1086225 C93.3238911,13.522985 103.020874,15.4664352 111.943179,19.2880284 C116.40208,21.1864391 120.624524,23.6365825 124.39207,26.6452145 C128.116828,29.6763662 131.368673,33.3718491 133.341399,37.7113954 C134.323258,39.8732866 134.969573,42.1860599 135.179007,44.5461245 C135.383936,46.9084411 135.158739,49.3045372 134.528187,51.6060506 C133.271588,56.2248412 130.440862,60.3572063 126.945804,63.759933 C123.446243,67.1896834 119.264334,69.9393388 114.825701,72.1755451 C110.37806,74.4072474 105.637663,76.1255006 100.757644,77.3775959 C90.993102,79.8862906 80.6700713,80.6519604 70.3740642,79.7083849 C80.5957563,80.9762441 90.9503146,80.5190942 100.845471,78.2536123 C103.320386,77.6906198 105.763774,77.0082729 108.157618,76.1840518 C110.555966,75.3733426 112.913779,74.443279 115.195024,73.3510735 C119.76202,71.1936862 124.092558,68.4733063 127.806057,65.0120284 C131.503791,61.5732701 134.613762,57.3080388 136.09781,52.3604606 C137.615638,47.442158 137.259827,41.9676188 135.208282,37.2655053 C133.179257,32.5408721 129.79905,28.566145 125.934669,25.3660955 C122.054525,22.1547862 117.690207,19.6055561 113.118708,17.6080587 C103.957694,13.6220717 94.0355136,11.6133144 84.0863099,11.2439913 C74.1371062,10.8679123 64.0662961,12.0704643 54.4931714,15.1579153 C52.0993272,15.9258371 49.7415146,16.8198692 47.4445051,17.8625313 C45.1474957,18.8984375 42.8887697,20.0446903 40.7358863,21.3801086 C36.4323716,24.0329293 32.4058491,27.284774 29.2801147,31.351832 C26.1588842,35.3828584 24.0465362,40.3687201 23.9857331,45.5437472 C23.8551188,50.7210264 25.8346005,55.7766992 28.9243034,59.8662768 C25.9967423,55.711392 24.2109301,50.7007587 24.4541428,45.6878733" id="Fill-124" fill="#0A0B09"></path>
                            <path d="M83.3386558,15.5722778 C92.3622998,15.9596166 101.34766,17.7611927 109.61239,21.3012896 C113.742504,23.0600782 117.654176,25.332316 121.142477,28.115751 C124.592495,30.9217057 127.603379,34.3401962 129.427475,38.3532069 C130.337271,40.3529563 130.936295,42.4878239 131.129964,44.6722348 C131.31913,46.8543938 131.111949,49.0703323 130.53094,51.1961921 C129.371176,55.4681793 126.754387,59.2942764 123.520558,62.4492864 C120.279973,65.6268162 116.408836,68.1782983 112.296739,70.2523627 C108.173382,72.3241751 103.78204,73.9208219 99.2578322,75.0850904 C90.2071645,77.4203834 80.6340398,78.1410138 71.0834348,77.2762573 C80.5619768,78.4675494 90.171133,78.0554389 99.3546669,75.9611068 C101.651676,75.4409017 103.91941,74.8080981 106.142105,74.0469322 C108.369303,73.2970262 110.558218,72.4345217 112.67507,71.4211351 C116.917781,69.4236377 120.942052,66.9014312 124.39207,63.68787 C127.828576,60.4968284 130.722358,56.5333611 132.107319,51.9325863 C133.521557,47.3543312 133.190517,42.2603749 131.28535,37.8847971 C129.398199,33.4889515 126.256701,29.7934687 122.664809,26.8186162 C119.059405,23.8347559 115.008111,21.4656834 110.760895,19.6100601 C102.252952,15.9078213 93.0401428,14.0476941 83.8048136,13.7053946 C74.5672325,13.3585912 65.2193048,14.4800723 56.3352829,17.3535861 C54.1125885,18.0674606 51.9259255,18.8984375 49.7933099,19.8690366 C47.6606942,20.8328798 45.5663621,21.8980617 43.5666127,23.1388972 C39.5738698,25.6048044 35.8401034,28.6292002 32.939566,32.4080059 C30.0457845,36.1530321 28.0910745,40.7853345 28.0392792,45.5910386 C27.9221767,50.3944907 29.7665402,55.0830924 32.637802,58.873158 C29.9264301,55.0155333 28.277988,50.3674671 28.5076889,45.7239048 C28.6788387,41.0758387 30.6493125,36.684497 33.5093144,33.1241324 C36.3715684,29.5367441 40.0355236,26.6722382 43.9516996,24.3391972 C47.8948991,22.0331799 52.119595,20.2383597 56.4658972,18.8984375 C65.1675095,16.2005774 74.3105079,15.2052067 83.3386558,15.5722778" id="Fill-125" fill="#0A0B09"></path>
                            <path d="M151.589112,63.5617597 C147.949929,69.1916848 143.601375,73.8082234 138.730363,77.7379112 C133.839084,81.6405753 128.393821,84.8879161 122.108572,87.2344689 C128.630278,85.9553499 134.631778,83.0818361 139.682947,79.030542 C144.731863,74.9769959 148.882244,69.7231497 151.589112,63.5617597" id="Fill-126" fill="#0A0B09"></path>
                            <path d="M151.589112,66.1402654 C147.949929,71.7724425 143.601375,76.3867291 138.730363,80.3164169 C133.839084,84.2213329 128.393821,87.4686738 122.108572,89.8129746 C128.630278,88.5361076 134.631778,85.6603418 139.682947,81.6112996 C144.731863,77.5577535 148.882244,72.3016554 151.589112,66.1402654" id="Fill-127" fill="#0A0B09"></path>
                            <path d="M151.589112,68.721023 C147.949929,74.3509482 143.601375,78.9652348 138.730363,82.8971745 C133.839084,86.7998387 128.393821,90.0471795 122.108572,92.3914803 C128.630278,91.1146133 134.631778,88.2410995 139.682947,84.1898054 C144.731863,80.1362593 148.882244,74.8801612 151.589112,68.721023" id="Fill-128" fill="#0A0B09"></path>
                            <path d="M151.589112,71.2995288 C147.949929,76.9294539 143.601375,81.5459925 138.730363,85.4756803 C133.839084,89.3805963 128.393821,92.6279372 122.108572,94.972238 C128.630278,93.695371 134.631778,90.8196052 139.682947,86.7683111 C144.731863,82.7170169 148.882244,77.4609188 151.589112,71.2995288" id="Fill-129" fill="#0A0B09"></path>
                            <path d="M151.589112,73.8802864 C147.949929,79.5102116 143.601375,84.1244982 138.730363,88.054186 C133.839084,91.959102 128.393821,95.2064429 122.108572,97.5507437 C128.630278,96.2738767 134.631778,93.3981109 139.682947,89.3490688 C144.731863,85.2955227 148.882244,80.0394245 151.589112,73.8802864" id="Fill-130" fill="#0A0B09"></path>
                            <path d="M151.589112,76.4587922 C147.949929,82.0887173 143.601375,86.7052559 138.730363,90.6349437 C133.839084,94.5398597 128.393821,97.7849486 122.108572,100.131501 C128.630278,98.8523824 134.631778,95.9788686 139.682947,91.9275745 C144.731863,87.8740284 148.882244,82.6201822 151.589112,76.4587922" id="Fill-131" fill="#0A0B09"></path>
                            <path d="M151.589112,79.0372979 C147.949929,84.669475 143.601375,89.2837616 138.730363,93.2134494 C133.839084,97.1183654 128.393821,100.365706 122.108572,102.710007 C128.630278,101.43314 134.631778,98.5573743 139.682947,94.5083322 C144.731863,90.4547861 148.882244,85.1986879 151.589112,79.0372979" id="Fill-132" fill="#0A0B09"></path>
                            <path d="M122.28873,112.229085 C127.790293,110.483808 133.037383,108.551617 137.912898,105.732151 C142.756886,102.926196 147.272086,99.2036897 150.492403,94.2696233 C146.452369,98.507831 141.883121,101.55925 137.16074,104.311158 C132.420343,107.054057 127.436733,109.461413 122.28873,112.229085" id="Fill-133" fill="#0A0B09"></path>
                            <path d="M137.162992,106.657711 C132.438359,109.589776 127.466009,112.175037 122.212163,114.935953 C127.815064,113.199684 133.10269,111.067068 137.962441,108.05168 C142.786161,105.0453 147.245062,101.133628 150.388812,96.0509316 C146.407329,100.460289 141.867358,103.709882 137.162992,106.657711" id="Fill-134" fill="#0A0B09"></path>
                            <path d="M137.174252,109.002011 C132.463131,112.118738 127.497537,114.886409 122.137848,117.640569 C127.842088,115.913308 133.172501,113.578015 138.011985,110.371209 C142.817689,107.168908 147.22029,103.070322 150.287474,97.829988 C146.366794,102.417251 141.85835,105.860513 137.174252,109.002011" id="Fill-135" fill="#0A0B09"></path>
                            <path d="M137.187764,111.341808 C132.490154,114.643196 127.533568,117.595529 122.061281,120.345185 C127.875868,118.624679 133.244564,116.082205 138.066032,112.690738 C142.851468,109.290264 147.200023,105.007017 150.183883,99.6090443 C146.330762,104.376465 141.853846,108.013397 137.187764,111.341808" id="Fill-136" fill="#0A0B09"></path>
                            <path d="M137.208032,113.681605 C132.523934,117.158647 127.571852,120.302397 121.986966,123.052053 C127.911899,121.333799 133.316627,118.57964 138.120079,115.005764 C142.8875,111.416123 147.184259,106.948215 150.082544,101.388101 C146.301487,106.337931 141.851594,110.16628 137.208032,113.681605" id="Fill-137" fill="#0A0B09"></path>
                            <path d="M137.230551,116.01915 C132.559965,119.671846 127.612387,123.007013 121.910399,125.756669 C127.952435,124.040667 133.390942,121.070319 138.176379,117.318537 C142.923532,113.539731 147.172999,108.889413 149.981206,103.167157 C146.274463,108.301649 141.856098,112.319163 137.230551,116.01915" id="Fill-138" fill="#0A0B09"></path>
                            <path d="M137.257575,118.354443 C132.595997,122.176036 127.652923,125.700369 121.836084,128.461285 C127.990718,126.736276 133.465257,123.556494 138.23493,119.629058 C142.961815,115.661087 147.157235,110.828359 149.877615,104.946213 C146.245187,110.263115 141.862854,114.469795 137.257575,118.354443" id="Fill-139" fill="#0A0B09"></path>
                            <path d="M20.2181872,78.9900065 C25.2626001,83.0345447 31.284368,85.9125625 37.8691284,87.153398 C31.6424312,84.8811602 26.1768999,81.6856147 21.2766131,77.7761946 C16.39209,73.8510108 12.034528,69.1939368 8.44038377,63.5212242 C11.0774407,69.6781103 15.1827821,74.9364604 20.2181872,78.9900065" id="Fill-140" fill="#0A0B09"></path>
                            <path d="M20.2181872,81.5685122 C25.2626001,85.6153024 31.284368,88.4910682 37.8691284,89.7319037 C31.6424312,87.4596659 26.1768999,84.2641204 21.2766131,80.3569523 C16.39209,76.4295165 12.034528,71.7724425 8.44038377,66.1019819 C11.0774407,72.256616 15.1827821,77.5149661 20.2181872,81.5685122" id="Fill-141" fill="#0A0B09"></path>
                            <path d="M20.2181872,84.1492699 C25.2626001,88.1938081 31.284368,91.0695739 37.8691284,92.3104094 C31.6424312,90.0404236 26.1768999,86.8448781 21.2766131,82.935458 C16.39209,79.0102742 12.034528,74.3509482 8.44038377,68.6804876 C11.0774407,74.8351217 15.1827821,80.0957238 20.2181872,84.1492699" id="Fill-142" fill="#0A0B09"></path>
                            <path d="M20.2181872,86.7277756 C25.2626001,90.7723138 31.284368,93.6503316 37.8691284,94.8911671 C31.6424312,92.6189293 26.1768999,89.4233838 21.2766131,85.5139638 C16.39209,81.5887799 12.034528,76.9317059 8.44038377,71.2589933 C11.0774407,77.4158794 15.1827821,82.6742295 20.2181872,86.7277756" id="Fill-143" fill="#0A0B09"></path>
                            <path d="M20.2181872,89.3085333 C25.2626001,93.3530715 31.284368,96.2288373 37.8691284,97.4696728 C31.6424312,95.197435 26.1768999,92.0041414 21.2766131,88.0947214 C16.39209,84.1672857 12.034528,79.5102116 8.44038377,73.839751 C11.0774407,79.9943851 15.1827821,85.2549872 20.2181872,89.3085333" id="Fill-144" fill="#0A0B09"></path>
                            <path d="M20.2181872,91.887039 C25.2626001,95.9315772 31.284368,98.809595 37.8691284,100.05043 C31.6424312,97.7781927 26.1768999,94.5826472 21.2766131,90.6732271 C16.39209,86.7480433 12.034528,82.0909693 8.44038377,76.4182567 C11.0774407,82.5751428 15.1827821,87.8334929 20.2181872,91.887039" id="Fill-145" fill="#0A0B09"></path>
                            <path d="M20.2181872,94.4677967 C25.2626001,98.5123349 31.284368,101.388101 37.8691284,102.628936 C31.6424312,100.356698 26.1768999,97.1611529 21.2766131,93.2539848 C16.39209,89.3265491 12.034528,84.669475 8.44038377,78.9990144 C11.0774407,85.1536485 15.1827821,90.4142506 20.2181872,94.4677967" id="Fill-146" fill="#0A0B09"></path>
                            <path d="M21.9904876,105.702875 C26.8614988,108.52009 32.1288568,110.434264 37.7002307,112.152518 C32.5815028,109.454657 27.5956411,107.081081 22.8462362,104.340433 C18.1125952,101.590778 13.5298361,98.4988231 9.53033727,94.22008 C12.6808434,99.1586503 17.1555079,102.899173 21.9904876,105.702875" id="Fill-147" fill="#0A0B09"></path>
                            <path d="M21.9431962,108.022404 C26.7939397,111.03554 32.1040851,113.152392 37.7745457,114.857134 C32.5544791,112.168281 27.5753733,109.619051 22.8417323,106.686986 C18.126107,103.741409 13.5748755,100.453533 9.6339279,96.0013883 C12.707867,101.090841 17.1284842,105.016024 21.9431962,108.022404" id="Fill-148" fill="#0A0B09"></path>
                            <path d="M21.8936529,110.339682 C26.7263806,113.541983 32.0770615,115.866016 37.8488607,117.56175 C32.5252035,114.879653 27.5528536,112.152518 22.8304724,109.033539 C18.1373668,105.896545 13.615411,102.410495 9.73751852,97.7804446 C12.7326387,103.025283 17.0969567,107.13738 21.8936529,110.339682" id="Fill-149" fill="#0A0B09"></path>
                            <path d="M21.8418576,112.654707 C26.6543176,116.043922 32.0455339,118.577388 37.9231757,120.268618 C32.491424,117.591025 27.523578,114.676976 22.8169606,111.375588 C18.1418708,108.049428 13.6491905,104.371961 9.84110914,99.561753 C12.7551584,104.961977 17.0631771,109.258736 21.8418576,112.654707" id="Fill-150" fill="#0A0B09"></path>
                            <path d="M21.7855583,114.969732 C26.5800026,118.539105 32.0095024,121.286508 37.9997427,122.973234 C32.4553924,120.297893 27.4897985,117.19693 22.7966929,113.717637 C18.1418708,110.204563 13.6807181,106.333427 9.94469976,101.343061 C12.7709222,106.903175 17.0293976,111.380092 21.7855583,114.969732" id="Fill-151" fill="#0A0B09"></path>
                            <path d="M21.7292591,117.280253 C26.5056875,121.027532 31.9689669,123.993376 38.0740577,125.67785 C32.4193609,123.002509 27.4537669,119.710129 22.7741732,116.057434 C18.1373668,112.359699 13.7077417,108.299397 10.0482904,103.12437 C12.784434,108.844374 16.9911141,113.5037 21.7292591,117.280253" id="Fill-152" fill="#0A0B09"></path>
                            <path d="M10.151881,104.905678 C12.8001978,110.78332 16.9550825,115.622803 21.6707078,119.588523 C26.4336245,123.509203 31.9306834,126.688984 38.1483727,128.382466 C32.3810774,125.698117 27.4154835,122.218824 22.7471495,118.392727 C18.1306109,114.51033 13.7370173,110.260863 10.151881,104.905678" id="Fill-153" fill="#0A0B09"></path>
                        </g>
                    </g>
                </g>
            </g>
        </g>
    </g>
</svg>