<?xml version="1.0" encoding="UTF-8"?>
<svg width="236px" height="381px" viewBox="0 0 236 381" version="1.1" xmlns="http://www.w3.org/2000/svg" xmlns:xlink="http://www.w3.org/1999/xlink">
    <!-- Generator: Sketch 49.3 (51167) - http://www.bohemiancoding.com/sketch -->
    <title>Beard decoration</title>
    <desc>Created with Sketch.</desc>
    <defs></defs>
    <g id="Desktop" stroke="none" stroke-width="1" fill="none" fill-rule="evenodd">
        <g id="Desktop.-Services-&amp;-Price" transform="translate(-702.000000, -1799.000000)">
            <g id="Group-8-Copy" transform="translate(490.000000, 1590.000000)">
                <g id="Group-2">
                    <g id="Beard-decoration" transform="translate(346.298347, 418.175566) rotate(-11.000000) translate(-346.298347, -418.175566) translate(235.298347, 208.675566)">
                        <path d="M218.59375,106.2125 C221.31875,96 223.59375,84.0625 219.875,72.96875 C219.28125,71.18125 218.78125,69.08125 218.3,67.05625 C218.025,65.8875 217.75625,64.7375 217.46875,63.6625 C217,61.89375 216.2875,59.2125 214.06875,57.64375 C213.3625,57.14375 212.6,56.825 211.925,56.54375 C211.3875,56.31875 210.58125,55.98125 210.49375,55.75625 C209.73125,53.7875 209.39375,51.51875 209.04375,49.1125 C208.55625,45.80625 208.05,42.3875 206.35,39.4125 C204.35,35.93125 201.4625,33.1625 198.9125,30.7125 C196.78125,28.66875 193.35625,26.825 190.11875,27.7875 L189.45625,27.98125 C188.2,28.3625 186.90625,28.7625 185.86875,28.71875 C185.6875,25.93125 184.88125,21.40625 180.90625,19.95 C180.15625,19.66875 179.425,19.56875 178.78125,19.48125 C178.23125,19.40625 177.7125,19.3375 177.4125,19.175 C177.0375,18.975 176.64375,18.45 176.225,17.8875 C175.91875,17.48125 175.60625,17.075 175.26875,16.70625 C172.88125,14.0875 169.49375,13.45 166.50625,12.8875 C165.3875,12.675 164.325,12.475 163.34375,12.1875 C160.675,11.40625 158.2625,9.8375 155.70625,8.18125 C154.60625,7.46875 153.50625,6.75 152.375,6.1 C147.025,2.98125 142.06875,2.20625 138.04375,3.8625 C137.4,4.13125 136.81875,4.4375 136.25625,4.7375 C135.29375,5.24375 134.4625,5.6875 133.71875,5.7125 C132.725,5.75 131.58125,5.0375 130.375,4.28125 C130.05625,4.08125 129.74375,3.8875 129.43125,3.7 C123.90625,0.4375 116.8875,-0.0125 111,2.4875 L110.86875,2.4875 C104.975,-0.0125 97.9625,0.44375 92.44375,3.7 C92.125,3.8875 91.8125,4.08125 91.49375,4.28125 C90.2875,5.0375 89.16875,5.75625 88.15,5.7125 C87.40625,5.6875 86.575,5.24375 85.6125,4.7375 C85.05,4.4375 84.46875,4.13125 83.825,3.8625 C79.8,2.20625 74.84375,2.98125 69.49375,6.1 C68.36875,6.75 67.26875,7.46875 66.1625,8.18125 C63.60625,9.8375 61.19375,11.40625 58.525,12.1875 C57.54375,12.475 56.48125,12.675 55.3625,12.8875 C52.375,13.45 48.9875,14.0875 46.6,16.70625 C46.2625,17.075 45.95,17.48125 45.65,17.8875 C45.225,18.44375 44.83125,18.975 44.45625,19.175 C44.15625,19.3375 43.6375,19.40625 43.0875,19.48125 C42.44375,19.56875 41.71875,19.66875 40.9625,19.95 C36.9875,21.40625 36.18125,25.93125 36,28.71875 C34.95,28.75625 33.66875,28.3625 32.4125,27.98125 L31.75,27.7875 C28.51875,26.825 25.0875,28.66875 22.95625,30.7125 C20.40625,33.1625 17.51875,35.93125 15.525,39.4125 C13.81875,42.3875 13.3125,45.80625 12.825,49.1125 C12.475,51.51875 12.1375,53.7875 11.375,55.75625 C11.2875,55.98125 10.48125,56.31875 9.94375,56.54375 C9.26875,56.825 8.50625,57.14375 7.8,57.64375 C5.58125,59.2125 4.875,61.89375 4.4,63.6625 C4.1125,64.7375 3.84375,65.8875 3.56875,67.05625 C3.0875,69.08125 2.59375,71.18125 1.99375,72.96875 C-1.725,84.0625 0.55625,96 3.275,106.2125 C13.4375,144.38125 34.56875,180.11875 62.89375,207.25625 C62.5875,207.84375 62.4125,208.5 62.4125,209.1875 L62.4125,218.7 C62.4125,220.34375 63.44375,221.74375 65.16875,222.94375 C18.11875,261.90625 32.5,295.225 45.225,324.6875 C54.275,345.625 62.81875,365.4375 50.85625,386.275 C50.75625,386.24375 50.64375,386.20625 50.55,386.175 C49.00625,385.64375 47.2875,385.9 45.9625,386.84375 C44.6375,387.79375 43.85,389.33125 43.85,390.9625 L43.85,402.5625 C43.85,403.89375 44.4375,405.15 45.5875,406.30625 C52.975,413.675 89.55625,418.51875 110.69375,418.51875 C110.85,418.51875 111.00625,418.51875 111.16875,418.51875 C132.3125,418.51875 168.89375,413.675 176.275,406.30625 C177.43125,405.15 178.01875,403.89375 178.01875,402.5625 L178.01875,390.9625 C178.01875,389.33125 177.23125,387.79375 175.90625,386.85 C174.58125,385.9 172.8625,385.64375 171.3125,386.175 C171.225,386.20625 171.1125,386.24375 171.0125,386.275 C159.05,365.43125 167.59375,345.625 176.64375,324.6875 C189.36875,295.225 203.75,261.90625 156.7,222.94375 C158.425,221.74375 159.45625,220.34375 159.45625,218.7 L159.45625,209.1875 C159.45625,208.5 159.28125,207.84375 158.975,207.25625 C187.3,180.11875 208.4375,144.38125 218.59375,106.2125" id="Fill-106" fill="#262626"></path>
                        <path d="M92.76875,67.8125 C92.41875,69.6625 92.48125,70.75 92.05625,71.625 C91.675,72.51875 90.81875,73.20625 89.6875,74.7 C88.36875,73.4625 88.0625,71.55625 88.725,70.1125 C89.35,68.65625 90.975,67.61875 92.76875,67.8125 Z M123.8125,63.5125 C122.51875,62.05625 120.26875,61.20625 117.83125,61.04375 C115.35625,60.86875 112.59375,61.3875 109.73125,61.8375 C112.14375,60.28125 114.6625,58.80625 117.69375,58.3125 C119.2125,58.075 120.79375,58.125 122.35,58.55 C123.8875,58.96875 125.425,59.81875 126.575,61.10625 C127.71875,62.39375 128.30625,63.8125 128.83125,65.04375 C129.35,66.28125 129.78125,67.39375 130.425,68.24375 C130.9625,69.0875 132.23125,69.7375 133.325,71 C133.8875,71.6375 134.23125,72.55 134.1875,73.3625 C134.19375,74.175 133.725,75.1 132.95,75.3125 C133.5625,74.7875 133.54375,74.01875 133.325,73.45625 C133.09375,72.84375 132.7125,72.44375 132.20625,72.1625 C131.21875,71.55 129.75625,71.29375 128.41875,70.13125 C127.1375,69.03125 126.36875,67.65625 125.7125,66.48125 C125.05625,65.29375 124.48125,64.24375 123.8125,63.5125 Z M164.6875,71.225 C165.1875,70.5625 165.2625,69.78125 165.1,69.1125 C164.925,68.4375 164.575,67.8375 164.1375,67.34375 C163.7,66.825 163.21875,66.4875 162.64375,66.19375 C162.05,65.8875 161.4125,65.6375 160.73125,65.3625 C159.40625,64.83125 157.79375,64.20625 156.4625,62.8625 C155.18125,61.5625 154.46875,60.09375 153.7875,58.875 C153.13125,57.63125 152.49375,56.7 151.60625,55.75625 C150.7375,54.8375 149.70625,54.01875 148.54375,53.35625 C146.21875,52.0375 143.375,51.20625 140.21875,51.5375 C143.0125,50.025 146.53125,49.825 149.65,50.85625 C151.21875,51.3625 152.7,52.19375 153.975,53.28125 C155.24375,54.35 156.33125,55.83125 157.03125,57.175 C157.75625,58.5125 158.31875,59.71875 159.0375,60.58125 C159.7,61.425 160.79375,62.125 162.075,62.95625 C162.7125,63.38125 163.38125,63.84375 164,64.4125 C164.65,64.9875 165.225,65.7625 165.54375,66.55625 C165.89375,67.35625 166.05625,68.2375 165.9625,69.10625 C165.86875,69.98125 165.3875,70.81875 164.6875,71.225 Z M111.5,42.60625 C113.175,42.80625 114.76875,43.53125 115.9875,44.7125 C117.2,45.8625 118,47.5875 117.83125,49.19375 C116.775,47.93125 115.55,47.375 114.4125,46.975 C113.2625,46.5875 112.14375,46.375 111.0375,46.2375 C108.7625,45.94375 106.04375,45.95625 102.84375,45.54375 C104.1,44.6 105.39375,43.7875 106.8375,43.2375 C108.26875,42.69375 109.86875,42.4125 111.5,42.60625 Z M79.2,54.61875 C80.89375,54.38125 82.4875,54.35625 84.09375,53.41875 C83.425,55.24375 81.54375,56.475 79.96875,57.2625 C78.35625,58.075 76.85625,58.65 75.80625,59.36875 C74.76875,60.04375 73.90625,61.0375 73.08125,62.40625 C72.25625,63.7625 71.50625,65.4125 70.65625,67.11875 C70.3125,65.2625 70.1375,63.4 70.5125,61.46875 C70.85,59.58125 71.9375,57.5125 73.80625,56.30625 C75.6375,55.1125 77.53125,54.8375 79.2,54.61875 Z M180.80625,54.95625 C181.9125,56.15 183.1625,57.35 184.3375,58.74375 C185.5125,60.13125 186.61875,61.775 187.24375,63.64375 C187.875,65.4875 188.01875,67.6875 187.16875,69.55625 C186.3875,71.36875 184.7,72.875 182.8125,73.0125 C184.55,72.2375 185.4125,70.56875 185.64375,69.03125 C185.88125,67.475 185.4125,65.9875 184.68125,64.65625 C183.19375,61.95625 180.55625,60.05 178.075,57.3875 C175.59375,54.68125 173.85625,51.6375 172.05,48.75 C170.2375,45.875 168.35625,43 165.26875,40.9375 C168.89375,41.86875 171.8875,44.4875 174.24375,47.125 C176.64375,49.8 178.61875,52.59375 180.80625,54.95625 Z M123.425,26.5 C126.9875,27.44375 129.71875,29.33125 132.45,29.8375 C135.2625,30.46875 138.6,30.28125 142.10625,31.2 C143.86875,31.69375 145.5375,32.525 146.90625,33.7625 C148.275,34.96875 149.28125,36.7375 149.262758,38.51875 C148.64375,36.825 147.33125,35.73125 145.94375,35.05 C144.54375,34.3625 143.01875,34.01875 141.53125,33.9 C138.50625,33.65625 135.2125,34.175 131.6,33.39375 C129.76875,33.00625 128.10625,32.1875 126.6625,31.36875 C125.20625,30.55 123.8875,29.7 122.51875,29.075 C121.20625,28.44375 119.74375,28.1375 118.2,28.2625 C116.70625,28.3875 115.06875,29.01875 114.2,30.625 C114.44375,28.80625 116.0875,27.31875 117.8375,26.7125 C119.59375,26.05 121.6125,26.00625 123.425,26.5 Z M72.6875,33.53125 C73.5,33.125 74.49375,32.95 75.31875,32.93125 C76.16875,32.9 76.95625,32.9875 77.6875,33.1125 C79.15625,33.3625 80.3125,33.7625 81.45625,33.875 C82.61875,33.95 83.9375,34.0125 85.0875,32.925 C85.10625,33.725 84.70625,34.6 84.075,35.23125 C83.45,35.875 82.64375,36.325 81.8125,36.60625 C80.075,37.175 78.36875,36.9375 77.025,36.7125 C75.6375,36.475 74.55,36.15 73.45,36.15625 C72.875,36.16875 72.25625,36.2375 71.65625,36.4625 C71.05625,36.68125 70.45,37.08125 70.0375,37.825 C69.825,37.01875 70.05625,36.03125 70.59375,35.28125 C71.11875,34.5125 71.8625,33.93125 72.6875,33.53125 Z M40.775,65.575 C40.1875,64.34375 40,62.95 40.14375,61.5875 C40.26875,60.21875 40.85,58.83125 41.58125,57.75 C42.3125,56.6375 43.23125,55.70625 44.1875,54.91875 C48.05625,51.7125 52.3625,50.91875 55.2875,47.03125 C55.0375,49.5125 53.43125,51.775 51.7125,53.45 C49.95625,55.16875 48.06875,56.4375 46.475,57.76875 C44.8875,59.1 43.49375,60.43125 42.80625,62.18125 C42.45625,63.08125 42.24375,64.09375 42.30625,65.14375 C42.35625,66.1875 42.71875,67.29375 43.60625,68.2125 C42.4,67.83125 41.3375,66.8125 40.775,65.575 Z M192.74375,48.65625 C191.74375,45.575 189.63125,42.6 187.55,39.54375 C190.48125,41.775 193.40625,44.13125 195.2625,47.59375 C196.21875,49.2875 196.675,51.33125 196.95625,53.025 C197.25625,54.7625 197.55,56.25625 198.2,57.4375 C198.85,58.6625 199.93125,59.825 201.125,61.075 C202.3125,62.325 203.65,63.75625 204.56875,65.5375 C205.025,66.425 205.38125,67.41875 205.50625,68.46875 C205.64375,69.4875 205.49375,70.68125 205.03125,71.6125 C204.56875,72.55625 203.88125,73.35625 203.00625,73.8875 C202.14375,74.425 201.04375,74.59375 200.15,74.275 C201.11875,74.275 201.94375,73.81875 202.4875,73.19375 C203.05,72.56875 203.38125,71.79375 203.51875,71.04375 C203.8,69.54375 203.10625,68.13125 202.1875,66.91875 C201.23125,65.6875 200.00625,64.6625 198.675,63.4875 C197.36875,62.3125 195.93125,60.975 194.93125,59.09375 C193.925,57.16875 193.7125,55.15 193.55625,53.43125 C193.4125,51.66875 193.28125,50.19375 192.74375,48.65625 Z M163.90625,27.83125 C156.79375,24.60625 150.2875,20.6 142.71875,17.3375 C150.99375,18.275 158.4875,21.3625 165.5125,24.54375 C169.0625,26.1875 172.48125,27.86875 176,29.86875 C177.75,30.91875 179.60625,32.3 180.6125,34.3875 C181.0875,35.4125 181.31875,36.53125 181.2375,37.6375 C181.1625,38.73125 180.71875,39.81875 179.95,40.5375 C181,38.63125 180.28125,36.53125 179.20625,35.175 C178.06875,33.80625 176.41875,32.9875 174.6875,32.29375 C171.09375,30.9375 167.4125,29.4625 163.90625,27.83125 Z M85.525,19.625 C89.4625,18.99375 93.31875,18.575 96.94375,17.825 C98.75625,17.45625 100.5125,17.00625 102.1875,16.43125 C103.85625,15.8625 105.5125,15.125 107.25,14.4 C110.675,12.9625 114.71875,11.5125 118.975,12.19375 C121.0625,12.5125 123.15625,13.5125 124.59375,15.06875 C126.04375,16.6 126.925,18.7375 126.625,20.75 C126.28125,18.73125 124.98125,17.21875 123.50625,16.2625 C122,15.2875 120.3375,14.9125 118.64375,14.93125 C115.23125,14.9625 112.0125,16.36875 108.5875,17.80625 C106.8625,18.51875 105.04375,19.25 103.1,19.73125 C101.1625,20.21875 99.19375,20.46875 97.23125,20.54375 C93.30625,20.70625 89.45625,20.2 85.525,19.625 Z M44.98125,41.64375 C44.5,38.325 45.225,34.79375 46.96875,31.81875 C48.70625,28.81875 51.53125,26.46875 54.75,25.2 C56.3625,24.5625 58.075,24.18125 59.8125,24.1 C61.55625,24.01875 63.06875,24.23125 64.425,24.14375 C65.8125,24.1 66.78125,23.66875 68.15,22.6375 C68.80625,22.175 69.6125,21.65 70.5125,21.45 C71.375,21.2375 72.41875,21.3125 73.075,21.9125 C72.2375,21.59375 71.43125,21.86875 70.80625,22.2625 C70.1625,22.6625 69.7125,23.23125 69.20625,23.85 C68.7125,24.4625 68.18125,25.1625 67.38125,25.73125 C66.59375,26.3 65.6875,26.65 64.8125,26.875 C63.0625,27.30625 61.41875,27.30625 60.0625,27.53125 C58.68125,27.73125 57.33125,28.1125 56.04375,28.625 C53.4625,29.6625 51.10625,31.2375 49.18125,33.425 C47.2625,35.6125 45.725,38.375 44.98125,41.64375 Z M21.8625,58.70625 C21.8,57.575 21.95625,56.45625 22.21875,55.4125 C22.8,53.3125 23.56875,51.53125 24.73125,49.70625 C25.8875,47.9375 27.58125,46.23125 29.83125,45.44375 C31.975,44.6625 34.6625,44.875 36.26875,46.4 C34.0875,46.04375 32.3625,46.93125 31.025,47.925 C29.71875,48.9375 28.7375,50.28125 27.7625,51.75625 C26.7625,53.3125 25.7625,54.86875 24.75,56.45625 C23.8,58.03125 22.8125,59.64375 22.90625,61.85 C22.275,60.96875 21.93125,59.83125 21.8625,58.70625 Z M71.95625,234.9625 C60.88125,242.70625 53.30625,253.6 49.6125,265.55 C46.01875,277.525 46.2375,290.79375 51.11875,303.38125 C44.7,291.43125 43.46875,277.28125 47.31875,264.70625 C51.18125,252.13125 60.1,241.20625 71.95625,234.9625 Z M66.18125,362.96875 C65.78125,370.11875 63.7375,377.35 59.55,383.25625 C63.24375,376.95 64.65625,369.74375 64.575,362.76875 C64.475,355.75 62.9875,348.925 60.70625,342.43125 C56.14375,329.3875 48.8375,317.575 43.8,304.45 C41.3,297.9 39.35,291.025 38.7375,283.89375 C38.43125,280.3375 38.4625,276.71875 38.9625,273.15 C39.44375,269.58125 40.4,266.0875 41.65,262.725 C42.89375,259.35 44.56875,256.1625 46.44375,253.11875 C48.325,250.06875 50.4625,247.1875 52.8125,244.475 C57.4625,239.01875 62.85625,234.2125 68.6125,229.8125 C63.225,234.69375 58.21875,239.875 54,245.5375 C51.86875,248.35 49.95,251.2875 48.3,254.34375 C46.65625,257.4 45.19375,260.53125 44.16875,263.79375 C43.125,267.04375 42.39375,270.36875 42.05,273.71875 C41.7125,277.06875 41.79375,280.45 42.16875,283.8 C42.925,290.50625 44.86875,297.05 47.31875,303.40625 C52.21875,316.1125 59.33125,328.20625 63.40625,341.83125 C65.44375,348.6125 66.58125,355.79375 66.18125,362.96875 Z M117.65,100.79375 C118.18125,135.56875 117.08125,167.075 114.19375,201.7125 C113.8625,166.825 114.9125,135.13125 117.65,100.79375 Z M119.2375,201.025 C122.1375,165.44375 124.9875,133.24375 128.30625,98.15625 C128.6125,133.7375 125.675,166.05 119.2375,201.025 Z M135.4,148.4625 C132.96875,165.71875 129.33125,182.8 124.2875,200.3375 C127.425,182.29375 130.0625,165.06875 132.46875,147.86875 C134.86875,130.66875 137.05,113.49375 138.9625,95.51875 C139.0375,113.775 137.81875,131.20625 135.4,148.4625 Z M144.5,147.225 C141.1375,164.84375 136.18125,182.175 129.33125,199.64375 C134.15625,181.44375 138.00625,163.95625 141.3375,146.4375 C144.64375,128.9125 147.43125,111.34375 149.61875,92.875 C149.6,111.65625 147.84375,129.6 144.5,147.225 Z M153.575,146.09375 C149.275,164.09375 143,181.64375 134.38125,198.95625 C140.88125,180.675 145.94375,162.94375 150.19375,145.09375 C154.40625,127.2375 157.80625,109.2375 160.28125,90.2375 C160.15625,109.5875 157.85625,128.0875 153.575,146.09375 Z M162.625,145.0625 C157.38125,163.45 149.76875,181.19375 139.425,198.26875 C147.575,179.96875 153.85625,162.01875 159.025,143.8375 C164.1625,125.6375 168.18125,107.18125 170.9375,87.6 C170.7125,107.56875 167.85,126.6625 162.625,145.0625 Z M171.6375,144.1125 C165.43125,162.89375 156.48125,180.80625 144.475,197.575 C154.23125,179.325 161.7375,161.175 167.8375,142.65 C173.89375,124.10625 178.55625,105.1625 181.59375,84.95625 C181.2625,105.59375 177.81875,125.31875 171.6375,144.1125 Z M180.60625,143.2375 C173.425,162.4125 163.13125,180.4625 149.525,196.8875 C160.8375,178.725 169.56875,160.3875 176.6125,141.525 C183.6125,122.6375 188.9125,103.18125 192.25,82.31875 C191.8,103.65 187.75625,124.05 180.60625,143.2375 Z M189.525,142.4125 C181.3625,161.99375 169.7125,180.15 154.575,196.19375 C167.39375,178.15625 177.35625,159.65625 185.35,140.45 C193.29375,121.21875 199.26875,101.23125 202.9125,79.68125 C202.34375,101.75 197.65625,122.83125 189.525,142.4125 Z M194.04375,139.4125 C202.9375,119.8375 209.625,99.30625 213.56875,77.04375 C212.875,99.875 207.51875,121.66875 198.3875,141.64375 C189.23125,161.6125 176.24375,179.85625 159.63125,195.50625 C173.9,177.6 185.10625,158.9625 194.04375,139.4125 Z M105.50625,100.8 C108.41875,135.45625 109.475,166.9625 108.9625,201.7125 C106.25,166.9375 105.13125,135.24375 105.50625,100.8 Z M94.8375,98.1625 C98.35625,133.575 101.225,165.575 103.90625,201.04375 C97.65,165.90625 94.69375,133.4125 94.8375,98.1625 Z M90.8375,148.04375 C93.25625,165.21875 95.83125,182.36875 98.85,200.36875 C93.8875,182.7375 90.29375,165.5625 87.8625,148.28125 C85.4375,131.00625 84.18125,113.6125 84.16875,95.525 C86.19375,113.675 88.4375,130.86875 90.8375,148.04375 Z M81.98125,146.61875 C85.31875,164.1125 89.1,181.51875 93.79375,199.7 C87.03125,182.1125 82.11875,164.6875 78.75625,147.0375 C75.40625,129.3875 73.6125,111.49375 73.49375,92.8875 C75.80625,111.525 78.66875,129.11875 81.98125,146.61875 Z M73.1375,145.275 C77.3875,163.1 82.38125,180.75 88.7375,199.025 C80.2,181.5875 73.9625,163.9375 69.66875,145.90625 C65.3875,127.875 63.04375,109.425 62.825,90.25 C65.425,109.43125 68.9125,127.45 73.1375,145.275 Z M64.3125,144.025 C69.4875,162.18125 75.6875,180.05625 83.68125,198.35625 C73.41875,181.14375 65.85,163.2875 60.60625,144.86875 C55.3875,126.44375 52.48125,107.40625 52.15,87.6125 C55.05,107.3875 59.1625,125.85625 64.3125,144.025 Z M55.5125,142.8375 C61.625,161.33125 69.0375,179.4125 78.625,197.6875 C66.69375,180.75625 57.7875,162.73125 51.5875,143.91875 C45.40625,125.09375 41.925,105.425 41.48125,84.975 C44.68125,105.375 49.4375,124.33125 55.5125,142.8375 Z M46.74375,141.71875 C53.8,160.55 62.43125,178.8125 73.575,197.01875 C60.0375,180.41875 49.7875,162.24375 42.6125,143.03125 C35.45625,123.81875 31.375,103.48125 30.80625,82.34375 C34.31875,103.40625 39.7375,122.86875 46.74375,141.71875 Z M38.01875,140.64375 C46.01875,159.81875 55.875,178.25 68.51875,196.34375 C53.44375,180.1125 41.84375,161.81875 33.68125,142.2125 C25.54375,122.59375 20.83125,101.575 20.1375,79.70625 C23.95625,101.46875 30.075,121.45 38.01875,140.64375 Z M29.3375,139.6125 C38.2875,159.11875 49.3625,177.7 63.46875,195.675 C46.9125,179.81875 33.95,161.45 24.8,141.4375 C15.66875,121.425 10.29375,99.7 9.4625,77.06875 C13.6,99.55625 20.4375,120.08125 29.3375,139.6125 Z M155.0625,205.04375 C154.73125,205.0625 154.4,205.11875 154.06875,205.21875 C143.6375,208.4 126.70625,210.45 110.9375,210.45 C95.1625,210.45 78.23125,208.4 67.8,205.21875 C67.46875,205.11875 67.1375,205.0625 66.8,205.04375 C38.56875,178.3375 17.50625,142.9375 7.43125,105.10625 C4.875,95.50625 2.71875,84.34375 6.075,74.3375 C6.7375,72.3625 7.25625,70.16875 7.75625,68.04375 C8.025,66.91875 8.2875,65.80625 8.5625,64.76875 C8.975,63.21875 9.4125,61.775 10.2875,61.1625 C10.60625,60.93125 11.09375,60.73125 11.60625,60.51875 C12.8875,59.98125 14.64375,59.24375 15.39375,57.30625 C16.325,54.8875 16.7125,52.275 17.0875,49.74375 C17.5375,46.69375 17.9625,43.81875 19.25625,41.55625 C20.94375,38.6125 23.48125,36.175 25.9375,33.81875 C27.1875,32.61875 29.15625,31.5125 30.525,31.9125 L31.15625,32.1 C33.5,32.8125 36.40625,33.7 39.11875,32.25 L40.2375,31.65 L40.25,30.38125 C40.2875,27.81875 40.69375,24.63125 42.44375,23.9875 C42.7625,23.875 43.2,23.8125 43.66875,23.75 C44.4875,23.6375 45.50625,23.5 46.49375,22.96875 C47.7,22.31875 48.46875,21.29375 49.0875,20.475 C49.3125,20.18125 49.53125,19.88125 49.775,19.6125 C51.2,18.05625 53.60625,17.6 56.1625,17.11875 C57.3375,16.89375 58.55,16.66875 59.7375,16.31875 C63.00625,15.3625 65.80625,13.54375 68.50625,11.79375 C69.55,11.11875 70.59375,10.4375 71.65625,9.81875 C74.55,8.13125 78.725,6.425 82.1875,7.85 C82.66875,8.04375 83.13125,8.29375 83.6,8.5375 C84.84375,9.2 86.2625,9.95 88,10.0125 C90.3,10.0875 92.15,8.94375 93.775,7.93125 C94.0625,7.75625 94.34375,7.575 94.63125,7.40625 C99.1,4.76875 104.80625,4.4625 109.525,6.6 L109.95,6.79375 L111.91875,6.79375 L112.34375,6.6 C117.0625,4.4625 122.76875,4.76875 127.2375,7.40625 C127.525,7.575 127.80625,7.75625 128.09375,7.93125 C129.71875,8.94375 131.54375,10.0875 133.86875,10.0125 C135.60625,9.95 137.01875,9.2 138.26875,8.5375 C138.7375,8.29375 139.2,8.04375 139.68125,7.85 C143.14375,6.425 147.31875,8.13125 150.2125,9.81875 C151.275,10.4375 152.31875,11.11875 153.3625,11.79375 C156.0625,13.54375 158.8625,15.3625 162.13125,16.31875 C163.31875,16.66875 164.5375,16.89375 165.70625,17.11875 C168.2625,17.6 170.66875,18.05625 172.09375,19.6125 C172.3375,19.88125 172.55625,20.18125 172.78125,20.475 C173.4,21.29375 174.1625,22.31875 175.375,22.96875 C176.3625,23.5 177.38125,23.6375 178.2,23.75 C178.66875,23.8125 179.10625,23.875 179.425,23.9875 C181.175,24.63125 181.58125,27.81875 181.61875,30.38125 L181.63125,31.65 L182.75,32.25 C185.4625,33.7 188.375,32.8125 190.7125,32.1 L191.34375,31.9125 C192.71875,31.5125 194.68125,32.61875 195.93125,33.81875 C198.3875,36.175 200.925,38.6125 202.6125,41.55625 C203.90625,43.81875 204.33125,46.69375 204.78125,49.74375 C205.15625,52.275 205.54375,54.8875 206.475,57.30625 C207.225,59.24375 208.98125,59.98125 210.2625,60.51875 C210.775,60.73125 211.2625,60.93125 211.58125,61.15625 C212.45625,61.775 212.89375,63.21875 213.30625,64.76875 C213.58125,65.80625 213.84375,66.91875 214.1125,68.04375 C214.6125,70.16875 215.13125,72.3625 215.79375,74.3375 C219.15,84.34375 216.99375,95.50625 214.4375,105.10625 C204.3625,142.9375 183.3,178.3375 155.0625,205.04375 Z M172.6875,322.98125 C163.71875,343.74375 154.45625,365.19375 166.81875,387.61875 C165.99375,387.86875 165.09375,388.1375 164.10625,388.41875 C159.03125,378.60625 158.75625,366.65625 159.46875,358.225 C160.38125,347.44375 164.64375,337.25625 169.3125,326.9 L170.46875,324.34375 C174.88125,314.60625 179.4375,304.5375 181.45625,293.65 C186.85625,264.4875 169.68125,242.975 150.53125,225.71875 C151.2125,225.50625 151.85,225.2875 152.475,225.05625 C198.80625,262.4875 185.5375,293.2375 172.6875,322.98125 Z M172.70625,390.25 C173.0375,390.1375 173.28125,390.2625 173.4,390.35 C173.46875,390.39375 173.55,390.4875 173.6125,390.60625 C164.7375,394.35625 155.45,397.225 145.9375,399.075 C145.9375,399.075 142.3375,399.78125 138.70625,400.34375 C135.075,400.91875 131.40625,401.31875 131.41875,401.49375 C131.425,401.65625 134.95625,401.625 138.48125,401.35 C142.00625,401.09375 145.5125,400.6 145.5125,400.6 C155.1,399.23125 164.5625,396.86875 173.7125,393.5625 L173.7125,395.65 C164.80625,399.41875 155.4875,402.30625 145.9375,404.15625 C145.9375,404.15625 142.3375,404.8625 138.70625,405.425 C135.075,406 131.40625,406.4 131.41875,406.575 C131.425,406.7375 134.95625,406.70625 138.48125,406.43125 C142.00625,406.175 145.5125,405.68125 145.5125,405.68125 C155.1,404.3125 164.5625,401.95 173.7125,398.65 L173.7125,400.73125 C164.80625,404.50625 155.4875,407.3875 145.9375,409.2375 C145.9375,409.2375 142.3375,409.95 138.70625,410.50625 C135.075,411.08125 131.40625,411.48125 131.41875,411.65625 C131.425,411.825 134.95625,411.7875 138.48125,411.5125 C142.00625,411.25625 145.5125,410.76875 145.5125,410.76875 C154.34375,409.50625 163.075,407.4 171.55625,404.49375 C162.625,409.7875 132.15625,414.2125 111.1875,414.2125 C111.1,414.2125 111.0125,414.2125 110.93125,414.2125 C110.84375,414.2125 110.7625,414.2125 110.675,414.2125 C88.09375,414.2125 54.4625,409.08125 48.63125,403.25625 C48.5625,403.1875 48.5125,403.125 48.4625,403.06875 C54.05625,405.28125 59.83125,406.75 65.60625,408.075 C72.25625,409.5625 78.9875,410.625 85.73125,411.4 C85.73125,411.4 90.64375,411.9625 95.56875,412.26875 C98.03125,412.4375 100.49375,412.55 102.34375,412.60625 C104.19375,412.65625 105.425,412.65 105.43125,412.56875 C105.4375,412.48125 104.275,412.3125 102.51875,412.10625 C100.775,411.9 98.4375,411.625 96.10625,411.34375 C91.44375,410.7875 86.80625,410.09375 86.80625,410.09375 C79.98125,409.09375 73.20625,407.80625 66.54375,406.09375 C60.25625,404.41875 53.9625,402.56875 48.15625,399.875 L48.15625,398.65625 C53.85,400.93125 59.725,402.43125 65.60625,403.7875 C72.25625,405.26875 78.9875,406.3375 85.73125,407.1125 C85.73125,407.1125 90.64375,407.66875 95.56875,407.98125 C98.03125,408.15 100.49375,408.2625 102.34375,408.31875 C104.19375,408.36875 105.425,408.3625 105.43125,408.28125 C105.4375,408.19375 104.275,408.025 102.51875,407.81875 C100.775,407.6125 98.4375,407.33125 96.10625,407.05625 C91.44375,406.49375 86.80625,405.80625 86.80625,405.80625 C79.98125,404.80625 73.20625,403.5125 66.54375,401.80625 C60.25625,400.13125 53.9625,398.28125 48.15625,395.5875 L48.15625,394.3625 C53.85,396.64375 59.725,398.14375 65.60625,399.5 C72.25625,400.98125 78.9875,402.05 85.73125,402.81875 C85.73125,402.81875 90.64375,403.38125 95.56875,403.69375 C98.03125,403.8625 100.49375,403.975 102.34375,404.03125 C104.19375,404.08125 105.425,404.075 105.43125,403.9875 C105.4375,403.90625 104.275,403.7375 102.51875,403.53125 C100.775,403.31875 98.4375,403.04375 96.10625,402.7625 C91.44375,402.20625 86.80625,401.5125 86.80625,401.5125 C79.98125,400.51875 73.20625,399.225 66.54375,397.5125 C60.25625,395.84375 53.9625,393.99375 48.15625,391.3 L48.15625,390.9625 C48.15625,390.625 48.35,390.43125 48.46875,390.35 C48.5875,390.2625 48.8375,390.1375 49.1625,390.25 C54.30625,392.00625 81.4625,400.7625 110.9375,400.7625 C140.40625,400.7625 167.5625,392.00625 172.70625,390.25 Z M144.24375,351.6125 C143.3625,361.425 142.9,369.8625 142.5375,379.58125 C139.59375,370.18125 140.19375,360.58125 144.24375,351.6125 Z M49.18125,322.98125 C36.33125,293.2375 23.0625,262.4875 69.39375,225.05625 C82.45625,229.925 109.4375,230 110.9375,230 C112.04375,230 127.18125,229.9625 140.2625,227.95 L140.1625,228.06875 C143.30625,230.76875 146.44375,233.575 149.46875,236.50625 C134.50625,239.93125 114.0875,240.04375 111.45625,240.04375 C108.75,240.04375 87.2625,239.925 72.21875,236.21875 C36.525,267.15625 46.45625,290.15 58.91875,318.99375 C62.05625,326.25625 65.325,333.8375 67.76875,341.70625 C65.88125,336.41875 63.45625,331.275 60.85,326.125 C63.9,335.70625 67.0875,344.73125 68.45,354.0125 C69.125,358.63125 69.31875,363.33125 68.80625,368.04375 C68.2875,372.74375 67.03125,377.4875 64.6,381.9125 C67.7,377.9875 69.65625,373.25 70.60625,368.41875 C71.25625,365.1375 71.46875,361.80625 71.31875,358.5 C72.0375,365.78125 71.575,373.26875 69.2625,380.93125 C79.95625,383.53125 95.44375,386.4125 111.45625,386.4125 C125.94375,386.4125 139.9875,384.05 150.45625,381.68125 C144.15625,367.49375 145.7375,350.80625 154.74375,338.0375 C151.36875,345.60625 149.69375,353.2625 149.175,360.925 C148.75,367.7375 149.24375,374.60625 150.9625,381.5625 C151.4375,381.45 151.91875,381.34375 152.38125,381.23125 C153.14375,384.425 154.19375,387.60625 155.60625,390.675 C144.1375,393.475 127.925,396.45625 110.9375,396.45625 C87.15625,396.45625 64.91875,390.61875 55.05,387.61875 C67.4125,365.19375 58.15,343.74375 49.18125,322.98125 Z M161.7875,297.86875 C164.05625,290.7375 164.525,283.74375 163.86875,276.9125 C163.15625,270.09375 161.3125,263.33125 157.66875,256.79375 C167.66875,268.0625 169.31875,285.0375 161.7875,297.86875 Z M168.0375,272.8375 C165.4125,261.65625 159.66875,251.1 150.7125,242.54375 C160.76875,249.86875 167.74375,260.6625 170.4375,272.4125 C173.125,284.1625 171.525,296.83125 165.7375,307.66875 C170.0375,296.04375 170.575,284.0375 168.0375,272.8375 Z M153.91875,368.4375 C154.45,375.45 156.43125,382.4375 159.575,388.975 C155.8625,382.66875 153.29375,375.675 152.30625,368.44375 C151.8,364.8375 151.68125,361.16875 151.99375,357.53125 C152.3125,353.8625 153.175,350.35 154.0125,346.89375 C155.74375,339.95625 158.00625,333.21875 160.48125,326.61875 C162.9375,320.00625 165.74375,313.5625 168.2375,307.1125 C170.725,300.6625 172.825,294.09375 173.6375,287.35 C174.03125,283.98125 174.08125,280.58125 173.7125,277.19375 C173.6125,275.49375 173.225,273.825 172.95625,272.13125 C172.51875,270.48125 172.19375,268.7875 171.60625,267.1625 C169.5375,260.56875 166.09375,254.35625 161.86875,248.64375 C159.75,245.78125 157.375,243.09375 154.88125,240.48125 C152.34375,237.90625 149.625,235.475 146.76875,233.16875 C149.81875,235.2375 152.7375,237.475 155.49375,239.8875 C158.2125,242.35 160.8125,244.925 163.16875,247.71875 C167.85625,253.3 171.775,259.5625 174.24375,266.4375 C174.58125,267.2875 174.88125,268.14375 175.1125,269.03125 C175.3625,269.90625 175.64375,270.775 175.8625,271.65625 C176.2375,273.44375 176.675,275.21875 176.85,277.04375 C177.33125,280.65625 177.4,284.35 177.0125,287.95625 C176.26875,295.20625 174.09375,302.1125 171.55,308.69375 C168.9875,315.29375 166.14375,321.65625 163.58125,328.14375 C160.99375,334.61875 158.575,341.1625 156.6,347.875 C155.6375,351.25 154.63125,354.59375 154.2,358.00625 C153.73125,361.43125 153.65,364.9375 153.91875,368.4375 Z M155.15,209.39375 L155.15,210.225 C149.26875,212.15 143.25,213.6875 137.13125,214.78125 C137.13125,214.78125 134.81875,215.18125 132.5,215.5875 C130.18125,215.975 127.85,216.3125 127.8625,216.4875 C127.86875,216.65625 130.13125,216.68125 132.39375,216.575 C134.65,216.48125 136.90625,216.2625 136.90625,216.2625 C143.03125,215.6375 149.13125,214.575 155.15,213.11875 L155.15,213.475 C149.26875,215.4 143.25,216.9375 137.13125,218.03125 C137.13125,218.03125 134.81875,218.43125 132.5,218.8375 C130.18125,219.225 127.85,219.5625 127.8625,219.7375 C127.86875,219.90625 130.13125,219.93125 132.39375,219.825 C134.65,219.73125 136.90625,219.5125 136.90625,219.5125 C143.03125,218.8875 149.13125,217.825 155.15,216.36875 L155.15,216.725 C149.26875,218.65 143.25,220.1875 137.13125,221.28125 C137.13125,221.28125 134.81875,221.68125 132.5,222.0875 C130.18125,222.475 127.85,222.8125 127.8625,222.9875 C127.86875,223.15625 130.13125,223.18125 132.39375,223.075 C134.65,222.98125 136.90625,222.7625 136.90625,222.7625 C142.63125,222.175 148.33125,221.20625 153.96875,219.89375 C149.45625,222.5625 132.49375,225.7 110.9375,225.7 C87.175,225.7 68.99375,221.89375 66.91875,219.1 C75.225,221.6625 83.7875,223.28125 92.40625,223.89375 C92.40625,223.89375 95.84375,224.13125 99.28125,224.1125 C102.71875,224.11875 106.1375,223.8375 106.13125,223.675 C106.13125,223.5 102.86875,223.4125 99.625,223.15625 C96.38125,222.925 93.1625,222.525 93.1625,222.525 C84.1,221.4625 75.2,219.29375 66.71875,216.1 L66.71875,215.89375 C75.05625,218.4125 83.63125,220.0625 92.26875,220.78125 C92.26875,220.78125 95.6875,221.0625 99.1125,221.10625 C102.5375,221.16875 105.95625,220.96875 105.95625,220.80625 C105.95625,220.625 102.70625,220.4625 99.475,220.15 C96.24375,219.8625 93.0375,219.425 93.0375,219.425 C84.03125,218.25 75.1875,216.075 66.71875,212.9625 L66.71875,212.74375 C75.03125,215.1875 83.54375,216.85 92.125,217.66875 C92.125,217.66875 95.53125,217.99375 98.95,218.1 C102.3625,218.2125 105.775,218.09375 105.775,217.93125 C105.78125,217.75625 102.54375,217.51875 99.325,217.15 C96.10625,216.8 92.9125,216.325 92.9125,216.325 C83.96875,215.0375 75.18125,212.85625 66.71875,209.825 L66.71875,209.39375 C77.5375,212.65 94.8625,214.75625 110.9375,214.75625 C127.00625,214.75625 144.33125,212.65 155.15,209.39375 Z M218.59375,106.2125 C221.31875,96 223.59375,84.0625 219.875,72.96875 C219.28125,71.18125 218.78125,69.08125 218.3,67.05625 C218.025,65.8875 217.75625,64.7375 217.46875,63.6625 C217,61.89375 216.2875,59.2125 214.06875,57.64375 C213.3625,57.14375 212.6,56.825 211.925,56.54375 C211.3875,56.31875 210.58125,55.98125 210.49375,55.75625 C209.73125,53.7875 209.39375,51.51875 209.04375,49.1125 C208.55625,45.80625 208.05,42.3875 206.35,39.4125 C204.35,35.93125 201.4625,33.1625 198.9125,30.7125 C196.78125,28.66875 193.35625,26.825 190.11875,27.7875 L189.45625,27.98125 C188.2,28.3625 186.90625,28.7625 185.86875,28.71875 C185.6875,25.93125 184.88125,21.40625 180.90625,19.95 C180.15625,19.66875 179.425,19.56875 178.78125,19.48125 C178.23125,19.40625 177.7125,19.3375 177.4125,19.175 C177.0375,18.975 176.64375,18.45 176.225,17.8875 C175.91875,17.48125 175.60625,17.075 175.26875,16.70625 C172.88125,14.0875 169.49375,13.45 166.50625,12.8875 C165.3875,12.675 164.325,12.475 163.34375,12.1875 C160.675,11.40625 158.2625,9.8375 155.70625,8.18125 C154.60625,7.46875 153.50625,6.75 152.375,6.1 C147.025,2.98125 142.06875,2.20625 138.04375,3.8625 C137.4,4.13125 136.81875,4.4375 136.25625,4.7375 C135.29375,5.24375 134.4625,5.6875 133.71875,5.7125 C132.725,5.75 131.58125,5.0375 130.375,4.28125 C130.05625,4.08125 129.74375,3.8875 129.43125,3.7 C123.90625,0.4375 116.8875,-0.0125 111,2.4875 L110.86875,2.4875 C104.975,-0.0125 97.9625,0.44375 92.44375,3.7 C92.125,3.8875 91.8125,4.08125 91.49375,4.28125 C90.2875,5.0375 89.16875,5.75625 88.15,5.7125 C87.40625,5.6875 86.575,5.24375 85.6125,4.7375 C85.05,4.4375 84.46875,4.13125 83.825,3.8625 C79.8,2.20625 74.84375,2.98125 69.49375,6.1 C68.36875,6.75 67.26875,7.46875 66.1625,8.18125 C63.60625,9.8375 61.19375,11.40625 58.525,12.1875 C57.54375,12.475 56.48125,12.675 55.3625,12.8875 C52.375,13.45 48.9875,14.0875 46.6,16.70625 C46.2625,17.075 45.95,17.48125 45.65,17.8875 C45.225,18.44375 44.83125,18.975 44.45625,19.175 C44.15625,19.3375 43.6375,19.40625 43.0875,19.48125 C42.44375,19.56875 41.71875,19.66875 40.9625,19.95 C36.9875,21.40625 36.18125,25.93125 36,28.71875 C34.95,28.75625 33.66875,28.3625 32.4125,27.98125 L31.75,27.7875 C28.51875,26.825 25.0875,28.66875 22.95625,30.7125 C20.40625,33.1625 17.51875,35.93125 15.525,39.4125 C13.81875,42.3875 13.3125,45.80625 12.825,49.1125 C12.475,51.51875 12.1375,53.7875 11.375,55.75625 C11.2875,55.98125 10.48125,56.31875 9.94375,56.54375 C9.26875,56.825 8.50625,57.14375 7.8,57.64375 C5.58125,59.2125 4.875,61.89375 4.4,63.6625 C4.1125,64.7375 3.84375,65.8875 3.56875,67.05625 C3.0875,69.08125 2.59375,71.18125 1.99375,72.96875 C-1.725,84.0625 0.55625,96 3.275,106.2125 C13.4375,144.38125 34.56875,180.11875 62.89375,207.25625 C62.5875,207.84375 62.4125,208.5 62.4125,209.1875 L62.4125,218.7 C62.4125,220.34375 63.44375,221.74375 65.16875,222.94375 C18.11875,261.90625 32.5,295.225 45.225,324.6875 C54.275,345.625 62.81875,365.4375 50.85625,386.275 C50.75625,386.24375 50.64375,386.20625 50.55,386.175 C49.00625,385.64375 47.2875,385.9 45.9625,386.84375 C44.6375,387.79375 43.85,389.33125 43.85,390.9625 L43.85,402.5625 C43.85,403.89375 44.4375,405.15 45.5875,406.30625 C52.975,413.675 89.55625,418.51875 110.69375,418.51875 C110.85,418.51875 111.00625,418.51875 111.16875,418.51875 C132.3125,418.51875 168.89375,413.675 176.275,406.30625 C177.43125,405.15 178.01875,403.89375 178.01875,402.5625 L178.01875,390.9625 C178.01875,389.33125 177.23125,387.79375 175.90625,386.85 C174.58125,385.9 172.8625,385.64375 171.3125,386.175 C171.225,386.20625 171.1125,386.24375 171.0125,386.275 C159.05,365.43125 167.59375,345.625 176.64375,324.6875 C189.36875,295.225 203.75,261.90625 156.7,222.94375 C158.425,221.74375 159.45625,220.34375 159.45625,218.7 L159.45625,209.1875 C159.45625,208.5 159.28125,207.84375 158.975,207.25625 C187.3,180.11875 208.4375,144.38125 218.59375,106.2125 Z" id="Fill-107" fill="#0A0B09"></path>
                    </g>
                </g>
            </g>
        </g>
    </g>
</svg>