<?xml version="1.0" encoding="UTF-8"?>
<svg width="199px" height="323px" viewBox="0 0 199 323" version="1.1" xmlns="http://www.w3.org/2000/svg" xmlns:xlink="http://www.w3.org/1999/xlink">
    <!-- Generator: Sketch 48.2 (47327) - http://www.bohemiancoding.com/sketch -->
    <title>ic_razor</title>
    <desc>Created with Sketch.</desc>
    <defs></defs>
    <g id="Desktop.-Services-&amp;-Price" stroke="none" stroke-width="1" fill="none" fill-rule="evenodd" transform="translate(-741.000000, -523.000000)" opacity="0.149999991">
        <g id="Group-10" transform="translate(490.000000, 330.000000)">
            <g id="Group-8">
                <g id="Group-2">
                    <g id="ic_razor" transform="translate(357.389249, 399.073484) rotate(-366.000000) translate(-357.389249, -399.073484) translate(264.389249, 189.573484)">
                        <path d="M135.678815,330.159919 L147.321538,331.00542 C147.501305,331.019465 147.681072,331.008229 147.863648,331.011038 C150.17253,337.373358 152.326926,343.466017 154.326834,349.294633 C152.821285,350.426649 147.762529,353.710336 142.142001,351.477204 C135.392311,348.797445 130.072331,333.775066 128.600488,329.235768 C128.344882,328.443638 128.695989,327.586902 129.443146,327.202072 L130.850385,326.468931 C131.712705,327.384656 132.594687,328.277909 133.518801,329.114982 C134.060911,329.592507 134.743464,330.089695 135.678815,330.159919 Z M178.997048,418.996452 C181.173914,418.923418 183.561445,417.698707 183.662564,415.153779 C183.707506,410.01617 182.943496,403.701602 181.336828,395.892661 C183.145734,394.791544 184.392868,393.344924 184.072658,391.651114 C181.70198,368.412493 176.494354,345.128928 168.59865,322.424012 C172.870925,319.949308 176.884786,317.308875 180.595289,314.511139 C183.982774,311.954975 185.948976,308.030842 185.993918,303.741543 C186.631529,245.899202 137.004596,94.6304696 100.222579,39.0072162 L100.228197,39.0015983 C100.21977,38.9875534 100.205726,38.9791265 100.197299,38.9650817 C98.5513075,36.4791419 96.9277866,34.1673584 95.3407809,32.0802926 C91.8184709,27.4539165 86.211987,26.2657216 81.4228812,26.6926853 L80.9846991,23.1870888 C80.8835802,22.3612512 80.4734867,21.6140648 79.8330667,21.0803602 L73.3502186,15.6983709 C72.6957543,15.1534304 71.9064647,14.8360166 71.0918954,14.7405116 L71.0216739,1.87261323 C70.9851587,1.22935876 70.6368601,0.645092694 70.0919414,0.302398173 C69.5470226,-0.0374873768 68.8672786,-0.090857835 68.3167421,0.142286798 L8.79700578,21.7039519 C8.05265797,22.0157477 7.41223797,22.5016998 6.91226095,23.1028197 C6.31116498,23.8275343 5.91511576,24.7207873 5.79714366,25.6898824 L0.0417902078,81.7681891 C-0.211007162,83.9058164 0.69625451,86.0406348 2.40685004,87.3411886 L6.08083849,90.1361152 C6.27745866,90.6613928 6.56958007,91.1529629 6.96282042,91.5686906 L15.0523363,100.127627 C15.4202969,100.518074 15.8556701,100.827061 16.3500294,101.043351 L17.2263936,101.43099 C18.7094715,106.585452 20.3386101,111.880363 22.0716766,117.200555 L21.8441589,117.245499 C21.4509186,117.321341 21.1166643,117.534823 20.8779112,117.821338 C20.5717455,118.192122 20.4200671,118.686501 20.5071417,119.189307 C25.1164804,145.832402 30.2988265,168.790126 36.3491102,189.368651 C36.6608936,190.424824 37.6102882,191.141112 38.7113612,191.155157 L50.8175464,191.298414 C51.0984323,191.301223 51.3793183,191.242235 51.6349245,191.124258 C69.6678036,229.924581 92.4083314,271.57601 121.145775,318.426846 C121.741253,319.39875 122.729971,320.036386 123.859133,320.179644 L126.027573,320.457732 C126.285988,320.836943 126.564065,321.1993 126.830907,321.570085 L125.63995,322.15716 C124.811336,322.56727 124.106313,323.134682 123.544541,323.811644 C122.156964,325.482982 121.642943,327.80881 122.345158,329.974527 C127.558401,346.089597 133.659244,355.154148 140.995986,357.690649 C145.563192,359.266482 150.678125,358.308623 156.20877,354.84797 C161.441675,370.429335 165.553846,384.128689 168.654827,396.322434 C169.095818,397.586471 170.452497,398.137029 172.12096,398.252197 C173.629317,404.850471 174.43546,410.645379 174.570285,415.99647 C174.766906,417.839155 176.587047,419.075103 178.997048,418.996452 Z" id="Fill-311" fill="#FFFFFF"></path>
                        <path d="M93.2122139,35.7596583 C91.6829448,34.8232127 89.9514819,34.2102665 88.1744542,34.0400036 C86.4002742,33.8867671 84.6118553,34.1790516 83,34.8260504 C86.3661006,33.9179819 90.0027423,34.5053887 92.7508702,36.4690868 C94.1377492,37.4168833 95.3480646,38.6229118 96.3504905,39.9651505 C97.344373,41.3329287 98.2955384,42.8000268 99.2296171,44.247261 C101.123405,47.1388916 102.940302,50.0816011 104.757199,53.0271482 C105.668495,54.4999218 106.557009,55.9840462 107.42274,57.4823593 C108.319797,58.9664837 109.162747,60.4789853 110,62 C109.390571,60.3739899 108.638751,58.8018963 107.901171,57.2298027 C107.129417,55.6718977 106.317793,54.1366944 105.494779,52.6043288 C103.843055,49.5452731 102.040397,46.5713488 100.158,43.6485033 C99.1925957,42.1955938 98.2556692,40.7483596 97.1820483,39.3323403 C96.0600148,37.9418604 94.7642654,36.6705645 93.2122139,35.7596583" id="Fill-312" fill="#1E2132"></path>
                        <path d="M49.9046034,48.2326865 C48.2479234,49.0875185 46.7346911,50.2235454 45.4521002,51.5817161 C42.8672294,54.2896217 41.2949304,57.931094 41.0417874,61.6681724 C40.9067779,63.5381176 41.1008541,65.4305584 41.5958892,67.2414527 L42.0290449,68.5827517 L42.5156419,69.8706238 L43.4944614,72.437932 C44.7967412,75.8600723 46.099021,79.2737768 47.3984882,82.6846693 C52.6469854,96.3001199 57.9123587,109.797469 63.2930528,123.179528 C74.0094377,149.954893 85.07741,176.308467 96.5588492,202.529879 C108.043101,228.751291 120.025201,254.806798 132.614843,280.969159 C135.73694,287.520997 138.979982,294.041904 142.189272,300.607802 C143.786886,303.894969 145.449191,307.156828 147.083369,310.443995 C147.904678,312.08336 148.725986,313.725538 149.547294,315.367715 L150.782069,317.836605 C151.223663,318.660506 151.535873,319.467535 152.120914,320.336427 C153.260057,322.009536 155.262699,323.013401 157.265341,322.999341 C158.255412,323.016213 159.282047,322.706899 160.120231,322.316038 C160.975292,321.947673 161.821915,321.562436 162.660099,321.157515 C166.012837,319.549081 169.278381,317.766307 172.487671,315.873866 C174.09091,314.923427 175.680085,313.94487 177.246758,312.926945 C178.031502,312.420794 178.807807,311.900584 179.578486,311.366314 C180.371667,310.848915 181.088906,310.168424 181.637382,309.386703 C182.191484,308.607793 182.604951,307.719218 182.796214,306.777215 C182.970602,305.815529 182.936849,304.89321 182.984665,303.951208 C183.029668,302.072827 182.967789,300.194446 182.900284,298.316065 C182.919973,300.188822 182.934037,302.058767 182.84403,303.923088 C182.776525,304.851031 182.776525,305.795845 182.596513,306.701292 C182.396811,307.601116 181.983344,308.447512 181.437681,309.189866 C180.360417,310.708318 178.619356,311.523783 177.083622,312.54452 C175.505697,313.520266 173.908084,314.453832 172.296407,315.362091 C169.070241,317.167362 165.790633,318.865778 162.449147,320.389854 C161.613775,320.772279 160.77559,321.140644 159.928968,321.483701 C159.07672,321.866126 158.286351,322.08827 157.414415,322.099518 C155.701481,322.124825 154.019486,321.278429 153.046292,319.900575 C152.573759,319.236955 152.230609,318.351192 151.819955,317.535727 L150.638622,315.058401 C149.848253,313.407788 149.060697,311.757174 148.275954,310.109373 C146.703655,306.810958 145.136981,303.52098 143.573121,300.236625 C140.487589,293.648231 137.354242,287.110453 134.333403,280.544555 C122.145976,254.334391 110.388892,228.301379 98.9215167,202.139018 C87.4653919,175.973845 76.2258449,149.710254 65.1128693,123.013623 C59.5409117,109.670931 54.0252081,96.2101376 48.4757521,82.6228065 C47.0975293,79.2231617 45.7164939,75.8150812 44.3298331,72.3957528 L43.2891343,69.8340685 C42.9347342,68.9792364 42.5943975,68.1244043 42.3131276,67.2667602 C41.7674639,65.5374124 41.5115082,63.7124584 41.5762003,61.8875043 C41.6830829,58.2347843 43.123185,54.6101838 45.5955478,51.8488512 C46.8246975,50.462561 48.2957393,49.2871668 49.927105,48.3817197 C50.7456005,47.93462 51.5978485,47.5465712 52.4500964,47.1641463 L55.0068402,46 L52.444471,47.0882237 C51.5894104,47.4453411 50.7371624,47.8024585 49.9046034,48.2326865" id="Fill-313" fill="#000000"></path>
                        <path d="M20.2653977,69.5741114 L22.6818944,56.4212323 C23.5389078,52.2865125 25.9863132,48.4451343 29.1614775,45.5927363 C30.7659189,44.1651405 32.564242,42.9973615 34.5676864,42.2179109 L40.8084296,39.706348 L53.2561976,34.5938228 C61.5481532,31.1687102 69.7951507,27.637436 78,24 C69.5338319,26.9892907 61.1098119,30.0847431 52.7307501,33.289151 L40.1705869,38.1195095 L33.9073646,40.5779916 C31.721278,41.4133168 29.6897349,42.7068136 27.9476093,44.2461586 C26.2195332,45.8162347 24.7162475,47.6153966 23.5304781,49.615707 C22.3362792,51.6048425 21.4202583,53.7839516 20.9875368,56.1083346 C20.2513483,60.5280149 19.5039202,64.9225516 18.8632676,69.3478193 C17.5538636,78.1843862 16.4242919,87.0712401 16,96 C16.5816451,91.5691448 17.2222978,87.1578457 17.9837752,82.7605153 C18.7031045,78.3575974 19.4814412,73.9658544 20.2653977,69.5741114" id="Fill-314" fill="#1E2132"></path>
                        <path d="M141.591464,355.971558 C139.8275,355.362012 138.136567,354.308647 136.507428,352.828319 C136.57765,352.884499 136.647871,352.943487 136.718093,352.999667 C137.066391,353.269328 137.454014,353.499664 137.813548,353.744044 C138.175891,353.985616 138.535425,354.215951 138.903385,354.404152 C139.633689,354.794599 140.335904,355.109204 140.953853,355.33954 C142.189751,355.80302 143.057689,355.94066 143.077351,355.867626 C143.102631,355.783357 142.327385,355.499651 141.240357,354.935048 C140.14771,354.387299 138.771369,353.499664 137.541088,352.47158 C136.333279,351.40698 135.237824,350.224403 134.504711,349.255308 C133.751937,348.308684 133.313755,347.628913 133.313755,347.628913 C130.608823,343.701971 128.690372,339.249751 127.184823,334.710453 C126.811245,333.57282 126.468564,332.426759 126.15678,331.275081 C126.01072,330.699242 125.850615,330.123403 125.724216,329.544755 C125.575346,328.907118 125.477036,328.516671 125.521978,328.078472 C125.575346,327.20769 126.024764,326.384662 126.710126,325.884665 C126.805627,325.822867 126.82248,325.797587 126.962923,325.721745 L127.358972,325.508263 L128.151071,325.07849 L129.13698,324.544785 C129.28585,324.721751 129.426293,324.907143 129.575162,325.081299 L128.600488,325.586914 C128.170733,325.811632 127.802772,326.112192 127.507842,326.466122 C126.757876,327.370611 126.488226,328.617794 126.870231,329.794753 C128.833624,335.859323 134.18731,350.274964 141.467874,353.168205 C147.478834,355.555831 152.765108,352.628882 154.939165,351.100802 C155.02624,351.353609 155.113315,351.606417 155.19758,351.859224 C153.470132,352.937869 151.655608,353.954717 149.787717,354.803026 C149.787717,354.803026 149.077075,355.134485 148.352389,355.437854 C147.627704,355.744032 146.877738,355.99403 146.891782,356.10358 C146.908635,356.207512 147.68669,356.18504 148.453508,356.05021 C149.220327,355.918188 149.964675,355.707515 149.964675,355.707515 C150.737111,355.479988 151.492694,355.224372 152.248278,354.954711 C148.366434,356.766497 144.85255,357.097956 141.591464,355.971558 Z M122.696265,317.474604 C93.9925282,270.677139 71.280089,229.08189 53.2752986,190.337746 C53.9803223,189.947299 54.3847981,189.183259 54.2724437,188.371466 L44.4582881,118.231448 C45.320608,120.281997 46.2082076,122.380299 47.1098516,124.50669 L55.5532837,188.427645 C55.7190065,189.941681 55.6235052,191.003472 55.3538547,191.753468 C81.6812963,242.741918 107.621115,292.853969 123.853515,316.432476 C124.168108,316.887529 124.595054,317.238651 125.09784,317.463368 L126.269135,317.988646 L126.614624,318.696507 L124.08946,318.376284 C123.510834,318.303251 123.002431,317.974601 122.696265,317.474604 Z M38.7338321,189.334943 C38.436093,189.332134 38.1776779,189.138315 38.0934121,188.854609 C38.0175729,188.596184 37.9445425,188.334949 37.8687033,188.076524 C38.2310462,188.399556 38.694508,188.601802 39.2029116,188.587757 L47.4637679,188.385511 C48.1744094,188.368657 48.6996662,187.722593 48.5704586,187.02316 C44.5313184,165.130036 41.1550691,142.762196 38.3995778,119.950539 C38.2029576,118.315717 36.6946,117.164039 35.0682702,117.414037 L23.8524936,119.135937 C23.2991482,119.220206 22.8272598,119.501103 22.4761523,119.883123 C22.4255929,119.588181 22.3722245,119.301666 22.3216651,119.006724 L42.1859206,115.110681 L49.163128,164.983969 C47.7727425,156.481213 46.5199911,147.953175 45.3234168,139.416711 C45.3234168,139.416711 44.5228918,133.731353 43.7251757,128.043185 C43.3206999,125.200506 42.9134153,122.357827 42.6100584,120.225818 C42.4443357,119.161218 42.3095104,118.276392 42.2140092,117.655609 C42.1100814,117.034826 42.0398599,116.680896 42.0117713,116.683705 C41.9864916,116.686514 42.0033447,117.062916 42.0567131,117.720215 C42.118508,118.377514 42.2055826,119.312902 42.3095104,120.436491 C42.5454546,122.680859 42.8656646,125.672413 43.1802569,128.663968 C43.8712364,134.641459 44.5622159,140.618951 44.5622159,140.618951 C45.1464587,145.382966 45.7503635,150.144173 46.3851658,154.899762 C45.5874497,149.815523 44.820631,144.722858 44.0847097,139.627384 C44.0847097,139.627384 43.2673316,133.942025 42.4499534,128.259476 C42.0398599,125.419606 41.6297664,122.576927 41.3207918,120.444917 C41.1550691,119.380317 41.017435,118.492682 40.9219338,117.8719 C40.8180059,117.253926 40.7477845,116.899995 40.7225047,116.902804 C40.6944161,116.905613 40.7140781,117.282016 40.7674465,117.939315 C40.8264325,118.593805 40.916316,119.532002 41.0202438,120.65559 C41.2618058,122.899959 41.5848246,125.891513 41.9078435,128.880259 C42.618485,134.85775 43.3291265,140.832433 43.3291265,140.832433 C45.3936383,157.096377 47.7193741,173.337851 50.7164274,189.478201 L38.7338321,189.334943 Z M16.3753092,98.8776344 L8.28579332,90.3186983 C7.76053656,89.762522 7.52459235,88.9788189 7.65941762,88.2260146 L15.0467185,46.2740255 C15.9652156,41.0633834 19.4453928,36.7797019 24.3580883,34.8162308 L69.6874656,16.7011737 C70.5301235,16.3669061 71.4879446,16.5157816 72.1873507,17.0972387 L78.6701988,22.479228 C78.9538936,22.7151816 79.1336606,23.0466403 79.1814112,23.4089976 L79.6195933,26.9398747 C79.0971454,27.0353798 78.5831241,27.1421207 78.0971914,27.2713334 C61.5445814,32.7600637 47.8991412,38.1869966 36.4474203,43.8358382 C33.0290381,45.1953804 30.0656912,47.3807602 27.7848971,50.1279343 C25.7540916,52.5745485 24.2682048,55.4649802 23.4873418,58.6138372 C23.3918406,58.9958573 23.3047659,59.3806864 23.2120736,59.7627065 L23.2092647,59.7627065 C23.2008381,59.7936052 23.1952204,59.8273129 23.1896027,59.8610205 C20.3442279,71.7457789 18.7544133,83.9535689 17.2011139,99.4310018 L17.0859506,99.3804403 C16.8163001,99.2596546 16.5747382,99.0911163 16.3753092,98.8776344 Z M1.84788697,81.9676261 L7.60604928,25.8949374 C7.74087455,24.7797757 8.4683692,23.8162985 9.45989666,23.3977617 L68.9796329,1.8360966 C69.0330013,1.81362483 69.0807519,1.8164338 69.1285025,1.84733249 C69.1762531,1.8754222 69.2015329,1.91755678 69.2015329,1.92879266 L69.2745632,14.9287127 C69.2296214,14.9427575 69.1874886,14.9539934 69.1453557,14.9708473 L68.1622548,7.54673563 C68.1622548,7.54673563 67.5836297,3.3922668 67.2606108,3.40912063 C66.9347831,3.42597446 66.7915313,7.42875883 66.7915313,7.42875883 L66.5780579,15.984886 L65.7185469,16.3303895 L64.5612967,8.98212006 C64.5612967,8.98212006 63.8843615,4.850123 63.5613426,4.87259478 C63.2355149,4.89787552 63.1905732,8.89785091 63.1905732,8.89785091 L63.1821466,17.3416192 L62.2917381,17.6983586 L60.9631475,10.4175045 C60.9631475,10.4175045 60.1850933,6.30517023 59.8620745,6.33887789 C59.5390556,6.37258555 59.5896151,10.366943 59.5896151,10.366943 L59.7834264,18.7011614 L58.8621204,19.0691367 L57.3621894,11.8528889 C57.3621894,11.8528889 56.4830163,7.76302643 56.1628063,7.805161 C55.8397874,7.84448661 55.988657,11.8360351 55.988657,11.8360351 L56.3818973,20.0607036 L55.4296939,20.4399147 L53.7612313,13.2882733 C53.7612313,13.2882733 52.7837481,9.22088263 52.4635381,9.26863515 C52.1433281,9.31919663 52.3876989,13.3051272 52.3876989,13.3051272 L52.9747506,21.4230548 L51.9972674,21.8135018 L50.1602732,14.7264667 C50.1602732,14.7264667 49.0844799,10.6787388 48.7642699,10.7349183 C48.4440599,10.7910977 48.7867408,14.7742193 48.7867408,14.7742193 L49.5647949,22.7854059 L48.562032,23.1842799 L46.5593151,16.1618512 C46.5593151,16.1618512 45.3824029,12.136595 45.0650018,12.2012014 C44.7476006,12.2629987 45.1885916,16.2433113 45.1885916,16.2433113 L46.1492216,24.1505661 L45.1239878,24.5578669 L42.958357,17.5972356 C42.958357,17.5972356 41.6831347,13.5944512 41.3657336,13.6646755 C41.0483324,13.7377088 41.5876335,17.7124034 41.5876335,17.7124034 L42.7308394,25.5157262 L41.6859436,25.934263 L39.3573989,19.03262 C39.3573989,19.03262 37.9810577,15.0494985 37.6664654,15.1309586 C37.3518731,15.2096098 37.9894843,19.1814955 37.9894843,19.1814955 L39.3096483,26.8836953 L38.2450905,27.30785 L35.753632,20.4708134 C35.753632,20.4708134 34.2817895,16.5073547 33.9671972,16.5944328 C33.6554138,16.6815109 34.391335,20.6505876 34.391335,20.6505876 L35.8828395,28.2516644 L34.8014285,28.684246 L32.149865,21.9090068 C32.149865,21.9090068 30.5797125,17.9652109 30.2679291,18.0607159 C29.9589545,18.1562209 30.7931858,22.1196797 30.7931858,22.1196797 L32.4532219,29.6224425 L31.3577666,30.0606421 L28.5489069,23.3443913 C28.5489069,23.3443913 26.8776354,19.4230671 26.5686609,19.526999 C26.2624952,19.628122 27.1950366,23.5887718 27.1950366,23.5887718 L29.0236042,30.9932206 L27.9112958,31.4370381 L24.94514,24.7825847 C24.94514,24.7825847 23.1755584,20.8809233 22.8693927,20.9904731 C22.5660359,21.100023 23.5968873,25.0550549 23.5968873,25.0550549 L25.58556,32.3668077 L24.4620161,32.8162431 L21.341373,26.220778 C21.341373,26.220778 19.4734814,22.3415884 19.1729334,22.4567563 C18.8695765,22.5719241 19.9987381,26.524147 19.9987381,26.524147 L22.1727955,33.8246639 C21.8132615,34.010056 21.462154,34.206684 21.122282,34.4145479 L17.7376061,27.6589714 C17.7376061,27.6589714 15.7742132,23.7994446 15.4736652,23.9202304 C15.1731172,24.0438252 16.4005889,27.9904301 16.4005889,27.9904301 L18.9763132,35.9566732 C18.6729564,36.2150986 18.3780261,36.4847598 18.0943313,36.762848 L14.2911353,29.4595222 C14.2911353,29.4595222 12.0721361,25.2573008 11.774397,25.3865135 C11.4766579,25.5157262 12.9569269,29.8050257 12.9569269,29.8050257 L16.2095864,38.9426099 C15.8051106,39.5015952 15.4343412,40.0858613 15.1028957,40.6925991 C13.6647596,37.0268913 9.23518789,25.7881964 9.05261201,26.0072962 C8.85037411,26.2544857 2.81694356,77.0715888 2.02484513,83.7625589 C1.84507811,83.1923377 1.77766548,82.5827909 1.84788697,81.9676261 Z M41.8011068,113.332602 L41.4443817,111.029245 C41.7449296,111.748342 42.0539042,112.48991 42.3600699,113.223052 L41.8011068,113.332602 Z M33.9475352,91.0153233 C33.6582227,90.9085823 33.3211595,90.8495939 32.970052,90.8692567 C32.5936649,90.8973465 32.3408675,90.9703797 32.009422,91.0237502 C31.3774286,91.141727 30.7033023,91.2681307 30.029176,91.3945344 C28.6837322,91.6585777 27.3382884,91.922621 26.3299078,92.122058 C25.3215272,92.3327309 24.6530186,92.4928423 24.6614452,92.5462127 C24.6782983,92.6529536 27.2821112,92.3608206 29.8774976,92.0405978 C30.529153,91.9591377 31.1779996,91.8776775 31.7875221,91.8018353 C32.090879,91.7625097 32.3858092,91.725993 32.6638863,91.6894764 C32.9391546,91.6529598 33.1189216,91.6557688 33.3211595,91.6950944 C34.1104491,91.8776775 34.3632464,92.4282359 34.3604376,92.4029552 C34.5851464,92.7259869 34.6160438,93.0490186 34.6553678,93.5714873 L34.7986197,95.0068717 L35.1047854,97.8860675 C35.3182587,99.804595 35.5485852,101.720314 35.7957649,103.636032 C36.2508001,107.166909 36.7648215,110.692168 37.3209757,114.21181 L24.0715846,116.807299 C23.7429481,112.787661 22.5744624,97.8017984 23.0912926,92.3271129 C23.1221901,91.9844184 23.3412811,91.7007123 23.6586823,91.5855445 C25.7512827,90.8355491 28.6163196,90.254092 31.3858552,89.6951067 C32.5431054,89.4591531 33.6863113,89.2288174 34.7564868,88.9872458 C35.1272563,88.9057857 35.5036435,88.97601 35.8154269,89.1894918 C36.1244015,89.4001647 36.3266393,89.7231964 36.3856254,90.0939806 L40.0146721,113.683723 L39.0708952,113.866306 C38.3967689,110.481496 37.7619666,107.085449 37.1805327,103.680976 C36.8631315,101.824246 36.5625836,99.9675154 36.2788887,98.1079763 L35.8659864,95.3186676 L35.6693662,93.9169908 C35.5794827,93.4366567 35.6019536,93.0237379 35.3912891,92.4254269 C35.3912891,92.4254269 35.3238764,92.220372 35.1188297,91.9198121 C34.9109741,91.6220611 34.5345869,91.2288051 33.9475352,91.0153233 Z M184.176585,303.719071 C184.134453,307.443767 182.429475,310.845432 179.502643,313.058901 C171.856927,318.82572 162.930371,323.93243 152.972963,328.235774 C151.214617,328.997005 149.304593,329.328464 147.453554,329.193633 L146.088448,329.09251 C144.714916,328.384649 140.976324,322.131879 135.622637,311.96902 C129.58078,300.002802 123.659704,288.137706 117.867835,276.384969 C93.677936,226.227975 59.9997086,151.520569 40.2787049,103.436595 L38.1832956,89.8187014 C38.0512792,88.9563472 37.5625376,88.1782621 36.8406607,87.686692 C36.1187837,87.1923131 35.2143309,87.0209658 34.3604376,87.2119759 C34.1834794,87.2513015 33.992477,87.2906271 33.8127099,87.3299527 C25.464779,65.9536797 24.8075059,61.2626973 24.9676109,60.2486586 C25.0631121,59.8497846 25.1558045,59.4481017 25.2541146,59.0492278 C26.7652811,52.9369058 31.2032793,47.8807572 37.1861504,45.4959404 C48.6266358,39.8583346 62.1962369,34.4594914 78.6140216,29.0128957 C80.7038132,28.4595283 83.0829173,28.2797541 85.4030354,28.59155 C85.2429304,28.585932 85.0828254,28.5718872 84.9227204,28.5746962 C84.9227204,28.5746962 83.6250272,28.5775051 82.3638492,28.8359305 C81.0998624,29.0746931 79.9201413,29.5943528 79.9678919,29.7095206 C80.0044071,29.7965987 81.1588484,29.5213195 82.3357606,29.4623311 C83.5070551,29.380871 84.669923,29.476376 84.669923,29.476376 C86.3805186,29.5859259 88.0377458,30.0016537 89.6078983,30.6645709 C89.6107072,30.6645709 89.613516,30.6645709 89.6163249,30.6673799 C88.6388417,30.4342353 87.6557408,30.2881688 86.6642134,30.2376073 C86.6642134,30.2376073 85.1699,30.1505292 83.7121019,30.4061456 C82.2458771,30.6252453 80.8779625,31.2067024 80.9285219,31.3218703 C80.9622283,31.4061394 82.2936277,31.0802987 83.6474981,31.0325462 C85.0013685,30.951086 86.3327679,31.1224333 86.3327679,31.1224333 C87.3102511,31.2291742 88.2764988,31.4258022 89.2090402,31.7235532 C89.7455324,31.8892825 90.2623626,32.1196182 90.7679574,32.3808525 C90.0011387,32.1701797 89.2258934,32.0297311 88.4478393,31.942653 C88.4478393,31.942653 86.751288,31.740407 85.0800165,31.9819786 C83.4003185,32.1729886 81.8385925,32.8162431 81.889152,32.9370289 C81.9228583,33.018489 83.4368336,32.630851 84.9817064,32.6083792 C85.751334,32.5802895 86.5181527,32.628042 87.0883512,32.6786035 C87.6585497,32.7404009 88.032128,32.8050072 88.032128,32.8050072 C89.1360099,32.9819724 90.2398917,33.2656785 91.2342281,33.6982601 C92.2426087,34.1336507 93.1863855,34.7347706 94.076794,35.4061148 C95.8126693,36.7263314 97.4024839,38.344299 98.7282656,40.0409177 C135.364222,95.4029367 184.808579,246.107066 184.176585,303.719071 Z M135.678815,330.159919 L147.321538,331.00542 C147.501305,331.019465 147.681072,331.008229 147.863648,331.011038 C150.17253,337.373358 152.326926,343.466017 154.326834,349.294633 C152.821285,350.426649 147.762529,353.710336 142.142001,351.477204 C135.392311,348.797445 130.072331,333.775066 128.600488,329.235768 C128.344882,328.443638 128.695989,327.586902 129.443146,327.202072 L130.850385,326.468931 C131.712705,327.384656 132.594687,328.277909 133.518801,329.114982 C134.060911,329.592507 134.743464,330.089695 135.678815,330.159919 Z M142.181325,327.064433 C142.675684,327.817237 143.099822,328.423975 143.459356,328.9015 L135.81364,328.345324 C135.490621,328.320043 135.17322,328.148696 134.72942,327.75544 C134.43449,327.488588 134.156413,327.199264 133.8671,326.923984 L142.181325,327.064433 Z M182.274987,391.90954 C182.362062,392.375829 182.092412,392.89268 181.581199,393.40953 C181.162679,388.785963 179.306023,370.811355 174.398945,354.40977 C170.351378,340.873337 167.312192,332.713275 165.896527,329.137454 C165.427447,327.949259 164.317948,327.04477 162.893856,327.845327 C159.548504,329.738574 155.989679,331.367777 152.186483,331.985751 C151.706168,332.176761 151.461797,332.707657 151.635946,333.193609 C153.349351,337.946388 161.13551,360.294566 164.683099,372.648422 C166.534138,379.097821 167.770036,384.696101 168.567752,388.858997 C164.096048,372.457412 157.910939,353.404158 149.768055,330.932387 C151.107881,330.777893 152.436471,330.449244 153.69484,329.907112 C158.357547,327.890271 162.787119,325.693655 166.980747,323.342546 C174.766906,345.811509 179.918354,368.847884 182.274987,391.90954 Z M181.845232,415.108835 C181.817143,415.802651 181.412668,416.313884 180.845278,416.653769 C181.216047,412.847613 179.53354,398.32523 178.084169,398.457252 C177.477455,399.148259 175.457885,399.39264 174.233222,399.36455 C174.154574,398.988148 174.064691,398.603319 173.980425,398.224107 C174.991614,398.131411 176.03651,397.937592 177.011184,397.679167 C177.893166,397.443213 178.797619,397.134227 179.654321,396.760633 C181.162679,404.207217 181.887365,410.238079 181.845232,415.108835 Z M178.997048,418.996452 C181.173914,418.923418 183.561445,417.698707 183.662564,415.153779 C183.707506,410.01617 182.943496,403.701602 181.336828,395.892661 C183.145734,394.791544 184.392868,393.344924 184.072658,391.651114 C181.70198,368.412493 176.494354,345.128928 168.59865,322.424012 C172.870925,319.949308 176.884786,317.308875 180.595289,314.511139 C183.982774,311.954975 185.948976,308.030842 185.993918,303.741543 C186.631529,245.899202 137.004596,94.6304696 100.222579,39.0072162 L100.228197,39.0015983 C100.21977,38.9875534 100.205726,38.9791265 100.197299,38.9650817 C98.5513075,36.4791419 96.9277866,34.1673584 95.3407809,32.0802926 C91.8184709,27.4539165 86.211987,26.2657216 81.4228812,26.6926853 L80.9846991,23.1870888 C80.8835802,22.3612512 80.4734867,21.6140648 79.8330667,21.0803602 L73.3502186,15.6983709 C72.6957543,15.1534304 71.9064647,14.8360166 71.0918954,14.7405116 L71.0216739,1.87261323 C70.9851587,1.22935876 70.6368601,0.645092694 70.0919414,0.302398173 C69.5470226,-0.0374873768 68.8672786,-0.090857835 68.3167421,0.142286798 L8.79700578,21.7039519 C8.05265797,22.0157477 7.41223797,22.5016998 6.91226095,23.1028197 C6.31116498,23.8275343 5.91511576,24.7207873 5.79714366,25.6898824 L0.0417902078,81.7681891 C-0.211007162,83.9058164 0.69625451,86.0406348 2.40685004,87.3411886 L6.08083849,90.1361152 C6.27745866,90.6613928 6.56958007,91.1529629 6.96282042,91.5686906 L15.0523363,100.127627 C15.4202969,100.518074 15.8556701,100.827061 16.3500294,101.043351 L17.2263936,101.43099 C18.7094715,106.585452 20.3386101,111.880363 22.0716766,117.200555 L21.8441589,117.245499 C21.4509186,117.321341 21.1166643,117.534823 20.8779112,117.821338 C20.5717455,118.192122 20.4200671,118.686501 20.5071417,119.189307 C25.1164804,145.832402 30.2988265,168.790126 36.3491102,189.368651 C36.6608936,190.424824 37.6102882,191.141112 38.7113612,191.155157 L50.8175464,191.298414 C51.0984323,191.301223 51.3793183,191.242235 51.6349245,191.124258 C69.6678036,229.924581 92.4083314,271.57601 121.145775,318.426846 C121.741253,319.39875 122.729971,320.036386 123.859133,320.179644 L126.027573,320.457732 C126.285988,320.836943 126.564065,321.1993 126.830907,321.570085 L125.63995,322.15716 C124.811336,322.56727 124.106313,323.134682 123.544541,323.811644 C122.156964,325.482982 121.642943,327.80881 122.345158,329.974527 C127.558401,346.089597 133.659244,355.154148 140.995986,357.690649 C145.563192,359.266482 150.678125,358.308623 156.20877,354.84797 C161.441675,370.429335 165.553846,384.128689 168.654827,396.322434 C169.095818,397.586471 170.452497,398.137029 172.12096,398.252197 C173.629317,404.850471 174.43546,410.645379 174.570285,415.99647 C174.766906,417.839155 176.587047,419.075103 178.997048,418.996452 Z" id="Fill-315" fill="#000000"></path>
                        <path d="M138.350875,295.009838 C134.213285,286.557273 130.075695,278.101897 125.732338,269.222066 C128.451802,276.634575 131.377034,283.701335 134.569207,290.607871 C131.110093,283.535488 127.625953,276.41532 124,269 C127.486921,278.253689 131.251905,286.98454 135.420082,295.549543 C139.596601,304.108925 144.173532,312.513703 149.459526,321 C145.994851,314.076599 142.738723,307.378074 139.507621,300.732959 C142.966735,307.459592 146.737281,314.101897 151,320.769501 C146.55654,311.934645 142.474562,303.465214 138.350875,295.009838" id="Fill-316" fill="#000000"></path>
                        <path d="M134.798201,295.482049 C139.064376,304.036331 143.69405,312.456864 149,321 C140.050612,303.105669 131.952205,286.905476 123,269 C126.646256,278.217447 130.537661,286.922195 134.798201,295.482049" id="Fill-317" fill="#000000"></path>
                        <path d="M132.928787,295.923763 C137.199656,304.641184 141.792169,313.237529 147,322 C138.052711,303.762684 129.952883,287.248579 121,269 C124.72827,278.356585 128.666308,287.206343 132.928787,295.923763" id="Fill-318" fill="#000000"></path>
                        <path d="M131.060224,295.860107 C135.332942,304.569683 139.888841,313.181555 145,322 C136.052002,303.760139 127.95355,287.248236 119,269 C122.811853,278.320921 126.793059,287.144949 131.060224,295.860107" id="Fill-319" fill="#000000"></path>
                        <path d="M129.185692,295.30036 C133.462533,304.172977 137.981876,312.963806 143,322 C134.052252,303.417141 125.950503,286.59414 117,268 C120.891044,277.459236 124.917117,286.424923 129.185692,295.30036" id="Fill-320" fill="#000000"></path>
                        <path d="M143,322 C133.710227,303.4174 125.295455,286.593786 116,268 C124.278409,286.834283 132.809659,303.800518 143,322" id="Fill-321" fill="#000000"></path>
                        <path d="M42.2526917,52.8663326 C40.1324832,55.6976725 38.9333489,59.1908841 39.002864,62.7180378 C39.0376215,64.4632294 39.393886,66.2508486 40.0282107,67.8715856 C40.6770177,69.4329239 41.3460999,70.9914337 42.0325608,72.5556005 C43.4083792,75.6811055 44.8624019,78.8179247 46.4120079,82 C45.3750753,78.659528 44.3033852,75.4095684 43.1824553,72.2105221 C42.6234386,70.6124131 42.052836,69.0256182 41.4648547,67.4501374 C40.9261132,65.9057702 40.6480531,64.3642315 40.5959168,62.7548085 C40.5292982,59.5614191 41.4503724,56.3510587 43.2114199,53.5508324 C44.0890472,52.1478907 45.2215629,50.8807176 46.5307627,49.7804267 C47.837066,48.6659932 49.3953613,47.8344109 51,47 C49.3084675,47.5911589 47.6169351,48.2247454 46.1281548,49.228867 C44.6364781,50.2131889 43.3070031,51.4435914 42.2526917,52.8663326" id="Fill-322" fill="#000000"></path>
                        <path d="M40.1427472,53.0736544 C38.008158,55.9971671 36.8733494,59.6090652 37.0112502,63.2152975 L37.1204216,64.5637394 L37.361748,65.898017 C37.5800909,66.7790368 37.8415278,67.6770538 38.1920257,68.4504249 C38.8499274,70.0538244 39.5221937,71.6600567 40.2174435,73.2691218 C41.6021973,76.4844193 43.0645202,79.7167139 44.618777,83 C43.5385542,79.5750708 42.429602,76.2379603 41.2775558,72.9546742 C40.6886045,71.3172805 40.1025262,69.6855524 39.5164478,68.0594901 C39.1831876,67.2407932 38.9820823,66.4589235 38.7895958,65.6713881 L38.5856175,64.4532578 C38.5396506,64.0453258 38.51954,63.6345609 38.4850648,63.223796 C38.3442911,59.9348442 39.2291545,56.5977337 41.0276106,53.7082153 C41.9297116,52.2691218 43.0788849,50.9546742 44.4262905,49.8356941 C45.7650773,48.694051 47.3767928,47.8753541 49,47 C47.2934777,47.6487252 45.5697179,48.2832861 44.0585551,49.3201133 C42.5445193,50.3342776 41.2057325,51.6062323 40.1427472,53.0736544" id="Fill-323" fill="#1E2132"></path>
                        <path d="M39.0317033,53.2810919 C36.8872966,56.2939733 35.795132,60.0246128 36.0318151,63.7126974 C36.0774408,64.6375556 36.2399823,65.5453918 36.4538526,66.450391 C36.5850265,66.8957982 36.7019422,67.3582273 36.8502257,67.7866125 L37.3464049,69.0263763 C38.0279384,70.6689925 38.7094719,72.3201196 39.3938571,73.9797577 C40.793995,77.2905229 42.265423,80.6183101 43.8223991,84 C42.6988669,80.4878086 41.5553734,77.0664009 40.3719575,73.6960589 C39.7674173,72.0137249 39.1657287,70.3427388 38.5640401,68.6717528 C37.8682486,66.9922558 37.5060948,65.4148904 37.3806242,63.6956755 C37.1467926,60.3139856 38.0079772,56.841512 39.8444106,53.8683484 C40.7711821,52.3874406 41.9374884,51.0313602 43.3233683,49.888054 C44.6949902,48.7277258 46.3603273,47.9106732 48,47 C46.283334,47.7064101 44.5238939,48.3418954 42.986879,49.41144 C41.449864,50.4554516 40.1067582,51.7774881 39.0317033,53.2810919" id="Fill-324" fill="#1E2132"></path>
                        <path d="M36.9340456,52.4914773 C34.7735999,55.5880682 33.7273107,59.4403409 34.0609921,63.2073864 C34.2023825,65.0852273 34.7990501,66.9630682 35.5088301,68.5994318 C36.1959876,70.2897727 36.8831451,71.9857955 37.5759582,73.6931818 C38.9870347,77.09375 40.4631508,80.5170455 42.0212733,84 C40.8618718,80.4034091 39.6798478,76.8948864 38.4667179,73.4375 C37.8474278,71.7130682 37.2309655,69.9971591 36.6173311,68.2840909 C35.938657,66.5568182 35.4296515,64.9261364 35.2854332,63.1704545 C34.9602352,59.6931818 35.7944388,56.0852273 37.6749315,53.03125 C38.6109361,51.5028409 39.8042714,50.1079545 41.2238313,48.9431818 C42.6292522,47.7585227 44.3400764,46.9460227 46,46 C44.2665533,46.7585227 42.4793783,47.4034091 40.9212558,48.5028409 C39.3631332,49.5767045 38.0114407,50.9403409 36.9340456,52.4914773" id="Fill-325" fill="#1E2132"></path>
                        <path d="M34.8479245,52.704325 C32.6902092,55.8900883 31.6617916,59.8523813 32.0989391,63.6980527 C32.2166327,64.6566261 32.3987775,65.6066662 32.6874069,66.5424841 C32.9704319,67.4640799 33.3459304,68.2946539 33.6737911,69.1764277 C34.3659413,70.9115309 35.0608938,72.652323 35.7614507,74.4044927 C37.1821801,77.900299 38.6645585,81.4188608 40.2225971,85 C39.0232437,81.3193057 37.8098791,77.7239443 36.56569,74.1797827 C35.9323866,72.4133907 35.3046876,70.6526876 34.6769886,68.8976734 C34.3715458,68.0215885 34.0100584,67.1426592 33.7410445,66.277952 C33.6373621,65.842754 33.4972507,65.4217781 33.4159861,64.9808913 C33.3459304,64.5371599 33.2562592,64.0962731 33.2002146,63.6496973 C32.774276,60.0685581 33.623351,56.3451973 35.5148546,53.1964116 C36.4620076,51.6205966 37.6781744,50.1870031 39.1297283,49.0008752 C40.5672711,47.7948363 42.3214656,46.9841733 44,46 C42.2542122,46.8135074 40.4383686,47.4677266 38.8607145,48.5969659 C37.2830603,49.7006054 35.9239799,51.1085989 34.8479245,52.704325" id="Fill-326" fill="#1E2132"></path>
                        <path d="M36.7944138,48.6212887 C35.1954758,49.7264507 33.8245602,51.1398362 32.7484054,52.7392666 C30.5933149,55.9409042 29.6172675,59.9089356 30.13727,63.7297971 C30.2262544,64.204628 30.2902119,64.6822357 30.3986616,65.151513 C30.5321382,65.6180135 30.6517109,66.0928444 30.7990913,66.5482378 L31.8251924,69.1584194 C32.5231637,70.8966892 33.2266964,72.6377358 33.9330099,74.3898896 C35.3651023,77.8858669 36.8528098,81.409612 38.415598,85 C37.1753782,81.3263083 35.9268161,77.738697 34.6532272,74.201068 C34.0080905,72.4350303 33.3657345,70.6745461 32.7233785,68.9223923 L31.7417696,66.2983268 C31.5916084,65.8651477 31.4998433,65.4347455 31.374709,65.0015664 C31.2606978,64.5683873 31.2134248,64.1157707 31.1272212,63.6742613 C30.6211226,60.0949804 31.4247627,56.337985 33.3462692,53.1752225 C34.305632,51.5924528 35.5458518,50.156853 37.0307786,48.9767177 C37.7760228,48.3908152 38.5796629,47.8687789 39.4333568,47.4161623 C40.2842699,46.946885 41.1407446,46.4748309 42,46 C41.1073755,46.4054112 40.2230932,46.8080456 39.3415917,47.2079032 C38.4489671,47.5966536 37.5952733,48.0714845 36.7944138,48.6212887" id="Fill-327" fill="#1E2132"></path>
                        <path d="M35.9807167,47.9194659 C35.5638817,48.1837402 35.1277232,48.4201961 34.7274512,48.7122888 C33.1070395,49.8472773 31.7267912,51.3021768 30.6501974,52.9490229 C28.4970099,56.2399332 27.5667225,60.3208846 28.1905948,64.2126713 C28.2734097,64.6967105 28.3396616,65.1835315 28.4914889,65.6592253 C28.6239928,66.134919 28.7399336,66.6245219 28.9304079,67.0584881 L29.9683547,69.734613 C30.6750419,71.517769 31.3844896,73.3037068 32.0994582,75.1035538 C33.543198,78.6921205 35.0393873,82.3112873 36.604589,86 C35.3237185,82.2389596 34.0400875,78.5669379 32.737133,74.9422074 C32.0773742,73.131233 31.420376,71.331386 30.7661383,69.5343209 C30.1229425,67.7289102 29.319638,65.9707907 29.0601513,64.1486891 C28.452842,60.482231 29.2285416,56.5960081 31.1746918,53.3384797 C32.1463867,51.7083246 33.4134547,50.2339523 34.9317279,49.0321997 C35.304395,48.7234161 35.72123,48.4702691 36.115981,48.1837402 C36.5245346,47.9166841 36.9634535,47.699701 37.38857,47.4493358 C38.255366,46.9680784 39.1249225,46.4868211 40,46 C39.0973176,46.4228389 38.2001561,46.8428959 37.3112761,47.2629529 C36.8668362,47.4827179 36.4113542,47.6774463 35.9807167,47.9194659" id="Fill-328" fill="#1E2132"></path>
                        <path d="M29.8150559,70.1435465 C29.1822727,68.30157 28.3248652,66.4846734 28.0016253,64.6287637 C27.2948804,60.8723578 28.0454544,56.8540067 30.0150264,53.5016652 C30.9984427,51.8241011 32.288663,50.3109495 33.8418581,49.0848229 C34.2253631,48.7755047 34.6472186,48.5163461 35.0498988,48.2237477 C35.4744936,47.9645891 35.9155243,47.7332971 36.3510764,47.4824985 C37.2303985,46.9920478 38.1124599,46.4960239 39,46 C38.0905454,46.4402909 37.18383,46.8805818 36.2853327,47.318086 C35.836084,47.5438048 35.3786173,47.7528036 34.9348473,47.9924557 C34.5129918,48.2627608 34.0747004,48.5107728 33.6665416,48.8005845 C32.0284275,49.9681914 30.634113,51.4646231 29.560299,53.1589071 C27.4071926,56.5419017 26.5251311,60.7330252 27.2483119,64.69007 C27.5934664,66.7103922 28.4508739,68.4659825 29.1192683,70.3107456 C29.8314918,72.1387888 30.5464547,73.9696187 31.2668962,75.8143818 C32.7242151,79.4955482 34.2253631,83.2101543 35.7949942,87 C34.4773807,83.1544213 33.1597671,79.3952287 31.8257177,75.6834092 C31.154584,73.8302861 30.4834503,71.985523 29.8150559,70.1435465" id="Fill-329" fill="#1E2132"></path>
                        <path d="M69,26 C71.9623656,25.692823 74.4677419,24.7368421 77,23 C73.9946237,23.2526316 71.4919355,24.1799043 69,26" id="Fill-330" fill="#1E2132"></path>
                        <path d="M68,25 C70.9623656,24.692823 73.4677419,23.7339713 76,22 C72.9919355,22.2497608 70.4919355,23.1770335 68,25" id="Fill-331" fill="#1E2132"></path>
                        <path d="M67,24 C69.9623656,23.692823 72.4677419,22.7339713 75,21 C71.9919355,21.2497608 69.4919355,22.1799043 67,24" id="Fill-332" fill="#1E2132"></path>
                        <path d="M66,23 C68.9623656,22.692823 71.4677419,21.7339713 74,20 C70.9919355,20.2526316 68.4919355,21.1799043 66,23" id="Fill-333" fill="#1E2132"></path>
                        <path d="M64,22 C66.9623656,21.6899522 69.4677419,20.7339713 72,19 C68.9919355,19.2497608 66.4919355,20.1770335 64,22" id="Fill-334" fill="#1E2132"></path>
                        <path d="M63,21 C65.9596774,20.692823 68.4677419,19.7339713 71,18 C67.9919355,18.2497608 65.4919355,19.1799043 63,21" id="Fill-335" fill="#000000"></path>
                        <path d="M15.1594631,95 C15.9999899,91.9801887 16.205789,89.1698113 15.7963571,86 C15.009988,88.9971698 14.8236856,91.8273585 15.1594631,95" id="Fill-336" fill="#000000"></path>
                        <path d="M14.1641586,94 C15.0037053,90.9786113 15.2059795,88.1692498 14.7927311,85 C14.0053842,88.0018599 13.822685,90.8307502 14.1641586,94" id="Fill-337" fill="#000000"></path>
                        <path d="M13.1685482,93 C14.0070891,89.9725023 14.2079895,87.1649863 13.7865354,84 C13.002587,87.0054995 12.8213399,89.832264 13.1685482,93" id="Fill-338" fill="#000000"></path>
                        <path d="M11.1734641,92 C12.0131163,88.9710756 12.2082313,86.1617957 11.7807321,83 C10.9980798,86.0072311 10.8205033,88.8354926 11.1734641,92" id="Fill-339" fill="#000000"></path>
                        <path d="M10.1781932,91 C11.015827,87.9661118 11.2092962,85.156956 10.7761889,82 C9.99351799,85.0098098 9.81983539,87.8376932 10.1781932,91" id="Fill-340" fill="#000000"></path>
                        <path d="M9.77031615,80 C8.99009485,83.3489736 8.81769467,86.4897361 9.18459761,90 C10.0200754,86.627566 10.2101576,83.5073314 9.77031615,80" id="Fill-341" fill="#000000"></path>
                        <path d="M23,50 C25.2858443,47.6349206 27.0254893,45.6190476 29,43 C26.0614474,44.4550265 23.9695039,46.9100529 23,50" id="Fill-342" fill="#000000"></path>
                        <path d="M21,50 C23.4114002,47.0800543 25.354399,44.724559 28,42 C24.4118133,43.4464043 21.9281289,46.4396201 21,50" id="Fill-343" fill="#000000"></path>
                        <path d="M22.3879864,43.5296832 C21.19796,45.1048908 20.4125425,46.9790834 20,49 C21.0842463,47.2669948 22.1235361,45.7222393 23.2315829,44.2549985 C24.3422743,42.7877576 25.5243672,41.3869579 27,40 C25.1620703,40.708705 23.5700793,41.9572439 22.3879864,43.5296832" id="Fill-344" fill="#000000"></path>
                        <path d="M20.6192964,42.8463703 C19.262278,44.6190208 18.4151863,46.740574 18,49 C19.1340996,47.002251 20.2598398,45.2211593 21.5165448,43.5751266 C22.7788227,41.929094 24.1859979,40.4040518 26,39 C23.8460467,39.6893641 21.9679554,41.0737198 20.6192964,42.8463703" id="Fill-345" fill="#000000"></path>
                        <path d="M19.8468498,41.161006 C18.3201939,43.1402645 17.415832,45.5045372 17,48 C18.1747981,45.7412497 19.3786753,43.7249157 20.7861066,41.893959 C22.1993538,40.0658543 23.8423263,38.411719 26,37 C23.5282714,37.6673581 21.3560582,39.1845994 19.8468498,41.161006" id="Fill-346" fill="#000000"></path>
                        <path d="M25,36 C22.4890027,36.6376533 20.2600181,38.2938206 18.7577584,40.4751142 C17.236517,42.6564078 16.3796324,45.2647271 16,48 C17.092799,45.4868959 18.2371196,43.227699 19.6417596,41.2079827 C21.0463995,39.194037 22.7466104,37.4109161 25,36" id="Fill-347" fill="#000000"></path>
                        <path d="M70.9856877,170.591362 L52.9575075,129.805357 C52.1032492,127.836067 51.2905943,125.965382 50.6332591,124.452493 C50.1562057,123.367834 49.7540386,122.463482 49.476682,121.832407 C49.329683,121.51687 49.2159668,121.268948 49.1383069,121.102727 C49.0578735,120.93369 49.0107229,120.849171 49.0024022,120.851988 C48.9913079,120.854805 49.0190436,120.947776 49.0772885,121.113997 C49.1410805,121.280217 49.2298346,121.522505 49.3463244,121.832407 C49.5876246,122.449395 49.9315468,123.328392 50.3448082,124.382061 C51.196293,126.480947 52.327908,129.28134 53.459523,132.081733 C55.7671301,137.662798 58.0747371,143.243862 58.0747371,143.243862 C58.0747371,143.243862 63.2113817,155.549815 68.5893265,167.754344 C71.271365,173.859426 74.0227426,179.936335 76.1389736,184.469366 C78.2857139,188.98831 79.716874,192 79.716874,192 L80.912281,191.394281 C80.912281,191.394281 79.4783473,188.469927 77.32606,184.089031 C75.5315626,180.367382 73.2738798,175.569525 70.9856877,170.591362 Z M70.9191221,165.624468 C69.8374313,163.20441 68.7640612,160.778717 67.7350681,158.440361 L55.0848328,129.084129 C54.885136,128.619275 54.6854393,128.151604 54.4857425,127.683933 C53.1627514,124.576454 51.8425339,121.468976 50.8495972,119.139071 C50.3475818,117.978345 49.9287733,117.009195 49.6347753,116.330227 C49.4822291,115.994968 49.3629658,115.730142 49.2797588,115.549835 C49.1965518,115.369528 49.1466276,115.276558 49.1355334,115.282192 C49.1244391,115.28501 49.1521747,115.383615 49.2131932,115.561105 C49.2797588,115.741412 49.37406,116.000603 49.4933234,116.333044 C49.7457179,116.992291 50.1035079,117.933268 50.5361843,119.063004 C51.4237254,121.314025 52.6080382,124.311628 53.792351,127.312049 C56.2136742,133.287536 58.6349975,139.263022 58.6349975,139.263022 C58.6349975,139.263022 64.0351308,152.439519 69.6626966,165.517411 C75.2597532,178.609389 81.2007319,191.55205 81.2007319,191.55205 L81.8663878,191.233695 L82.5292701,190.912523 C82.5292701,190.912523 76.5633293,178.34738 70.9191221,165.624468 Z M89,188.982675 L87.1472578,189.763066 C87.1472578,189.763066 87.1250693,189.701086 87.0806922,189.596846 L85.6606263,190.211017 C85.6606263,190.211017 85.6356642,190.149036 85.58574,190.027892 L84.9700083,190.303987 L84.1739949,190.656149 C84.1739949,190.656149 84.1434856,190.585717 84.0907879,190.458939 L83.4168113,190.768841 L82.6873634,191.1041 C82.6873634,191.1041 76.5882914,177.245817 70.7305196,163.283294 C64.8477857,149.332041 59.1869372,135.287816 59.1869372,135.287816 C59.1869372,135.287816 56.6546713,128.915091 54.1224053,122.542366 C52.8853948,119.344734 51.6511579,116.144285 50.7247868,113.746766 C50.2754691,112.540963 49.9010376,111.535188 49.6403224,110.833681 C49.3823807,110.126539 49.246476,109.720848 49.2686645,109.709579 C49.2797588,109.706762 49.3324566,109.805367 49.4212107,109.996944 C49.5071912,110.18852 49.6347753,110.473067 49.7928685,110.830863 C50.1007344,111.554909 50.5389578,112.586039 51.0659354,113.82565 C52.1032492,116.310506 53.4872587,119.626464 54.8684946,122.939605 C57.6448344,129.560252 60.4211741,136.183717 60.4211741,136.183717 C60.4211741,136.183717 60.5127018,136.395014 60.6791158,136.79507 L61.0285851,137.626173 C62.6511213,141.4746 67.3023918,152.464875 72.0923406,163.395986 C76.5439143,173.608687 81.1202985,183.759407 83.1144926,188.157207 C81.0759214,183.331178 76.3885946,172.214125 71.7900219,161.05763 C65.6548935,146.230197 59.7333297,131.315428 59.7333297,131.315428 C59.7333297,131.315428 57.0901211,124.545464 54.4469126,117.7755 C53.1627514,114.37784 51.8758167,110.977363 50.9106157,108.427709 C50.4446566,107.148657 50.0563573,106.080901 49.7845478,105.334317 C49.5210591,104.582099 49.3796072,104.151053 49.4045693,104.139784 C49.4156635,104.136966 49.4711349,104.241206 49.5626625,104.444052 C49.6541902,104.649714 49.7845478,104.948348 49.9509618,105.3315 C50.2726955,106.100622 50.7303339,107.196551 51.2795,108.515045 C52.3611908,111.154853 53.8062188,114.676473 55.2484732,118.195277 C58.152397,125.230067 61.0535472,132.264857 61.0535472,132.264857 C61.0535472,132.264857 67.0555444,146.762666 73.2572384,161.173139 C76.7380639,169.295406 80.2632665,177.395134 82.6818163,182.919853 C80.2161159,176.882386 76.5300465,167.861401 72.8412035,158.834783 C66.4564541,143.131171 60.2741751,127.345857 60.2741751,127.345857 C60.2741751,127.345857 57.5227975,120.178654 54.7714198,113.011451 C53.4345609,109.410946 52.097702,105.813258 51.0964446,103.11147 C50.6138441,101.756351 50.211677,100.623797 49.9315468,99.8349542 C49.6569638,99.0404765 49.5127384,98.5812571 49.5377004,98.5699879 C49.5626625,98.5615361 49.77068,99.0207554 50.1090551,99.8293196 C50.441883,100.643518 50.9189364,101.807062 51.490291,103.204441 C52.6191325,105.999199 54.1224053,109.726483 55.6256782,113.453767 C58.6544125,120.899882 61.6831467,128.348815 61.6831467,128.348815 C61.6831467,128.348815 67.9541799,143.691813 74.4138155,158.955926 C76.8434595,164.669404 79.2703299,170.382882 81.3588252,175.296248 C79.1427458,169.757442 76.5134051,163.187506 73.8840643,156.611936 C67.2524676,140.034961 60.812247,123.379103 60.812247,123.379103 C60.812247,123.379103 57.9527002,115.811844 55.0903799,108.247402 C53.7063704,104.446869 52.3195873,100.646336 51.2822736,97.7952313 C50.7830317,96.3640446 50.3669967,95.1695108 50.0757723,94.3327736 C49.7928685,93.4960365 49.643096,93.0114615 49.6708316,93.0001923 C49.6985673,92.9889231 49.9149054,93.4734981 50.2671484,94.3299563 C50.6138441,95.1920491 51.1075389,96.4175732 51.7010821,97.8910194 C52.8743006,100.843546 54.4385919,104.77931 56.0001096,108.715074 C59.1536544,116.575331 62.3071991,124.432772 62.3071991,124.432772 C62.3071991,124.432772 68.8444946,140.626594 75.5648454,156.744348 C82.2824227,172.862103 89,188.982675 89,188.982675 Z" id="Fill-349" fill="#000000"></path>
                    </g>
                </g>
            </g>
        </g>
    </g>
</svg>