<?xml version="1.0" encoding="UTF-8"?>
<svg width="217px" height="359px" viewBox="0 0 217 359" version="1.1" xmlns="http://www.w3.org/2000/svg" xmlns:xlink="http://www.w3.org/1999/xlink">
    <!-- Generator: Sketch 48.2 (47327) - http://www.bohemiancoding.com/sketch -->
    <title>ic_scissors</title>
    <desc>Created with Sketch.</desc>
    <defs></defs>
    <g id="Desktop.-Services-&amp;-Price" stroke="none" stroke-width="1" fill="none" fill-rule="evenodd" transform="translate(-1213.000000, -486.000000)" opacity="0.148041214">
        <g id="Group-10" transform="translate(490.000000, 330.000000)">
            <g id="Group-8-Copy-2" transform="translate(490.000000, 0.000000)">
                <g id="Group-2">
                    <g id="ic_scissors" transform="translate(332.305187, 378.080168) rotate(-195.000000) translate(-332.305187, -378.080168) translate(228.305187, 158.580168)">
                        <path d="M155.597903,120.162958 C151.194418,113.155393 148.802154,103.886127 148.859454,94.0607057 C148.985513,73.6226881 159.861003,57.0492413 173.123027,57.0492413 C173.154541,57.0492413 173.186056,57.0492413 173.217571,57.0492413 C179.360103,57.0863183 185.098671,60.5801184 189.513616,66.9288523 C189.464911,66.8404378 189.416206,66.7491712 189.367501,66.6607566 C187.677159,63.7887104 185.703183,61.0421557 183.030151,59.0171776 C180.394363,57.0321288 176.942054,55.7629524 173.4525,56.3590375 C176.884754,55.3237318 180.715241,56.2449542 183.734937,58.1444406 C186.797608,60.0638916 189.132572,62.87034 191.069303,65.7537947 L192.433037,67.9812705 L193.112039,69.0992865 C193.321183,69.4814655 193.507407,69.8750527 193.705091,70.2600838 L194.868276,72.5930866 C195.212074,73.3916695 195.524358,74.1988086 195.850966,75.0030957 L196.335149,76.2095262 C196.484128,76.6173739 196.601593,77.0337779 196.736247,77.4444776 L197.509794,79.9229366 C197.730398,80.7585966 197.908027,81.6056648 198.108576,82.447029 C198.30626,83.2883931 198.498214,84.1297572 198.607083,84.9882338 L198.990992,87.5522552 C199.094131,88.4078797 199.134241,89.2720605 199.205866,90.1333892 C199.38636,91.8531945 199.30614,93.5872601 199.320465,95.3156217 C199.145701,98.7666405 198.804768,102.229068 197.951002,105.605933 C196.432559,112.396739 193.341238,118.870965 189.063813,124.520938 C192.653641,118.374702 195.03731,111.823471 196.09449,105.155304 C196.269254,104.208412 196.401044,103.255817 196.512778,102.303222 C194.04316,118.91945 184.353774,131.363082 172.862313,131.363082 C172.830798,131.363082 172.799283,131.363082 172.767768,131.363082 C166.212679,131.323153 160.113122,127.344499 155.597903,120.162958 Z M144.135091,87.92873 C144.902907,79.3182953 147.727784,70.8789855 152.641236,63.460721 C148.693285,71.5207039 146.584654,79.8031492 145.822568,88.1654528 C145.106321,96.5306085 145.733753,105.052629 148.211967,113.668768 C144.647923,105.397731 143.375869,96.5363126 144.135091,87.92873 Z M201.618185,87.92873 C202.640985,97.1038769 200.953508,106.641238 196.277849,114.906571 C199.936437,106.056561 200.881883,96.8899708 199.916382,88.0228487 C198.890717,79.1642829 195.934051,70.4312087 190.398896,62.6108006 C196.859442,69.7524132 200.592519,78.7592873 201.618185,87.92873 Z M103.068371,200.93106 C104.612599,200.3692 106.153962,199.770263 107.69246,199.165621 L111.285153,197.708207 L113.07577,196.966666 L113.350808,196.849731 L113.654497,196.593043 L114.390799,195.962733 C116.336125,194.280005 118.30437,192.577312 120.097852,190.797613 C121.891334,188.952317 123.687681,187.081351 125.458242,185.201829 C132.551949,177.678038 139.393538,169.920375 145.839758,161.84328 C145.839758,161.84328 147.000078,160.365901 148.741989,158.146982 C150.446657,155.908098 152.804541,152.959045 154.838681,149.82746 C155.844292,148.255963 156.738167,146.616016 157.394249,145.001737 C158.050331,143.387459 158.471484,141.804554 158.669168,140.424146 C158.869718,139.040886 158.866853,137.871533 158.812418,137.055838 C158.752253,136.240142 158.672033,135.775253 158.709278,135.769549 C158.723603,135.766697 158.757983,135.875076 158.809553,136.080426 C158.866853,136.282923 158.924152,136.588096 158.984317,136.978831 C159.101781,137.760302 159.170541,138.89543 159.050212,140.253021 C158.924152,141.604908 158.606139,143.173553 158.041736,144.779275 C157.480199,146.390701 156.686598,148.030648 155.775532,149.593589 C153.939075,152.725175 151.741631,155.58296 150.168753,157.773359 C148.550035,159.932385 147.469935,161.369834 147.469935,161.369834 C141.03804,169.794884 134.162072,177.871979 127.028255,185.712352 C125.246233,187.671732 123.441292,189.614 121.63062,191.547711 C119.762649,193.515647 117.782943,195.269678 115.806102,197.049377 L115.05834,197.71106 L114.685892,198.039049 L114.473883,198.224434 L114.296254,198.375595 L114.08138,198.469713 L112.233464,199.274 L108.560551,200.831237 C107.5664,201.241937 106.569385,201.646932 105.569504,202.046224 C105.701294,202.103265 105.833083,202.163159 105.962008,202.220201 C108.190967,201.723938 110.408467,201.16493 112.608777,200.531768 C112.608777,200.531768 113.416703,200.31501 114.224629,200.101104 C115.035421,199.892902 115.854807,199.701813 115.900647,199.810192 C115.946486,199.921423 115.17867,200.360643 114.390799,200.759935 C113.605792,201.159226 112.803596,201.521441 112.803596,201.521441 C111.348183,202.163159 109.86985,202.764948 108.382921,203.349625 C108.832724,203.563531 109.291122,203.774585 109.73233,203.991343 L109.511726,203.557827 C110.924165,203.030192 112.362388,202.619492 113.814936,202.325728 C113.814936,202.325728 114.310579,202.231609 114.814817,202.185976 C115.319054,202.140342 115.829022,202.143194 115.857672,202.257278 C115.886322,202.374213 115.419329,202.61664 114.958066,202.847659 C114.496803,203.075825 114.038405,203.30114 114.038405,203.30114 C113.09296,203.737508 112.196219,204.245179 111.322398,204.78137 C114.118625,206.181742 116.763008,207.610635 119.244086,209.079457 C120.034822,209.547199 120.693769,210.191769 121.186547,210.950423 C127.589792,199.46509 134.703554,188.387604 142.481993,177.800677 C142.481993,177.800677 145.223786,174.081562 148.105962,170.467975 C149.538456,168.656903 151.011059,166.877204 152.131269,165.55669 C153.260074,164.239028 154.02789,163.3777 154.07373,163.414777 C154.09665,163.431889 153.933345,163.688577 153.626792,164.119241 C153.311643,164.544201 152.864705,165.154547 152.326088,165.88468 C151.251718,167.342093 149.816359,169.284361 148.381001,171.226629 C145.533204,175.128276 142.785682,179.095522 142.785682,179.095522 C135.219252,189.996178 128.371934,201.375985 122.260917,213.123709 L122.034583,213.00107 C122.051773,213.072372 122.071828,213.140822 122.083288,213.212124 C122.117668,213.403213 122.149183,213.591451 122.183562,213.779688 C139.857666,179.674495 162.127207,153.053164 188.404866,134.668645 C202.070852,124.717732 209.104395,97.6258079 203.437451,76.7086405 C199.099861,60.6913496 188.167072,50.9771593 172.656034,49.3514727 C167.264129,49.1261582 162.175912,51.0598696 157.723723,54.7105342 C158.28526,54.3026866 158.852528,53.9062472 159.442715,53.5383287 C162.780424,51.4648652 166.633832,50.1158306 170.578918,49.9418536 C166.636697,50.5464949 163.044003,52.2491877 160.001387,54.5137406 C156.955906,56.795406 154.454773,59.6446356 152.443552,62.7676651 C150.420872,65.8878425 148.853724,69.2618552 147.55875,72.7271345 C146.272371,76.1981179 145.249571,79.7489596 144.556244,83.3596951 C143.160995,90.5754618 142.991961,98.050768 144.496079,105.366358 C146.008792,112.661983 149.120168,119.834968 154.136759,125.9755 C148.466951,120.38542 144.593489,113.229547 142.616648,105.71146 C142.522103,105.349245 142.453344,104.987031 142.367394,104.624816 C143.802752,112.647722 147.50145,119.569725 154.414663,128.491036 C158.437105,133.681825 158.757983,141.003119 155.234049,147.143651 C146.627629,162.142748 132.116471,179.212457 113.267724,196.510333 L113.067175,196.692866 L112.809326,196.778429 C109.033273,198.007676 105.49788,199.262592 102.15444,200.543177 C102.455264,200.674372 102.767547,200.802716 103.068371,200.93106 Z" id="Fill-288" fill="#FFFFFF"></path>
                        <path d="M98.8591357,282.827349 L91.890574,259.071705 L89.5152532,267.796412 C89.5152532,267.796412 86.6305262,278.260377 86.4015796,278.203538 C86.1697712,278.1467 88.6710127,267.05467 88.6710127,267.05467 L91.0978465,256.374718 L90.3365991,253.7772 L82.4093236,283.691294 C82.4093236,283.691294 77.2694727,302.970908 77.0376643,302.914069 C76.8087177,302.857231 81.6738326,282.526105 81.6738326,282.526105 L89.3750234,250.503303 L88.6967692,248.195661 C82.3349159,271.948463 76.5397055,295.857571 71.3283088,319.894566 C71.3283088,319.894566 69.4738415,328.605064 67.6193741,337.31272 C66.7150351,341.675073 65.8135579,346.034585 65.1353037,349.30564 C64.7890219,350.939746 64.5028387,352.301028 64.3025104,353.253072 C64.1937608,353.727674 64.1079058,354.102808 64.0478074,354.355739 C63.9877089,354.611512 63.9447814,354.745083 63.9304722,354.742241 C63.9161631,354.739399 63.9276104,354.591619 63.9648142,354.321636 C64.0048799,354.051653 64.0649784,353.653784 64.139386,353.150763 C64.3053723,352.14188 64.5457662,350.703866 64.8319494,348.978818 C65.4300724,345.528722 66.2542801,340.936173 67.1185535,336.352149 C68.8385147,327.178418 70.7015675,318.030264 70.7015675,318.030264 C75.420729,294.914053 80.6979478,271.908676 86.4874346,249.025502 C85.7834239,250.170798 85.1652681,251.364406 84.6472764,252.597801 C84.1836596,253.731729 83.8287924,254.859973 83.5283,256.076316 L82.60679,259.813447 C80.1427524,269.780075 77.741675,279.758071 75.4178672,289.758802 C70.7530805,309.751739 66.4145427,329.818566 62.5138652,349.973492 C62.5138652,349.973492 59.8437757,363.657357 57.482764,377.400902 C56.9046739,380.839631 56.3265838,384.278359 55.7828356,387.501101 C55.2619821,390.729527 54.7754706,393.739125 54.3576431,396.322434 C53.9484011,398.905743 53.6078431,401.057079 53.3674491,402.566141 C53.2358049,403.316409 53.1327789,403.907529 53.0612331,404.311083 C52.9839636,404.711794 52.9295888,404.924938 52.909556,404.922096 C52.8866613,404.919254 52.8952468,404.689059 52.9324506,404.26277 C52.9725163,403.836481 53.0354766,403.211258 53.1156079,402.415519 C53.301627,400.826884 53.5677774,398.559028 53.8883026,395.836465 C54.2517553,393.119585 54.6753065,389.947998 55.1303379,386.551898 C55.6282967,383.161483 56.1291173,379.540871 56.6957601,375.928786 C57.8061511,368.701772 58.9966733,361.486127 59.941078,356.086471 C60.8997918,350.683973 61.5379804,347.086097 61.5379804,347.086097 C65.1353037,327.303463 69.1847964,307.603244 73.5147487,287.96839 C75.6811558,278.152384 77.9076613,268.347745 80.2057127,258.560158 L81.0728479,254.879866 C81.3819257,253.583949 81.8197861,252.327818 82.3291922,251.108633 C83.3480046,248.661736 84.7417169,246.393881 86.3815468,244.32496 C86.6648682,243.972561 86.9653606,243.637214 87.2629912,243.299025 L85.9293773,238.763314 C85.8978972,238.811627 85.8635552,238.84573 85.8377987,238.842888 C85.7433582,238.828678 85.7004307,238.410916 85.6832597,237.919263 L84.3267512,233.301136 C83.8888909,235.503627 83.425274,237.700435 82.9215915,239.885874 C82.9215915,239.885874 82.6010663,241.247156 82.2318899,242.594228 C81.8655754,243.944142 81.4534716,245.282688 81.3361364,245.257111 C81.2188013,245.231534 81.4019586,243.77931 81.5937013,242.332771 C81.7911678,240.889073 81.9886342,239.442534 81.9886342,239.442534 C82.469422,236.103273 82.8557694,232.755486 83.1848801,229.404858 L82.6726121,227.657074 C81.3103799,235.122809 79.7506813,242.545915 77.9734835,249.915025 C77.9734835,249.915025 77.2580254,252.842207 76.4681596,255.746653 C76.0760886,257.198876 75.6611229,258.648258 75.334874,259.728189 C75.0029015,260.80812 74.7625076,261.524285 74.7052709,261.510075 C74.6480343,261.495866 74.7796786,260.717179 75.0086252,259.557674 C75.2461572,258.398168 75.558097,256.855004 75.8728985,255.311839 C76.496778,252.228351 77.1177956,249.142021 77.1177956,249.142021 C78.8205858,240.66172 80.234331,232.127421 81.3819257,223.567546 L81.4763662,223.581755 L81.1758738,222.550137 C63.8961303,303.837694 53.4933698,371.736947 49.4295679,429.751988 L98.8591357,282.827349" id="Fill-289" fill="#FFFFFF"></path>
                        <path d="M132.86271,88.5118204 C132.81748,86.4753783 132.982436,84.452567 133.362898,82.487005 C133.362898,82.487005 133.509229,81.7700247 133.719415,81.0748537 C133.92694,80.3769566 134.200979,79.7008687 134.307402,79.7281303 C134.416485,79.7553919 134.363274,80.5078123 134.328686,81.2520542 C134.29942,81.9935699 134.270154,82.7350857 134.270154,82.7350857 C134.216942,84.0981661 134.278135,85.453068 134.432449,86.7916129 C134.472357,86.3063563 134.517587,85.8210997 134.597404,85.3467477 C134.597404,85.3467477 134.674561,84.9350974 134.802269,84.537078 C134.924655,84.1390585 135.097592,83.7546698 135.206676,83.7737529 C135.315759,83.7901099 135.371631,84.2181171 135.424843,84.6352197 C135.475394,85.0495962 135.523284,85.4612465 135.523284,85.4612465 C135.589798,86.1209774 135.706864,86.7643513 135.853195,87.3968206 C135.909067,86.8843024 135.983563,86.3772365 136.087326,85.8783491 C136.087326,85.8783491 136.159161,85.5702929 136.270905,85.2731414 C136.38265,84.9732637 136.531642,84.6870168 136.640725,84.7006476 C136.752469,84.7142784 136.832287,85.0359654 136.898801,85.3494739 C136.957334,85.6602562 137.015866,85.9710385 137.015866,85.9710385 C137.07972,86.4017719 137.164858,86.8243269 137.26596,87.2414295 L137.383026,86.317261 C137.383026,86.317261 137.532018,85.3794616 137.752845,85.3549262 C137.971012,85.3331169 138.311566,86.2627377 138.311566,86.2627377 L138.628174,87.1869062 C138.662762,86.7888868 138.686707,86.4044981 138.726615,85.995574 C139.16295,82.6914671 139.798827,79.5427514 140.59966,76.5657838 C140.567733,76.5603315 140.533145,76.5548791 140.501218,76.5494268 C140.243143,76.8629353 140.003691,77.1955269 139.798827,77.5717371 C139.798827,77.5717371 139.689743,77.7462114 139.577999,77.9206857 C139.455613,78.0978862 139.319924,78.2859912 139.208179,78.2723604 C139.099096,78.2614558 139.008636,78.027006 138.960746,77.7871038 C138.912856,77.5499278 138.904874,77.3100257 138.904874,77.3100257 C138.902213,76.9392678 138.93414,76.5603315 138.984691,76.178669 C138.872947,76.1377765 138.761203,76.0887056 138.649459,76.0450871 C138.500467,76.3286078 138.362117,76.620307 138.234409,76.9201847 C138.234409,76.9201847 138.135968,77.1300991 138.018903,77.3427396 C137.901837,77.552654 137.766148,77.7680207 137.654404,77.7571161 C137.545321,77.7489376 137.4522,77.4926785 137.398989,77.230967 C137.343117,76.9719817 137.327153,76.7129965 137.327153,76.7129965 C137.305869,76.2877154 137.31119,75.8542558 137.332475,75.4180701 C137.207428,75.3471899 137.087702,75.2599528 136.965315,75.1808941 C136.704579,75.9196837 136.47843,76.6775564 136.332099,77.468143 C136.332099,77.468143 136.249621,77.8525317 136.167143,78.2396465 C136.079344,78.6294875 135.983563,79.0302331 135.87448,79.0384116 C135.762736,79.0438639 135.624386,78.6294875 135.536587,78.2014803 C135.448788,77.7761992 135.408879,77.3427396 135.408879,77.3427396 C135.323741,76.2522753 135.360989,75.1400017 135.494018,74.0277281 C135.294475,73.8423491 135.097592,73.6569702 134.906031,73.4525082 C134.326026,74.1667623 133.248493,76.6066762 132.439679,80.9058318 C131.617561,85.2649629 131.742608,87.9529574 132.032611,88.8007934 C132.30931,88.691747 132.58601,88.5990575 132.86271,88.5118204" id="Fill-290" fill="#FFFFFF"></path>
                        <path d="M172.579379,59.5356701 C172.605195,59.5356701 172.636747,59.5356701 172.662563,59.5356701 C178.336272,59.5699904 183.691587,63.1421572 187.738909,69.5943657 C191.900967,76.2238955 194.161272,85.0413417 194.103904,94.4279322 C193.989167,113.550036 184.225111,129.054212 172.324091,129.054212 C172.295407,129.054212 172.266723,129.054212 172.240907,129.054212 C166.567199,129.019892 161.211883,125.447725 157.161693,118.998377 C153.002503,112.368847 150.742199,103.551401 150.799567,94.1648102 C150.914303,75.0427066 160.675491,59.5356701 172.579379,59.5356701 Z M172.226565,131.556731 C172.258118,131.556731 172.28967,131.556731 172.321223,131.556731 C183.826402,131.556731 193.527354,119.078457 195.99992,102.415972 C195.888053,103.371219 195.756106,104.326467 195.581133,105.275994 C194.522691,111.962724 192.136177,118.532193 188.542063,124.695539 C192.824594,119.029837 195.919605,112.537588 197.439861,105.727877 C198.294646,102.341612 198.635986,98.8695455 198.810959,95.4089195 C198.796617,93.6757465 198.876932,91.9368535 198.696223,90.2122605 C198.624513,89.348534 198.584355,88.4819475 198.481092,87.6239411 L198.096726,85.0527818 C197.987726,84.1919153 197.795543,83.348209 197.597623,82.5045026 C197.396835,81.6607963 197.218993,80.8113699 196.998126,79.9733836 L196.223656,77.4880249 C196.088841,77.0761819 195.971236,76.6586187 195.822079,76.2496356 L195.337319,75.0398466 C195.01032,74.2333205 194.697664,73.4239344 194.353455,72.6231284 L193.188882,70.2836308 C192.990962,69.8975279 192.804515,69.502845 192.595122,69.1196021 L191.915309,67.9984737 L190.549948,65.7647969 C188.610905,62.8733152 186.273153,60.0590541 183.206826,58.1342596 C180.183526,56.2294853 176.348466,55.3056984 172.912114,56.3438861 C176.405834,55.7461417 179.862264,57.0188512 182.501198,59.0094262 C185.177422,61.0400414 187.153754,63.7942421 188.846114,66.6742837 C188.894877,66.7629444 188.94364,66.8544651 188.992403,66.9431258 C184.572188,60.5767179 178.826769,57.0731916 172.676905,57.0360113 C172.645353,57.0360113 172.6138,57.0360113 172.582248,57.0360113 C159.304393,57.0360113 148.415921,73.6555962 148.289711,94.1505101 C148.232343,104.003284 150.627462,113.298354 155.036203,120.325427 C159.556813,127.526961 165.663651,131.516691 172.226565,131.556731 Z" id="Fill-291" fill="#000000"></path>
                        <path d="M145.808882,88.3997362 C146.577104,80.0004522 148.702709,71.6813797 152.682443,63.5857533 C147.729436,71.0368235 144.881818,79.5134542 144.107821,88.1619666 C143.342487,96.8076143 144.624782,105.70822 148.217517,114.015834 C145.719353,105.361592 145.08687,96.8018849 145.808882,88.3997362" id="Fill-292" fill="#000000"></path>
                        <path d="M196.202384,114.015834 C201.11203,105.698831 202.883954,96.1018476 201.809969,86.8693432 C200.732976,77.6425786 196.813082,68.5793989 190.029228,61.3931411 C195.841381,69.2624378 198.94601,78.050106 200.023003,86.9640502 C201.03682,95.8866043 200.044061,105.110499 196.202384,114.015834" id="Fill-293" fill="#000000"></path>
                        <path d="M35.4501959,56.0518228 C35.6287942,56.0518228 35.8073925,56.0546781 35.9859908,56.0603888 C42.573963,56.2745399 48.5944536,60.4176504 52.9384248,67.7273422 C53.9351185,69.4034317 54.8108262,71.2051565 55.5713092,73.1039632 C55.234277,72.1559875 54.8770804,71.2137225 54.4680327,70.2885897 C52.1779418,64.9776417 48.5426025,59.96365 43.0751905,56.9912324 C45.9846141,58.1048182 48.6722303,59.8494361 50.8528577,62.0737525 C53.0709332,64.26666 54.8482742,66.8421842 56.2626574,69.5661865 C59.1317525,75.0284679 60.4885233,81.0446869 61.0358406,87.0323524 C62.0008475,99.053369 58.9358705,111.417027 51.9820598,121.750533 C54.5774962,116.425308 56.3692403,110.945895 57.4494718,105.423651 C53.8054907,120.242909 44.3167366,130.762013 33.5173016,130.419371 C20.1483557,129.982502 9.8213419,112.947494 10.5011676,92.4489483 C10.829558,82.6179839 13.5978315,73.4351836 18.2989992,66.5966243 C22.9857639,59.7780524 29.0581056,56.0518228 35.4501959,56.0518228 Z M41.8653311,33.9085963 C42.7784869,29.9996244 42.7842481,25.8222497 41.5138958,21.5420825 C43.8529572,25.37396 44.5529472,30.062442 43.5188056,34.3454646 C42.4933057,38.6313424 39.7365548,42.4689306 35.9456621,44.8046056 C39.019281,41.5409424 40.9060855,37.8090021 41.8653311,33.9085963 Z M49.4154296,31.5015376 C50.0722104,36.5383721 51.1092327,41.1697471 52.4256749,45.7183171 C53.7565202,50.258321 55.3725466,54.7240858 57.5330097,59.324052 C51.2791891,51.2576929 48.4417809,41.5095336 49.4154296,31.5015376 Z M62.9946606,87.1636985 C63.7493823,95.6497938 62.3782084,104.375738 58.6391669,112.396412 C61.3181412,103.944581 62.0181312,95.4841836 61.2778125,87.2293715 C60.505807,78.9745594 58.2733284,70.8425273 54.1914934,63.0874011 C59.316112,70.3228539 62.2226551,78.6776031 62.9946606,87.1636985 Z M47.5084608,138.174497 C47.5113414,139.787769 47.7821195,141.378198 48.2660632,142.891532 C49.1820996,145.9439 50.9421569,148.636493 52.500571,151.414747 C55.7182207,156.902727 59.1259912,162.182266 62.7613305,167.307616 C66.4110729,172.41869 70.273981,177.37843 74.4047865,182.229667 C78.5499951,187.066627 82.971743,191.786518 87.7247619,196.412182 C82.5742178,192.186266 77.8010346,187.720502 73.3965704,183.014887 C69.0065093,178.294997 64.9736448,173.349533 61.2835738,168.178497 C57.613667,162.993185 54.2894344,157.579444 51.3108759,151.925855 C50.5791991,150.501036 49.8532835,149.087638 49.1532934,147.6257 C48.4619452,146.155196 47.9031054,144.607597 47.5171027,143.014312 C47.1339805,141.418173 46.9726659,139.75636 47.1051744,138.111679 C47.2636083,136.466999 47.7533133,134.853727 48.5714087,133.423197 C47.8771798,134.936532 47.5286251,136.56408 47.5084608,138.174497 Z M105.979235,205.543586 C108.142579,206.420178 110.262713,207.371009 112.342519,208.390368 C113.379541,208.901476 114.407922,209.429715 115.42478,209.972231 L116.942865,210.803138 L118.916088,211.933856 L119.932946,216.548099 L120.782728,220.634102 C121.335807,223.363815 121.854318,226.107805 122.341143,228.871782 C123.320552,234.405447 124.178977,240.027628 124.93946,245.823985 C123.265821,240.218936 121.739093,234.730957 120.344875,229.285808 C119.647765,226.561805 118.982343,223.85208 118.351487,221.139499 L117.423928,217.076338 L116.663445,213.544272 C116.876611,213.667052 116.095964,213.204486 115.672513,212.947504 L114.203398,212.085189 L111.236362,210.394823 C109.245855,209.284092 107.229423,208.19906 105.184185,207.145436 C101.090827,205.032479 96.8736031,203.030879 92.4864226,201.14635 C97.153023,202.311332 101.649667,203.784691 105.979235,205.543586 Z M138.175897,353.207926 C138.175897,353.207926 139.858178,367.130605 141.131411,381.096114 C141.433875,384.588205 141.73346,388.080296 142.01576,391.35538 C142.254851,394.63332 142.47954,397.691398 142.672541,400.312608 C142.819452,402.936673 142.943319,405.12387 143.029738,406.657192 C143.061424,407.422425 143.084469,408.024904 143.101753,408.436074 C143.110395,408.847244 143.104634,409.067106 143.084469,409.067106 C143.061424,409.069961 143.021096,408.841534 142.963483,408.416087 C142.914513,407.987784 142.842497,407.359608 142.750318,406.56011 C142.594764,404.963971 142.370076,402.679692 142.099298,399.941413 C141.819878,397.203134 141.494368,394.007999 141.145814,390.584436 C140.771333,387.163729 140.373808,383.517449 139.973402,379.868314 C139.143784,372.578609 138.256554,365.294616 137.539281,359.83519 C136.819126,354.378619 136.338063,350.740905 136.338063,350.740905 C133.647566,330.744901 130.499051,310.811714 127.065355,290.927068 C125.348507,280.984745 123.568286,271.050988 121.716049,261.134363 L121.02182,257.425266 C120.802893,256.257428 120.457219,255.109578 120.048171,253.987426 C119.774512,253.227904 119.443241,252.485513 119.088925,251.754544 C123.49627,275.713772 127.344775,299.772937 130.608515,323.903486 C130.608515,323.903486 131.803971,332.775053 132.852516,341.663753 C133.38543,346.106675 133.875135,350.552452 134.22657,353.890354 C134.387885,355.560733 134.526155,356.951288 134.621215,357.927817 C134.658663,358.413226 134.69035,358.798698 134.710514,359.058535 C134.727798,359.321227 134.727798,359.461139 134.713395,359.463994 C134.698992,359.46685 134.667305,359.321227 134.618334,359.049969 C134.575125,358.778711 134.511752,358.381817 134.431094,357.873565 C134.289944,356.859917 134.08254,355.4094 133.837687,353.667637 C133.353743,350.186968 132.708485,345.544171 132.063227,340.90423 C130.717978,331.627203 129.369849,322.353032 129.369849,322.353032 C125.610643,297.151727 121.200418,272.047505 116.185263,247.068917 C115.733006,246.486426 115.260585,245.923922 114.765118,245.378551 L121.831273,286.498423 C121.831273,286.498423 125.253447,306.600075 125.017236,306.642905 C124.781026,306.685735 120.664623,285.718912 120.664623,285.718912 L112.330997,243.03431 C112.11207,242.851568 111.904665,242.657404 111.679977,242.483228 C111.515782,242.354737 111.334303,242.240523 111.164347,242.117743 L115.390212,268.044306 C115.390212,268.044306 117.501705,281.210317 117.268375,281.250292 C117.032164,281.293123 114.286936,267.596016 114.286936,267.596016 L108.94339,240.704346 C108.324058,240.37027 107.693202,240.059037 107.045064,239.784923 L107.923652,246.3922 C107.923652,246.3922 108.462327,250.70092 108.226117,250.74375 C107.989906,250.786581 106.895271,246.372212 106.895271,246.372212 L105.120811,239.076797 C103.792846,238.634218 102.617554,238.354394 101.496994,238.097413 C100.318822,237.817588 99.3077249,237.569173 98.4925102,237.320758 C96.8534388,236.832493 96.0180597,236.327097 96.038224,235.950191 C96.0555077,235.573285 96.882245,235.322014 98.5674062,235.25063 C99.4143078,235.219221 100.483017,235.236354 101.785056,235.364844 C103.055408,235.481913 104.685838,235.738895 106.405566,236.338518 C117.147389,239.987653 123.669107,250.9836 124.438232,261.331382 C126.20117,271.502133 127.900734,281.687161 129.519641,291.880754 C132.774739,312.267941 135.698566,332.712236 138.175897,353.207926 Z M94.3789883,220.080164 C94.6238408,218.027169 95.6608631,216.19118 97.2999345,214.911984 C98.6912728,213.824096 100.373553,213.250171 102.119208,213.250171 C102.427434,213.250171 102.73854,213.267303 103.052528,213.304423 C105.123692,213.547127 106.975929,214.575053 108.266445,216.196891 C109.556962,217.821584 110.133086,219.846026 109.888233,221.899021 C109.643381,223.952017 108.606358,225.788006 106.967287,227.067202 C105.331096,228.349253 103.288738,228.914612 101.217574,228.674763 C99.1435297,228.432058 97.2941733,227.404133 96.000776,225.782295 C94.7102594,224.157602 94.1341359,222.13316 94.3789883,220.080164 Z M54.0128951,183.994272 C54.2202996,179.634155 53.8083713,175.699485 52.8260807,171.967545 C51.8322677,168.241315 50.2680924,164.663564 47.7561939,161.137208 C51.5096385,163.430053 54.254867,167.184836 55.3235761,171.367921 C56.423972,175.553862 55.8824159,180.056747 54.0128951,183.994272 Z M12.0192531,118.726719 C7.23742799,110.269177 5.12017412,100.792276 5.41111648,91.4866959 C5.71070071,82.1811156 8.44440673,72.9212209 13.6928918,64.8862706 C9.41805544,73.5665296 7.42754874,82.6037071 7.11932267,91.635174 C6.86294771,100.669496 8.28885338,109.809466 12.0192531,118.726719 Z M2.39510995,90.8699406 C2.53049897,84.7109542 3.818135,78.5805213 6.25801803,72.881246 C8.69502045,67.1933921 12.3332404,61.9281297 17.0862593,57.7821639 C12.9093639,62.5791491 9.97689524,68.0385752 8.02383657,73.6778882 C6.07653913,79.3286226 5.08848732,85.1849421 4.95885954,91.0469722 C4.74569384,102.811007 7.76458099,114.575043 13.0994846,126.027845 C6.24649556,115.36883 2.13585437,103.225033 2.39510995,90.8699406 Z M22.7495533,52.0400583 C19.3792308,53.7275692 16.3430599,56.0004265 13.7245786,58.7958125 C5.30741425,67.7787385 1.18236998,82.0925998 2.40951304,98.0682738 C3.57040189,113.198765 9.4266973,126.633179 17.6940696,133.131952 C27.6667674,140.672927 38.0456323,149.161877 46.264034,160.057887 C54.0618656,170.394248 53.1371874,177.915235 52.5869895,182.409554 C52.379585,184.09992 52.2153898,185.436223 52.6071538,186.087242 C53.0392464,186.801079 55.2429188,187.434967 57.3774564,188.048867 C62.2111326,189.436566 68.8336722,191.338228 72.2904133,197.639982 C75.8969464,204.212994 78.9446397,210.180672 81.6063303,215.882802 L81.6725845,216.056979 L146.091834,435.233518 C144.202149,373.837818 135.695685,301.157781 120.09138,213.101693 C119.909901,212.076623 119.304972,211.19432 118.429264,210.677502 C110.919494,206.251712 102.009744,202.165709 91.1872641,198.185353 L90.9280086,198.091127 L90.7350072,197.899818 C72.4459666,179.831174 58.5239422,162.162278 50.4697356,146.806215 C47.2146378,140.598688 47.9895239,133.140518 52.4458392,127.809582 C64.5559552,113.315834 68.3209223,102.973762 67.3645573,86.8210567 C66.3736249,76.618897 63.8761295,68.4211919 59.7366821,61.8082051 C53.2725764,50.6180949 52.2297929,43.4397491 51.3079953,37.1065864 C50.6857819,32.8178532 50.1471064,29.1144664 48.0557781,24.7400727 C38.8147572,5.39223223 25.7857241,2.45407877 25.6560964,2.42552529 L25.4832593,2.37698437 C23.9046809,1.81162539 22.9051066,2.63967642 22.5018202,3.59907346 C22.0265183,4.72408072 22.2886545,6.20886186 23.9392483,6.98837196 C24.4174308,7.22536588 32.5062048,11.308514 36.420964,18.7952374 C36.1933952,18.2527212 35.9514233,17.7130604 35.6864065,17.1848209 C33.9004237,13.6127802 31.2963454,10.3148528 27.8482463,7.74218393 C35.7613026,11.4855456 41.0357133,19.9116786 41.0472357,28.5976483 C41.0760419,37.2864734 35.8477211,45.7268831 27.9692322,49.5187857 C31.4518988,46.9032866 34.0530964,43.5482523 35.8160343,39.9362366 C37.573211,36.3156549 38.4978892,32.406683 38.4748443,28.5234093 C38.4748443,28.4434595 38.4662024,28.3635098 38.4662024,28.2807047 C38.4575606,28.3920632 38.4575606,28.5005665 38.4489187,28.6119251 C38.0341098,33.3832122 36.1530666,38.2658579 32.8547595,43.1199501 C30.2622038,46.9404062 26.7680147,50.0241824 22.7495533,52.0400583 Z" id="Fill-294" fill="#FFFFFF"></path>
                        <path d="M96.4017336,220.933333 C96.7202473,222.044106 97.2491002,222.845983 97.7749482,223.491854 C98.3068059,224.134604 98.8536879,224.618227 99.4065795,225.014485 C99.9654808,225.407624 100.599503,225.75708 101.371749,226.034773 C102.143994,226.306226 103.060472,226.515276 104.16926,226.412311 C103.562281,227.257871 102.624769,227.803896 101.597112,228.031667 C101.603122,228.031667 101.612136,228.031667 101.618146,228.031667 C102.970327,228.031667 104.271425,227.566765 105.34716,226.683764 C106.615205,225.644755 107.417499,224.156445 107.606804,222.493407 C107.723993,221.479359 107.576755,220.487152 107.240213,219.557349 C107.429518,220.914612 107.10199,222.334279 106.281667,223.270323 C106.383832,221.825695 105.891037,220.64316 105.275043,219.735197 C104.644026,218.824114 103.850747,218.200085 103.036433,217.89431 C102.22212,217.588536 101.233526,217.541734 100.193849,217.810067 C99.1661918,218.08776 98.0664182,218.643146 97.2340759,219.78824 C97.1950129,218.346732 98.0333649,216.858422 99.2683566,215.9723 C98.772557,216.18759 98.3007962,216.471524 97.8650936,216.82722 C96.5970486,217.866229 95.7947548,219.354539 95.6054495,221.017577 C95.5062896,221.878738 95.5874204,222.730538 95.8157887,223.538656 C95.7526869,222.615092 95.9359825,221.694649 96.4017336,220.933333" id="Fill-295" fill="#FFFFFF"></path>
                        <path d="M81.0424691,224.149878 L80.9481174,224.1356 C79.8016006,232.736651 78.3891834,241.312 76.6879926,249.833094 C76.6879926,249.833094 76.0675583,252.934269 75.4442649,256.032589 C75.129759,257.583177 74.8181123,259.133765 74.5808033,260.298847 C74.3520718,261.46393 74.2205512,262.246363 74.277734,262.26064 C74.3349169,262.274918 74.575085,261.555309 74.9067458,260.470183 C75.2326882,259.385057 75.6472641,257.928704 76.0389669,256.469495 C76.8280906,253.551078 77.5428767,250.609816 77.5428767,250.609816 C79.3184052,243.205259 80.8766388,235.746447 82.2375914,228.244801 L82.7493782,230.000991 C82.4205766,233.367737 82.0345922,236.731627 81.554256,240.08695 C81.554256,240.08695 81.356975,241.540448 81.1596941,242.99109 C80.9681314,244.444587 80.7851462,245.903796 80.9023711,245.929496 C81.019596,245.955197 81.4313128,244.610212 81.7972832,243.253804 C82.1661128,241.900253 82.486337,240.532423 82.486337,240.532423 C82.9895463,238.336471 83.4527277,236.129097 83.8901767,233.916011 L85.2454111,238.556352 C85.2625659,239.05037 85.3054531,239.470142 85.3998049,239.48442 C85.4255372,239.487276 85.4598469,239.453008 85.4912975,239.404463 L86.8236587,243.961992 C86.5263077,244.301808 86.2260975,244.638768 85.9430423,244.992861 C84.3047526,247.071734 82.9123494,249.350498 81.8944941,251.809165 C81.3855664,253.034215 80.9481174,254.296388 80.6393298,255.598539 L79.7730091,259.296534 C77.4771164,269.1312 75.2527022,278.983001 73.0883301,288.846224 C68.7624449,308.575525 64.716756,328.370505 61.1228117,348.248297 C61.1228117,348.248297 60.4852226,351.86348 59.5274093,357.291965 C58.5838917,362.717594 57.3944877,369.967948 56.2851398,377.229724 C55.7190293,380.859185 55.218679,384.497212 54.7211879,387.903936 C54.266584,391.316371 53.8434307,394.503215 53.4803194,397.233163 C53.1600952,399.968822 52.8941948,402.247587 52.7083504,403.843864 C52.6282944,404.64343 52.5653932,405.271661 52.5253652,405.7 C52.4881963,406.128339 52.4796189,406.359642 52.5024921,406.362498 C52.5225061,406.365354 52.5768298,406.151184 52.6540267,405.748545 C52.7255053,405.343051 52.8284345,404.749087 52.9599551,403.99521 C53.2001232,402.47889 53.5403614,400.317205 53.949219,397.72147 C54.3666541,395.125734 54.8527086,392.10166 55.3730728,388.857705 C55.9163102,385.619461 56.4938573,382.164192 57.0714044,378.708922 C59.4301984,364.899268 62.0977799,351.149581 62.0977799,351.149581 C65.9947934,330.897706 70.329256,310.734355 74.9896609,290.645248 C77.311286,280.596412 79.710108,270.57042 82.1718311,260.555851 L83.0924755,256.800744 C83.3926857,255.57855 83.7472195,254.444879 84.2104009,253.305497 C84.727906,252.066169 85.3454811,250.866819 86.0488306,249.716015 C80.2647819,272.70926 74.9925201,295.825296 70.2777914,319.052701 C70.2777914,319.052701 68.4164885,328.244859 66.6981429,337.462718 C65.8346813,342.068791 65.0112478,346.683432 64.4136867,350.150123 C64.1277723,351.883469 63.8876041,353.3284 63.7217738,354.342136 C63.647436,354.847576 63.587394,355.247359 63.547366,355.518641 C63.5101971,355.789922 63.4987605,355.938413 63.5130563,355.941269 C63.527352,355.944124 63.5702391,355.809911 63.6302812,355.552908 C63.6903232,355.29876 63.7760975,354.921821 63.884745,354.444937 C64.0848851,353.488313 64.3707995,352.120483 64.716756,350.478517 C65.3943731,347.191728 66.2950035,342.811246 67.1984931,338.427909 C69.0512185,329.678367 70.9039439,320.925971 70.9039439,320.925971 C76.1104455,296.773354 81.9002124,272.749239 88.2560899,248.882181 L88.9337071,251.200924 L81.2397501,283.377761 C81.2397501,283.377761 76.379205,303.806683 76.6079365,303.863795 C76.8395272,303.920906 81.9745501,284.548554 81.9745501,284.548554 L89.8943795,254.490568 L90.6549118,257.100581 L88.2303576,267.831905 C88.2303576,267.831905 85.7314656,278.97729 85.9630563,279.034402 C86.1917878,279.091514 89.0738051,268.577215 89.0738051,268.577215 L91.4468948,259.810541 L98.4089108,283.680454 L49.0257728,431.311826 C53.0857575,373.017723 63.4787465,304.791863 80.742259,223.113298 L81.0424691,224.149878 Z M132.715782,81.4672511 C133.584962,76.9639789 134.742915,74.4082219 135.366208,73.6600562 C135.572067,73.8742258 135.783643,74.0684062 135.998079,74.2625866 C135.855122,75.4276691 135.815094,76.5927516 135.906587,77.7349893 C135.906587,77.7349893 135.949474,78.1890288 136.043826,78.6345015 C136.138177,79.0828299 136.286853,79.5168802 136.406937,79.511169 C136.524162,79.5026022 136.627091,79.0828299 136.721443,78.6744799 C136.810076,78.2689855 136.89871,77.8663467 136.89871,77.8663467 C137.055963,77.0382243 137.29899,76.2443691 137.579186,75.470503 C137.710707,75.5533152 137.839368,75.6446943 137.973748,75.7189397 C137.950875,76.1758348 137.945156,76.6298743 137.96803,77.075347 C137.96803,77.075347 137.985184,77.3466285 138.045226,77.61791 C138.102409,77.892047 138.202479,78.1604729 138.319704,78.1690397 C138.439788,78.180462 138.585605,77.9548701 138.711407,77.7349893 C138.837209,77.512253 138.942998,77.2923722 138.942998,77.2923722 C139.080237,76.9782568 139.228912,76.6727082 139.389024,76.3757264 C139.509108,76.4214159 139.629192,76.4728166 139.749276,76.5156505 C139.694953,76.9154338 139.660643,77.3123614 139.663502,77.7007222 C139.663502,77.7007222 139.672079,77.9520145 139.723544,78.2004512 C139.775009,78.4517435 139.87222,78.6973246 139.989444,78.708747 C140.109529,78.723025 140.255345,78.525989 140.386865,78.3403753 C140.50695,78.1576173 140.624174,77.9748593 140.624174,77.9748593 C140.844329,77.5807872 141.101652,77.2324047 141.378989,76.9040114 C141.413298,76.9097226 141.450467,76.9154338 141.484777,76.9211449 C140.624174,80.039454 139.940839,83.3376654 139.471939,86.7986458 C139.429052,87.2269849 139.40332,87.6296237 139.366151,88.0465405 L139.025913,87.078494 C139.025913,87.078494 138.659942,86.1047364 138.425493,86.1275811 C138.188184,86.1532815 138.028072,87.1356059 138.028072,87.1356059 L137.902269,88.1036524 C137.793622,87.6667465 137.702129,87.2241293 137.63351,86.7729454 C137.63351,86.7729454 137.570608,86.4474077 137.507707,86.1218699 C137.436229,85.7934766 137.350454,85.4565164 137.23037,85.4422385 C137.113145,85.4279605 136.953033,85.7277979 136.832949,86.0419133 C136.712865,86.3531731 136.635668,86.6758552 136.635668,86.6758552 C136.524162,87.198429 136.444106,87.7295695 136.384064,88.2664213 C136.226811,87.6039234 136.101008,86.9300031 136.02953,86.2389493 C136.02953,86.2389493 135.978065,85.8077545 135.923741,85.3737042 C135.866559,84.9367983 135.806517,84.48847 135.689292,84.4713364 C135.572067,84.4513472 135.386222,84.853986 135.254702,85.2709028 C135.117463,85.6878196 135.034548,86.1190143 135.034548,86.1190143 C134.948773,86.6158877 134.900168,87.1241835 134.857281,87.6324793 C134.69145,86.2303825 134.62569,84.8111521 134.682873,83.3833549 C134.682873,83.3833549 134.714323,82.6066333 134.745774,81.8299116 C134.782943,81.0503344 134.840126,80.2621903 134.722901,80.2336344 C134.608535,80.2050784 134.314043,80.9132658 134.09103,81.644298 C133.865158,82.3724745 133.707905,83.1234959 133.707905,83.1234959 C133.299047,85.1823794 133.12178,87.3012304 133.170386,89.4343594 C132.873035,89.5257384 132.575684,89.6228286 132.278333,89.7370524 C131.966686,88.8489625 131.832306,86.0333465 132.715782,81.4672511 Z M112.97911,196.45918 L113.17925,196.276422 C131.989559,178.957242 146.471124,161.86651 155.059993,146.848939 C158.576741,140.700845 158.256517,133.370534 154.242278,128.173352 C147.343163,119.241053 143.652008,112.310526 142.219577,104.277739 C142.305351,104.640399 142.373971,105.00306 142.468322,105.36572 C144.441132,112.893067 148.306695,120.057753 153.964941,125.654718 C148.95858,119.506623 145.853549,112.324804 144.343921,105.020193 C142.84287,97.6955938 143.01156,90.211081 144.403963,82.9864273 C145.095876,79.3712449 146.11659,75.8160299 147.400346,72.3407716 C148.692679,68.8712245 150.256631,65.4930564 152.275187,62.3690361 C154.282306,59.2421603 156.778339,56.3894216 159.817609,54.1049461 C162.85402,51.8376042 166.439387,50.1328144 170.37357,49.5274284 C166.436528,49.7016196 162.590979,51.0523157 159.260076,53.1283328 C158.671092,53.4967045 158.104982,53.8936321 157.54459,54.3019821 C161.9877,50.6468213 167.06554,48.7107284 172.446449,48.9363203 C187.925856,50.5640091 198.83635,60.2901635 203.165094,76.3271813 C208.820481,97.2701103 201.801282,124.395401 188.163165,134.35857 C161.939094,152.765731 139.714967,179.419848 122.076906,213.567046 C122.042597,213.378576 122.011146,213.190107 121.976836,212.998782 C121.9654,212.927393 121.945386,212.858858 121.928231,212.787468 L122.154103,212.910259 C128.252658,201.148066 135.086012,189.754244 142.637012,178.840163 C142.637012,178.840163 145.378931,174.868031 148.220921,170.961578 C149.653352,169.016918 151.085783,167.072258 152.157962,165.61305 C152.695481,164.882018 153.141508,164.27092 153.456013,163.845437 C153.761942,163.414242 153.924913,163.157239 153.90204,163.140105 C153.856294,163.102982 153.090043,163.965372 151.96354,165.284656 C150.845615,166.606797 149.376015,168.388687 147.946443,170.20199 C145.070144,173.820028 142.333943,177.543723 142.333943,177.543723 C134.571366,188.143689 127.472111,199.234818 121.081924,210.734296 C120.590151,209.974708 119.932548,209.329344 119.143424,208.861026 C116.667405,207.390395 114.028415,205.959742 111.237891,204.557645 C112.10993,204.020794 113.004842,203.512498 113.948359,203.075592 C113.948359,203.075592 114.405822,202.85 114.866145,202.621553 C115.326467,202.390249 115.792507,202.147524 115.763916,202.030444 C115.735324,201.916221 115.226397,201.913365 114.723187,201.959055 C114.219978,202.004744 113.725346,202.098979 113.725346,202.098979 C112.27576,202.393105 110.84047,202.804311 109.430912,203.332596 L109.651066,203.766646 C109.210757,203.549621 108.753294,203.338307 108.304409,203.124137 C109.788305,202.53874 111.263623,201.93621 112.716068,201.293701 C112.716068,201.293701 113.516629,200.931041 114.300034,200.531257 C115.086299,200.131474 115.852549,199.691713 115.806803,199.580345 C115.761057,199.471832 114.943342,199.663157 114.134204,199.871615 C113.327925,200.085785 112.521646,200.30281 112.521646,200.30281 C110.325824,200.936752 108.112846,201.496448 105.888432,201.993322 C105.75977,201.93621 105.62825,201.876242 105.496729,201.819131 C106.494571,201.419347 107.489553,201.013853 108.481676,200.602647 L112.147099,199.043493 L113.991247,198.238215 L114.205682,198.143981 L114.382949,197.992634 L114.594526,197.80702 L114.966215,197.478627 L115.712451,196.816129 C117.685261,195.034238 119.660929,193.278048 121.525091,191.307688 C123.332071,189.371595 125.133331,187.426935 126.911719,185.465142 C134.030988,177.615113 140.892934,169.52807 147.311713,161.092644 C147.311713,161.092644 148.38961,159.653424 150.005026,157.491739 C151.574697,155.298643 153.76766,152.437337 155.600372,149.301895 C156.509579,147.737029 157.301562,146.095062 157.861955,144.481652 C158.425206,142.873952 158.742571,141.303375 158.868373,139.949823 C158.988457,138.59056 158.919838,137.454034 158.802613,136.671601 C158.742571,136.280385 158.685388,135.974836 158.628205,135.772089 C158.576741,135.566486 158.542431,135.457973 158.528135,135.460829 C158.490966,135.46654 158.571022,135.932002 158.631064,136.748702 C158.685388,137.565402 158.688247,138.736196 158.488107,140.121159 C158.290826,141.503267 157.870532,143.088122 157.215788,144.704388 C156.561044,146.320654 155.668991,147.962621 154.665431,149.536054 C152.635439,152.671496 150.282363,155.624181 148.581173,157.865822 C146.842813,160.087475 145.68486,161.566673 145.68486,161.566673 C139.251785,169.653716 132.424149,177.420932 125.344908,184.95399 C123.577957,186.835827 121.785274,188.709097 119.995449,190.556666 C118.205625,192.338557 116.241393,194.043347 114.300034,195.728148 L113.565234,196.359234 L113.262165,196.616238 L112.987687,196.733317 L111.200722,197.475772 L107.615355,198.93498 C106.079995,199.540366 104.541775,200.140041 103.000696,200.702593 C102.700486,200.574091 102.38884,200.44559 102.088629,200.314232 C105.425251,199.03207 108.953435,197.775609 112.721787,196.544848 L112.97911,196.45918 Z M38.4812491,28.9243151 C38.4898265,28.812947 38.4898265,28.7044344 38.4984039,28.5930662 C38.4984039,28.6758784 38.5069814,28.7558351 38.5069814,28.8357917 C38.5298545,32.7194 37.6120692,36.6287087 35.8679913,40.2496023 C34.1181951,43.8619292 31.5363879,47.2172525 28.0796826,49.832977 C35.8994419,46.0407477 41.0887885,37.5996108 41.0601971,28.9100372 C41.0487605,20.2233192 35.8136676,11.7964602 27.9595985,8.05277606 C31.3819941,10.6256666 33.9666604,13.923878 35.7393298,17.4962266 C36.0023711,18.0245115 36.2425392,18.5642189 36.4684116,19.1067818 C32.5828347,11.6194134 24.5543578,7.53591348 24.0797399,7.29889915 C22.4414503,6.5193219 22.1812682,5.03441283 22.653027,3.90930866 C23.0533071,2.94982896 24.0454302,2.1217066 25.6122412,2.68711428 L25.7837898,2.73565938 C25.9124513,2.76421533 38.8443604,5.70262191 48.0164949,25.0521292 C50.0922335,29.4268998 50.6268935,33.1306056 51.2444686,37.4197083 C52.1593948,43.7534166 53.194405,50.9323808 59.6103245,62.123455 C63.7189146,68.7370115 66.1977926,76.9354229 67.1813382,87.1384615 C68.1305741,103.292559 64.3936727,113.635521 52.3738306,128.130518 C47.9507346,133.461913 47.1816248,140.920725 50.4124577,147.128788 C58.4066248,162.486174 72.2248685,180.156592 90.3775749,198.226793 L90.5691375,198.418118 L90.8264605,198.512352 C101.568265,202.493051 110.411598,206.579406 117.865387,211.005578 C118.734567,211.52244 119.334987,212.404819 119.515113,213.429977 C135.003097,301.493651 143.44615,374.17995 145.321748,435.580939 L81.3827073,216.385517 L81.316947,216.211326 C78.6750978,210.508704 75.6501232,204.540512 72.0704748,197.966934 C68.6395017,191.664637 62.0663293,189.762811 57.2686854,188.374992 C55.1500596,187.76104 52.9628143,187.127098 52.5339427,186.413199 C52.145099,185.762123 52.3080703,184.425705 52.5139286,182.735193 C53.0600252,178.240488 53.9778105,170.718852 46.2381072,160.381601 C38.0809689,149.484653 27.7794724,140.994971 17.8811153,133.453346 C9.67537158,126.954014 3.86273149,113.518442 2.71049639,98.3866477 C1.49250097,82.4095973 5.58679542,68.0945028 13.9412147,59.110803 C16.5401767,56.3151761 19.5537147,54.042123 22.8989134,52.3544668 C26.8874195,50.3384172 30.3555613,47.2543753 32.9287911,43.43359 C36.2025112,38.5790796 38.0695323,33.6960133 38.4812491,28.9243151 Z M0.217322672,98.5751169 C1.42102237,114.377976 7.59391462,128.493179 16.3486141,135.426562 C26.1211688,142.868241 36.2625532,151.226565 44.2367063,161.875077 C51.3731301,171.412762 50.5668515,178.046308 50.0321915,182.435356 C49.7662911,184.599897 49.5575736,186.307542 50.3867254,187.695361 C51.3188064,189.254515 53.6375723,189.922724 56.5710542,190.773692 C61.1914312,192.11011 66.9411701,193.774921 69.874652,199.160572 C73.4114134,205.654194 76.399219,211.54814 79.0096176,217.173661 L79.2612223,218.038906 C61.3572616,302.027647 50.6326118,371.926886 46.5068667,431.497439 L46.5040076,431.537418 C46.452543,432.888114 47.2588217,433.987518 48.4710988,434.21311 C49.6690802,434.43299 50.8499067,433.70767 51.2702009,432.474053 L99.6354837,287.8896 L143.034433,436.660354 C143.403263,437.899682 144.54692,438.667837 145.764916,438.499357 C146.982911,438.32231 147.832077,437.254318 147.832077,435.863643 C146.007943,375.482101 137.847945,304.269289 122.906058,218.327321 L123.80097,215.65163 C141.330383,181.407342 163.468736,154.744658 189.621328,136.386042 C204.01426,125.871743 211.470908,97.5014134 205.578212,75.6761058 C200.963553,58.5739513 189.286808,48.1967214 172.629434,46.4490977 C172.297774,46.4319641 171.971831,46.4262529 171.64303,46.4262529 C158.631064,46.4291085 147.403205,57.6059048 142.048028,74.9936188 C139.880797,74.7508932 138.025212,73.7057457 136.3955,71.8210534 L136.169628,71.5583388 L135.826531,71.4955157 C135.712165,71.4726709 135.600658,71.4612485 135.492011,71.4612485 C134.068157,71.4612485 133.147512,73.260273 132.564247,74.6652254 C131.875193,76.3300369 131.231886,78.6116568 130.75155,81.0874571 C130.01389,84.8939644 129.181879,91.35903 131.883771,91.8787481 L132.189699,91.9387156 L132.472754,91.8130695 C134.708605,90.8421674 136.901569,90.5994419 139.148856,91.0763261 C138.282535,106.388023 141.662044,115.974253 152.260891,129.69824 C155.60609,134.027321 155.857695,140.420996 152.889903,145.609611 C144.455428,160.355901 130.208312,177.172496 111.683917,194.254661 C107.054963,195.773837 102.780542,197.330136 98.7863179,198.932125 C96.587636,198.035468 94.3231938,197.147378 91.9501041,196.265 C74.0718757,178.44038 60.4795043,161.055521 52.6311536,145.977983 C49.8663611,140.660866 50.518246,134.281469 54.2980346,129.72394 C66.7867763,114.663535 70.666635,103.880811 69.6745119,86.9442811 C68.6480792,76.3043366 66.0491171,67.7546871 61.7575417,60.8441488 C55.5989452,50.1042584 54.6011039,43.1765865 53.7176283,37.062759 C53.0971941,32.7622339 52.5110695,28.6987232 50.2780779,23.9841369 C40.8343247,4.06636635 27.7165713,0.616808379 26.381351,0.311259784 C25.7609167,0.0970902078 25.171933,0 24.6201181,0 C22.5443795,0 21.0061599,1.37068529 20.3456976,2.94697337 C19.4193349,5.16005899 20.03691,8.14129948 22.9846877,9.54339631 C23.1247857,9.61478617 37.0288038,16.6709598 35.9880754,28.7101456 C35.6135275,33.0563602 33.8866044,37.5396433 30.8559116,42.04006 C28.5199908,45.5067515 25.3777913,48.305234 21.7695514,50.1271032 C18.1613115,51.9489724 14.9104645,54.3990723 12.1085033,57.4117244 C3.28232522,66.90372 -1.05213734,81.9070127 0.217322672,98.5751169 Z" id="Fill-296" fill="#000000"></path>
                        <path d="M35.2155584,59.5178865 C40.8867501,59.7010542 46.141997,63.4187858 50.0174548,69.9813406 C53.9990502,76.7242011 56.0214023,85.6078339 55.7115951,94.9923159 C55.077638,114.161959 44.8396596,129.482219 32.9206908,129.047196 C20.987379,128.655102 11.7935655,112.739548 12.4275227,93.5699043 C12.7344612,84.1854224 15.339136,75.4563373 19.7538876,68.9882283 C24.0538959,62.6947011 29.5472353,59.3232708 35.2155584,59.5178865 Z M17.6827696,67.5772647 C13.0012396,74.431743 10.2445298,83.6359193 9.91751117,93.4897685 C9.24052521,114.036031 19.5244009,131.110694 32.8375018,131.548579 C43.5918254,131.892019 53.0409429,121.348429 56.6697024,106.494674 C55.5939832,112.029773 53.8097236,117.521941 51.2251289,122.859562 C58.149892,112.502002 61.202066,100.109563 60.2410902,88.0605638 C59.6960591,82.05896 58.3449558,76.0287363 55.4878455,70.5537396 C54.0793705,67.8233963 52.3094538,65.2418767 50.1006437,63.0438645 C47.9291252,60.8143703 45.2527358,59.0656913 42.3554654,57.9495132 C47.8000389,60.9288501 51.4201926,65.9545135 53.7007174,71.2778244 C54.1080564,72.2051108 54.4637609,73.1495692 54.7993852,74.0997516 C54.0420789,72.1965248 53.1700292,70.3906059 52.177499,68.7106148 C47.8516734,61.3839073 41.8563317,57.2311524 35.2958788,57.0165028 C35.1180266,57.0107788 34.9401743,57.0079168 34.7623221,57.0079168 C28.3969329,57.0079168 22.3499567,60.7428204 17.6827696,67.5772647 Z" id="Fill-297" fill="#000000"></path>
                        <path d="M96.4907586,220.784405 C96.6694326,219.275305 97.42667,217.924759 98.623502,216.981925 C99.0347358,216.659153 99.4800027,216.401502 99.9479584,216.20614 C98.7823234,217.010238 97.9910529,218.360784 98.0279221,219.66886 C98.8135204,218.629761 99.8515312,218.125784 100.821476,217.873795 C101.802764,217.6303 102.73584,217.67277 103.504421,217.950241 C104.273003,218.227712 105.021732,218.793978 105.617312,219.620727 C106.198712,220.444645 106.663831,221.51772 106.567404,222.828627 C107.341658,221.979227 107.650792,220.690971 107.472118,219.459341 C107.789761,220.303078 107.92873,221.203442 107.818122,222.123625 C107.639448,223.632726 106.882211,224.983271 105.685378,225.926105 C104.670056,226.727372 103.442027,227.149241 102.165785,227.149241 C102.160112,227.149241 102.151604,227.149241 102.145932,227.149241 C103.115876,226.942553 104.000738,226.44707 104.573629,225.679779 C103.52711,225.773213 102.662101,225.583514 101.933225,225.337188 C101.204348,225.085199 100.605932,224.76809 100.078419,224.411342 C99.5565773,224.051763 99.040408,223.612906 98.5384192,223.029652 C98.0421026,222.443566 97.5429499,221.715913 97.2423238,220.707959 C96.8027291,221.398804 96.6297273,222.234047 96.6892853,223.072122 C96.4737421,222.338807 96.3971675,221.565853 96.4907586,220.784405 Z M101.252562,229.074547 C103.291714,229.312379 105.302506,228.751775 106.913408,227.480507 C108.527146,226.21207 109.54814,224.391523 109.789208,222.355795 C110.030276,220.320066 109.463057,218.312651 108.192486,216.701623 C106.921916,215.093426 105.098307,214.074147 103.059155,213.833483 C102.75002,213.796676 102.443722,213.779688 102.14026,213.779688 C100.421586,213.779688 98.7653068,214.348786 97.3954729,215.427524 C95.7817349,216.695961 94.7607407,218.516507 94.5196726,220.552236 C94.2786046,222.587964 94.8458235,224.595379 96.1163941,226.206407 C97.3898007,227.814604 99.2105737,228.833884 101.252562,229.074547 Z" id="Fill-298" fill="#000000"></path>
                        <path d="M105.725904,236.810348 C104.040283,236.209061 102.442191,235.951366 101.197034,235.833972 C99.9208184,235.705124 98.8733054,235.687945 98.0432007,235.719441 C96.3914618,235.791023 95.5811216,236.042991 95.5641807,236.420943 C95.5444163,236.798895 96.363227,237.305695 97.9697901,237.795315 C98.7688364,238.04442 99.7598798,238.293525 100.914685,238.574126 C102.013021,238.831821 103.165003,239.112422 104.46663,239.556229 L106.205897,246.871897 C106.205897,246.871897 107.278821,251.298521 107.510347,251.255572 C107.741873,251.212622 107.213881,246.89194 107.213881,246.89194 L106.352718,240.266322 C106.988002,240.541196 107.606345,240.853293 108.213395,241.188296 L113.45096,268.154621 C113.45096,268.154621 116.141741,281.889752 116.373267,281.846803 C116.601969,281.806717 114.532355,268.604156 114.532355,268.604156 L110.390302,242.605617 C110.556887,242.728738 110.734767,242.843269 110.895706,242.972117 C111.115937,243.146776 111.319228,243.341479 111.533813,243.524729 L119.702156,286.327829 C119.702156,286.327829 123.736917,307.352858 123.968442,307.309909 C124.199968,307.26696 120.845668,287.109503 120.845668,287.109503 L113.919658,245.875478 C114.405298,246.422363 114.868349,246.986428 115.311637,247.570536 C120.227324,272.618467 124.55008,297.792383 128.234729,323.063649 C128.234729,323.063649 129.55612,332.363567 130.874687,341.666348 C131.507148,346.31917 132.139609,350.974855 132.613954,354.465187 C132.853951,356.211785 133.057241,357.666329 133.195592,358.682792 C133.27465,359.192455 133.336766,359.59045 133.379119,359.862461 C133.427118,360.134472 133.458176,360.280499 133.472294,360.277636 C133.486411,360.274773 133.486411,360.134472 133.46947,359.871051 C133.449706,359.610493 133.418648,359.223951 133.381942,358.737194 C133.288767,357.757954 133.15324,356.363539 132.995125,354.688523 C132.65066,351.341354 132.170667,346.883235 131.648322,342.427979 C130.620574,333.514603 129.448827,324.618407 129.448827,324.618407 C126.249818,300.420869 122.477642,276.294913 118.15771,252.269171 C118.504998,253.002169 118.829699,253.746621 119.09793,254.508252 C119.498865,255.633519 119.837683,256.784556 120.052268,257.955635 L120.732728,261.67503 C122.548229,271.619184 124.293143,281.580519 125.97594,291.550443 C129.341535,311.490291 132.427604,331.478815 135.064739,351.53033 C135.064739,351.53033 135.536262,355.178143 136.242133,360.649862 C136.945181,366.124444 137.814814,373.428659 138.627978,380.7386 C139.020442,384.397866 139.410083,388.054268 139.777136,391.484472 C140.118778,394.917539 140.437832,398.121544 140.71171,400.867424 C140.977118,403.613305 141.197349,405.903925 141.349818,407.504496 C141.440169,408.306213 141.510756,408.936134 141.558756,409.365625 C141.615225,409.792253 141.654754,410.021315 141.677342,410.018452 C141.697106,410.018452 141.702753,409.79798 141.694283,409.385668 C141.677342,408.973356 141.654754,408.369205 141.623696,407.601848 C141.538991,406.064269 141.417581,403.871 141.273584,401.23965 C141.08441,398.611164 140.864178,395.544596 140.629829,392.257556 C140.353127,388.97338 140.059485,385.471594 139.763019,381.969809 C138.515038,367.96553 136.866123,354.0042 136.866123,354.0042 C134.437926,333.451611 131.572088,312.950561 128.38155,292.506777 C126.794751,282.284884 125.128895,272.071582 123.400922,261.872596 C122.647051,251.496087 116.254681,240.469614 105.725904,236.810348" id="Fill-299" fill="#000000"></path>
                        <path d="M4.6980921,91.2351333 C4.82398982,85.396699 5.78361017,79.5639525 7.67487359,73.9359635 C9.57173248,68.3193499 12.4198185,62.8818992 16.4765226,58.1042229 C11.8602731,62.2335003 8.32674398,67.4775689 5.95986697,73.142528 C3.59019223,78.8188625 2.33960827,84.9246191 2.20811511,91.0588143 C1.95631968,103.364175 5.94867606,115.45909 12.6044685,126.075201 C7.42307817,114.668498 4.49106031,102.951816 4.6980921,91.2351333" id="Fill-300" fill="#000000"></path>
                        <path d="M13.1812181,65.7783655 C8.32379912,73.795191 5.79378231,83.0341978 5.5165202,92.3187871 C5.24725603,101.603376 7.20675271,111.0589 11.6322826,119.497364 C8.17983609,110.600226 6.86017506,101.480873 7.09744745,92.4669303 C7.38270751,83.4558361 9.22490099,74.4390441 13.1812181,65.7783655" id="Fill-301" fill="#000000"></path>
                        <path d="M60.7401524,87.739848 C61.4627659,95.9988057 60.7795165,104.463452 58.1646117,112.919527 C61.8142316,104.894826 63.152613,96.1644991 62.4159409,87.674142 C61.6623984,79.1837849 58.8253672,70.8248398 53.8233072,63.5857533 C57.8075225,71.3447741 59.9866099,79.4808902 60.7401524,87.739848" id="Fill-302" fill="#000000"></path>
                        <path d="M46.579251,143.431326 C46.9546071,145.039706 47.4980332,146.601967 48.1703129,148.086403 C48.8509961,149.562192 49.5568898,150.98898 50.2683858,152.427298 C53.1647908,158.134451 56.3973357,163.599482 59.9660204,168.833921 C63.5543133,174.053948 67.4759449,179.046266 71.7449209,183.810874 C76.0279028,188.56107 80.6694339,193.069144 85.6779176,197.335097 C81.0559947,192.665608 76.7562058,187.901 72.7253288,183.018214 C68.7084576,178.121015 64.9520948,173.114286 61.4030183,167.954789 C57.8679475,162.78088 54.5541689,157.451322 51.4252671,151.911348 C49.9098366,149.106773 48.1983246,146.388669 47.307554,143.307383 C46.8369582,141.779711 46.5736487,140.174214 46.5708475,138.545658 C46.5904556,136.919984 46.9293967,135.277015 47.6044775,133.749343 C46.8089465,135.193426 46.3327484,136.821982 46.1786843,138.482245 C46.0498307,140.142507 46.206696,141.820064 46.579251,143.431326" id="Fill-305" fill="#000000"></path>
                        <path d="M48.331133,161.156996 C50.7059446,164.708863 52.1847551,168.312498 53.1243308,172.065686 C54.0530128,175.824626 54.4424601,179.787762 54.2463748,184.179423 C56.0138664,180.213411 56.5258671,175.67795 55.4855253,171.461725 C54.475141,167.248376 51.8797334,163.466428 48.331133,161.156996" id="Fill-306" fill="#000000"></path>
                        <path d="M104.732145,206.659479 C106.73967,207.719491 108.718919,208.811103 110.672722,209.928569 L113.585046,211.629185 L115.027071,212.496729 C115.442713,212.755268 116.208966,213.22064 115.999731,213.097115 L116.746191,216.650599 L117.656646,220.738397 C118.275868,223.467427 118.92902,226.193584 119.613275,228.934104 C120.981785,234.412271 122.48036,239.933528 124.123137,245.572565 C123.376677,239.74106 122.534082,234.084787 121.572732,228.517567 C121.094885,225.73683 120.585935,222.976202 120.043055,220.229936 L119.208943,216.119156 L118.210835,211.476934 L116.273998,210.339359 L114.783906,209.503415 C113.785799,208.957609 112.776381,208.426166 111.758481,207.91196 C109.717027,206.886419 107.635987,205.929822 105.512535,205.047915 C101.262803,203.278355 96.849076,201.796061 92.2685267,200.624015 C96.5748086,202.519972 100.714268,204.533708 104.732145,206.659479" id="Fill-307" fill="#000000"></path>
                    </g>
                </g>
            </g>
        </g>
    </g>
</svg>