<?xml version="1.0" encoding="UTF-8"?>
<svg width="207px" height="339px" viewBox="0 0 207 339" version="1.1" xmlns="http://www.w3.org/2000/svg" xmlns:xlink="http://www.w3.org/1999/xlink">
    <!-- Generator: Sketch 47.1 (45422) - http://www.bohemiancoding.com/sketch -->
    <title>ic_comb</title>
    <desc>Created with Sketch.</desc>
    <defs></defs>
    <g id="Desktop" stroke="none" stroke-width="1" fill="none" fill-rule="evenodd" opacity="0.149999991">
        <g id="Desktop.-Services-&amp;-Price" transform="translate(-704.000000, -1066.000000)">
            <g id="Group-10" transform="translate(484.000000, 330.000000)">
                <g id="Group-8-Copy" transform="translate(0.000000, 556.000000)">
                    <g id="Group-2" transform="translate(0.000000, 3.000000)">
                        <g id="ic_comb" transform="translate(331.500000, 362.500000) scale(-1, 1) translate(-331.500000, -362.500000) translate(207.000000, 177.000000)">
                            <g id="Group" transform="translate(115.302938, 185.500000) rotate(-270.000000) translate(-115.302938, -185.500000) translate(-70.197062, 120.500000)">
                                <path d="M370.94904,70.7753571 C370.991618,64.0303701 367.359403,57.7385262 361.467289,54.3513626 C361.107015,54.1427211 360.746741,53.9405997 360.386467,53.7384783 L358.630951,52.7474314 C312.113053,26.575969 259.742342,10.9735002 193.818787,3.64170914 C127.891956,-3.69008197 73.3530521,0.023083915 22.1777958,15.3321506 L20.2486933,15.9124347 C19.8523921,16.0297955 19.4560909,16.1471563 19.0597898,16.2710372 C12.5617604,18.2792112 7.62273408,23.6191284 6.17181321,30.2076343 C2.1563979,48.4246413 0.364854527,67.0002508 0.843036122,85.4161191 C0.901990017,87.6785749 2.66078123,89.5759081 4.93050619,89.8269299 L7.67841276,90.133372 C8.75595895,90.2539929 9.72869823,89.4781075 9.84988123,88.40556 L14.1829925,49.8003709 C14.3664047,48.1638395 15.3129422,46.5925085 16.9996786,45.1157182 L12.1687344,88.1414981 C12.0115241,89.5433079 13.039942,90.7266962 14.5563672,90.8962173 C16.0760676,91.0657385 17.3403012,90.136632 17.4975115,88.7348223 L22.786986,41.6111938 C23.7236979,41.1873908 24.7291894,40.779888 25.7969099,40.3854253 L20.3338489,89.0510445 C20.1766386,90.4528542 21.2017813,91.6362425 22.7214817,91.8057637 C24.2411821,91.9752849 25.5054156,91.0461784 25.662626,89.6443686 L31.3909795,38.6119729 C32.3538931,38.3479111 33.3430085,38.0903693 34.3484999,37.8458676 L28.4989634,89.9573308 C28.3417531,91.3591406 29.3668958,92.5457888 30.8865962,92.71205 C32.4062966,92.8815712 33.6672549,91.9524647 33.8277405,90.5506549 L39.8770652,36.6494392 C40.8334284,36.4636179 41.8127181,36.2810566 42.8116591,36.1050154 L36.6640779,90.8668771 C36.5068675,92.2686869 37.5320103,93.4520752 39.0517107,93.6215963 C40.5714111,93.7911175 41.8323694,92.862011 41.992855,91.4569412 L48.304197,35.2248093 C49.2605602,35.0878883 50.2332995,34.9509674 51.2191396,34.8205665 L44.8259172,91.7731634 C44.671982,93.1749732 45.6971248,94.3616215 47.2168252,94.5278826 C48.7332504,94.6974038 49.9974839,93.7682974 50.1546943,92.3664876 L56.688751,34.1587819 C57.6451142,34.0544611 58.6178535,33.9501404 59.5971432,33.8523397 L52.9910317,92.6827098 C52.8338213,94.0845196 53.8622393,95.2679078 55.3819397,95.437429 C56.8983649,95.6069502 58.1625984,94.6778437 58.3198088,93.2760339 L65.0471033,33.3535562 C66.0034665,33.2720557 66.9696553,33.1970752 67.9456698,33.1220946 L61.1594214,93.5889961 C60.9989358,94.9908059 62.0273538,96.1774541 63.5470542,96.3469753 C65.0634794,96.5132365 66.3277129,95.58413 66.4849233,94.1823202 L73.382529,32.750452 C74.3388922,32.6885116 75.3018059,32.6330912 76.2712699,32.5776708 L69.3212607,94.4985424 C69.1640503,95.9003522 70.1924683,97.0837405 71.7088935,97.2532616 C73.2285939,97.4227828 74.4928274,96.4936764 74.6500378,95.0918666 L81.6983035,32.310349 C82.6546667,32.2679687 83.6143051,32.2288484 84.5837692,32.1929882 L77.4863752,95.4048288 C77.3291648,96.8098986 78.3575828,97.9932868 79.874008,98.162808 C81.3937084,98.3290691 82.6579419,97.3999627 82.8151523,95.9981529 L89.9977019,32.0169469 C90.9540651,31.9908667 91.9137035,31.9647866 92.8766171,31.9419664 L85.6514897,96.3143751 C85.4942793,97.7161849 86.5226973,98.8995731 88.0391225,99.0690943 C89.5588229,99.2386155 90.8230564,98.309509 90.9802668,96.9076992 L98.2839994,31.8441657 C99.2370873,31.8311256 100.196726,31.8213456 101.159639,31.8115655 L93.8166042,97.2239214 C93.6593938,98.6257312 94.6845365,99.8091195 96.204237,99.9786406 C97.7239374,100.144902 98.9881709,99.2157953 99.1453813,97.8139856 L106.557196,31.7854853 C107.510284,31.7854853 108.466647,31.7854853 109.429561,31.7887453 L101.981719,98.1302078 C101.824508,99.5320175 102.849651,100.715406 104.369351,100.884927 C105.889052,101.054448 107.153285,100.125342 107.310496,98.7235319 L114.817292,31.8278656 C115.77038,31.8409057 116.726743,31.8506858 117.686381,31.8669859 L110.146833,99.0397541 C109.986348,100.441564 111.014766,101.624952 112.534466,101.794473 C114.054166,101.960734 115.3184,101.031628 115.47561,99.6298182 L123.070837,31.9680466 C124.023925,31.9876067 124.977013,32.0104269 125.933376,32.0365071 L118.311948,99.9460404 C118.151462,101.34785 119.17988,102.531238 120.69958,102.70076 C122.216006,102.870281 123.480239,101.941174 123.63745,100.539365 L131.311282,32.1962482 C132.261094,32.2288484 133.217458,32.2614486 134.170546,32.2973089 L126.477062,100.855587 C126.316577,102.257397 127.344995,103.440785 128.86142,103.610306 C130.38112,103.779827 131.645354,102.847461 131.802564,101.445651 L139.5419,32.5092104 C140.494988,32.5515907 141.444801,32.597231 142.397889,32.6428713 L134.638901,101.761873 C134.481691,103.163683 135.510109,104.347071 137.026534,104.516592 C138.546235,104.686113 139.810468,103.757007 139.967679,102.355197 L147.762694,32.9134532 C148.715782,32.9656135 149.665594,33.0177739 150.615407,33.0731943 L142.804016,102.671419 C142.71886,103.431005 142.967777,104.13517 143.504912,104.656773 C143.937241,105.080576 144.539881,105.354418 145.191649,105.426139 C146.711349,105.59566 147.975583,104.666553 148.132793,103.261484 L155.973661,33.3991966 C156.926749,33.461137 157.876562,33.5230774 158.826375,33.5882779 L150.96913,103.577706 C150.81192,104.979516 151.840338,106.162904 153.356763,106.332425 C154.876464,106.501946 156.140697,105.57284 156.297908,104.17103 L164.178078,33.9697005 C165.127891,34.041421 166.077704,34.1131415 167.024241,34.1881221 L159.134245,104.487252 C158.977035,105.889062 160.002177,107.07245 161.521878,107.241971 C163.041578,107.411492 164.305812,106.482386 164.463022,105.080576 L172.37267,34.6249651 C173.322482,34.7064657 174.26902,34.7879662 175.215557,34.8727268 L167.299359,105.393538 C167.142149,106.795348 168.167292,107.981996 169.686992,108.148258 C171.206693,108.317779 172.470926,107.388672 172.628137,105.986863 L180.55416,35.3715103 C181.503973,35.4627909 182.450511,35.5573316 183.393773,35.6551323 L175.464474,106.303085 C175.307264,107.704894 176.332406,108.888283 177.852107,109.057804 C179.371807,109.227325 180.636041,108.298219 180.793251,106.896409 L188.725825,36.2125962 L190.143994,36.3690773 L191.562163,36.5288184 L183.629588,107.209371 C183.472378,108.611181 184.497521,109.797829 186.017221,109.96409 C187.533646,110.133611 188.79788,109.204505 188.95509,107.802695 L196.887664,37.1547427 C197.827652,37.2688435 198.774189,37.3829443 199.720727,37.5035652 L191.794703,108.118917 C191.634217,109.520727 192.662635,110.704115 194.17906,110.873637 C195.698761,111.043158 196.962994,110.114051 197.120205,108.712242 L205.036403,38.19143 C205.979665,38.3153108 206.919652,38.4424517 207.86619,38.5728526 L199.956542,109.025204 C199.799332,110.427013 200.82775,111.613662 202.34745,111.783183 C203.863875,111.949444 205.128109,111.020338 205.285319,109.618528 L213.178591,39.3193978 C214.118578,39.4563188 215.058565,39.5932397 216.001827,39.7334207 L208.121657,109.93475 C207.964446,111.33656 208.992864,112.519948 210.509289,112.689469 C212.02899,112.85899 213.293223,111.929884 213.450434,110.528074 L221.307678,40.5353863 C222.247665,40.6820873 223.187652,40.8287883 224.130914,40.9787494 L216.286771,110.841036 C216.129561,112.246106 217.157979,113.429494 218.674404,113.595756 C220.194104,113.765277 221.458338,112.83617 221.615548,111.43436 L229.426939,41.8361354 C230.366927,41.9926165 231.306914,42.1490975 232.246901,42.3088387 L224.451886,111.750583 C224.294675,113.152392 225.319818,114.335781 226.839518,114.505302 C228.359219,114.674823 229.623452,113.745717 229.780663,112.343907 L237.53965,43.221645 C238.479638,43.3879062 239.416349,43.5541673 240.356337,43.7236885 L232.617,112.660129 C232.45979,114.061939 233.484933,115.245327 235.004633,115.414848 C236.524333,115.581109 237.788567,114.652003 237.945777,113.250193 L245.639261,44.6919153 C246.579248,44.8679565 247.51596,45.0439977 248.452672,45.223299 L240.782115,113.566415 C240.624904,114.968225 241.650047,116.151613 243.169747,116.321135 C244.689448,116.490656 245.953681,115.561549 246.110892,114.159739 L253.73232,46.2469461 C254.672307,46.4360274 255.605744,46.6218487 256.542456,46.81093 L248.947229,114.472702 C248.790019,115.877771 249.815162,117.06116 251.334862,117.230681 C252.854562,117.396942 254.118796,116.467836 254.276006,115.066026 L261.815554,47.8965176 C262.752266,48.092119 263.685703,48.2909804 264.61914,48.4898417 L257.112344,115.382248 C256.955133,116.784058 257.980276,117.967446 259.499976,118.136967 C261.016402,118.306488 262.280635,117.377382 262.437846,115.975572 L269.885688,49.6341097 C270.8224,49.8427512 271.755836,50.0513926 272.689273,50.2600341 L265.277458,116.291794 C265.120248,117.693604 266.145391,118.876992 267.665091,119.046514 C269.181516,119.216035 270.44575,118.283668 270.60296,116.881858 L277.945995,51.4727625 C278.882707,51.6911841 279.816144,51.9128656 280.74303,52.1345472 L273.439297,117.198081 C273.282087,118.59989 274.310505,119.783279 275.830205,119.9528 C277.346631,120.122321 278.610864,119.193215 278.768075,117.791405 L285.993202,53.4189961 C286.929914,53.6537177 287.860075,53.8884394 288.786962,54.123161 L281.604412,118.107627 C281.447202,119.509437 282.47562,120.692825 283.992045,120.862346 C285.511745,121.031867 286.775979,120.102761 286.933189,118.697691 L294.027308,55.4858505 C294.96402,55.7336122 295.894181,55.984634 296.817792,56.2356557 L289.769526,119.013913 C289.612316,120.415723 290.640734,121.599111 292.157159,121.768633 C293.67686,121.938154 294.941093,121.009047 295.098304,119.607237 L302.048313,57.6863658 C302.985025,57.9536877 303.908636,58.2210096 304.828971,58.4883314 L297.934641,119.92346 C297.777431,121.325269 298.802573,122.508658 300.322274,122.678179 C301.841974,122.8477 303.106208,121.918594 303.263418,120.516784 L310.049666,60.0466223 C310.983103,60.3335043 311.909989,60.6203863 312.82705,60.9072683 L306.099755,120.829746 C305.942545,122.231556 306.967688,123.418204 308.487388,123.584465 C310.007089,123.753986 311.271322,122.82488 311.428533,121.42307 L318.031369,62.5959601 C318.964805,62.9056622 319.888417,63.2186244 320.798927,63.5315866 L314.26487,121.739292 C314.10766,123.141102 315.132802,124.32449 316.652503,124.494012 C318.172203,124.663533 319.436437,123.734426 319.593647,122.332616 L325.986869,65.3800195 C326.920306,65.7223219 327.837367,66.0678843 328.741326,66.4134467 L322.429984,122.645579 C322.272774,124.047388 323.297917,125.234037 324.817617,125.400298 C326.334042,125.569819 327.598276,124.640713 327.755486,123.238903 L333.903068,68.4803011 C334.836504,68.8682438 335.753565,69.2627065 336.644424,69.6539093 L330.595099,123.555125 C330.437889,124.956935 331.463031,126.140323 332.982732,126.309844 C334.499157,126.479365 335.76339,125.550259 335.920601,124.148449 L341.770137,72.0369859 C342.700299,72.4966491 343.607534,72.9628323 344.485292,73.4322756 L338.756938,124.461411 C338.599728,125.863221 339.628146,127.049869 341.147846,127.219391 C342.664271,127.385652 343.928505,126.456545 344.085715,125.054735 L349.548776,76.3891162 C350.501864,77.0085205 351.392723,77.6279248 352.211527,78.2473292 L346.922053,125.370958 C346.764842,126.772767 347.79326,127.956156 349.312961,128.125677 C350.829386,128.295198 352.093619,127.366092 352.25083,125.964282 L357.081774,82.9352418 C358.398411,84.7478145 358.971574,86.4854066 358.788162,88.121938 L354.45505,126.730387 C354.333867,127.802935 355.113369,128.771161 356.190915,128.891782 L358.935546,129.198224 C361.208547,129.449246 363.343988,127.985496 363.90405,125.794761 C368.453325,107.936356 370.821307,89.4259471 370.94904,70.7753571" id="Fill-60" fill="#FFFFFE"></path>
                                <path d="M367.23167,74.8829857 C368.099602,92.0339653 366.03294,107.867896 360.812245,124.008268 C362.253341,115.568069 363.425868,107.541893 364.483763,99.5026773 C365.531832,91.4634613 366.465269,83.4079451 367.23167,74.8829857 Z M11.2549491,47.3488338 C10.2298063,60.864888 8.99504975,73.0117327 6.82030606,86.2343848 C6.5288118,72.7183306 7.82907271,60.437825 11.2549491,47.3488338 Z M348.903559,71.619703 C352.02484,73.5333363 355.100268,75.6001907 357.658212,78.2310291 C355.024938,75.6784313 351.900382,73.7158976 348.736523,71.9000649 C345.559563,70.0874923 342.277796,68.467261 338.946901,66.9513504 C332.281835,63.9293094 325.443184,61.3017311 318.535752,58.8860542 C304.72744,54.0188403 290.640734,49.956852 276.432845,46.4034272 C248.020343,39.3096178 219.136209,34.038161 190.019536,30.8922391 C160.915963,27.6159162 131.576574,26.432528 102.289589,27.1301729 C87.6460965,27.4887754 73.0058792,28.3689815 58.4540927,30.0609333 C51.179837,30.8889791 43.9219575,31.9256663 36.7426831,33.3665963 C33.1563212,34.0968414 29.5863353,34.9216272 26.0785785,35.9648344 C24.3230625,36.4831781 22.5839226,37.053682 20.8840853,37.7317668 C19.1875232,38.4098515 17.5171628,39.1824769 16.0171137,40.2387242 C17.4844107,39.1400966 19.138395,38.3120508 20.8218562,37.5818057 C22.5085926,36.8515606 24.2346317,36.2288963 25.980322,35.6551323 C29.4782531,34.5271644 33.0416886,33.6208781 36.6247753,32.8123925 C43.794224,31.2084613 51.0455532,30.0087729 58.323084,29.017726 C72.8912466,27.1040927 87.5576656,26.0380652 102.237186,25.4773413 C116.916705,24.9003173 131.619152,25.0176781 146.301947,25.5588419 C160.981467,26.1195658 175.647886,27.1692931 190.258626,28.7471441 C204.862816,30.3836755 219.401502,32.5678908 233.845206,35.2345894 C248.285635,37.9175881 262.657285,41.0178697 276.852073,44.792976 C291.046861,48.5550422 305.120466,52.8061118 318.899301,57.8917473 C325.77398,60.4671652 332.57333,63.2544847 339.192542,66.4362668 C342.497235,68.030418 345.759351,69.7223697 348.903559,71.619703 Z M350.400333,58.2699099 C353.521614,60.1835433 356.600317,62.2503977 359.154986,64.884496 C356.521712,62.3286382 353.400431,60.3661045 350.233296,58.5502719 C347.059612,56.7376992 343.77457,55.120728 340.44695,53.6015574 C333.781884,50.5795163 326.943233,47.955198 320.032526,45.5362612 C306.224214,40.6723073 292.137508,36.6070589 277.932894,33.0536342 C249.517117,25.9598247 220.632983,20.691628 191.51631,17.542446 C162.412737,14.2661232 133.073348,13.085995 103.786363,13.7803798 C89.1428704,14.1389823 74.5059283,15.0224485 59.9541418,16.7111402 C52.6766109,17.539186 45.4220066,18.5758732 38.2427322,20.0200633 C34.6530951,20.7470484 31.0831092,21.5750941 27.5753524,22.6183014 C25.8231116,23.133385 24.0839717,23.707149 22.3841344,24.3819737 C20.6875723,25.0600584 19.0172119,25.8359438 17.5138876,26.8889312 C18.9844598,25.7903035 20.6384441,24.9622578 22.3219053,24.2320127 C24.0053665,23.5050276 25.7346808,22.8791032 27.4803711,22.3085993 C30.975027,21.1773714 34.5384625,20.2743451 38.1215492,19.4625994 C45.2909979,17.8586682 52.5456023,16.6589799 59.8231331,15.667933 C74.3912957,13.7542996 89.0577148,12.6882722 103.733959,12.1275483 C118.416755,11.5505243 133.119201,11.6678851 147.798721,12.2090489 C162.481516,12.7697728 177.14466,13.8195001 191.7554,15.4006111 C206.35959,17.0371425 220.898276,19.2180977 235.345255,21.8847963 C249.785685,24.571055 264.154059,27.6680766 278.348847,31.4464429 C292.543635,35.2052491 306.61724,39.4595788 320.396075,44.5419542 C327.270754,47.1173722 334.073379,49.9046916 340.689316,53.0864738 C343.994009,54.6806249 347.256125,56.3758367 350.400333,58.2699099 Z M354.078401,57.9862879 C357.16693,60.1346429 360.186679,62.4557791 362.620165,65.3278591 C360.065496,62.5666199 356.967141,60.3954447 353.806558,58.3970508 C350.636148,56.3953969 347.338005,54.6023844 343.984184,52.9299927 C337.26999,49.5852094 330.333082,46.7033493 323.317568,44.0399107 C309.302917,38.6739133 294.941093,34.2239823 280.438435,30.3543353 C265.919401,26.5368487 251.285734,23.1464251 236.524333,20.411266 C221.772759,17.6304666 206.922928,15.3777909 192.001042,13.7608197 C177.088981,12.088428 162.101591,11.0517408 147.097825,10.5301372 C132.094058,9.97593329 117.067365,10.0704739 102.060324,10.6214178 C87.0565575,11.224522 72.0658921,12.4274704 57.1996848,14.5562652 C49.7649436,15.5929524 42.356404,16.8676213 35.0526715,18.6019534 C31.4040804,19.4723795 27.7784158,20.4601664 24.2346317,21.6891949 C22.4594644,22.2955592 20.7039484,22.9606038 19.0008359,23.7397492 C17.2944481,24.5188947 15.6339134,25.4154009 14.1535156,26.572709 C15.5815099,25.3502005 17.2158429,24.3754537 18.8927537,23.5213277 C20.5729397,22.6672018 22.3088044,21.9173965 24.0643204,21.2327918 C27.5884533,19.8733623 31.201017,18.7714746 34.8397824,17.7739076 C42.1205885,15.7950739 49.5193023,14.2759033 56.9540436,12.9979744 C71.8431773,10.5333972 86.8764206,9.05334686 101.939141,8.14706054 C132.067857,6.39968836 162.343957,7.30597468 192.361315,10.5431772 C222.365573,13.9075207 252.097987,19.6614608 281.109854,27.9549586 C295.599412,32.1310477 309.941584,36.8711208 323.910382,42.5663805 C330.870217,45.4710607 337.744896,48.5876424 344.38376,52.1704074 C347.698279,53.9601599 350.960395,55.8672732 354.078401,57.9862879 Z M361.801361,125.263377 C361.506591,126.414165 360.376642,127.18353 359.177912,127.049869 L356.633069,126.769507 L360.943254,88.3631797 C361.264225,85.5041398 359.957414,82.5505592 357.058847,79.5806785 C356.767353,79.2840164 356.325199,79.1764356 355.928898,79.3133566 C355.532597,79.4470175 355.250928,79.7991 355.2018,80.2163829 L350.095737,125.72304 C350.062985,126.013182 349.669959,125.993622 349.552051,125.980582 C349.434144,125.967542 349.047668,125.899081 349.08042,125.608939 L354.435399,77.8822066 C354.477977,77.510564 354.324042,77.1421815 354.025997,76.9107199 C352.624204,75.8186122 351.009523,74.7199846 349.227805,73.637657 C348.913384,73.4453157 348.520358,73.4290156 348.186286,73.5887567 C347.852214,73.7517578 347.626224,74.0712401 347.586922,74.4396226 L341.930623,124.816754 C341.897871,125.106896 341.504845,125.084076 341.386937,125.071036 C341.269029,125.057995 340.882554,124.992795 340.915306,124.702653 L346.722265,72.9497922 C346.771393,72.5162092 346.551953,72.0924063 346.165478,71.8837648 C344.632676,71.045939 343.008169,70.2178932 341.334534,69.4191876 C341.020113,69.2692266 340.646738,69.2790067 340.338868,69.4485278 C340.030997,69.618049 339.824659,69.9244912 339.785356,70.2733136 L333.765508,123.907207 C333.732756,124.197349 333.343005,124.177789 333.221822,124.164749 C333.103915,124.151709 332.717439,124.086509 332.750191,123.793107 L338.887947,69.1062255 C338.94035,68.6433022 338.684883,68.1934191 338.252555,68.0043378 C336.703378,67.3099529 335.069045,66.6155681 333.395409,65.9342233 C333.080988,65.8038224 332.727265,65.8299026 332.432495,66.0026838 C332.141001,66.175465 331.944488,66.4753871 331.908461,66.8111695 L325.600394,122.997661 C325.567642,123.291063 325.177891,123.268243 325.056708,123.255203 C324.9388,123.242163 324.552325,123.176962 324.585077,122.88682 L330.988125,65.8266426 C331.043804,65.3408992 330.762135,64.877976 330.30688,64.7019348 C328.731501,64.0890505 327.103718,63.4826863 325.433358,62.876322 C325.115662,62.7654813 324.771764,62.7980815 324.490096,62.9741227 C324.208427,63.1501639 324.018464,63.443566 323.982437,63.7728283 L317.435279,122.091375 C317.402527,122.381517 317.012777,122.361957 316.894869,122.348917 C316.773686,122.335876 316.38721,122.267416 316.419962,121.977274 L323.052276,62.9154423 C323.107954,62.4133988 322.80991,61.9406955 322.331728,61.7744343 C320.739973,61.2202305 319.10564,60.6725467 317.44183,60.1248628 C317.13396,60.0238021 316.790062,60.0661824 316.514944,60.2422237 C316.239825,60.4182649 316.059689,60.7051469 316.023661,61.0311492 L309.270165,121.185088 C309.237413,121.47197 308.847662,121.45241 308.726479,121.43937 C308.608571,121.42633 308.222096,121.36113 308.254848,121.070988 L315.080399,60.2683038 C315.139353,59.7564803 314.824932,59.2772569 314.333649,59.1207758 C312.728793,58.6089523 311.09446,58.1036488 309.433926,57.6016053 C309.12278,57.5103246 308.791983,57.5559649 308.52014,57.7320062 C308.251573,57.9080474 308.074711,58.1949294 308.038684,58.5144116 L301.10505,120.275542 C301.072298,120.565684 300.682548,120.546124 300.56464,120.533084 C300.443457,120.516784 300.056981,120.451583 300.089733,120.161441 L307.088871,57.8298068 C307.144549,57.3082032 306.820303,56.8224598 306.31592,56.6724988 C304.701238,56.1997955 303.066905,55.7270922 301.40637,55.2609089 C301.10505,55.1761484 300.770978,55.2250487 300.508961,55.4043499 C300.243669,55.5803912 300.070082,55.8640131 300.034055,56.1802354 L292.943211,119.365996 C292.910459,119.659398 292.517433,119.636578 292.399525,119.623538 C292.278342,119.610497 291.895142,119.545297 291.927894,119.255155 L299.077691,55.554311 C299.136645,55.0261873 298.799298,54.5339239 298.285089,54.3937429 C296.667132,53.9536398 295.022974,53.5135368 293.368989,53.0766937 C293.064394,52.9984532 292.740148,53.0538736 292.47813,53.2299148 C292.219388,53.409216 292.049077,53.689578 292.01305,54.0025402 L284.778097,118.459709 C284.745344,118.749851 284.355594,118.730291 284.234411,118.717251 C284.113228,118.700951 283.730027,118.635751 283.76278,118.345609 L291.046861,53.4320362 C291.10909,52.8973925 290.765192,52.401869 290.241158,52.2649481 C288.613375,51.8476652 286.972492,51.4336423 285.315232,51.0261394 C285.010637,50.9511589 284.689666,51.0098393 284.434199,51.1858805 C284.175457,51.3651818 284.011696,51.6455437 283.975669,51.9519859 L276.612982,117.550163 C276.58023,117.840305 276.187204,117.820745 276.069296,117.807705 C275.948113,117.794665 275.564913,117.729464 275.597665,117.439322 L283.006205,51.4303822 C283.065158,50.8892185 282.71471,50.390435 282.184125,50.2600341 C280.549792,49.8688314 278.908909,49.4776286 277.251649,49.092946 C276.953605,49.0244855 276.632633,49.0831659 276.377167,49.2624671 C276.124975,49.4385084 275.961214,49.7156103 275.925187,50.0220524 L268.447868,116.643877 C268.415115,116.934019 268.025365,116.911199 267.904182,116.898159 C267.786274,116.885118 267.399798,116.819918 267.432551,116.529776 L274.952447,49.5428291 C275.011401,48.9951453 274.654403,48.4898417 274.113992,48.3692209 C272.479659,47.9975783 270.832225,47.6291957 269.174966,47.2640732 C268.873646,47.2021328 268.559225,47.2640732 268.310309,47.4433745 C268.061392,47.6194157 267.897631,47.8965176 267.864879,48.1996997 L260.282753,115.73433 C260.250001,116.024472 259.86025,116.004912 259.739067,115.991872 C259.621159,115.978832 259.234684,115.913632 259.267436,115.62349 L266.885589,47.7595967 C266.947819,47.2086528 266.580994,46.7000893 266.037308,46.5827285 C264.396425,46.230646 262.745716,45.8818236 261.091732,45.5362612 C260.790412,45.4743207 260.479266,45.5427812 260.233625,45.7188224 C259.987984,45.8981237 259.824223,46.1719656 259.791471,46.4751477 L252.117639,114.828044 C252.084887,115.118186 251.695136,115.095366 251.573953,115.082326 C251.456045,115.069286 251.069569,115.004085 251.102322,114.713943 L258.808906,46.0709049 C258.871135,45.513441 258.49776,45.0016174 257.947524,44.8907767 C256.303365,44.5582543 254.652656,44.228992 252.995397,43.8997298 C252.690802,43.8410493 252.389482,43.9127698 252.14384,44.0888111 C251.901474,44.2681123 251.740989,44.5419542 251.708237,44.8418763 L243.952524,113.918498 C243.923047,114.20864 243.530021,114.18908 243.408838,114.17604 C243.29093,114.163 242.904455,114.097799 242.937207,113.807657 L250.719121,44.4734938 C250.784626,43.9127698 250.4047,43.3976863 249.847914,43.2901055 C248.20048,42.9738833 246.546496,42.6641811 244.889236,42.354479 C244.607567,42.3055786 244.289871,42.3707791 244.047505,42.5500803 C243.805139,42.7293816 243.647929,42.9999635 243.615177,43.2966255 L235.78741,113.012211 C235.754658,113.302354 235.364907,113.279533 235.246999,113.266493 C235.125816,113.253453 234.73934,113.188253 234.772093,112.898111 L242.622786,42.9608432 C242.688291,42.3968593 242.301815,41.8785157 241.738478,41.777455 C240.087769,41.4775329 238.430509,41.1841308 236.776525,40.8972488 C236.481756,40.8418284 236.17716,40.916809 235.93807,41.0961102 C235.698979,41.2754115 235.545044,41.5427333 235.512291,41.8393954 L227.62557,112.102665 C227.592818,112.392807 227.199792,112.373247 227.081884,112.360207 C226.960701,112.347167 226.574226,112.281966 226.606978,111.988564 L234.516626,41.5362133 C234.578855,40.9657093 234.185829,40.4473657 233.622492,40.349565 C231.965232,40.0692031 230.311248,39.7921011 228.653988,39.5215192 C228.375595,39.4693589 228.057899,39.5475994 227.822083,39.7269007 C227.582993,39.9029419 227.432333,40.1735238 227.39958,40.4669258 L219.460456,111.196379 C219.427704,111.486521 219.034678,111.463701 218.91677,111.450661 C218.795587,111.437621 218.412387,111.37242 218.445139,111.082278 L226.400639,40.1963439 C226.466144,39.6225799 226.066567,39.1009763 225.493405,39.0096957 C223.836145,38.7423738 222.17561,38.484832 220.521626,38.2305502 C220.21048,38.1881699 219.928812,38.2598904 219.696271,38.4391917 C219.460456,38.6184929 219.309796,38.8825548 219.277044,39.1759568 L211.295341,110.286832 C211.262589,110.576975 210.869563,110.557414 210.751655,110.544374 C210.630472,110.531334 210.247272,110.462874 210.280024,110.172732 L218.274828,38.9379752 C218.340332,38.3609511 217.934205,37.8360875 217.357767,37.7513269 C215.693957,37.5035652 214.033422,37.2590635 212.379438,37.0210818 C212.081393,36.9754415 211.793174,37.0569421 211.560634,37.2362433 C211.328094,37.4155446 211.177434,37.6796064 211.144681,37.9697484 L203.130227,109.380546 C203.097475,109.670688 202.704449,109.647868 202.586541,109.634828 C202.468633,109.621788 202.082158,109.556587 202.11491,109.266445 L210.13919,37.767627 C210.204694,37.187343 209.792017,36.6592193 209.209029,36.5777187 C207.541943,36.3495171 205.881409,36.1213155 204.224149,35.902894 C203.965407,35.8637737 203.644436,35.9452743 203.411896,36.1245756 C203.18263,36.3038768 203.035246,36.5679386 203.002493,36.8548206 L194.965112,108.471 C194.93236,108.761142 194.542609,108.741582 194.421426,108.728542 C194.303519,108.715502 193.917043,108.647041 193.949795,108.356899 L201.993727,36.6852995 C202.059231,36.0984954 201.640003,35.5703717 201.05374,35.4953912 C199.380104,35.2834897 197.716294,35.0781083 196.059035,34.8792469 C196.055759,34.8792469 196.052484,34.8792469 196.049209,34.8792469 C195.76754,34.8466466 195.479321,34.9281472 195.256607,35.1041884 C195.030617,35.2834897 194.883232,35.5442915 194.85048,35.8311735 L186.799998,107.561453 C186.767246,107.854856 186.377495,107.832035 186.256312,107.818995 C186.138404,107.805955 185.751929,107.740755 185.784681,107.450613 L193.838438,35.7007726 C193.903942,35.1074485 193.478164,34.5760648 192.88535,34.5076043 L190.38636,34.2207223 L187.884095,33.9501404 C187.29128,33.8882 186.75742,34.3120029 186.691916,34.9053271 L178.634883,106.655167 C178.602131,106.945309 178.212381,106.925749 178.091197,106.912709 C177.97329,106.899669 177.586814,106.831208 177.619566,106.541066 L185.673323,34.8107864 C185.7028,34.5239044 185.62092,34.2370224 185.437508,34.0153409 C185.257371,33.7903993 184.998629,33.6502183 184.713685,33.6176181 C184.71041,33.6176181 184.707135,33.6176181 184.707135,33.6176181 C183.043325,33.4448369 181.37624,33.2785757 179.699329,33.1188346 C179.10979,33.0634142 178.58248,33.4872172 178.516976,34.0740213 L170.469769,105.748881 C170.437017,106.035763 170.047266,106.016203 169.929358,106.003163 C169.808175,105.990123 169.4217,105.924922 169.454452,105.63478 L177.495108,34.0186009 C177.52786,33.7317189 177.439429,33.4415769 177.256017,33.2166353 C177.072605,32.9916937 176.751634,32.8352126 176.515818,32.8221725 C174.852008,32.6722115 173.178373,32.5255105 171.501462,32.3853295 C170.915198,32.3364292 170.397714,32.7602321 170.33221,33.3405161 L162.30793,104.839335 C162.275177,105.129477 161.882152,105.109916 161.764244,105.096876 C161.643061,105.080576 161.256585,105.015376 161.289337,104.725234 L169.303792,33.317696 C169.339819,33.027554 169.251388,32.7374119 169.064701,32.5124704 C168.878014,32.2842688 168.602896,32.1375678 168.314677,32.1212677 C166.647591,31.9876067 164.973956,31.8637259 163.297045,31.739845 C162.714056,31.6974647 162.203123,32.1180076 162.137618,32.6950317 L154.142815,103.929788 C154.110063,104.22319 153.717037,104.20037 153.599129,104.18733 C153.477946,104.17429 153.094746,104.109089 153.124223,103.818947 L161.1092,32.7080717 C161.141953,32.4146697 161.053522,32.1212677 160.863559,31.8963261 C160.673597,31.6713845 160.42468,31.5377236 160.106984,31.5116434 C158.433349,31.3942826 156.756438,31.2834418 155.079527,31.1791211 C154.503089,31.1432608 153.998706,31.5638038 153.933201,32.1375678 L145.977701,103.023502 C145.944948,103.313644 145.551923,103.294084 145.434015,103.281044 C145.312832,103.264744 144.929631,103.199543 144.959108,102.909401 L152.901508,32.1799481 C152.93426,31.886546 152.842554,31.593144 152.652592,31.3649424 C152.459354,31.1400008 152.16786,30.9932998 151.886191,30.9835197 C150.20928,30.885719 148.532369,30.7911784 146.855459,30.7031578 C146.282296,30.6705575 145.784463,31.0911005 145.722234,31.6616044 L137.812586,102.113956 C137.779834,102.404098 137.386808,102.384537 137.2689,102.371497 C137.150992,102.358457 136.764517,102.293257 136.793994,102.003115 L144.68399,31.739845 C144.716742,31.4431829 144.625036,31.1465209 144.431799,30.9183193 C144.235286,30.6933777 143.950342,30.5499367 143.658847,30.5401566 C141.978661,30.4586561 140.301751,30.3804155 138.621565,30.308695 C138.051677,30.2858749 137.560394,30.7031578 137.498165,31.2671417 L129.647472,101.207669 C129.614719,101.497811 129.224969,101.474991 129.103786,101.461951 C128.985878,101.448911 128.599402,101.38371 128.632155,101.093568 L136.456647,31.3812425 C136.489399,31.0813204 136.397693,30.7846583 136.20118,30.5564567 C136.004667,30.3282552 135.706622,30.1945942 135.421678,30.1815541 C133.738217,30.1163537 132.054756,30.0576733 130.377845,30.0055129 C129.811232,29.9859528 129.3265,30.4032357 129.264271,30.9639596 L121.482357,100.298123 C121.449605,100.588265 121.059854,100.568705 120.938671,100.555665 C120.820763,100.542625 120.434288,100.477424 120.46704,100.187282 L128.219477,31.1074006 C128.255505,30.8074785 128.160523,30.5075564 127.960735,30.2793548 C127.760947,30.0511532 127.489104,29.9174923 127.171408,29.9077122 C125.484672,29.8620719 123.80121,29.8229516 122.1243,29.7870914 C121.564238,29.7740513 121.086056,30.1913342 121.023827,30.7455381 L113.317243,99.3918366 C113.284491,99.6819786 112.89474,99.6591584 112.773557,99.6461183 C112.655649,99.6330782 112.269173,99.5678778 112.301926,99.2777358 L119.972482,30.9248393 C120.00851,30.6249172 119.910253,30.3217351 119.710465,30.0935335 C119.507402,29.8653319 119.222458,29.731671 118.914588,29.7251509 C117.224576,29.6990708 115.537839,29.6762506 113.860929,29.6599505 C113.304142,29.6534304 112.832511,30.0674533 112.770282,30.6183972 L105.152128,98.4822902 C105.119376,98.7724322 104.729625,98.7528721 104.608442,98.739832 C104.490534,98.7267919 104.104059,98.6615915 104.136811,98.3714494 L111.718937,30.8368187 C111.751689,30.5303766 111.656708,30.2271944 111.450369,29.9989929 C111.247306,29.7675312 110.952536,29.6371303 110.644666,29.6371303 C108.951379,29.6273503 107.261368,29.6240902 105.584457,29.6273503 C105.030945,29.6273503 104.56914,30.0413732 104.506911,30.5857969 L96.9870137,97.5760039 C96.9542615,97.8661459 96.5645108,97.8433258 96.446603,97.8302857 C96.32542,97.8172456 95.9389444,97.7520451 95.9716966,97.4619031 L103.449016,30.8433387 C103.485043,30.5368966 103.386787,30.2271944 103.177173,29.9989929 C102.970834,29.7707913 102.672789,29.6436504 102.364919,29.6436504 C100.661806,29.6534304 98.97507,29.6729906 97.294884,29.6990708 C96.7479229,29.7055908 96.2926678,30.1196137 96.2337139,30.6575174 L88.8251744,96.6664576 C88.7924222,96.9565996 88.3993963,96.9370394 88.2814885,96.9239994 C88.1603055,96.9109593 87.7738299,96.8457588 87.8065821,96.5523568 L95.1725438,30.9574395 C95.2052959,30.6477374 95.1070395,30.3380352 94.8941504,30.1098336 C94.6845365,29.878372 94.3799414,29.7512311 94.0720711,29.7577512 C92.3624081,29.7903514 90.6723964,29.8359917 88.9922104,29.8848921 C88.4517997,29.9011922 88.0063703,30.308695 87.9441412,30.8433387 L80.6600599,95.7601712 C80.6273077,96.0503133 80.2342818,96.0274931 80.116374,96.014453 C79.995191,96.0014129 79.6119906,95.9362125 79.6414676,95.6460704 L86.8796958,31.1889012 C86.912448,30.875939 86.8109163,30.5629768 86.594752,30.3347752 C86.381863,30.1033136 86.0772678,29.9794327 85.7628471,29.9892128 C84.0499089,30.0511532 82.3500716,30.1163537 80.6731608,30.1945942 C80.1393005,30.2174144 79.7036967,30.6249172 79.6447428,31.1530409 L72.4949454,94.8506249 C72.4621932,95.1407669 72.0691673,95.1212068 71.9512595,95.1081667 C71.8300765,95.0951266 71.4436009,95.0266661 71.4796283,94.7365241 L78.5704718,31.5507637 C78.6064992,31.2345415 78.5016923,30.9215793 78.2822528,30.6901177 C78.0628133,30.4586561 77.7483925,30.3380352 77.437247,30.3510753 C75.7144831,30.4423559 74.0146458,30.5434167 72.3344598,30.6509974 C71.8104252,30.6835976 71.384647,31.0878404 71.3256931,31.6094441 L64.3298309,93.9443386 C64.2970787,94.2344806 63.907328,94.2116604 63.786145,94.1986204 C63.6682372,94.1855803 63.2817617,94.1203798 63.3145138,93.8302378 L70.2448717,32.0691073 C70.2808991,31.7496251 70.172817,31.4334029 69.9501023,31.2019412 C69.7273875,30.9704796 69.4129668,30.8531188 69.0887203,30.8726789 C67.3594061,30.9965598 65.6530183,31.1334808 63.9728323,31.2769218 C63.4586233,31.3225621 63.0459461,31.7202849 62.9902674,32.2321084 L56.1647164,93.0347922 C56.1319642,93.3249343 55.7422135,93.3053741 55.6210305,93.292334 C55.5031227,93.2792939 55.1166472,93.2108335 55.1493993,92.9206914 L61.8996203,32.7700122 C61.9356477,32.4472699 61.8242904,32.1245277 61.5950252,31.8930661 C61.3657601,31.6583444 61.0447889,31.5442436 60.7172672,31.5735838 C58.9748521,31.743105 57.2586387,31.9191462 55.5850031,32.1082276 C55.0806198,32.166908 54.6843186,32.5613707 54.6286399,33.0634142 L47.9996019,92.1252459 C47.9668497,92.4186479 47.577099,92.3958278 47.455916,92.3827877 C47.3380082,92.3697476 46.9515327,92.3045472 46.9842848,92.0144051 L53.5314424,33.6925986 C53.5674698,33.3665963 53.449562,33.037334 53.2137464,32.8058724 C52.9779308,32.5744108 52.647134,32.46357 52.3163371,32.5026903 C50.5509955,32.7243719 48.8282317,32.9623535 47.1578713,33.2133753 C46.6698641,33.2850958 46.2964894,33.6730385 46.2408107,34.1587819 L39.8344874,91.2189596 C39.8017353,91.5091016 39.4119845,91.4895415 39.2908015,91.4765014 C39.1728937,91.4634613 38.7864182,91.3950008 38.8191703,91.1048588 L45.1272371,34.9183671 C45.1632645,34.5825848 45.0420815,34.2468025 44.7931651,34.0153409 C44.5475238,33.7806192 44.2036261,33.6795585 43.869554,33.7349789 C42.0878363,34.031641 40.3388707,34.3511232 38.6717856,34.6869055 C38.2099801,34.7781862 37.8595319,35.1596088 37.8104037,35.6257921 L31.6693729,90.3126733 C31.6366208,90.5995553 31.24687,90.5799951 31.1289622,90.566955 C31.0077792,90.5539149 30.6213037,90.4887145 30.6540558,90.1985725 L36.6739036,36.5646786 C36.7132062,36.2158562 36.5821975,35.8702938 36.3201802,35.6388322 C36.0581629,35.4041105 35.6978891,35.3128299 35.3539914,35.3910704 C33.5526224,35.8018333 31.7840055,36.2517164 30.0939938,36.7309398 C29.6714909,36.8515606 29.3636206,37.2166832 29.3144923,37.6502662 L23.5075336,89.4031269 C23.4747815,89.6932689 23.0817555,89.6737088 22.9638477,89.6574087 C22.8426647,89.6443686 22.4561892,89.5791682 22.4889413,89.2890261 L28.1452401,38.911895 C28.1845427,38.5467724 28.0338827,38.1849099 27.7456637,37.9534483 C27.4574446,37.7219867 27.0709691,37.6535262 26.7205209,37.770887 C24.7422902,38.4326716 22.9245451,39.1531367 21.3131386,39.9094619 C20.9725161,40.0692031 20.7399758,40.3919453 20.697398,40.7668479 L15.3424191,88.4935806 C15.309667,88.7837226 14.916641,88.7641625 14.7987332,88.7511224 C14.6775502,88.7380823 14.2910747,88.6728818 14.3238268,88.3827398 L19.4331644,42.8728226 C19.4790175,42.4587997 19.2825045,42.0545569 18.9255059,41.8328753 C18.5717825,41.6144538 18.1165274,41.6209739 17.7628041,41.8491755 C14.2779738,44.1083712 12.3488714,46.7000893 12.0279001,49.5591292 L7.71771535,87.9654569 L5.17287221,87.6818349 C3.97086779,87.548174 3.04398155,86.550607 3.01122938,85.3606988 C2.536323,67.1208716 4.31476551,48.7180433 8.28760301,30.6705575 C9.57476306,24.8383769 13.947177,20.1113439 19.7050074,18.3346316 C20.0947581,18.2140107 20.4812337,18.0966499 20.8709844,17.9792891 L22.8066373,17.399005 C73.6903994,2.17795894 127.954185,-1.51238679 193.576421,5.78680409 C259.201932,13.085995 311.310625,28.6037031 357.559956,54.6284645 L359.318747,55.6195114 C359.67247,55.8183728 360.026194,56.0172342 360.379917,56.2193556 C365.600612,59.2218366 368.816874,64.7899554 368.780847,70.759057 C368.653114,89.2368658 366.304783,107.574494 361.801361,125.263377 Z M370.94904,70.7753571 C370.991618,64.0303701 367.359403,57.7385262 361.467289,54.3513626 C361.107015,54.1427211 360.746741,53.9405997 360.386467,53.7384783 L358.630951,52.7474314 C312.113053,26.575969 259.742342,10.9735002 193.818787,3.64170914 C127.891956,-3.69008197 73.3530521,0.023083915 22.1777958,15.3321506 L20.2486933,15.9124347 C19.8523921,16.0297955 19.4560909,16.1471563 19.0597898,16.2710372 C12.5617604,18.2792112 7.62273408,23.6191284 6.17181321,30.2076343 C2.1563979,48.4246413 0.364854527,67.0002508 0.843036122,85.4161191 C0.901990017,87.6785749 2.66078123,89.5759081 4.93050619,89.8269299 L7.67841276,90.133372 C8.75595895,90.2539929 9.72869823,89.4781075 9.84988123,88.40556 L14.1829925,49.8003709 C14.3664047,48.1638395 15.3129422,46.5925085 16.9996786,45.1157182 L12.1687344,88.1414981 C12.0115241,89.5433079 13.039942,90.7266962 14.5563672,90.8962173 C16.0760676,91.0657385 17.3403012,90.136632 17.4975115,88.7348223 L22.786986,41.6111938 C23.7236979,41.1873908 24.7291894,40.779888 25.7969099,40.3854253 L20.3338489,89.0510445 C20.1766386,90.4528542 21.2017813,91.6362425 22.7214817,91.8057637 C24.2411821,91.9752849 25.5054156,91.0461784 25.662626,89.6443686 L31.3909795,38.6119729 C32.3538931,38.3479111 33.3430085,38.0903693 34.3484999,37.8458676 L28.4989634,89.9573308 C28.3417531,91.3591406 29.3668958,92.5457888 30.8865962,92.71205 C32.4062966,92.8815712 33.6672549,91.9524647 33.8277405,90.5506549 L39.8770652,36.6494392 C40.8334284,36.4636179 41.8127181,36.2810566 42.8116591,36.1050154 L36.6640779,90.8668771 C36.5068675,92.2686869 37.5320103,93.4520752 39.0517107,93.6215963 C40.5714111,93.7911175 41.8323694,92.862011 41.992855,91.4569412 L48.304197,35.2248093 C49.2605602,35.0878883 50.2332995,34.9509674 51.2191396,34.8205665 L44.8259172,91.7731634 C44.671982,93.1749732 45.6971248,94.3616215 47.2168252,94.5278826 C48.7332504,94.6974038 49.9974839,93.7682974 50.1546943,92.3664876 L56.688751,34.1587819 C57.6451142,34.0544611 58.6178535,33.9501404 59.5971432,33.8523397 L52.9910317,92.6827098 C52.8338213,94.0845196 53.8622393,95.2679078 55.3819397,95.437429 C56.8983649,95.6069502 58.1625984,94.6778437 58.3198088,93.2760339 L65.0471033,33.3535562 C66.0034665,33.2720557 66.9696553,33.1970752 67.9456698,33.1220946 L61.1594214,93.5889961 C60.9989358,94.9908059 62.0273538,96.1774541 63.5470542,96.3469753 C65.0634794,96.5132365 66.3277129,95.58413 66.4849233,94.1823202 L73.382529,32.750452 C74.3388922,32.6885116 75.3018059,32.6330912 76.2712699,32.5776708 L69.3212607,94.4985424 C69.1640503,95.9003522 70.1924683,97.0837405 71.7088935,97.2532616 C73.2285939,97.4227828 74.4928274,96.4936764 74.6500378,95.0918666 L81.6983035,32.310349 C82.6546667,32.2679687 83.6143051,32.2288484 84.5837692,32.1929882 L77.4863752,95.4048288 C77.3291648,96.8098986 78.3575828,97.9932868 79.874008,98.162808 C81.3937084,98.3290691 82.6579419,97.3999627 82.8151523,95.9981529 L89.9977019,32.0169469 C90.9540651,31.9908667 91.9137035,31.9647866 92.8766171,31.9419664 L85.6514897,96.3143751 C85.4942793,97.7161849 86.5226973,98.8995731 88.0391225,99.0690943 C89.5588229,99.2386155 90.8230564,98.309509 90.9802668,96.9076992 L98.2839994,31.8441657 C99.2370873,31.8311256 100.196726,31.8213456 101.159639,31.8115655 L93.8166042,97.2239214 C93.6593938,98.6257312 94.6845365,99.8091195 96.204237,99.9786406 C97.7239374,100.144902 98.9881709,99.2157953 99.1453813,97.8139856 L106.557196,31.7854853 C107.510284,31.7854853 108.466647,31.7854853 109.429561,31.7887453 L101.981719,98.1302078 C101.824508,99.5320175 102.849651,100.715406 104.369351,100.884927 C105.889052,101.054448 107.153285,100.125342 107.310496,98.7235319 L114.817292,31.8278656 C115.77038,31.8409057 116.726743,31.8506858 117.686381,31.8669859 L110.146833,99.0397541 C109.986348,100.441564 111.014766,101.624952 112.534466,101.794473 C114.054166,101.960734 115.3184,101.031628 115.47561,99.6298182 L123.070837,31.9680466 C124.023925,31.9876067 124.977013,32.0104269 125.933376,32.0365071 L118.311948,99.9460404 C118.151462,101.34785 119.17988,102.531238 120.69958,102.70076 C122.216006,102.870281 123.480239,101.941174 123.63745,100.539365 L131.311282,32.1962482 C132.261094,32.2288484 133.217458,32.2614486 134.170546,32.2973089 L126.477062,100.855587 C126.316577,102.257397 127.344995,103.440785 128.86142,103.610306 C130.38112,103.779827 131.645354,102.847461 131.802564,101.445651 L139.5419,32.5092104 C140.494988,32.5515907 141.444801,32.597231 142.397889,32.6428713 L134.638901,101.761873 C134.481691,103.163683 135.510109,104.347071 137.026534,104.516592 C138.546235,104.686113 139.810468,103.757007 139.967679,102.355197 L147.762694,32.9134532 C148.715782,32.9656135 149.665594,33.0177739 150.615407,33.0731943 L142.804016,102.671419 C142.71886,103.431005 142.967777,104.13517 143.504912,104.656773 C143.937241,105.080576 144.539881,105.354418 145.191649,105.426139 C146.711349,105.59566 147.975583,104.666553 148.132793,103.261484 L155.973661,33.3991966 C156.926749,33.461137 157.876562,33.5230774 158.826375,33.5882779 L150.96913,103.577706 C150.81192,104.979516 151.840338,106.162904 153.356763,106.332425 C154.876464,106.501946 156.140697,105.57284 156.297908,104.17103 L164.178078,33.9697005 C165.127891,34.041421 166.077704,34.1131415 167.024241,34.1881221 L159.134245,104.487252 C158.977035,105.889062 160.002177,107.07245 161.521878,107.241971 C163.041578,107.411492 164.305812,106.482386 164.463022,105.080576 L172.37267,34.6249651 C173.322482,34.7064657 174.26902,34.7879662 175.215557,34.8727268 L167.299359,105.393538 C167.142149,106.795348 168.167292,107.981996 169.686992,108.148258 C171.206693,108.317779 172.470926,107.388672 172.628137,105.986863 L180.55416,35.3715103 C181.503973,35.4627909 182.450511,35.5573316 183.393773,35.6551323 L175.464474,106.303085 C175.307264,107.704894 176.332406,108.888283 177.852107,109.057804 C179.371807,109.227325 180.636041,108.298219 180.793251,106.896409 L188.725825,36.2125962 L190.143994,36.3690773 L191.562163,36.5288184 L183.629588,107.209371 C183.472378,108.611181 184.497521,109.797829 186.017221,109.96409 C187.533646,110.133611 188.79788,109.204505 188.95509,107.802695 L196.887664,37.1547427 C197.827652,37.2688435 198.774189,37.3829443 199.720727,37.5035652 L191.794703,108.118917 C191.634217,109.520727 192.662635,110.704115 194.17906,110.873637 C195.698761,111.043158 196.962994,110.114051 197.120205,108.712242 L205.036403,38.19143 C205.979665,38.3153108 206.919652,38.4424517 207.86619,38.5728526 L199.956542,109.025204 C199.799332,110.427013 200.82775,111.613662 202.34745,111.783183 C203.863875,111.949444 205.128109,111.020338 205.285319,109.618528 L213.178591,39.3193978 C214.118578,39.4563188 215.058565,39.5932397 216.001827,39.7334207 L208.121657,109.93475 C207.964446,111.33656 208.992864,112.519948 210.509289,112.689469 C212.02899,112.85899 213.293223,111.929884 213.450434,110.528074 L221.307678,40.5353863 C222.247665,40.6820873 223.187652,40.8287883 224.130914,40.9787494 L216.286771,110.841036 C216.129561,112.246106 217.157979,113.429494 218.674404,113.595756 C220.194104,113.765277 221.458338,112.83617 221.615548,111.43436 L229.426939,41.8361354 C230.366927,41.9926165 231.306914,42.1490975 232.246901,42.3088387 L224.451886,111.750583 C224.294675,113.152392 225.319818,114.335781 226.839518,114.505302 C228.359219,114.674823 229.623452,113.745717 229.780663,112.343907 L237.53965,43.221645 C238.479638,43.3879062 239.416349,43.5541673 240.356337,43.7236885 L232.617,112.660129 C232.45979,114.061939 233.484933,115.245327 235.004633,115.414848 C236.524333,115.581109 237.788567,114.652003 237.945777,113.250193 L245.639261,44.6919153 C246.579248,44.8679565 247.51596,45.0439977 248.452672,45.223299 L240.782115,113.566415 C240.624904,114.968225 241.650047,116.151613 243.169747,116.321135 C244.689448,116.490656 245.953681,115.561549 246.110892,114.159739 L253.73232,46.2469461 C254.672307,46.4360274 255.605744,46.6218487 256.542456,46.81093 L248.947229,114.472702 C248.790019,115.877771 249.815162,117.06116 251.334862,117.230681 C252.854562,117.396942 254.118796,116.467836 254.276006,115.066026 L261.815554,47.8965176 C262.752266,48.092119 263.685703,48.2909804 264.61914,48.4898417 L257.112344,115.382248 C256.955133,116.784058 257.980276,117.967446 259.499976,118.136967 C261.016402,118.306488 262.280635,117.377382 262.437846,115.975572 L269.885688,49.6341097 C270.8224,49.8427512 271.755836,50.0513926 272.689273,50.2600341 L265.277458,116.291794 C265.120248,117.693604 266.145391,118.876992 267.665091,119.046514 C269.181516,119.216035 270.44575,118.283668 270.60296,116.881858 L277.945995,51.4727625 C278.882707,51.6911841 279.816144,51.9128656 280.74303,52.1345472 L273.439297,117.198081 C273.282087,118.59989 274.310505,119.783279 275.830205,119.9528 C277.346631,120.122321 278.610864,119.193215 278.768075,117.791405 L285.993202,53.4189961 C286.929914,53.6537177 287.860075,53.8884394 288.786962,54.123161 L281.604412,118.107627 C281.447202,119.509437 282.47562,120.692825 283.992045,120.862346 C285.511745,121.031867 286.775979,120.102761 286.933189,118.697691 L294.027308,55.4858505 C294.96402,55.7336122 295.894181,55.984634 296.817792,56.2356557 L289.769526,119.013913 C289.612316,120.415723 290.640734,121.599111 292.157159,121.768633 C293.67686,121.938154 294.941093,121.009047 295.098304,119.607237 L302.048313,57.6863658 C302.985025,57.9536877 303.908636,58.2210096 304.828971,58.4883314 L297.934641,119.92346 C297.777431,121.325269 298.802573,122.508658 300.322274,122.678179 C301.841974,122.8477 303.106208,121.918594 303.263418,120.516784 L310.049666,60.0466223 C310.983103,60.3335043 311.909989,60.6203863 312.82705,60.9072683 L306.099755,120.829746 C305.942545,122.231556 306.967688,123.418204 308.487388,123.584465 C310.007089,123.753986 311.271322,122.82488 311.428533,121.42307 L318.031369,62.5959601 C318.964805,62.9056622 319.888417,63.2186244 320.798927,63.5315866 L314.26487,121.739292 C314.10766,123.141102 315.132802,124.32449 316.652503,124.494012 C318.172203,124.663533 319.436437,123.734426 319.593647,122.332616 L325.986869,65.3800195 C326.920306,65.7223219 327.837367,66.0678843 328.741326,66.4134467 L322.429984,122.645579 C322.272774,124.047388 323.297917,125.234037 324.817617,125.400298 C326.334042,125.569819 327.598276,124.640713 327.755486,123.238903 L333.903068,68.4803011 C334.836504,68.8682438 335.753565,69.2627065 336.644424,69.6539093 L330.595099,123.555125 C330.437889,124.956935 331.463031,126.140323 332.982732,126.309844 C334.499157,126.479365 335.76339,125.550259 335.920601,124.148449 L341.770137,72.0369859 C342.700299,72.4966491 343.607534,72.9628323 344.485292,73.4322756 L338.756938,124.461411 C338.599728,125.863221 339.628146,127.049869 341.147846,127.219391 C342.664271,127.385652 343.928505,126.456545 344.085715,125.054735 L349.548776,76.3891162 C350.501864,77.0085205 351.392723,77.6279248 352.211527,78.2473292 L346.922053,125.370958 C346.764842,126.772767 347.79326,127.956156 349.312961,128.125677 C350.829386,128.295198 352.093619,127.366092 352.25083,125.964282 L357.081774,82.9352418 C358.398411,84.7478145 358.971574,86.4854066 358.788162,88.121938 L354.45505,126.730387 C354.333867,127.802935 355.113369,128.771161 356.190915,128.891782 L358.935546,129.198224 C361.208547,129.449246 363.343988,127.985496 363.90405,125.794761 C368.453325,107.936356 370.821307,89.4259471 370.94904,70.7753571 L370.94904,70.7753571 Z" id="Fill-61" fill="#000000"></path>
                            </g>
                            <g id="Group-3" transform="translate(124.748235, 153.740073) rotate(56.000000) translate(-124.748235, -153.740073) translate(67.248235, 42.740073)">
                                <path d="M114.002364,30.8255627 L114.002364,27.8797681 L113.907817,27.707252 C113.017769,26.1220564 111.612603,24.4489753 109.72818,22.7303239 C107.23409,11.0708365 98.4672844,2.35063361 87.3335388,0.485506229 C86.5804216,0.358560386 85.7784007,0.439935927 85.0155028,0.716612764 L3.620161,30.265699 L3.11156237,30.4512352 L3.20610955,33.3905197 L0.134956305,34.783669 L0.134956305,38.1688914 L0.682677903,38.3218774 C9.96460284,40.9031096 20.7821044,48.5393903 33.7513694,61.6668924 L34.1002159,62.0184348 L43.6625221,58.284925 C41.7487568,62.9916862 42.9126652,67.6658973 44.9698814,70.933939 C43.9918071,71.3570918 43.2484707,72.2033974 42.9289664,73.3393999 C42.9224459,73.3654401 42.9191857,73.3914803 42.9126652,73.4175205 L42.8572409,73.4077554 C42.8409397,73.5216812 42.8474602,73.6323519 42.8442,73.7462777 C42.5670789,75.2728828 43.0137328,77.1998556 44.5656107,78.7004205 C42.818118,79.823403 42.0063163,81.9684622 42.475792,84.5041241 C47.150987,105.375323 44.3080511,126.282326 41.5564022,146.502521 C38.077718,172.083736 34.7913884,196.242506 46.9586324,217.790749 C49.4331604,221.358253 53.2835128,221.833486 56.3709673,221.849761 C59.448641,221.833486 63.3022537,221.358253 65.8159046,217.732159 C77.9440257,196.242506 74.6576961,172.083736 71.1790119,146.502521 C68.4273629,126.282326 65.584427,105.375323 70.2661426,84.4748289 C70.732358,81.939167 69.9009949,79.7843427 68.1208997,78.6678703 C69.679298,77.0143193 70.086829,74.7618444 69.6108328,73.1506087 C69.2913285,72.0797066 68.6034163,71.3017564 67.6938072,70.9144088 C70.3411283,66.6828808 71.4691739,60.1435423 66.5462001,54.2779934 C65.1834166,52.6569926 66.3440647,51.0164617 68.3067338,48.6630811 L114.002364,30.8255627" id="Fill-114" fill="#FFFFFE"></path>
                                <path d="M49.1103959,97.6837066 C50.0982509,106.983303 49.9841422,116.185249 49.4201194,125.198404 C48.8528363,134.221324 47.8258583,143.074983 46.860825,151.886326 C45.899052,160.69767 44.9829224,169.482973 44.6568976,178.378947 C44.3341331,187.268411 44.6079939,196.288076 46.1403103,205.385862 C43.753809,196.382472 42.8344192,187.206566 42.7463925,178.186901 C42.6616261,169.154216 43.3821408,160.251732 44.3536946,151.427368 C45.3252484,142.596495 46.5543617,133.824212 47.5356963,124.928237 C48.5105103,116.035518 49.2538468,106.996323 49.1103959,97.6837066 Z M56.5991846,87.1341815 C58.9954666,87.0072357 61.3754474,86.6622034 63.872797,85.9395886 C59.5529689,88.9732688 53.7823307,89.2401805 49.1951623,86.6426733 C51.7772784,87.1406916 54.2029026,87.2448523 56.5991846,87.1341815 Z M63.4163624,178.216196 C63.3283357,167.217478 62.937106,156.21876 62.0079354,144.578803 C65.0171439,155.899768 66.5103373,167.119828 66.598364,178.310592 C66.6798702,189.498101 65.3496892,200.669335 62.5100135,211.882885 C63.25335,200.220142 63.4848276,189.218169 63.4163624,178.216196 Z M65.0204042,123.473243 C66.1288884,135.318266 67.9350655,146.964734 69.1837404,158.725127 C70.4617574,170.45948 71.1072865,182.398899 69.7705849,194.344828 L69.5260664,196.584283 L69.3989167,197.704011 L69.1967814,198.813973 C68.9229206,200.295008 68.6490598,201.776043 68.3784592,203.260333 C68.1208997,204.741367 67.7981351,206.222402 67.361262,207.696927 C66.94069,209.171452 66.4092697,210.632957 65.7148369,212.035871 C65.0073632,213.42902 64.1270963,214.763579 63.0023109,215.886561 C61.897087,217.016054 60.475619,217.91444 58.9661244,218.366888 C57.4566297,218.851886 55.8330264,218.965812 54.2844088,218.656585 C53.5117301,218.487324 52.7683937,218.197627 52.0935224,217.800514 C51.4251717,217.380616 50.8513681,216.833773 50.3851527,216.215319 C50.9100525,216.801222 51.5229791,217.282966 52.2076311,217.641018 C52.9020638,217.969775 53.6388798,218.178097 54.3887367,218.285512 C55.8949711,218.448263 57.4175068,218.204137 58.7835505,217.634508 C61.5743225,216.534311 63.3968009,213.992139 64.4987646,211.323021 C65.0530067,209.972187 65.4540171,208.556253 65.7702611,207.117533 C66.0962859,205.682069 66.3147225,204.210799 66.4875156,202.733019 C66.6798702,201.261749 66.8722248,199.793735 67.0613192,198.32572 C67.1037024,197.957902 67.1689074,197.596595 67.1949893,197.225523 L67.2634545,196.118815 L67.4036452,193.911911 C68.1795841,182.138497 67.2601943,170.469245 65.9952182,158.816267 C64.7595844,147.15678 63.2109668,135.454977 62.6436837,123.492773 C62.1187838,111.556609 62.6599849,99.2786672 65.7278779,87.3099527 C63.6869629,99.5423239 63.9738647,111.644494 65.0204042,123.473243 Z M68.1208997,82.7496674 C68.0556947,81.9814823 67.7720532,81.0993715 66.8983068,80.5688029 C65.307306,81.5160142 61.7079926,83.2183905 56.367707,83.2183905 C51.0339419,83.2183905 47.4281081,81.5160142 45.8371073,80.5688029 C44.3373934,81.480209 44.5656107,83.4527521 44.6731989,84.041911 C49.4299001,105.277672 46.557622,126.389742 43.779891,146.805238 C40.3533708,171.999105 37.1159449,195.796568 48.8397953,216.573371 C50.6818352,219.219704 53.681263,219.594031 56.3709673,219.607051 C59.0574113,219.594031 62.0568391,219.213193 63.8956188,216.573371 C75.6162089,195.796568 72.378783,171.999105 68.9522628,146.805238 C66.1745318,126.389742 63.3055139,105.277672 68.0622152,84.041911 C68.1078587,83.7912743 68.1665431,83.3127862 68.1241599,82.7757076 C61.3526256,87.65824 51.969633,87.7851859 45.0676888,83.0881897 C48.940863,84.7059354 52.8629409,85.3146245 56.736115,85.252779 C60.5636457,85.1714035 64.3879161,84.4227485 68.1208997,82.7496674 Z M65.3985929,55.2382248 C70.1357327,60.8791772 68.613197,67.2232143 65.8680686,70.943704 C64.4074776,72.9292672 61.0396419,75.2468426 56.367707,75.2468426 L56.2829406,75.2468426 C51.6077455,75.2468426 48.24317,72.9292672 46.7793188,70.943704 C45.9577364,69.8304867 42.0878225,63.9877229 45.6936564,57.4906997 L46.3913494,57.2205329 C45.7164781,58.7569031 45.3285086,60.4039441 45.2665639,62.0640051 C45.1654963,64.5117813 45.7882035,66.9790877 47.0368784,69.0492815 C47.0368784,69.0492815 47.255315,69.430119 47.6400242,69.9671976 C48.0182129,70.5042761 48.585496,71.1748106 49.2245045,71.7704795 C50.4862203,72.9911126 52.0641802,73.7527877 52.1000429,73.6746672 C52.1456864,73.5932916 50.7633414,72.7209458 49.6907199,71.5230979 C48.5887562,70.3545451 47.835639,68.9483758 47.835639,68.9483758 C46.7010729,66.9107323 46.189214,64.5703717 46.3750481,62.2853466 C46.5478412,60.1728375 47.2781367,58.1221739 48.4616066,56.4100325 L60.3354284,51.7748818 C60.3256476,51.8269621 60.3060861,51.8757874 60.2995656,51.9246128 C60.159375,52.712328 60.2669632,53.464238 60.4299756,54.1575576 C60.7755618,55.5311767 61.3819679,56.774595 62.0535789,57.9333827 C62.7154091,59.0889153 63.4065816,60.1826026 63.8336741,61.3641754 C64.2640267,62.5262182 64.3781354,63.8054416 64.2216435,65.058625 C64.2216435,65.058625 64.1760001,65.514328 64.0064672,66.1881175 C63.8304138,66.8553969 63.504389,67.7309977 63.0251326,68.531733 C62.5523967,69.3357234 61.9296895,70.0485731 61.4113101,70.5270613 C60.896191,71.0185695 60.4853998,71.2692062 60.5180022,71.3245416 C60.5310432,71.3473267 60.9711767,71.1813206 61.5351995,70.7679329 C62.1090031,70.3675652 62.8001756,69.7198159 63.3544177,68.9581409 C63.9151802,68.1997208 64.3357522,67.3403951 64.5639695,66.6666056 C64.8052278,65.9960712 64.8965148,65.5273481 64.8965148,65.5273481 C65.1997178,64.160239 65.1768961,62.7084994 64.8052278,61.3283702 C64.4172584,59.9547511 63.7326064,58.734118 63.1229401,57.5525451 C62.5067533,56.3774823 61.9851137,55.1796344 61.7275541,53.9524912 C61.5971442,53.3503122 61.5612815,52.7481332 61.6721299,52.2208197 C61.7666771,51.7325665 62.0079354,51.3289438 62.3470011,50.9904216 L62.6045607,50.8895159 C62.2850564,51.7586067 62.2165912,52.6569926 62.2948372,53.5260834 C62.490452,55.3456405 63.3935406,56.7941251 64.1466578,58.1872743 C64.531367,58.883849 64.899775,59.5706585 65.1801563,60.2769982 C65.4605376,60.9833379 65.6594127,61.7254828 65.7735214,62.4806479 C66.004999,63.9942329 65.8843698,65.5664083 65.4377159,67.0409331 C65.4377159,67.0409331 65.2877445,67.5845217 64.9356377,68.3494518 C64.5867913,69.1176369 63.9836454,70.0876334 63.2240078,70.933939 C62.4611098,71.7802446 61.554761,72.4963494 60.8212053,72.9487974 C60.0876496,73.4045004 59.5497087,73.6388619 59.5692702,73.6876873 C59.5823112,73.7234925 60.1300328,73.5802715 60.8929307,73.2124541 C61.6525684,72.8511467 62.6143414,72.2261826 63.4359238,71.4384673 C64.2705472,70.6605172 64.951939,69.729581 65.3757712,68.977671 C65.7996034,68.229016 66.0017387,67.6886824 66.0017387,67.6886824 C66.624446,66.113252 66.8787453,64.3880905 66.7385547,62.6889692 C66.6309665,60.9865929 65.9984785,59.3102568 65.2388408,57.8552621 C64.5085453,56.3937574 63.7228256,54.9550379 63.6119772,53.5130633 C63.4750468,52.0678337 64.0162479,50.5216984 65.1410333,50.0204251 L65.0921296,49.9195195 L65.5876873,49.7274732 C64.4368199,51.4298495 63.7912908,53.3242721 65.3985929,55.2382248 Z M68.7990312,84.1786219 C64.0651516,105.310222 66.927649,126.353937 69.6955993,146.704332 C73.1384207,172.0284 76.3921478,195.946299 64.5476683,216.937933 C62.477411,219.922788 59.2465057,220.339431 56.3709673,220.355706 C53.4856481,220.339431 50.258003,219.922788 48.2236085,216.996524 C36.3432662,195.946299 39.5969933,172.0284 43.0398148,146.704332 C45.807765,126.353937 48.6702624,105.310222 43.9429034,84.2046621 C43.6299196,82.5218159 44.0081084,80.5199776 45.87297,79.7094772 C47.0010157,80.4353471 50.6687942,82.4729906 56.367707,82.4729906 C62.0829211,82.4729906 65.7539599,80.425582 66.8624441,79.7094772 C68.7273057,80.5199776 69.1022342,82.5218159 68.7990312,84.1786219 Z M67.4069054,72.6298052 L67.4134259,72.6298052 L67.4166862,72.6330603 L67.4199464,72.6330603 C67.4101657,72.6298052 67.4101657,72.6298052 67.4069054,72.6298052 Z M67.4069054,72.6298052 C67.4101657,72.6298052 67.4166862,72.6330603 67.4199464,72.6330603 C67.4166862,72.6330603 67.4134259,72.6298052 67.4069054,72.6298052 Z M68.2121866,73.7625528 L68.1013382,73.7267475 C68.1274202,73.7007073 68.1567624,73.6616471 68.1861046,73.6323519 C68.1958854,73.6746672 68.2024058,73.7202375 68.2121866,73.7625528 Z M66.7972391,72.1838673 C67.0776204,72.2424577 67.2993173,72.3596384 67.4851514,72.5028594 C67.4753706,72.5158795 67.4688501,72.5321546 67.4460284,72.5484297 C67.4069054,72.5842349 67.3677825,72.6037651 67.3417005,72.6135301 C67.309098,72.6070201 67.269975,72.60051 67.2145508,72.58749 C67.2178111,72.590745 67.2178111,72.6070201 67.2047701,72.6363153 C67.1591266,72.7600061 66.8265814,73.0627231 66.5951038,73.2970847 C66.0832449,73.7788279 65.545304,74.2377859 64.9715005,74.6544287 C63.8238933,75.4877142 62.5589172,76.1712688 61.2189555,76.6855622 C61.2189555,76.6855622 60.2474017,77.0696547 59.2236839,77.3300564 C58.2097469,77.6099883 57.1534267,77.7532093 57.156687,77.8443499 C57.1599472,77.9289804 58.1934457,77.9745507 59.2236839,77.8443499 C60.2571824,77.7336791 61.2645989,77.4537473 61.2645989,77.4537473 C62.7447514,77.0501246 64.1727398,76.4349255 65.5094413,75.6439553 C66.1712716,75.2435876 66.8102801,74.7976496 67.4232067,74.3126514 C67.6416433,74.1108401 67.8502991,73.9773842 68.0882972,73.7365126 C67.8437786,74.6772138 66.9700323,75.5235195 66.0082592,76.2493893 C65.0399657,76.9915342 63.9869057,77.6327735 62.871901,78.160087 C62.871901,78.160087 62.0666199,78.5539446 61.2189555,78.8729367 C60.3778116,79.2049489 59.500805,79.4588406 59.513846,79.5467262 C59.5301472,79.6346117 60.4136743,79.5695113 61.2841604,79.3839751 C62.1546465,79.2082039 63.0023109,78.915252 63.0023109,78.915252 C64.241205,78.4855891 65.4442364,77.9192154 66.5755423,77.2226407 C67.031977,76.9394539 67.4851514,76.6204617 67.9252848,76.2591543 C67.6090408,77.0012993 67.0971819,77.714149 66.334284,78.2609926 C66.2984212,78.2902878 62.6208619,80.9789357 56.367707,80.9789357 C50.1145521,80.9789357 46.4369928,78.2902878 46.3685276,78.2414625 C45.8240663,77.8736451 45.4067546,77.4504922 45.0839901,77.0078093 C45.8305868,77.5318678 46.6228269,77.9810608 47.4509298,78.3391131 C47.4509298,78.3391131 48.1812253,78.6581053 48.9473835,78.8534066 C49.7102814,79.0584729 50.4927408,79.1398485 50.5123023,79.0519629 C50.5318638,78.9640773 49.8374311,78.7134406 49.1853816,78.4009586 C48.5268115,78.0982415 47.9073645,77.7336791 47.9073645,77.7336791 C46.9912349,77.2161307 46.1468308,76.5846565 45.4002341,75.8652967 C44.9666212,75.4681841 44.6014734,74.9864409 44.4156393,74.5405029 C44.4710635,74.5958383 44.529748,74.6511737 44.5819119,74.703254 C45.1850577,75.2826479 45.846888,75.7871762 46.5511015,76.207074 C46.5511015,76.207074 47.0629604,76.513046 47.6172025,76.7311325 C48.1649241,76.955729 48.7419879,77.0891848 48.7713301,77.0078093 C48.8071928,76.9231787 48.3377172,76.6334818 47.9073645,76.3112347 C47.4672311,75.9987526 47.0629604,75.6537203 47.0629604,75.6537203 C46.4598146,75.1622121 45.9153532,74.6023483 45.452398,73.9936593 C45.2144,73.6876873 45.0057441,73.3817152 44.9372789,73.1343336 C44.8818547,72.9585624 44.9111969,72.7925563 44.9535802,72.7144358 C44.9601007,72.7079258 44.9633609,72.7046707 44.9698814,72.6981607 C44.9796621,72.6851406 44.9894429,72.6721205 44.9992236,72.6688655 C45.2404819,72.441014 45.530644,72.2847729 45.8664495,72.2001424 C47.6628459,74.3744968 51.3338847,76.7441526 56.2829406,76.7441526 L56.367707,76.7441526 C61.3298039,76.7441526 65.0073632,74.3614767 66.7972391,72.1838673 Z M1.63140996,37.0393989 L1.63140996,36.1279929 C5.66759649,36.7008767 9.59945511,38.1688914 13.2737542,40.0763341 C17.1990923,42.1530379 20.8864323,44.6952098 24.3096923,47.5466087 C24.3096923,47.5466087 24.4661842,47.6735545 24.7335245,47.9111711 C24.9976046,48.1422777 25.3790535,48.4775449 25.8387484,48.8779125 C26.3049638,49.2685151 26.8103022,49.7665334 27.3645443,50.2873369 C27.9253069,50.8016303 28.49259,51.3810242 29.0533526,51.963673 C30.1944392,53.1224607 31.2409787,54.362624 31.9908357,55.3196003 C32.7309119,56.2830867 33.1775658,56.9666412 33.2264695,56.937346 C33.246031,56.927581 33.1580043,56.7518098 32.9917317,56.4556028 C32.8189386,56.1593959 32.5972417,55.719968 32.2646965,55.2382248 C31.612647,54.2649733 30.6639149,53.015045 29.6304164,51.8399822 C28.6099589,50.6551543 27.504735,49.545192 26.6733718,48.7184165 C25.8159267,47.9144261 25.2453834,47.3806026 25.2453834,47.3806026 C21.8319041,44.285077 18.0891399,41.5443488 14.0692546,39.2397935 C10.7405418,37.348626 7.14774891,35.8187658 3.3463002,34.9692052 L4.12549938,34.6144078 C12.1457085,34.4776969 21.5450023,40.3041856 32.0462599,51.9278678 L32.3853256,52.3054503 L108.873995,23.9835072 C110.26612,25.2692408 111.368084,26.5159141 112.150544,27.7007419 L60.9483549,47.5400987 C60.9483549,47.5400987 35.7205589,57.3344587 35.7825036,57.5004648 C35.8477086,57.6664709 60.0648278,48.6761012 60.0648278,48.6761012 L112.505911,29.1492265 L112.505911,29.8034859 L47.5878602,55.1470842 L47.545477,55.1145339 C47.5291758,55.1373191 47.519395,55.1601042 47.5030938,55.1796344 L34.4718841,60.2672332 C21.7145352,47.4164078 10.9622386,39.8094223 1.63140996,37.0393989 Z M19.2693495,36.9905736 C18.0989206,36.147523 16.8306843,35.4444383 16.8306843,35.4444383 C14.8680152,34.3702812 12.7814568,33.5109555 10.6166524,32.8794813 C13.2607132,33.1887084 15.865651,33.9601485 18.2521523,35.2003117 C18.2521523,35.2003117 18.3499597,35.245882 18.5194926,35.3305126 C18.6857652,35.4249082 18.9237633,35.5583641 19.2074048,35.7211152 C19.4975668,35.8741012 19.8268519,36.0694025 20.1659176,36.297254 C20.5115038,36.5185955 20.8831721,36.749702 21.2320186,37.0166138 C22.6697878,38.0191604 23.9217228,39.2690887 23.9934483,39.2039883 C24.055393,39.151908 22.9827715,37.8206041 21.6688917,36.7171518 C21.3493875,36.4339649 21.0201025,36.1605431 20.6908175,35.9261815 C20.368053,35.69182 20.0746307,35.4509484 19.8007699,35.2849423 C19.262829,34.9333999 18.9009415,34.6990384 18.9009415,34.6990384 C14.7082631,32.1959268 9.6809613,30.9948238 4.71886444,31.4928421 C10.6036114,29.7318754 17.7859368,33.0194472 22.6502263,36.7985273 C27.6970896,40.7240834 31.1203496,45.5480254 31.7658786,49.4280112 C23.5696161,40.6720031 15.9830199,35.4151431 9.12019871,33.7257869 C11.5686447,34.1749799 13.9714471,34.9301449 16.2503602,35.991282 C16.2503602,35.991282 16.5861657,36.141013 17.0817234,36.3883946 C17.5838015,36.6292662 18.2391113,36.9775535 18.88138,37.345371 C20.1789586,38.0712408 21.4048117,38.9273115 21.4634962,38.855701 C21.5156601,38.7906006 20.4528194,37.8206041 19.2693495,36.9905736 Z M85.5273616,2.11952708 C86.045741,1.93073583 86.5869421,1.87540046 87.08576,1.96003102 C91.0860838,2.63056547 94.7603829,4.24180117 97.909782,6.58541673 L87.6889058,11.1196618 C87.6889058,11.1196618 82.1660463,13.5837132 82.2345115,13.7497193 C82.3029767,13.9124704 87.7149878,11.9138871 87.7149878,11.9138871 L99.2008401,7.61725858 C99.738781,8.07296161 100.263681,8.54819476 100.765759,9.04946809 L82.8767803,16.3732667 C82.8767803,16.3732667 80.5913468,17.326988 78.3026529,18.2774544 C77.1615663,18.7689626 76.0237399,19.2572159 75.169555,19.6250333 C74.3186304,19.9993608 73.7578678,20.2662726 73.774169,20.3085878 C73.7904702,20.3509031 74.3577533,20.178387 75.2021575,19.8984551 C76.0400411,19.6055032 77.158306,19.2181556 78.276571,18.830808 C80.5033201,18.0300727 82.7300692,17.2293374 82.7300692,17.2293374 L101.83838,10.2050008 C102.281774,10.7030191 102.705606,11.2173125 103.113137,11.751136 L77.908163,21.691972 C77.908163,21.691972 74.748983,22.9549204 71.5865429,24.2178688 C70.0118433,24.8623631 68.4371437,25.5068574 67.2536738,25.9886006 C66.0767244,26.4833638 65.2975252,26.8283961 65.3138265,26.8674564 C65.3301277,26.9097717 66.1060666,26.6656451 67.2601943,26.2717874 C68.4110617,25.8714198 69.9466383,25.3343412 71.4822149,24.8005177 C74.5403272,23.7035754 77.5984395,22.6098881 77.5984395,22.6098881 L103.996664,12.9912993 C104.355292,13.5218678 104.697618,14.0687114 105.020382,14.6285751 L72.8026152,27.0660127 C72.8026152,27.0660127 68.8022914,28.6251681 64.8052278,30.1843234 C62.8099563,30.9785487 60.8146848,31.7695189 59.3182311,32.3651879 C58.5748947,32.6711599 57.9554476,32.9283066 57.5218347,33.1073328 C57.0882218,33.2928691 56.8469634,33.4067948 56.8534839,33.42958 C56.8632647,33.4491101 57.1110435,33.3807546 57.5381359,33.2440437 C57.9619681,33.1008228 58.5716344,32.8990114 59.3019299,32.6548848 C60.7527401,32.1471014 62.6860669,31.470057 64.6193937,30.7930125 C68.4795269,29.4161383 72.3363998,28.0360092 72.3363998,28.0360092 L105.737637,15.9370938 C106.021278,16.4937025 106.291879,17.0600763 106.539657,17.6394701 C93.4758453,22.3885467 80.4641971,27.2710791 67.5014526,32.2838124 C67.5014526,32.2838124 62.7056284,34.1684699 57.9130644,36.0498724 C55.5265632,37.0133588 53.1368017,37.9801002 51.3469257,38.702715 C50.4568781,39.0770425 49.7135417,39.3895245 49.1951623,39.607611 C48.6767829,39.8322075 48.3866209,39.9689184 48.3931414,39.9884485 C48.4029221,40.0079786 48.6963444,39.9200931 49.204943,39.7475769 C49.7135417,39.5685507 50.4373166,39.311404 51.3078027,39.005432 C53.0389942,38.3739578 55.3472495,37.5309072 57.6555048,36.6911116 C62.2720154,35.0017554 66.8852658,33.3123992 66.8852658,33.3123992 C80.23924,28.4103366 93.6421179,23.638475 107.090639,19.0163443 C107.305816,19.5989931 107.501431,20.1979171 107.680744,20.8033511 C92.3771419,26.2880625 77.1354843,31.935525 61.9622919,37.7587587 C61.9622919,37.7587587 56.4361722,39.910328 50.9100525,42.0618973 C48.1584036,43.1620946 45.4067546,44.2655469 43.3430178,45.0890674 C42.3160398,45.5154752 41.4585947,45.8702726 40.8587092,46.1209092 C40.2620839,46.3748009 39.9262783,46.5277869 39.9327988,46.5473171 C39.9425796,46.5701022 40.2783851,46.4626865 40.8652297,46.2608752 C41.448814,46.0525538 42.2801771,45.7563468 43.2810731,45.3982944 C45.2730844,44.6724246 47.9301862,43.6991732 50.587288,42.7259217 C55.9014916,40.7794188 61.212435,38.8361709 61.212435,38.8361709 C76.7670763,33.130118 92.3869226,27.6030913 108.062193,22.2485807 C108.094796,22.3852916 108.130658,22.5187475 108.160001,22.6522034 L33.3633999,50.3491823 C33.1482236,45.8800376 29.3695966,40.1284144 23.5696161,35.6202095 C21.5058794,34.0154839 19.3932389,32.7199853 17.2968997,31.7337137 L18.4282056,30.9557635 C18.4282056,30.9557635 19.4812656,30.2103636 19.3997594,30.0541226 C19.3215135,29.8946265 18.1445641,30.2624439 18.1445641,30.2624439 L15.7613231,31.0631793 C15.7091591,31.0403941 15.6569952,31.020864 15.6048312,31.0013338 L22.066642,28.3224511 C22.066642,28.3224511 26.0897875,26.6363499 26.0278428,26.4703438 C25.9658981,26.3043377 21.9949165,27.554266 21.9949165,27.554266 L13.4791498,30.2852291 C13.3585206,30.2494238 13.2346312,30.2071086 13.1107418,30.1745584 C18.8618186,28.0978546 24.5607314,25.89746 30.2107405,23.5733745 C30.2107405,23.5733745 32.5646393,22.6001231 34.9022368,21.5780463 C36.0694054,21.0670079 37.2300536,20.5429494 38.0972794,20.1360717 C38.9612451,19.725939 39.5317884,19.4394971 39.5122269,19.3971818 C39.4959257,19.3581215 38.9188618,19.5501678 38.0614167,19.8626499 C37.2039716,20.178387 36.0661452,20.5982848 34.9250585,21.0214376 C32.6461454,21.8644882 30.3672324,22.7107938 30.3672324,22.7107938 C23.7195875,25.1813552 17.0165184,27.4956756 10.2580251,29.6244597 C10.1308755,29.6081846 10.0037258,29.5984195 9.87657615,29.5853994 L85.5273616,2.11952708 Z M114.002364,30.8255627 L114.002364,27.8797681 L113.907817,27.707252 C113.017769,26.1220564 111.612603,24.4489753 109.72818,22.7303239 C107.23409,11.0708365 98.4672844,2.35063361 87.3335388,0.485506229 C86.5804216,0.358560386 85.7784007,0.439935927 85.0155028,0.716612764 L3.620161,30.265699 L3.11156237,30.4512352 L3.20610955,33.3905197 L0.134956305,34.783669 L0.134956305,38.1688914 L0.682677903,38.3218774 C9.96460284,40.9031096 20.7821044,48.5393903 33.7513694,61.6668924 L34.1002159,62.0184348 L43.6625221,58.284925 C41.7487568,62.9916862 42.9126652,67.6658973 44.9698814,70.933939 C43.9918071,71.3570918 43.2484707,72.2033974 42.9289664,73.3393999 C42.9224459,73.3654401 42.9191857,73.3914803 42.9126652,73.4175205 L42.8572409,73.4077554 C42.8409397,73.5216812 42.8474602,73.6323519 42.8442,73.7462777 C42.5670789,75.2728828 43.0137328,77.1998556 44.5656107,78.7004205 C42.818118,79.823403 42.0063163,81.9684622 42.475792,84.5041241 C47.150987,105.375323 44.3080511,126.282326 41.5564022,146.502521 C38.077718,172.083736 34.7913884,196.242506 46.9586324,217.790749 C49.4331604,221.358253 53.2835128,221.833486 56.3709673,221.849761 C59.448641,221.833486 63.3022537,221.358253 65.8159046,217.732159 C77.9440257,196.242506 74.6576961,172.083736 71.1790119,146.502521 C68.4273629,126.282326 65.584427,105.375323 70.2661426,84.4748289 C70.732358,81.939167 69.9009949,79.7843427 68.1208997,78.6678703 C69.679298,77.0143193 70.086829,74.7618444 69.6108328,73.1506087 C69.2913285,72.0797066 68.6034163,71.3017564 67.6938072,70.9144088 C70.3411283,66.6828808 71.4691739,60.1435423 66.5462001,54.2779934 C65.1834166,52.6569926 66.3440647,51.0164617 68.3067338,48.6630811 L114.002364,30.8255627 L114.002364,30.8255627 Z" id="Fill-115" fill="#000000"></path>
                            </g>
                        </g>
                    </g>
                </g>
            </g>
        </g>
    </g>
</svg>